<?xml version="1.0" encoding="UTF-8" standalone="no"?>
<!-- Created with Inkscape (http://www.inkscape.org/) -->

<svg
   width="210mm"
   height="297mm"
   viewBox="0 0 210 297"
   version="1.1"
   id="svg1184"
   inkscape:version="1.1.2 (0a00cf5339, 2022-02-04)"
   sodipodi:docname="prosper_meniere_quoi.svg"
   xmlns:inkscape="http://www.inkscape.org/namespaces/inkscape"
   xmlns:sodipodi="http://sodipodi.sourceforge.net/DTD/sodipodi-0.dtd"
   xmlns="http://www.w3.org/2000/svg"
   xmlns:svg="http://www.w3.org/2000/svg">
  <sodipodi:namedview
     id="namedview1186"
     pagecolor="#ffffff"
     bordercolor="#666666"
     borderopacity="1.0"
     inkscape:pageshadow="2"
     inkscape:pageopacity="0.0"
     inkscape:pagecheckerboard="0"
     inkscape:document-units="mm"
     showgrid="false"
     inkscape:snap-global="false"
     inkscape:zoom="0.40567375"
     inkscape:cx="311.82693"
     inkscape:cy="939.17835"
     inkscape:window-width="1920"
     inkscape:window-height="1007"
     inkscape:window-x="0"
     inkscape:window-y="0"
     inkscape:window-maximized="1"
     inkscape:current-layer="layer1" />
  <defs
     id="defs1181" />
  <g
     inkscape:label="Layer 1"
     inkscape:groupmode="layer"
     id="layer1">
    <g
       id="g2478"
       transform="translate(1.0709032,-4.2999935)">
      <path
         sodipodi:nodetypes="cccccssccccccccccccccccscccscccccccccssscccccccccccccccccccccccccccscccccccccccccccsccscccccccsccccscccsscscccccscccccccccccccccccsccccccscccccccccccccccccccccc"
         inkscape:connector-curvature="0"
         id="path1987"
         d="m 82.298426,183.87914 1.9e-5,9e-5 c 0.393896,2.45498 1.569733,1.15682 2.480807,2.06828 0.387727,0.38792 1.482681,3.8941 0.826957,4.55009 -1.260897,1.26142 -4.273258,0.0654 -5.788581,0.82724 -5.679385,2.84084 -16.125362,-4.07852 -16.125362,-8.27294 0,-0.48045 -0.413525,-1.10906 -0.413525,-2.06828 0,-0.25238 0.161054,-1.49333 0,-1.65457 -0.02337,-0.028 -1.273582,-0.79359 -0.826958,-1.24095 0.510925,-0.5113 3.357034,1.19169 3.721234,0.82724 0.374828,-0.37483 -1.500002,-1.08691 -1.653887,-1.24086 -1.319776,-1.32031 -2.563942,-2.23457 -3.307764,-3.72285 -0.2492,-0.49821 -0.04674,-1.28778 -0.413526,-1.65457 -1.116285,-1.11682 -5.535596,-3.2166 -6.20206,-4.55018 -0.584207,-1.16879 -0.663098,-2.56771 -1.240398,-3.72276 -1.005772,-2.01239 -1.943523,-2.64772 -2.894305,-4.55009 -1.58868,-3.17874 -0.793027,-7.47963 1.240408,-9.51389 0.359779,-0.35987 0.739186,-2.39404 1.240418,-2.89552 0.983628,-0.98409 -0.459514,-5.88311 -0.826958,-6.61837 -0.481106,-0.96259 -1.103806,-1.38125 -1.653877,-2.4819 -0.300517,-0.60103 -0.300517,-4.36249 0,-4.9638 0.399878,-0.80013 1.202065,-1.20254 1.653877,-1.65457 0.348095,-0.34772 1.756026,-3.09985 2.067357,-3.72276 0.673848,-1.34844 -0.413526,-5.75346 -0.413526,-7.44561 0,-0.85715 -0.545136,-4.8321 0,-5.37751 2.414544,-2.41554 3.456621,-6.35366 5.7886,-8.68656 0.386231,-0.38605 0.440726,-1.68186 0.826957,-2.06819 1.637735,-1.63849 2.302582,-5.612785 3.721244,-7.032082 1.709568,-1.710279 4.518794,-4.107026 6.202068,-5.791039 0.649639,-0.649639 2.244647,-1.00465 2.894296,-1.654569 1.610898,-1.611572 3.700174,-4.332764 6.615529,-5.79104 0.624681,-0.3122 0.996658,-1.435468 1.653877,-1.654569 2.394186,-0.798261 5.255522,-3.189493 6.615529,-4.550089 0.191153,-0.19162 0.990769,0.125254 1.240408,0 2.517869,-1.259551 3.885018,-2.150258 6.202069,-3.309232 1.408716,-0.704788 3.498413,-0.603837 4.548187,-1.654569 0.19115,-0.19162 0.99075,0.125254 1.24039,0 2.5358,-1.268432 10.0075,-0.413152 13.23106,-0.413152 h 3.72124 c 0.70282,0 2.06734,1.116631 2.06734,0.413152 0,-0.483257 -3.72782,-0.820695 -3.30774,-1.24095 0.9442,-0.944641 8.59119,-2.941415 10.33675,-2.068189 0.94029,0.470171 7.95992,2.999462 8.26943,3.309139 0.5198,0.519711 1.16877,1.582875 1.65387,2.068188 0.1949,0.195359 0.63207,-0.195359 0.82696,0 1.2777,1.278246 1.628,2.869628 2.48082,3.722851 0.27107,0.271072 1.44673,0.206576 1.65389,0.413152 0.63553,0.635617 2.15827,0.917907 2.48082,1.24095 0.65712,0.657117 1.2413,1.241792 2.06737,2.068282 1.21727,1.217769 0.77143,3.667234 2.06734,4.963708 1.28324,1.283761 7.27553,1.487626 9.09637,3.309138 1.01732,1.01783 3.83079,3.418783 4.96163,4.550182 0.36268,0.362676 0.87771,1.705326 1.24042,2.068189 1.5846,1.585305 2.56288,2.56397 4.1347,4.136469 0.20144,0.2019 0.91258,2.56762 1.24041,2.89552 0.90463,0.90482 1.72206,1.7228 2.48082,2.4819 0.58187,0.5814 0.79499,2.03631 1.24042,2.4819 0.27565,0.27575 -0.27565,1.37882 0,1.65457 1.63847,1.63915 0.50336,7.94924 1.24041,8.68656 1.00808,1.00858 1.7601,3.82913 2.06735,4.13647 4.5653,4.56729 1.13122,11.80062 -1.2404,16.54588 -0.52336,1.04709 0.79546,4.16806 0,4.9638 -0.40745,0.40754 -2.00766,4.43063 -2.48083,5.37733 -0.34865,0.69731 0.53,2.77896 0,3.30923 -1.10197,1.10242 -3.41245,-0.93193 -3.72125,-1.24095 -0.48232,-0.48232 0.48242,-2.41292 0,-2.89552 -0.86939,-0.8693 -0.15844,-8.43147 -0.82696,-9.10018 -1.33899,-1.33966 -1.65388,-3.87474 -1.65388,-6.20475 0,-4.57888 -2.04999,-4.92903 -3.72124,-8.27294 -0.61057,-1.2216 0.9281,-4.86257 0,-5.79104 -0.27565,-0.27574 -0.13787,-0.9652 -0.41352,-1.24095 -0.9123,-0.9123 -1.58071,-2.82233 -2.48081,-3.72276 -0.65917,-0.65992 -0.22181,-3.11752 -0.82696,-3.72285 -0.56252,-0.56271 -0.56402,-1.80515 -0.82696,-2.06828 -1.86739,-1.86816 -2.16138,-4.64412 -4.1347,-6.61828 -2.63536,-2.6365 -5.92102,-5.509962 -7.85594,-7.445699 -0.78349,-0.783305 -5.33596,-2.029116 -5.7886,-2.4819 -2.13973,-2.14063 -9.0433,-2.428808 -10.75023,-4.13647 -0.19751,-0.197229 -2.09749,-0.221532 -2.48082,-0.413152 -0.47438,-0.237422 -18.13182,-0.237422 -18.60617,0 -1.4817,0.741243 -3.45104,0.691702 -4.54818,1.240857 -2.70831,1.354801 -4.20288,2.963755 -6.202056,4.963801 -0.712546,0.713201 -2.149351,0.909495 -2.894304,1.65457 -1.74507,1.745799 -4.839379,4.305473 -6.20205,7.031993 -0.606455,1.21337 0.606454,3.3368 0,4.55009 -0.981946,1.9648 -0.955297,4.2649 -2.480826,5.79113 -0.334728,0.33463 0,2.78307 0,3.30914 0,1.50856 1.434412,4.74423 2.067347,5.37742 0.821442,0.82163 -0.126283,3.8839 0.413525,4.9638 0.585143,1.17075 1.939336,4.00841 2.480826,4.55009 0.964756,0.9652 -0.964774,4.82593 0,5.79104 0.836492,0.83658 1.48814,4.79798 2.480807,5.79104 1.12166,1.12214 -1.277424,19.818 -0.413432,20.68234 0.768163,0.76835 1.509246,4.81911 2.067356,5.37743 0.722735,0.72348 5.788577,9.76486 5.788577,9.9275 0,0.67582 0.53336,1.48081 0.82696,2.06829 0.56692,1.13429 -0.86173,4.51522 0,5.37732 1.39764,1.39836 2.69384,7.6463 0.82696,9.51389 -0.20676,0.20658 0.20676,1.03419 0,1.24105 -0.56963,0.57018 -2.20214,0.41315 -3.307765,0.41315 -8.183954,0 -3.95473,-2.71549 -7.855947,-6.61828 -1.538532,-1.53922 -3.737349,-2.91169 -5.375111,-4.55018 h -1.5e-4 c -0.09478,-0.0944 0.206763,-0.50289 0.206763,-1.03391 0,-1.38639 -0.103288,-2.49985 -0.103288,-3.82623 0,-0.37576 0.264996,-1.2274 0.103288,-1.55119 -0.39184,-0.78424 -0.272007,-2.24784 0.103381,-2.9989 0.259482,-0.51971 -0.14292,-2.76812 -0.31005,-3.10238 -0.08226,-0.16544 0.08226,-0.45521 0,-0.62066 -0.242657,-0.48512 -0.07758,-1.29245 -0.310051,-1.75804 -0.558316,-1.11701 -0.686841,-2.30486 -1.240408,-3.41252 -0.07945,-0.15891 -0.02337,-0.46082 -0.103288,-0.62066 -0.330989,-0.66273 -0.698712,-1.29461 -1.033683,-1.96481 -0.03085,-0.0654 0.04861,-0.15704 0,-0.20658 -0.09441,-0.0944 -0.317155,-0.32435 -0.413525,-0.5169 -0.344823,-0.68984 -0.503541,-1.53764 -1.033674,-2.06819 -0.10282,-0.10282 -0.620756,-1.7587 -0.723576,-1.86143 -0.154979,-0.15516 -0.221158,-0.63468 -0.413526,-0.82723 -0.146472,-0.14582 -0.389502,-0.36548 -0.516813,-0.62067 -0.03178,-0.0654 -0.05982,-0.2664 -0.103381,-0.31033 -0.542519,-0.54308 -1.455948,-1.66335 -1.963994,-2.17166 -0.123572,-0.12339 -0.28986,-0.49634 -0.413525,-0.62066 -0.157316,-0.15704 -0.566261,-0.35987 -0.723577,-0.51691 -0.312761,-0.31314 -0.953062,-0.95371 -1.34378,-1.34433 -0.227327,-0.22714 -0.4053,-0.77116 -0.723576,-0.93099 -0.368004,-0.18415 -0.661603,-0.45522 -0.930339,-0.72349 -0.203491,-0.20377 -0.574766,-0.26453 -0.723576,-0.41315 -0.04861,-0.0467 -0.157876,0.0467 -0.206763,0 -0.393148,-0.39259 -0.872105,-0.33276 -1.447133,-0.62066 -1.03028,-0.51504 -2.40944,-1.05812 -3.721253,-0.62066 -0.249667,0.0841 -0.365854,-0.0467 -0.516813,0.10375 -0.06543,0.0654 -0.327343,-0.0467 -0.413526,0 -0.270044,0.1346 -0.551398,0.24116 -0.723576,0.41315 -0.271072,0.27108 -0.927628,0.41129 -1.240398,0.72349 -0.05235,0.0561 -0.345758,0.0374 -0.413526,0.10375 -0.262379,0.26266 -1.434449,1.11224 -1.653878,1.5511 -0.223961,0.44867 -0.469515,0.93959 -0.723576,1.4479 -0.33239,0.66553 -0.491295,1.39667 -0.826957,2.06818 -0.127498,0.25519 0.49924,2.08558 0.413525,2.17157 -0.167317,0.16732 0.0187,0.3767 -0.103288,0.62067 -0.508868,1.01811 -0.604023,2.60145 0.206763,3.41252 0.139088,0.13927 0.08319,0.70385 0.206763,0.82723 0.471572,0.47204 0.363143,1.50053 0.826957,1.96481 0.254154,0.25425 0.896035,0.58608 1.137046,0.82724 0.551866,0.55243 0.625149,1.34947 1.240408,1.96481 0.94637,0.94679 1.866819,1.76412 2.790923,2.68866 0.05982,0.0654 0.146753,0.35146 0.206763,0.41315 0.474283,0.47484 1.052433,1.25965 1.550515,1.75804 0.03459,0.0281 0.06824,0.27295 0.103288,0.31034 0.458953,0.45895 1.197092,0.78424 1.653896,1.24095 0.06917,0.0654 0.13778,-0.0654 0.206763,0 0.266024,0.26639 0.494473,0.70198 0.723576,0.93099 0.04861,0.0467 -0.04861,0.15703 0,0.20657 0.214708,0.21499 0.542612,0.33557 0.826957,0.62067 0.703199,0.70385 1.391536,1.43986 1.964003,2.58528 0.147781,0.29631 1.339462,1.02989 1.653878,1.34442 0.03459,0.0374 0.275465,0.0654 0.310051,0.10376 0.280793,0.28135 0.501577,0.81228 0.826957,1.13757 0.05982,0.0654 0.353516,0.14488 0.413525,0.20657 0.823313,0.8235 2.013198,0.83005 3.307765,0.62067"
         style="vector-effect:none;fill:#000000;fill-opacity:1;stroke:#000000;stroke-width:0.949688;stroke-linecap:round;stroke-linejoin:round;stroke-miterlimit:4;stroke-dasharray:none;stroke-dashoffset:0;stroke-opacity:1" />
      <path
         inkscape:connector-curvature="0"
         id="path1993"
         d="m 73.997192,174.69988 c -0.574206,-0.0654 -1.235043,-0.28509 -1.60802,-0.65805 -0.04113,-0.0467 -0.7218,-0.28322 -0.877152,-0.43932 -0.373987,-0.3739 -0.542612,-0.6889 -0.877059,-1.02372 -0.08787,-0.0841 -0.351179,-0.20471 -0.438577,-0.29257 -0.470918,-0.47111 -0.942593,-0.94306 -1.38874,-1.38939 -0.0243,-0.028 -0.04861,-0.19536 -0.07291,-0.21873 -0.290047,-0.2907 -0.181525,-0.50943 -0.36548,-0.87771 -0.236767,-0.47391 -0.591218,-0.81696 -0.804056,-1.2431 -0.184797,-0.37016 -1.59e-4,-1.09719 -0.219289,-1.53558 -0.155913,-0.3122 0.155914,-0.85808 0,-1.17 -0.196293,-0.39259 -0.292384,-2.43993 -0.292384,-2.99806 0,-0.15143 0.09637,-0.85435 0,-0.95053 -0.198256,-0.1991 -0.111046,-1.02643 -0.292384,-1.38939 -0.12675,-0.25331 0.12675,-0.69731 0,-0.95062 -0.05234,-0.10376 -0.146192,-0.24677 -0.146192,-0.36548"
         style="vector-effect:none;fill:none;fill-opacity:1;stroke:#000000;stroke-width:0.949688;stroke-linecap:round;stroke-linejoin:round;stroke-miterlimit:4;stroke-dasharray:none;stroke-dashoffset:0;stroke-opacity:1" />
      <path
         inkscape:connector-curvature="0"
         id="path1995"
         d="m 64.349037,157.66224 c 0.150118,-0.0561 -0.128713,-0.25425 -0.07291,-0.36548 0.427453,-0.85528 1.668113,-2.29692 2.338933,-2.63249 0.28528,-0.14301 0.905101,-0.028 1.096394,-0.21873 0.138154,-0.13834 1.90104,0.25519 2.265837,0.0748 0.632066,-0.31687 3.381871,0.22901 3.946972,0.51224 0.364639,0.18227 0.87547,0.43745 1.169472,0.73096 0.220596,0.22059 0.523356,0.6702 0.73096,0.87771 0.08506,0.0841 0.09936,0.34492 0.146192,0.43932 0.119178,0.23836 0.653097,0.94586 0.803963,1.09691 0.114879,0.11497 0.202089,0.42157 0.292384,0.51224 0.03646,0.0374 0.207885,0.85434 0.292385,1.02371 0.19648,0.39259 0.609725,0.82911 0.803963,1.02372 0.03458,0.0374 -0.03459,0.11217 0,0.14582 0.276587,0.27668 0.367349,0.66179 0.584768,1.09691 0.04674,0.0935 0,0.33276 0,0.43932 0,0.3066 0.04674,0.92913 -0.07291,1.17001 -0.106746,0.21405 -0.425584,0.86462 -0.511672,0.95062 -0.0673,0.0654 -0.10469,0.76274 -0.146192,0.8048 -0.0701,0.0654 -0.146193,0.27482 -0.146193,0.43933 0,0.11217 -0.180216,0.51691 -0.07291,0.73096 0.266305,0.5328 0.38324,1.18767 0.730961,1.53548 0.03458,0.0374 -0.03459,0.11217 0,0.14582 0.208071,0.20845 0.461664,0.46176 0.657864,0.65805 0.163765,0.16452 0.335289,0.18975 0.511579,0.36642 0.26724,0.26733 0.699928,0.9351 1.023289,1.09681 0.308087,0.15423 0.715444,0.42344 0.950211,0.65805 0.133573,0.13367 0.330521,0.40381 0.511672,0.58515 0.03459,0.0374 -0.0215,0.10282 0,0.14581 0.249293,0.49915 0.506532,1.23796 0.803963,1.53558 0.141612,0.14208 0.170776,0.68236 0.219289,0.73096 0.05235,0.0467 0.417357,0.61599 0.511672,0.80481 0.02524,0.0467 0.07291,0.15703 0.07291,0"
         style="vector-effect:none;fill:none;fill-opacity:1;stroke:#000000;stroke-width:0.949688;stroke-linecap:round;stroke-linejoin:round;stroke-miterlimit:4;stroke-dasharray:none;stroke-dashoffset:0;stroke-opacity:1" />
      <path
         inkscape:connector-curvature="0"
         id="path1997"
         d="m 73.485538,167.02199 c -0.411095,-0.46082 -0.484378,-1.07831 -0.219194,-1.60867 0.0645,-0.129 0.07571,-0.51691 0.146192,-0.65805 0.132077,-0.26453 0.236767,-0.54682 0.36548,-0.80481 0.164419,-0.32902 0.990115,-1.13682 1.242567,-1.38938 0.09254,-0.0935 0.353142,-0.13367 0.438577,-0.21873 0.174982,-0.17573 0.42764,-0.49074 0.584675,-0.80481 0.05421,-0.10749 0.09693,-0.0972 0.146192,-0.14581 0.03365,-0.0281 0.03365,-0.77116 0,-0.80481 -0.272942,-0.27294 -0.695441,-0.49354 -1.023289,-0.65805 -0.166476,-0.0841 -0.410254,0.009 -0.584768,-0.0748 -0.253406,-0.12712 -0.696843,0.12713 -0.950184,0 -0.347626,-0.17386 -0.595237,-0.40754 -0.950192,-0.58514 -0.234618,-0.11778 -0.627953,-0.33557 -0.803963,-0.51223 -0.152081,-0.15237 -0.310705,-0.45709 -0.438576,-0.58515 -0.01496,-0.009 -0.292385,-1.01913 -0.292385,-0.8048"
         style="vector-effect:none;fill:none;fill-opacity:1;stroke:#000000;stroke-width:0.949688;stroke-linecap:round;stroke-linejoin:round;stroke-miterlimit:4;stroke-dasharray:none;stroke-dashoffset:0;stroke-opacity:1" />
      <path
         inkscape:connector-curvature="0"
         id="path1999"
         d="m 133.98226,191.11808 c 0.17414,-0.31594 2.89083,0.003 3.10104,-0.20658 0.45091,-0.45148 3.19889,-0.71881 3.30775,-0.82724 1.29555,-1.2961 8.45061,-1.5639 10.33679,-0.62066 0.47082,0.23555 1.16033,-0.0374 1.65387,0.20658 0.84734,0.42436 2.32864,-0.41316 2.8943,-0.41316 0.3423,0 2.60943,0.129 2.68756,0.20658 0.22321,0.2234 3.10102,1.16757 3.10102,0.62066 0,-0.62066 -1.72562,-1.31264 -2.06735,-1.65457 -0.24125,-0.24116 -0.17227,-0.79265 -0.41352,-1.03409 -0.16508,-0.16545 -0.61655,-0.82537 -1.03367,-1.0341 -0.24125,-0.12058 -2.82165,-1.10681 -3.10104,-0.82723 -1.04164,1.04213 -2.06093,1.54801 -3.51449,2.27504 -0.30276,0.15143 -2.18147,-0.7347 -2.48083,-1.03409 -0.13563,-0.13554 -0.30987,-0.51691 -0.41353,-0.62067 -0.13787,-0.13834 -0.68908,0.13835 -0.82695,0 -0.10329,-0.10375 -1.74325,-0.7375 -2.06735,-0.41315 -0.48457,0.48513 -1.7482,0.46083 -2.48083,0.82724 -0.80153,0.401 -1.65939,0.83004 -2.4808,1.24095 -0.23219,0.11684 -1.08243,0.0467 -1.24042,0.20658 -0.51317,0.51317 -2.06764,0.82724 -2.27409,1.03409 -0.61253,0.61319 -1.74156,1.59503 -2.68757,2.06828 z"
         style="vector-effect:none;fill:none;fill-opacity:1;stroke:#000000;stroke-width:0.949688;stroke-linecap:round;stroke-linejoin:round;stroke-miterlimit:4;stroke-dasharray:none;stroke-dashoffset:0;stroke-opacity:1" />
      <path
         inkscape:connector-curvature="0"
         id="path2001"
         d="m 144.73249,195.87502 c 0.85126,-1.05241 2.10881,-0.86837 2.8943,-1.65457 0.36454,-0.36454 1.79444,0.23929 2.27409,0 0.2148,-0.10749 1.38392,-0.47671 1.65388,-0.20657 0.47354,0.47391 1.10554,0.65618 1.86063,1.03409 0.29818,0.14956 2.68755,0.25705 2.68755,0.62066 0,0.17012 -1.09091,0.67768 -1.24041,0.82724 -0.14619,0.14582 -1.21751,0 -1.44714,0 -1.17821,0 -6.51811,0.66927 -7.44247,0.20658 -0.43063,-0.21593 -0.79836,-0.49635 -1.24043,-0.82724 z"
         style="vector-effect:none;fill:none;fill-opacity:1;stroke:#000000;stroke-width:0.949688;stroke-linecap:round;stroke-linejoin:round;stroke-miterlimit:4;stroke-dasharray:none;stroke-dashoffset:0;stroke-opacity:1" />
      <path
         inkscape:connector-curvature="0"
         id="path2003"
         d="m 140.39105,169.81525 c -0.19059,0.45615 -1.16626,-0.28135 -1.44714,0 -1.94716,1.94808 -1.95811,4.03898 0,5.9979 0.2063,0.20657 0.14227,0.62066 0.6202,0.62066 1.04451,0 2.01058,-0.028 2.8943,0.41315 0.61384,0.30659 2.19275,0 2.89429,0 0.19601,0 1.11556,-0.12525 1.24041,0 0.3681,0.36828 1.19843,0.16451 1.65388,0.62066 0.29407,0.29444 1.81342,0.98689 1.86062,1.0341 1.25861,1.25917 3.69622,1.04662 4.96165,0.41315 1.26185,-0.63095 1.67016,-1.8776 2.68756,-2.89543 0.14218,-0.14208 0.18218,-0.59636 0.41344,-0.82724 0.31491,-0.315 -0.005,-1.23244 0.20676,-1.65457 0.20312,-0.4066 0.45849,-1.77141 0.20676,-2.27504 -0.26107,-0.52252 -1.01513,-0.80854 -1.2404,-1.03409 -0.43811,-0.43839 -0.3608,-2.63595 -0.62019,-2.89552 -0.7935,-0.79359 -0.92726,-2.58229 -1.65388,-3.30924 -0.0974,-0.0981 0.0974,-0.31593 0,-0.41315 -0.72703,-0.72722 -1.50489,-1.7701 -2.06736,-2.89552 -0.2677,-0.5356 -0.11179,-2.59369 -0.41352,-2.89552 -0.13787,-0.13834 -0.0692,-0.48325 -0.20676,-0.62066 -1.20643,-1.20692 -1.52714,-2.97562 -2.48083,-3.92961 -0.18424,-0.18414 -0.0969,-0.60758 -0.20676,-0.82724 -0.15227,-0.30472 -0.27435,-0.27388 -0.41353,-0.41315 -0.10329,-0.10376 0.10329,-0.51691 0,-0.62066 -0.54579,-0.54589 -0.51494,-1.96285 -1.03366,-2.4819 -0.27565,-0.27575 0.27565,-1.37883 0,-1.65457 -1.01006,-1.01045 -1.27276,-3.0376 -0.6202,-4.34333 0.31548,-0.63094 0.18209,-1.42313 0.6202,-1.86143 0.10329,-0.10375 -0.10329,-0.5169 0,-0.62066 0.6,-0.6001 1.28654,-1.28712 2.06734,-2.06828 0.0974,-0.0972 0.31604,0.0982 0.41353,0 1.24967,-1.2502 7.17947,-2.06828 9.30309,-2.06828 0.79434,0 4.13142,-0.82911 4.54818,-0.62066 0.32538,0.16264 0.73003,0.0561 1.03368,0.20657 0.57551,0.2879 0.61524,0.61506 1.03367,1.0341 0.20938,0.20938 0.29332,0.20657 -0.20676,0.20657"
         style="vector-effect:none;fill:none;fill-opacity:1;stroke:#000000;stroke-width:0.949688;stroke-linecap:round;stroke-linejoin:round;stroke-miterlimit:4;stroke-dasharray:none;stroke-dashoffset:0;stroke-opacity:1" />
      <path
         inkscape:connector-curvature="0"
         id="path2005"
         d="m 136.46309,138.79177 c -1.52719,-0.80574 -2.07546,-1.34844 -3.5145,-2.06828 -0.55224,-0.27574 -5.18784,-0.20657 -6.20205,-0.20657 -1.19569,0 -5.55837,-0.42531 -6.40882,0 -0.28593,0.14301 -1.79931,0.35239 -1.86061,0.41315 -0.61029,0.61038 -2.53812,0.54588 -3.51449,1.03409 -0.26098,0.13086 -1.04195,-0.1991 -1.24043,0 -0.32743,0.32716 -1.35896,0.32529 -1.65387,0.62066 -0.54075,0.54121 -1.97005,1.14365 -2.48083,1.65467 -0.23452,0.23461 -1.73373,0.70011 -1.86061,0.82723 -0.2449,0.2449 -0.96565,0.55243 -1.24041,0.82724 -0.55888,0.55897 -1.4148,1.62223 -2.06736,2.27505 -0.25256,0.25237 -0.86173,0.44773 -1.03367,0.62066 -0.15208,0.15236 0.16629,0.37296 0.20676,0.41315"
         style="vector-effect:none;fill:none;fill-opacity:1;stroke:#000000;stroke-width:0.949688;stroke-linecap:round;stroke-linejoin:round;stroke-miterlimit:4;stroke-dasharray:none;stroke-dashoffset:0;stroke-opacity:1" />
      <path
         inkscape:connector-curvature="0"
         id="path2007"
         d="m 111.24139,149.96023 c -0.0692,-0.27574 -0.20677,-0.54308 -0.20677,-0.82724 0,-0.23368 1.22623,-0.6057 1.44715,-0.82723 0.82733,-0.82818 3.62363,-2.32973 5.16838,-3.10238 0.5829,-0.29164 1.81751,-0.37109 2.27409,-0.82724 1.51699,-1.51753 8.95146,-5.243 11.99064,-3.72275 0.91025,0.45521 3.98523,0.88425 4.34144,1.24095 0.1032,0.10375 0,0.8721 0,1.03409 0,0.21686 -0.0832,0.70385 -0.20676,0.82724 -0.95387,0.95417 -2.99955,1.08485 -4.34144,0.41315 -0.51186,-0.25612 -0.88351,-0.0561 -1.24041,-0.41315 -0.17881,-0.17854 -1.37855,-0.13834 -1.65387,-0.41409 -0.20387,-0.2047 -1.52645,-0.0374 -1.86064,-0.20657 -0.69684,-0.34866 -3.21343,0.1131 -3.51448,0.41315 -0.15508,0.15516 -2.69039,0.20844 -3.10104,0.41408 -3.66225,1.83189 -6.51404,2.55332 -9.09635,5.9979 z"
         style="vector-effect:none;fill:#000000;fill-opacity:1;stroke:#000000;stroke-width:0.949688;stroke-linecap:round;stroke-linejoin:round;stroke-miterlimit:4;stroke-dasharray:none;stroke-dashoffset:0;stroke-opacity:1" />
      <path
         inkscape:connector-curvature="0"
         id="path2013"
         d="m 113.20536,150.16709 c 0.23462,-0.98624 1.2248,-1.32882 1.86061,-1.9649 0.071,-0.0748 0.29781,-0.0935 0.41353,-0.20658 0.0355,-0.0374 1.47632,-0.37669 1.75726,-0.5169 0.16479,-0.0841 0.59645,0.028 0.72357,-0.10376 0.36651,-0.36641 1.97291,-0.4225 2.17073,-0.62066 0.12217,-0.12152 2.07375,0.0467 2.37746,-0.10376 0.33005,-0.16544 1.79278,-0.29257 2.17072,-0.10375 0.19077,0.0953 1.94836,0.62066 2.17071,0.62066 0.87706,0 3.20798,1.03587 3.82461,1.34424 0.32248,0.16171 1.81639,1.34442 1.03367,1.34442"
         style="vector-effect:none;fill:none;fill-opacity:1;stroke:#000000;stroke-width:0.949688;stroke-linecap:round;stroke-linejoin:round;stroke-miterlimit:4;stroke-dasharray:none;stroke-dashoffset:0;stroke-opacity:1" />
      <path
         inkscape:connector-curvature="0"
         id="path2015"
         d="m 130.66943,149.38014 c -0.086,-0.12806 -0.14619,-0.27762 -0.25799,-0.38418 -0.11179,-0.10562 0.22836,0.23275 0.25799,0.38418 0.028,0.14769 -0.14788,1.73065 -0.18517,1.79637 -0.83752,1.47986 -1.24816,1.63587 -2.55633,1.99836 -0.2047,0.0561 -0.85995,-0.0654 -0.92323,-0.0467 -0.1804,0.0467 -1.89287,-0.32996 -2.05361,-0.56925 -0.52205,-0.77676 -1.49993,-1.2373 -1.98226,-1.95462 -0.35698,-0.53186 -0.57776,-1.3648 -0.54636,-1.97312 0.009,-0.1748 0.0355,-0.4197 -0.0159,-0.60291 -0.0523,-0.18788 0.31884,-0.49353 0.26659,-0.68048 -0.0122,-0.0467 -0.22387,-0.54495 -0.0159,-0.6029 0.4181,-0.11591 2.47977,0.6029 2.51534,0.59262 0.27985,-0.0748 1.92187,0.37669 2.38634,0.401 0.24303,0.009 2.40559,0.74311 2.49149,1.05475 0.0561,0.20097 0.35361,0.43745 0.61776,0.58795 z"
         style="vector-effect:none;fill:#000000;fill-opacity:1;stroke:#000000;stroke-width:0.949688;stroke-linecap:round;stroke-linejoin:round;stroke-miterlimit:4;stroke-dasharray:none;stroke-dashoffset:0;stroke-opacity:1" />
      <path
         inkscape:connector-curvature="0"
         id="path2017"
         d="m 113.92893,151.6148 c 0.1017,0.27949 0.6044,0.19069 0.72357,0.31033 0.49495,0.49541 1.27412,0.74125 2.06735,1.13757 0.36128,0.18041 1.11277,0.0748 1.34378,0.31033 0.1533,0.1533 1.75118,-0.006 2.06736,0.31033"
         style="vector-effect:none;fill:none;fill-opacity:1;stroke:#000000;stroke-width:0.949688;stroke-linecap:round;stroke-linejoin:round;stroke-miterlimit:4;stroke-dasharray:none;stroke-dashoffset:0;stroke-opacity:1" />
      <path
         inkscape:connector-curvature="0"
         id="path2019"
         d="m 148.35036,147.58171 c 0.36464,0.12058 -0.3379,-0.38604 -0.20676,-0.5169 0.61328,-0.61319 1.27313,-1.27367 1.86063,-1.86143 0.0346,-0.0374 0.0692,-0.27574 0.10329,-0.31033 0.26144,-0.26079 0.50765,-0.60197 0.72358,-1.03409 0.0617,-0.12339 0.24807,-0.18602 0.31014,-0.31034 0.0318,-0.0654 0.0598,-0.26639 0.10329,-0.31033 0.54822,-0.54868 1.16499,-1.06204 1.75726,-1.65457 0.0336,-0.028 0.81929,-0.358 0.93033,-0.41315 0.44569,-0.2234 0.80032,-0.60757 1.24041,-0.82723 0.34137,-0.17106 1.0293,-0.20284 1.24042,-0.41316 0.086,-0.0841 0.43073,0.0841 0.51681,0 0.36446,-0.36454 3.61818,-0.41408 4.54818,-0.41408 1.29481,0 2.23103,0.41408 3.5145,0.41408 0.1804,0 1.16081,-0.38978 0.82695,-0.72348 -0.41549,-0.41502 -1.39853,-0.57206 -1.86061,-1.03409 -0.0654,-0.0654 -0.32744,0.0467 -0.41352,0 -0.55505,-0.27762 -2.97054,-0.75153 -3.5145,-0.20658 -0.13591,0.13647 -0.92483,-0.003 -1.13704,0.10376 -0.26976,0.1346 -1.6638,0.005 -2.27409,0.31033 -0.16545,0.0841 -0.45484,-0.0841 -0.6202,0 -0.21919,0.10936 -0.51522,-8.4e-4 -0.72357,0.10375 -0.8336,0.41689 -1.49458,0.15143 -2.27408,0.931 -0.0486,0.0467 -0.15797,-0.0467 -0.20677,0 -0.46989,0.47017 -1.15305,0.94669 -1.55051,1.34433 -0.0598,0.0654 -0.14685,0.35333 -0.20676,0.41315 -0.28024,0.28042 -0.52215,0.41876 -0.72358,0.62066 -0.0486,0.0467 0.0486,0.15797 0,0.20658 -0.17788,0.1776 -0.52336,0.52345 -0.72358,0.72348 -0.13553,0.13554 -0.56682,1.39443 -0.62019,1.44781 -0.35548,0.35613 -0.40306,1.43733 -0.6202,1.65457 -0.13787,0.13834 0.13788,0.68983 0,0.82723 -0.0402,0.0467 -0.22545,0.47017 -0.20676,0.51691 0.058,0.14301 0.13787,0.27575 0.20676,0.41315 z"
         style="vector-effect:none;fill:#000000;fill-opacity:1;stroke:#000000;stroke-width:0.949688;stroke-linecap:round;stroke-linejoin:round;stroke-miterlimit:4;stroke-dasharray:none;stroke-dashoffset:0;stroke-opacity:1" />
      <path
         inkscape:connector-curvature="0"
         id="path2021"
         d="m 149.28067,148.09881 c 0,-0.13834 -0.0336,-0.27949 0,-0.41315 0.002,-0.006 1.06133,-1.16515 1.13705,-1.24095 0.21387,-0.21406 -0.008,0.32715 0.20676,-0.10376 0.20966,-0.41969 1.1837,-1.28769 1.75725,-1.86143 0.1776,-0.17759 1.56663,-0.21498 1.75726,-0.31033 0.63683,-0.31781 2.17594,-0.62066 2.99766,-0.62066 0.2635,0 1.41228,-0.34585 1.65388,-0.10375 0.15329,0.15329 0.95224,0.12525 1.13704,0.31033 0.30052,0.30098 1.22179,0.62066 1.75725,0.62066 0.22434,0 2.4381,0.99138 2.48084,1.03419 0.33734,0.33744 0.61346,0.51036 1.03366,0.93099 0.18592,0.18601 1.03368,1.402 1.03368,1.03409"
         style="vector-effect:none;fill:none;fill-opacity:1;stroke:#000000;stroke-width:0.949688;stroke-linecap:round;stroke-linejoin:round;stroke-miterlimit:4;stroke-dasharray:none;stroke-dashoffset:0;stroke-opacity:1" />
      <path
         inkscape:connector-curvature="0"
         id="path2023"
         d="m 150.83119,150.16709 c 0.56504,-1.23067 1.36123,-1.87891 2.17073,-2.68876 0.3666,-0.36641 1.23572,-0.35987 1.75724,-0.62066 0.19293,-0.0963 0.53064,0.0963 0.72357,0 0.42175,-0.21125 1.11681,-0.0467 1.44715,-0.20658 0.27892,-0.13927 1.26093,0.0841 1.44714,-0.10375 0.1804,-0.1804 0.75451,-0.14021 1.03368,0 0.13787,0.0654 0.37904,-0.0654 0.51682,0 0.21919,0.10936 0.49802,0.18788 0.62019,0.31033 0.0823,0.0841 0.40838,-0.0561 0.51681,0 0.47429,0.23742 1.76542,0.62907 2.06735,0.93099 0.18078,0.18041 0.50391,0.60758 0.72358,0.82724 0.22087,0.2206 1.03368,0.46456 1.03368,0.93099"
         style="vector-effect:none;fill:none;fill-opacity:1;stroke:#000000;stroke-width:0.949688;stroke-linecap:round;stroke-linejoin:round;stroke-miterlimit:4;stroke-dasharray:none;stroke-dashoffset:0;stroke-opacity:1" />
      <path
         inkscape:connector-curvature="0"
         id="path2025"
         d="m 164.88919,151.40795 c -0.50746,0.96193 -1.65728,1.14102 -2.27409,1.75804"
         style="vector-effect:none;fill:none;fill-opacity:1;stroke:#000000;stroke-width:0.949688;stroke-linecap:round;stroke-linejoin:round;stroke-miterlimit:4;stroke-dasharray:none;stroke-dashoffset:0;stroke-opacity:1" />
      <path
         inkscape:connector-curvature="0"
         id="path2027"
         d="m 162.09827,149.65 c -0.0402,1.15794 -1.27103,1.2716 -1.96398,1.9648 -0.0486,0.0467 -0.15797,-0.0467 -0.20677,0 -0.0897,0.0935 -0.24761,0.41315 -0.51681,0.41315"
         style="vector-effect:none;fill:none;fill-opacity:1;stroke:#000000;stroke-width:0.949688;stroke-linecap:round;stroke-linejoin:round;stroke-miterlimit:4;stroke-dasharray:none;stroke-dashoffset:0;stroke-opacity:1" />
      <path
         inkscape:connector-curvature="0"
         id="path2029"
         d="m 158.66474,147.04574 c -0.28145,0.32342 0.34903,0.93286 0.1775,1.12841 -0.13992,0.15984 -0.43829,0.50008 -0.57831,0.65992 -0.0458,0.0561 0.0598,0.15423 0.014,0.20657 -0.33679,0.38418 -0.50635,1.15328 -0.94359,1.40902 -0.27584,0.16171 -0.88584,0.45615 -1.09403,0.69357 -0.0897,0.10282 -0.86275,0.15984 -1.02469,0.17106 -0.24985,0.0187 -0.80564,0.16264 -1.03147,0.0654 -1.15815,-0.487 -1.90774,-0.97343 -2.51435,-2.01136 -0.26116,-0.4468 0.87183,-0.93856 1.17014,-1.11308 0.65814,-0.38511 1.30273,-0.8693 1.98854,-1.27039 0.23369,-0.13647 3.36178,-0.45428 3.50022,-0.33277 0.12956,0.11404 0.22443,0.26173 0.33641,0.39259 z"
         style="vector-effect:none;fill:#000000;fill-opacity:1;stroke:#000000;stroke-width:0.949688;stroke-linecap:round;stroke-linejoin:round;stroke-miterlimit:4;stroke-dasharray:none;stroke-dashoffset:0;stroke-opacity:1" />
      <path
         inkscape:connector-curvature="0"
         id="path2031"
         d="m 101.42146,174.0551 c 0.73217,-0.16545 1.4833,-0.028 2.17071,0.20658 0.36492,0.12151 0.90137,-0.0654 1.2404,0.10375 0.53205,0.2664 1.17859,0.32436 1.75726,0.51691 0.35427,0.11871 0.67806,0.39913 1.03369,0.51691 1.77959,0.59355 3.44477,0.89454 4.34143,2.68866 0.48261,0.96567 0.85229,2.01556 1.34378,2.99899 0.24238,0.48513 0.53261,0.85902 0.72358,1.24096 0.0355,0.0748 0.34735,0.41315 0.31005,0.41315 -0.0692,0 0,-0.13834 0,-0.20658"
         style="vector-effect:none;fill:none;fill-opacity:1;stroke:#000000;stroke-width:0.949688;stroke-linecap:round;stroke-linejoin:round;stroke-miterlimit:4;stroke-dasharray:none;stroke-dashoffset:0;stroke-opacity:1" />
      <path
         inkscape:connector-curvature="0"
         id="path2035"
         d="m 169.74747,157.30246 c 0.24874,0.51784 0.29482,1.43248 0.6202,1.75795 0.16573,0.16638 -0.10908,0.81602 0,1.03409 0.40549,0.81135 0.51681,2.79289 0.51681,3.92971 0,0.42437 -0.15077,1.97313 0,2.27505 0.24967,0.49914 -0.19582,3.70088 -0.41352,4.13647 -0.16227,0.32528 0.13002,2.2484 -0.10329,2.4819 -0.16395,0.16357 -0.11871,0.73937 -0.20676,0.82723 -0.37446,0.37483 -0.43493,1.18038 -0.72358,1.75796 -0.0916,0.18414 0.0243,1.11317 -0.10329,1.24095 -0.12899,0.12899 -0.31005,0.76461 -0.31005,1.03409 0,0.23929 0.008,0.30192 -0.10329,0.41409 -0.0533,0.0561 0,4.27004 0,4.75694 0,0.38605 -0.13722,1.79375 0,2.06819 0.0955,0.19068 0.0131,0.44119 0.10329,0.62066 0.15517,0.31127 0.0851,0.79078 0.20676,1.0341 0.42961,0.85995 0.10329,2.09183 0.10329,3.10237 0,0.46924 0.15423,1.60363 -0.10329,1.86143 -0.16273,0.16264 0.20639,3.30998 0,3.72275 -0.27705,0.5543 -0.58261,2.75457 -0.82695,2.999 -0.007,0.006 -0.13666,0.89454 -0.20677,1.03409 -0.0692,0.13834 0.0692,0.37857 0,0.51691 -0.15367,0.30753 -0.25948,1.50053 -0.41343,1.65466 -0.60028,0.6001 -0.82368,2.47863 -1.34378,2.9989 -0.11562,0.11591 -0.0916,0.60851 -0.20676,0.72349 -0.22265,0.2234 -0.26444,0.78143 -0.51681,1.03409 -0.22341,0.2234 -0.43923,0.74966 -0.6202,0.93099 -0.49952,0.49915 -0.84892,1.07822 -1.13704,1.65457 -0.10114,0.2019 -0.18704,1.01447 -0.31006,1.13748 -0.16684,0.16732 -0.69403,1.49202 -0.93033,1.96481 -0.0308,0.0654 0.0486,0.15796 0,0.20657 -0.26855,0.2692 -0.71162,1.52726 -0.93034,1.9649 -0.0542,0.10843 -0.0243,0.43839 -0.10329,0.51691 -0.2205,0.22059 -0.33034,0.8478 -0.6202,1.13747 -0.43016,0.42998 -0.70095,1.21833 -1.24039,1.75805 -0.36081,0.3608 -1.18234,0.90201 -1.86063,1.24095 -0.23125,0.1159 -1.03481,0.72535 -1.13704,0.82724 -0.13516,0.1346 -1.05253,0.32902 -1.13705,0.41315 -0.38726,0.38791 -1.28708,0.69544 -1.75725,0.93099 -0.21349,0.10656 -0.76713,-0.0654 -0.93034,0.10376 -0.4453,0.44586 -3.98918,0.74498 -4.85828,0.31033 -0.32697,-0.16358 -0.9238,0.006 -1.13705,-0.20658 -0.0178,-0.0187 -2.36596,-0.19536 -2.58419,-0.41315 -0.12544,-0.12525 -0.31257,-0.10469 -0.51681,-0.20658 -0.27089,-0.13553 -0.67404,-0.36361 -0.82696,-0.5169 -0.0486,-0.0467 -0.14507,0.028 -0.20676,0 -0.49653,-0.24864 -1.16208,-0.43933 -1.44714,-0.72349 -0.0785,-0.0748 -0.50411,-0.0467 -0.6202,-0.10375 -1.22088,-0.61132 -2.35491,-1.32181 -3.41114,-2.37852 -0.11805,-0.11871 -0.4181,-0.21125 -0.51681,-0.31033 -0.0692,-0.0654 -0.13787,0.0654 -0.20676,0 -0.5041,-0.50476 -1.42203,-0.70759 -2.06735,-1.13757 -0.65272,-0.43559 -1.23618,-0.89454 -1.96399,-1.13757 -0.19218,-0.0654 -0.33333,-0.32155 -0.51682,-0.41315 -0.11936,-0.0654 -0.54223,-0.12899 -0.62019,-0.20658 -0.20592,-0.20657 -1.19479,-0.85621 -1.55051,-1.03409 -0.60841,-0.30472 -1.44311,-0.51317 -1.86063,-0.93099 -0.0523,-0.0467 -0.25845,0.0467 -0.31005,0 -0.20293,-0.20284 -0.71067,-0.3552 -1.03367,-0.51691 -0.72012,-0.35987 -1.23007,-0.81696 -1.75726,-1.34424 -0.17321,-0.17386 -1.62517,-0.92071 -1.96399,-1.03419 -0.19218,-0.0654 -0.33333,-0.32154 -0.51682,-0.41315 -0.31556,-0.15797 -1.19544,-0.57579 -1.34378,-0.72348 -0.15965,-0.15984 -0.36118,-0.38791 -0.62019,-0.51691 -0.47335,-0.23742 -0.97374,-0.48699 -1.44715,-0.72348 -0.18049,-0.0935 -0.0149,-0.24677 -0.20676,-0.31033 -0.48484,-0.16171 -1.24103,-0.62066 -1.55052,-0.93099 -0.11768,-0.11778 -1.06972,-0.44961 -1.13705,-0.51691 -0.52532,-0.52532 -1.56012,-1.09065 -2.27408,-1.44771 -0.43016,-0.21499 0.11049,0.006 -0.10329,-0.20658 -0.0346,-0.0374 -0.27565,-0.0654 -0.31005,-0.10376 -0.20844,-0.20844 -0.57299,-0.47017 -0.82696,-0.72348 -0.0346,-0.0374 -0.27565,-0.0654 -0.31005,-0.10375 -0.0636,-0.0654 -0.49793,-0.55991 -0.62019,-0.62067 -0.48569,-0.24303 -0.92314,-0.51036 -1.24042,-0.82723 -0.0523,-0.0467 -0.34566,-0.0374 -0.41352,-0.10376 -0.98639,-0.9868 -2.18904,-1.66373 -3.41114,-2.27514 -0.26285,-0.13086 -0.56056,-0.17666 -0.82696,-0.31033 -0.086,-0.0467 -0.34791,0.0654 -0.41352,0 -0.13788,-0.13834 0.17227,-0.10375 -0.10329,-0.10375 -0.25107,0 -1.66006,-0.4197 -1.75725,-0.51691 -0.0243,-0.028 -0.82696,-0.10189 -0.82696,-0.10375 0,-0.12339 0.43587,-0.27014 0.51682,-0.31034"
         style="vector-effect:none;fill:none;fill-opacity:1;stroke:#000000;stroke-width:0.949688;stroke-linecap:round;stroke-linejoin:round;stroke-miterlimit:4;stroke-dasharray:none;stroke-dashoffset:0;stroke-opacity:1" />
      <path
         inkscape:connector-curvature="0"
         id="path2037"
         d="m 158.37703,218.93589 c 0.13787,-0.0654 0.27042,-0.14956 0.41352,-0.20658 0.24976,-0.10001 0.90464,0.10376 1.24042,0.10376 1.03571,0 3.63667,-0.0654 4.34145,-0.41315 0.80134,-0.401 2.14184,-0.90202 2.68754,-1.4479 0.11806,-0.11778 0.52149,-0.10843 0.6202,-0.20658 0.13002,-0.12993 0.29219,-0.39539 0.41352,-0.5169 0.24948,-0.24958 0.87678,-0.35988 1.13705,-0.62067 0.2377,-0.23742 0.52812,-0.52812 0.72357,-0.72348 0.0916,-0.0935 0.0411,-0.28883 0.10329,-0.41315 0.0823,-0.16358 0.34408,-0.34398 0.41353,-0.41315 0.0346,-0.0374 0.0692,-0.27575 0.10328,-0.31033 0.0757,-0.0748 0.31146,-0.10469 0.41353,-0.20658 0.28565,-0.28603 0.61617,-0.61692 0.93034,-0.93099 0.17956,-0.17947 0.54971,-1.30685 0.72357,-1.65457 0.0411,-0.0841 -0.0411,-0.22714 0,-0.31033 0.33324,-0.66647 0.56365,-1.45753 0.20677,-2.17167 -0.14377,-0.28789 -0.0841,-0.60103 -0.31005,-0.82723 -0.0486,-0.0467 0.0308,-0.14489 0,-0.20658 -0.22107,-0.44306 -0.37679,-1.10083 -0.6202,-1.34433 -0.0785,-0.0748 -0.0449,-0.50476 -0.10338,-0.62066 -0.411,-0.82257 -0.76059,-1.69168 -1.24041,-2.17167 -0.0916,-0.0935 -0.0411,-0.28883 -0.10329,-0.41315 -0.26228,-0.52532 -0.54074,-1.1615 -0.93033,-1.55119 -0.086,-0.0841 -0.0178,-0.32715 -0.10329,-0.41315 -0.19443,-0.19442 -0.50943,-0.35893 -0.82696,-0.5169 -0.1475,-0.0748 -0.12525,-0.20658 -0.31005,-0.20658"
         style="vector-effect:none;fill:none;fill-opacity:1;stroke:#000000;stroke-width:0.949688;stroke-linecap:round;stroke-linejoin:round;stroke-miterlimit:4;stroke-dasharray:none;stroke-dashoffset:0;stroke-opacity:1" />
      <path
         inkscape:connector-curvature="0"
         id="path2039"
         d="m 161.89154,219.34951 c 0.0149,0.45147 -0.15881,0.67581 -0.41353,0.93099 -0.0523,0.0467 -0.0355,0.34585 -0.10329,0.41315 -0.13787,0.13834 -0.27565,0.27575 -0.41343,0.41316 -0.0346,0.0374 -0.27565,0.0654 -0.31014,0.10375 -0.25668,0.25705 -0.48391,0.48419 -0.72358,0.72348 -0.0439,0.0467 -0.33566,0.129 -0.41352,0.20658 -0.0346,0.0374 -0.0692,0.27574 -0.10329,0.31033 -0.0598,0.0654 -0.35361,0.14675 -0.41353,0.20658 -0.12684,0.12712 -0.45325,0.45428 -0.62019,0.62066 -0.0673,0.0654 -0.36174,0.0467 -0.41353,0.10375 -0.38838,0.38885 -1.19857,0.68236 -1.55051,1.0341 -0.0748,0.0748 -0.54121,-0.27014 -0.6202,-0.31033 -0.12628,-0.0654 -1.84375,-0.31033 -2.06734,-0.31033 -0.17517,0 -2.11132,-1.26292 -2.48084,-1.44772 -0.35099,-0.17573 -0.60991,-0.25331 -0.93034,-0.41408 -0.029,-0.009 -0.41352,0.009 -0.41352,0 0,-0.0281 0.26555,0.10375 0.31005,0.10375"
         style="vector-effect:none;fill:none;fill-opacity:1;stroke:#000000;stroke-width:0.949688;stroke-linecap:round;stroke-linejoin:round;stroke-miterlimit:4;stroke-dasharray:none;stroke-dashoffset:0;stroke-opacity:1" />
      <path
         inkscape:connector-curvature="0"
         id="path2041"
         d="m 156.61979,224.31322 c 0.18554,0.19162 0.76012,0.0374 0.93034,0.20657 0.2849,0.2851 0.99784,0.68797 1.34378,1.0341 0.0692,0.0654 0.24116,0.0374 0.31005,0.10375 0.0692,0.0654 -0.0767,0.38698 -0.10338,0.41409 -0.23331,0.23368 -0.85295,0 -1.13704,0 -1.25908,0 -5.24144,0.22246 -6.0987,-0.20658 -0.21985,-0.1103 -0.69805,-0.028 -0.93034,-0.10375 -0.58102,-0.19349 -1.87451,0.25144 -2.37746,0 -1.08833,-0.54402 -2.90622,-0.10656 -4.1347,-0.41315 -0.35931,-0.0935 -0.81995,0.11029 -1.03368,-0.10376 -0.0992,-0.0991 -0.4897,0.0654 -0.62019,0 -0.44353,-0.22153 -1.34686,-0.20938 -1.65389,-0.51691 -0.1504,-0.15049 -1.84282,0.12152 -2.06734,-0.10375 -0.26837,-0.26827 -1.54587,-0.51224 -1.75726,-0.72348 -0.762,-0.76275 -1.88503,-1.28358 -2.99766,-1.65457 -0.35688,-0.11871 -0.80256,-0.14302 -1.13705,-0.31033 -0.63552,-0.31781 -1.2637,-1.0141 -2.17072,-1.24086 -0.61861,-0.15517 -1.2128,-0.14115 -1.75726,-0.41315 -0.28052,-0.14021 -0.75106,0.0374 -1.03367,-0.10376 -0.0804,-0.0467 -0.82004,-0.40661 -0.82696,-0.41315 -0.0738,-0.0748 -0.34229,-0.3552 -0.51681,-0.41315 -0.62281,-0.20751 -1.62323,-0.58982 -1.96398,-0.93099 -0.17835,-0.17854 -0.6789,-0.0561 -0.82696,-0.20658 -0.15246,-0.15236 -0.39016,-0.28696 -0.51681,-0.41315 -0.0804,-0.0841 -0.34791,-0.96857 -0.51682,-1.13757 -0.62926,-0.63001 -1.8931,-0.96315 -2.37745,-1.44771 -0.13787,-0.13834 -0.5858,0.0374 -0.72358,-0.10376 -0.35164,-0.35146 -1.16421,-0.67862 -1.75726,-0.82724 -0.26761,-0.0654 -0.4439,-0.34398 -0.72357,-0.41315 -0.32744,-0.0841 -3.05405,-0.88332 -3.2044,-1.03409 -0.87015,-0.87024 -3.24114,-2.08661 -4.44481,-2.68876 -0.32165,-0.16077 -0.1676,-0.47765 -0.31005,-0.62066 -0.086,-0.0841 -0.31576,-0.21219 -0.41353,-0.31033 -0.0987,-0.0991 -0.50214,-0.0841 -0.62019,-0.20658 -0.90511,-0.90575 -2.39026,-1.60933 -3.72124,-2.27504 -0.99982,-0.50009 -1.9278,-1.38911 -3.10103,-2.17167 -0.45147,-0.30098 0.0337,0.0467 -0.41343,-0.10375 -0.33043,-0.1103 -0.89015,-0.81415 -1.240427,-0.93099 -0.264716,-0.0841 -0.730774,-0.31781 -0.930339,-0.51691 -0.408945,-0.40941 -0.764424,-0.78518 -1.137045,-1.34433 -0.219102,-0.32903 -0.835651,-0.62908 -1.137037,-0.931 -0.143294,-0.14395 -0.206108,-0.41315 -0.413525,-0.5169 -0.629542,-0.31501 -1.193008,-0.81135 -1.860612,-1.03419 -0.151427,-0.0467 -0.232936,-0.24957 -0.413526,-0.31033 -1.043918,-0.34772 -2.016124,-0.64684 -2.997667,-1.13757 -0.838268,-0.41876 -1.720898,-0.60197 -2.584179,-1.0341 -0.165448,-0.0841 -0.248078,-0.33089 -0.413526,-0.41315 -0.423994,-0.21218 -0.807234,-0.61038 -1.240398,-0.82723 -0.342299,-0.17106 -0.925292,-0.40848 -1.137046,-0.62067 -0.04954,-0.0467 -0.524385,-0.0561 -0.620195,-0.10375 -0.06263,-0.028 -0.262285,0.0467 -0.31005,0 -0.333513,-0.3337 -2.997677,-1.08354 -2.997677,-1.24095 0,-0.10937 0.212652,-0.0561 0.310144,-0.10376"
         style="vector-effect:none;fill:none;fill-opacity:1;stroke:#000000;stroke-width:0.949688;stroke-linecap:round;stroke-linejoin:round;stroke-miterlimit:4;stroke-dasharray:none;stroke-dashoffset:0;stroke-opacity:1" />
      <path
         inkscape:connector-curvature="0"
         id="path2043"
         d="m 102.04165,201.04559 c 1.3987,1.1571 3.30511,1.34274 4.8583,2.27504 0.41007,0.24677 0.88276,0.67394 1.34376,0.82724 0.0654,0.028 0.14946,-0.0374 0.20676,0 0.1089,0.0748 0.17125,0.32155 0.31005,0.41315 0.4068,0.27107 0.86958,0.70759 1.24041,0.93099 1.50271,0.90202 2.78432,1.95817 4.03134,3.20576 0.51326,0.51317 1.35903,1.04933 1.75726,1.44781 0.0907,0.0935 0.42615,0.21966 0.51681,0.31033 0.24696,0.24677 0.38353,0.79732 0.6202,1.03409 0.12423,0.12432 0.22265,0.13554 0.31005,0.31033 0.20256,0.40568 1.58539,0.86183 1.96398,1.24095 0.0524,0.0467 0.34567,0.0374 0.41344,0.10376 0.25695,0.25705 0.56925,0.46643 0.82695,0.72348 0.0523,0.0467 0.0355,0.34585 0.10329,0.41409 0.0692,0.0654 0.27565,0.13834 0.20676,0.20657 -0.0542,0.0561 -0.12974,-0.10375 -0.20676,-0.10375"
         style="vector-effect:none;fill:none;fill-opacity:1;stroke:#000000;stroke-width:0.949688;stroke-linecap:round;stroke-linejoin:round;stroke-miterlimit:4;stroke-dasharray:none;stroke-dashoffset:0;stroke-opacity:1" />
      <path
         inkscape:connector-curvature="0"
         id="path2045"
         d="m 116.6165,206.52639 c 0.0243,0.65431 0.4625,1.3934 0.93034,1.86142 0.0542,0.0561 0.16395,0.0374 0.20676,0.10376 0.0383,0.0561 -0.0309,0.14488 0,0.20657 0.0346,0.0654 0.17227,0.0374 0.20676,0.10376 0.23714,0.47391 0.62412,0.73189 0.82696,1.13757 0.25107,0.50195 0.23677,1.06419 0.62019,1.4478 0.0346,0.0374 0.0692,0.27575 0.10329,0.31033 0.23565,0.23556 1.12859,1.34004 1.34379,1.44762 0.0832,0.0467 0.65525,0.55243 0.41353,0.31034"
         style="vector-effect:none;fill:none;fill-opacity:1;stroke:#000000;stroke-width:0.949688;stroke-linecap:round;stroke-linejoin:round;stroke-miterlimit:4;stroke-dasharray:none;stroke-dashoffset:0;stroke-opacity:1" />
      <path
         inkscape:connector-curvature="0"
         id="path2047"
         d="m 79.40414,191.94541 c 1.073923,0.76087 1.960947,1.5983 2.687561,2.68866 0.173112,0.25986 0.317996,0.23088 0.413525,0.51691 0.06824,0.2047 0.644592,0.49914 0.826958,0.62066 0.188629,0.12619 0.341738,0.44493 0.516813,0.62066 0.470638,0.47017 1.019344,0.91604 1.447152,1.34433 0.182273,0.18228 0.352301,0.58047 0.516814,0.82724 0.59505,0.89267 1.449349,1.7602 2.170728,2.4819 0.109083,0.10937 0.304536,0.0982 0.413432,0.20658 1.10519,1.1056 2.508578,1.85133 3.411137,3.20575 0.21826,0.32716 0.556165,1.17683 0.620194,1.24096 0.15096,0.15142 -0.155165,1.49931 0.103382,1.75795 0.08599,0.0841 0.223962,0.12058 0.31005,0.20657 0.05141,0.0467 0.435866,0 0.516814,0 0.878835,0 1.665524,0.003 2.480825,0.20658 0.194518,0.0467 0.425584,-0.0467 0.620195,0 2.288692,0.57299 4.65918,1.20907 6.92563,1.9648 0.55953,0.18602 1.1849,0.23088 1.75725,0.51691 0.39595,0.19816 0.74442,0.28323 1.13704,0.41315 0.30314,0.10095 0.6259,0.41502 0.93034,0.51691 0.68712,0.22901 1.30498,0.50382 1.96399,0.72348 0.2936,0.0981 0.7591,-0.1374 1.03367,0 0.26434,0.1318 0.95539,0.20658 1.24041,0.20658 0.50774,0 2.79093,0.0841 2.79093,0.31033"
         style="vector-effect:none;fill:none;fill-opacity:1;stroke:#000000;stroke-width:0.949688;stroke-linecap:round;stroke-linejoin:round;stroke-miterlimit:4;stroke-dasharray:none;stroke-dashoffset:0;stroke-opacity:1" />
      <path
         inkscape:connector-curvature="0"
         id="path2049"
         d="m 116.82323,214.07547 c -0.13787,-0.0374 -0.27144,-0.10376 -0.41352,-0.10376 -0.0346,0 -0.0337,0.0953 0,0.10376 0.13376,0.028 0.36987,-0.13086 0.41352,0 0.0692,0.20658 -0.17591,0.40474 -0.20676,0.62066 -0.0103,0.0748 0.26911,0.33183 0.31005,0.41315 0.13442,0.26921 0.16891,0.54495 0.31005,0.82724 0.51476,1.03008 1.02427,2.26561 1.75725,2.999 0.31968,0.31967 0.54794,1.37536 0.93034,1.75795 0.31837,0.31874 0.89229,0.47951 1.24041,0.82723 0.40763,0.40755 0.96909,0.98895 1.34378,1.55119 0.0984,0.14769 0.21171,0.0654 0.31005,0.20658 0.0958,0.14395 0.17031,0.48045 0.31005,0.62066 0.0757,0.0748 0.33529,0.25705 0.41352,0.41409 0.22789,0.45521 0.46971,0.89267 0.6202,1.34433 0.0309,0.0935 0.17592,0.11404 0.20676,0.20657 0.12554,0.3767 0.69759,2.0423 0.93034,2.27505 0.16891,0.16919 0.23668,0.50382 0.31005,0.72348 0.0449,0.13273 0.26575,0.28042 0.31005,0.41315 0.16227,0.487 0.42428,1.10205 0.72358,1.55119 0.86089,1.29189 2.08384,2.63482 2.58419,4.13647 0.30528,0.91604 -0.0252,2.19812 0.20676,2.89552 0.23135,0.69451 1.12473,2.7798 1.55052,3.20585 0.0523,0.0467 -0.0523,0.25892 0,0.31033 0.34212,0.34211 0.0402,0.94726 0.20677,1.44772 0.10525,0.31593 0.19788,0.69731 0.31005,1.03409 0.46241,1.38789 2.34675,2.73073 2.99767,4.03309 0.0617,0.12432 0.24808,0.18601 0.31005,0.31033 0.17994,0.35987 0.49822,0.77115 0.6202,1.13757 0.41081,1.23282 0.61823,2.47582 1.03367,3.72285 0.0309,0.0935 0.15283,0.12525 0.20677,0.20657 0.14451,0.21686 0.19816,0.50009 0.31005,0.72349 0.25275,0.50569 0.82368,0.87397 1.13704,1.34433 0.68479,1.02755 1.38946,1.98172 2.06737,2.9989 0.27855,0.41783 0.94235,0.95483 1.13704,1.34443 0.0467,0.0944 0.13937,0.34585 0.20677,0.41315 0.33463,0.33463 0.68805,0.54962 0.93033,1.03418 0.12161,0.24303 0.42437,0.33277 0.51682,0.51691 0.17414,0.34866 0.39399,0.70479 0.62019,0.93099 0.12068,0.12058 -0.0178,0.49915 0.10338,0.62067 0.15881,0.1589 0.33847,0.39539 0.41353,0.62066 0.057,0.17105 1.09324,0.99025 1.24041,1.13747 0.0598,0.0654 0.14684,0.35333 0.20676,0.41409 0.17676,0.17666 0.75218,0.47111 0.93034,0.82724 0.11946,0.23929 0.25995,0.46643 0.41352,0.62066 0.0925,0.0935 0.3037,0.0467 0.41353,0.10376 0.87996,0.44025 2.50287,-0.14395 2.99766,0.10375 0.43128,0.21592 1.15386,0.2234 1.44714,0.51691 0.0477,0.0467 0.2477,-0.028 0.31005,0 0.4068,0.20377 1.13457,1.02914 1.24041,1.24095 0.11301,0.2262 1.25658,1.15374 1.44713,1.34442 0.0598,0.0654 0.603,1.27535 0.72358,1.0341 0.071,-0.14208 -0.0486,-0.30379 -0.10329,-0.41409"
         style="vector-effect:none;fill:none;fill-opacity:1;stroke:#000000;stroke-width:0.949688;stroke-linecap:round;stroke-linejoin:round;stroke-miterlimit:4;stroke-dasharray:none;stroke-dashoffset:0;stroke-opacity:1" />
      <path
         inkscape:connector-curvature="0"
         id="path2051"
         d="m 155.06927,226.3815 c -0.58963,0.64403 0.10694,2.68165 -0.20676,3.30914 -0.10955,0.21872 -0.20676,0.57486 -0.20676,0.82723 0,1.06859 0,2.13718 0,3.20576 0,0.24023 0.24144,0.65431 0.10329,0.931 -0.21724,0.43465 -0.029,1.1957 -0.20677,1.55118 -0.35884,0.71788 -0.31014,2.11857 -0.31014,2.9989 0,0.87117 -0.53364,1.77478 -1.03367,2.27505 -0.26518,0.26546 -0.27434,0.79172 -0.51681,1.03419 -0.0243,0.028 -0.10329,0.0374 -0.10329,0 0,-0.009 0.66217,-0.26921 0.72358,-0.31033 0.8106,-0.54028 2.41622,-0.96951 2.79092,-1.34434 0.11413,-0.11403 0.66441,0.14769 0.72358,0.20658 0.44269,0.44213 0.61898,1.96359 0.72357,2.06819 0.23939,0.23929 0.43634,0.76928 0.6202,1.13757 0.15292,0.30565 0.0961,0.61318 0.31005,0.82723 0.12768,0.12713 0.0122,1.05691 0.10329,1.24095 0.61421,1.22899 -0.74152,4.30744 -0.31005,5.17057 0.14404,0.2879 0.19741,0.92164 0.41352,1.13757 0.0963,0.0963 1.08814,1.30105 1.13705,1.44771 0.25443,0.76368 0.8034,2.04473 1.2404,2.48199 0.0271,0.0281 0,0.26734 0,0.31034 0,1.17505 -2.44824,0.6917 -2.99765,1.24085 -0.65263,0.65338 -0.29454,1.74244 -0.82696,2.27514 -0.0823,0.0841 0.0542,0.40848 0,0.51691 -0.23378,0.4683 -0.62019,0.71507 -0.62019,1.34433 0,0.0981 -0.44017,0.80013 -0.20677,1.03409 0.15311,0.1533 0.7505,-0.10375 0.93034,-0.10375 0.72965,0 1.47279,-0.0374 2.17072,0.10375 0.50513,0.10095 0.95485,0.39353 1.44715,0.51691 0.26678,0.0654 0.56421,0.0187 0.82696,0.10376 1.22747,0.40941 2.58563,1.45061 3.2044,2.68866 0.22668,0.45334 0.39867,1.00437 0.6202,1.44771 0.27546,0.55149 0.52831,1.25245 0.93034,1.65466 1.7e-4,1.9e-4 1.27832,0.80574 1.34378,0.82724 0.22256,0.0748 0.49905,0.0944 0.72357,0.20658 0.26687,0.13366 0.56393,0.17853 0.82696,0.31033 0.043,0.028 0.10329,0.15236 0.10329,0.10375 0,-0.14207 -0.10329,-0.272 -0.10329,-0.41315"
         style="vector-effect:none;fill:none;fill-opacity:1;stroke:#000000;stroke-width:0.949688;stroke-linecap:round;stroke-linejoin:round;stroke-miterlimit:4;stroke-dasharray:none;stroke-dashoffset:0;stroke-opacity:1" />
      <path
         inkscape:connector-curvature="0"
         id="path2053"
         d="m 146.28302,264.54044 c 0.17236,-0.14582 0.696,0.0748 0.93033,0 0.65852,-0.21966 1.04286,-0.67675 1.55052,-0.93099 0.16498,-0.0841 0.62019,0.028 0.62019,-0.20658"
         style="vector-effect:none;fill:none;fill-opacity:1;stroke:#000000;stroke-width:0.949688;stroke-linecap:round;stroke-linejoin:round;stroke-miterlimit:4;stroke-dasharray:none;stroke-dashoffset:0;stroke-opacity:1" />
      <path
         inkscape:connector-curvature="0"
         id="path2055"
         d="m 151.4514,265.67792 c -0.40025,0.47204 3.4148,-1.76169 2.8943,-1.24086"
         style="vector-effect:none;fill:none;fill-opacity:1;stroke:#000000;stroke-width:0.949688;stroke-linecap:round;stroke-linejoin:round;stroke-miterlimit:4;stroke-dasharray:none;stroke-dashoffset:0;stroke-opacity:1" />
      <path
         inkscape:connector-curvature="0"
         id="path2057"
         d="m 130.46777,238.3772 c 0.37389,0.001 0.71703,0.51503 1.03366,0.62066 1.04902,0.34959 1.74219,0.9151 2.48083,1.65457 0.18246,0.18227 0.41352,0.62066 0.62019,0.72348 0.36006,0.1804 0.75545,0.54962 1.03369,0.82724 0.21386,0.21405 -0.32688,-0.006 0.10328,0.20657 0.70199,0.35146 1.36226,0.99166 2.06736,1.34443 0.28257,0.14114 1.11747,0.009 1.34378,-0.10376 0.28996,-0.14488 2.44554,-0.0561 2.8943,-0.20657 0.53457,-0.17854 1.18222,-0.27014 1.75724,-0.41315 0.25892,-0.0654 0.30621,-0.30847 0.51681,-0.41316 0.49578,-0.24863 0.68422,-0.10375 1.24041,-0.10375"
         style="vector-effect:none;fill:none;fill-opacity:1;stroke:#000000;stroke-width:0.949688;stroke-linecap:round;stroke-linejoin:round;stroke-miterlimit:4;stroke-dasharray:none;stroke-dashoffset:0;stroke-opacity:1" />
      <path
         inkscape:connector-curvature="0"
         id="path2059"
         d="m 144.1123,227.20874 c 0.38352,0.22994 0.66674,0.54027 1.03367,0.72348 0.29725,0.14862 3.63852,0.61038 4.03134,0.41315 0.24836,-0.12432 0.91361,-0.37015 1.24041,-0.20658 0.26116,0.13087 0.63618,0.46176 0.72358,0.72349 0.0888,0.2664 0.26667,1.32433 -0.10339,1.44771 -0.97373,0.32529 -3.25912,0.14114 -4.23805,-0.10375 -0.11198,-0.0281 -1.964,0.028 -1.964,0 0,-0.10843 0.20443,0.0748 0.31005,0.10375 0.29622,0.0748 0.62422,0.12993 0.93034,0.20658 0.6732,0.16825 1.37011,0.32341 1.964,0.62066 0.0617,0.028 0.20676,-0.0654 0.20676,0.10375 0,0.028 -0.79462,0.41502 -0.93034,0.51691 -0.34594,0.25892 -0.91174,0.82724 -1.34379,0.82724 -0.0617,0 -0.20676,-0.028 -0.20676,0.10375 0,0.16919 1.57732,0.54402 1.75726,0.72349 0.25471,0.25518 -0.8378,0.94155 -0.93034,1.03418 -0.18994,0.18975 1.53269,1.13748 0.51681,1.13748"
         style="vector-effect:none;fill:none;fill-opacity:1;stroke:#000000;stroke-width:0.949688;stroke-linecap:round;stroke-linejoin:round;stroke-miterlimit:4;stroke-dasharray:none;stroke-dashoffset:0;stroke-opacity:1" />
      <path
         inkscape:connector-curvature="0"
         id="path2061"
         d="m 66.379817,189.46351 c -0.205361,0.62066 -0.232094,1.11027 -0.413525,1.65457 -0.06169,0.18507 -0.326315,0.23929 -0.413526,0.41315 -0.361741,0.72348 -0.264623,1.77047 -0.620195,2.48199 -0.47232,0.94502 -0.691888,2.0766 -1.033664,3.10228 -0.39913,1.19786 -0.05235,2.79345 -0.620194,3.92962 -0.419976,0.84032 0.184048,3.56133 -0.413526,4.75694 -0.137873,0.27575 0.137873,0.75807 0,1.03419 -0.363143,0.72629 -0.362115,1.50043 -0.620195,2.27504 -0.215549,0.64684 -0.898558,1.93303 -1.240417,2.27505 -0.05235,0.0561 -1.624873,5.49716 -1.860622,6.20475 -0.417077,1.2517 -1.475615,2.33197 -2.067356,3.516 -0.368845,0.73843 -1.400855,1.1714 -1.860603,1.86133 -0.379314,0.56925 -0.552146,1.10476 -0.826958,1.65457 -0.262098,0.52438 -1.057182,0.89827 -1.240398,1.4478 -0.233403,0.70105 -0.496997,1.40799 -0.826958,2.06829 -0.09254,0.18507 0.06543,0.42436 0,0.62066 -0.652256,1.95751 -0.521113,4.95511 0.413526,6.82513 0.702544,1.40584 -1.589568,5.31311 -2.274091,5.9979 -0.06917,0.0654 -0.137873,0.55149 -0.206763,0.62066 -1.330732,1.33124 -3.725796,2.79438 -5.581846,3.72285 -0.860421,0.42998 0.22097,-0.009 -0.206763,0.41315 -0.608511,0.60851 -1.502236,0.88239 -2.067356,1.44771 -0.632721,0.63282 -1.326946,1.32751 -2.067347,2.06819 -0.06917,0.0654 -0.551305,0.13834 -0.620195,0.20658 -0.310051,0.31033 -2.067347,1.70916 -2.067347,2.27514"
         style="fill:none;fill-opacity:1;stroke:#000000;stroke-width:0.95;stroke-linecap:round;stroke-linejoin:round;stroke-miterlimit:4;stroke-dasharray:none;stroke-dashoffset:0;stroke-opacity:1" />
      <path
         inkscape:connector-curvature="0"
         id="path2063"
         d="m 162.51173,219.45289 c 1.78474,1.80039 4.44117,3.04517 5.99534,5.37742 0.84509,1.26815 1.58264,2.8242 2.27409,3.516 0.37903,0.3795 -0.37904,1.89591 0,2.27504 0.31809,0.31874 0.36884,0.94483 0.62019,1.44781 0.0159,0.028 1.38167,1.45285 1.6539,1.86142 0.2621,0.39352 1.12763,0.71414 1.44713,1.0341 1.10038,1.10083 3.19619,3.46019 4.54818,4.13647 0.232,0.11684 0.58748,0.0841 0.82696,0.20657 0.9066,0.45335 1.78161,1.61503 2.68754,2.06819 1.67402,0.83752 3.46872,2.22924 4.75493,3.51609 0.22798,0.22807 0.43428,0.8478 0.62019,1.03409 0.35371,0.35427 0.97273,0.76648 1.2404,1.0341 0.0974,0.0981 -0.0974,0.31594 0,0.41315 0.55486,0.55523 0.94111,0.94146 1.44716,1.44771 0.2321,0.23181 0.4197,0.83004 0.82696,1.0341 1.13269,0.56644 2.56292,0.90949 3.51451,1.86142 0.73834,0.73844 0.28444,2.4819 2.06736,2.4819"
         style="vector-effect:none;fill:none;fill-opacity:1;stroke:#000000;stroke-width:0.949688;stroke-linecap:round;stroke-linejoin:round;stroke-miterlimit:4;stroke-dasharray:none;stroke-dashoffset:0;stroke-opacity:1" />
      <path
         inkscape:connector-curvature="0"
         id="path2067"
         d="m 156.51642,195.04769 c 0.59009,-0.17947 0.55401,-0.65712 0.82695,-0.93099 0.33006,-0.32996 0.65712,-0.86463 1.03367,-1.24086 0.0346,-0.0374 0.0692,-0.27575 0.10329,-0.31033 0.14852,-0.14862 0.41595,-0.31501 0.51681,-0.51691 0.0692,-0.13927 0.89463,-0.72348 0.62019,-0.72348"
         style="vector-effect:none;fill:none;fill-opacity:1;stroke:#000000;stroke-width:0.949688;stroke-linecap:round;stroke-linejoin:round;stroke-miterlimit:4;stroke-dasharray:none;stroke-dashoffset:0;stroke-opacity:1" />
      <path
         inkscape:connector-curvature="0"
         id="path2069"
         d="m 139.56411,193.39312 c 0.32398,0.43185 0.86678,0.22621 1.24041,0.41315 0.4197,0.20938 0.98788,0.36735 1.34378,0.72348 0.16246,0.16265 0.98855,0.18415 1.24043,0.31034 0.15919,0.0841 0.1718,0.20657 0.31005,0.20657 0.35436,0 1.30827,0.93099 0.93034,0.93099"
         style="vector-effect:none;fill:none;fill-opacity:1;stroke:#000000;stroke-width:0.949688;stroke-linecap:round;stroke-linejoin:round;stroke-miterlimit:4;stroke-dasharray:none;stroke-dashoffset:0;stroke-opacity:1" />
      <path
         inkscape:connector-curvature="0"
         id="path2071"
         d="m 149.90088,184.80994 c 0.23854,-0.0748 1.58457,0.27575 1.75726,0.10376 0.13544,-0.13554 0.79078,-0.37763 0.82695,-0.41315 0.32174,-0.32155 1.9638,-1.34452 1.2404,-2.06829 -0.16816,-0.16825 -0.14067,-1.03409 -0.51681,-1.03409"
         style="vector-effect:none;fill:none;fill-opacity:1;stroke:#000000;stroke-width:0.949688;stroke-linecap:round;stroke-linejoin:round;stroke-miterlimit:4;stroke-dasharray:none;stroke-dashoffset:0;stroke-opacity:1" />
      <path
         inkscape:connector-curvature="0"
         id="path2075"
         d="m 155.8602,195.6132 c 0.19816,-0.35707 0.4553,-0.60196 0.73096,-0.87771"
         style="vector-effect:none;fill:none;fill-opacity:1;stroke:#000000;stroke-width:0.949688;stroke-linecap:round;stroke-linejoin:round;stroke-miterlimit:4;stroke-dasharray:none;stroke-dashoffset:0;stroke-opacity:1" />
      <path
         inkscape:connector-curvature="0"
         id="path184"
         d="m 136.05639,135.62378 c -0.52569,-0.59356 -0.4483,-1.3792 -0.93034,-1.86143 -0.56588,-0.56644 -1.5596,-0.3823 -2.27409,-0.62066 -4.40887,-1.47024 -9.1816,0.0654 -13.33442,1.44781 -2.227,0.74311 -6.02426,3.92129 -7.33909,5.89442 -1.82835,2.74372 -5.11521,9.93358 -4.23808,13.4436 0.16059,0.64309 0.90753,1.63176 1.34378,2.06818 0.6187,0.6188 1.03463,1.42267 1.75725,1.96481 3.14189,2.35749 7.25963,3.04068 11.06033,3.51609 2.90234,0.36268 5.82807,-0.79546 8.37279,-2.06828 5.91578,-2.95918 7.97973,-4.40455 10.02666,-10.54799 0.40203,-1.20664 0.84799,-3.78417 0.20677,-5.06718 -0.1361,-0.27294 0,-1.0297 0,-1.34433 0,-1.71346 -0.98426,-2.63931 -1.75726,-3.41261 -0.99678,-0.99727 -1.60534,-2.76784 -2.89431,-3.41262 z"
         style="vector-effect:none;fill:none;fill-opacity:1;stroke:#000000;stroke-width:0.949688;stroke-linecap:round;stroke-linejoin:round;stroke-miterlimit:4;stroke-dasharray:none;stroke-dashoffset:0;stroke-opacity:1" />
      <path
         inkscape:connector-curvature="0"
         id="path188"
         d="m 162.00168,132.83164 c -0.77191,-0.2935 -1.71046,-0.0467 -2.48083,0.20658 -0.87304,0.2907 -1.92892,0.12619 -2.79092,0.41315 -3.98849,1.33012 -7.24116,3.42345 -9.09636,7.13546 -0.69394,1.38845 -1.63327,4.69469 -0.82695,6.30804 0.48073,0.96184 1.41882,1.98322 1.75725,2.999 0.94396,2.83308 5.21739,7.4701 7.85595,8.79003 1.20444,0.60197 3.10888,0.41315 4.54818,0.41315 3.11158,0 7.45433,-0.21873 9.61319,-2.37852 0.63534,-0.63562 1.04797,-1.56549 1.55051,-2.06819 0.265,-0.26546 0.12956,-1.39686 0.31006,-1.75804 0.6257,-1.25189 0.79134,-3.31278 0.31005,-4.75694 -0.45541,-1.36686 -1.3088,-2.5837 -1.75724,-3.92962 -0.47007,-1.41079 -0.875,-2.78485 -1.55052,-4.13647 -0.71778,-1.43621 -2.02028,-1.97406 -2.68756,-3.30923 -0.5256,-1.05167 -1.42318,-2.56126 -2.06736,-3.20576 -0.59149,-0.59168 -1.79412,-0.72348 -2.68756,-0.72348 z"
         style="vector-effect:none;fill:none;fill-opacity:1;stroke:#000000;stroke-width:0.949688;stroke-linecap:round;stroke-linejoin:round;stroke-miterlimit:4;stroke-dasharray:none;stroke-dashoffset:0;stroke-opacity:1" />
      <path
         inkscape:connector-curvature="0"
         id="path190"
         d="m 140.91468,143.4831 c 0.0664,-0.78611 0.87089,-0.87117 1.24041,-1.24095 1.42237,-1.42304 3.24575,-0.0654 4.23807,0.93099"
         style="vector-effect:none;fill:none;fill-opacity:1;stroke:#000000;stroke-width:0.949688;stroke-linecap:round;stroke-linejoin:round;stroke-miterlimit:4;stroke-dasharray:none;stroke-dashoffset:0;stroke-opacity:1" />
      <path
         inkscape:connector-curvature="0"
         id="path192"
         d="m 109.69765,144.82743 c -1.08844,0.15236 -2.40286,0.4225 -3.61787,0.82724 -1.43902,0.47952 -2.78614,1.05886 -4.34144,1.44781 -3.075307,0.76928 -6.353468,0.8908 -9.406472,1.65457 -1.642483,0.41128 -4.801887,-0.36642 -5.685208,0.5169"
         style="vector-effect:none;fill:none;fill-opacity:1;stroke:#000000;stroke-width:0.949688;stroke-linecap:round;stroke-linejoin:round;stroke-miterlimit:4;stroke-dasharray:none;stroke-dashoffset:0;stroke-opacity:1" />
      <path
         inkscape:connector-curvature="0"
         id="path1003"
         d="m 103.94572,239.26893 c -0.75246,0.55243 -0.6459,-0.79826 -1.03765,-0.91791 -0.75545,-0.23275 -0.92594,2.24897 -0.27285,2.71475 0.76714,0.54681 3.2319,0.20283 4.18251,0.0467 2.11689,-0.35426 3.45628,-4.65356 1.89469,-4.6158 -1.48866,0.028 -3.41005,3.91943 -3.3772,5.2804 0.0121,0.49634 0.32435,1.06484 0.69002,1.40808"
         style="vector-effect:none;fill:none;fill-opacity:1;stroke:#000000;stroke-width:0.949688;stroke-linecap:round;stroke-linejoin:round;stroke-miterlimit:4;stroke-dasharray:none;stroke-dashoffset:0;stroke-opacity:1" />
      <path
         inkscape:connector-curvature="0"
         id="path1005"
         d="m 115.32816,243.20135 c 0.98838,-1.34517 3.79808,0.45802 2.77688,1.89152 -1.26052,1.76889 -2.40391,1.64307 -4.14366,2.5665 -0.32949,0.17479 -1.09616,0.20564 -1.31683,0.51503 -0.15386,0.21499 -1.38095,1.46716 -0.98479,1.25694 -0.23237,-0.12619 -0.64057,-1.53446 -0.65038,-1.91891 -0.0159,-0.65058 -0.34913,-1.47062 -0.36707,-2.19158 -0.0486,-2.0164 0.90912,-3.56591 2.07395,-5.20057 0.76237,-1.06998 2.60333,-1.28507 2.64355,0.37109 0.0215,0.89735 0.368,1.77039 -0.0318,2.70904 z"
         style="vector-effect:none;fill:none;fill-opacity:1;stroke:#000000;stroke-width:0.949688;stroke-linecap:round;stroke-linejoin:round;stroke-miterlimit:4;stroke-dasharray:none;stroke-dashoffset:0;stroke-opacity:1" />
      <path
         inkscape:connector-curvature="0"
         id="path1007"
         d="m 88.240284,244.48436 c 1.716748,1.84488 7.041375,0.23368 7.778794,-2.17073 0.100016,-0.32715 0.814432,-2.10875 0.405207,-2.23429 -0.527002,-0.16171 -1.116435,0.80574 -1.105508,1.25983 0.01215,0.46457 -0.139088,1.23544 -0.274437,1.67542 -0.290235,0.9467 0.379594,2.04912 -0.337065,3.05489 -0.114785,0.16171 -0.409132,0.28322 -0.544575,0.47204 -0.215082,0.30192 -0.765358,0.32342 -1.034103,0.24303 -0.499802,-0.1533 -1.18052,-0.10002 -1.628958,-0.42063 -0.442969,-0.31594 -0.325847,-1.53913 0.1647,-1.18889 0.563176,0.40194 2.454036,2.51761 2.886883,2.44508 1.050526,-0.17667 2.792839,-1.10205 3.799714,-0.79266 0.360806,0.11124 0.07571,0.14395 0.227981,0.42998 0.08506,0.15984 -0.03272,-0.44961 -0.208913,-0.50102 -0.43194,-0.13179 -0.802841,0.0187 -1.207524,0.0281 -1.154142,0.028 -0.867432,2.29074 -0.174608,2.78503 1.033421,0.73657 2.423854,-0.67488 3.212468,-1.09326 0.10263,-0.0561 0.36959,-0.60664 0.202,-0.65712 -0.36053,-0.1103 -1.384109,2.85355 -0.407267,3.15323 0.261067,0.0841 0.725357,0.29724 1.070277,0.28883 0.66254,-0.0187 2.06788,-0.82911 1.70364,-1.51614 -0.89762,-1.69261 -2.22348,1.4423 -0.95859,2.3445 0.90286,0.64403 1.66316,-0.72909 2.42044,-0.85622 0.33753,-0.0561 2.02998,-0.0187 2.04261,0.50663 0.014,0.55429 -0.55261,0.8908 -0.69207,1.34648 -0.0598,0.19536 -0.15638,0.74405 -0.25257,0.56177 -0.002,-0.003 1.16341,-1.72084 1.40852,-1.72673 0.36277,-0.006 0.84491,-0.0187 1.21014,0.0935 1.54094,0.47204 -1.06121,2.95254 0.3968,3.39952 0.27088,0.0841 0.57374,0.0561 0.86771,-0.0935 0.77611,-0.41128 1.33026,-2.35337 1.92491,-2.36777 0.81126,-0.0187 1.51891,0.0963 1.95581,0.91978 0.11805,0.2234 0.2363,0.44586 0.35445,0.66833 0.0252,0.0467 0.12021,0.11965 0.0757,0.14301 -0.0149,0.006 -0.004,-0.34024 -0.009,-0.36174 -0.0393,-0.21685 -0.17582,-0.43839 -0.28491,-0.64403 -0.4282,-0.80761 -0.74937,-0.63468 -1.48872,-0.61692 -0.90659,0.028 -1.65796,2.43329 -0.89042,3.165 0.28808,0.2664 0.48914,0.61506 0.81845,0.85061 0.94998,0.67768 2.95641,0.34865 3.61176,-0.57112 0.17367,-0.24303 0.53018,-1.43603 0.0832,-1.57362 -0.84799,-0.25986 -0.83649,1.1042 -0.73162,1.73439 0.36614,2.18447 1.34103,2.05024 3.01058,2.56294"
         style="vector-effect:none;fill:none;fill-opacity:1;stroke:#000000;stroke-width:0.949688;stroke-linecap:round;stroke-linejoin:round;stroke-miterlimit:4;stroke-dasharray:none;stroke-dashoffset:0;stroke-opacity:1" />
      <path
         inkscape:connector-curvature="0"
         id="path1013"
         d="m 116.24769,234.30756 c -2.25943,-4.00785 -16.576296,-4.42502 -20.673217,-2.37562 -2.14593,1.07335 -4.618614,2.70464 -6.984178,3.49356 -3.874839,1.29208 -2.722379,10.97422 -1.676218,14.11408 0.910616,2.73278 3.895206,5.67214 6.285793,7.26661 1.340443,0.89454 2.91056,1.94499 4.330193,2.6551 3.767857,1.8848 17.851637,5.27301 21.930367,3.91289 2.08747,-0.69638 3.88106,-3.17398 5.16831,-4.89108 3.46422,-4.62095 5.02,-11.05695 2.37461,-16.34987 -0.62758,-1.25591 -1.73548,-2.35459 -2.37461,-3.6334 -0.37174,-0.74404 -7.05607,-3.52955 -8.38105,-4.19227 z"
         style="vector-effect:none;fill:none;fill-opacity:1;stroke:#000000;stroke-width:0.949688;stroke-linecap:round;stroke-linejoin:round;stroke-miterlimit:4;stroke-dasharray:none;stroke-dashoffset:0;stroke-opacity:1" />
      <path
         inkscape:connector-curvature="0"
         id="path1015"
         d="m 101.58089,246.18567 -0.69843,0.14021"
         style="vector-effect:none;fill:none;fill-opacity:1;stroke:#000000;stroke-width:0.949688;stroke-linecap:round;stroke-linejoin:round;stroke-miterlimit:4;stroke-dasharray:none;stroke-dashoffset:0;stroke-opacity:1" />
      <path
         style="vector-effect:none;fill:none;fill-opacity:1;stroke:#000000;stroke-width:0.949688;stroke-linecap:round;stroke-linejoin:round;stroke-miterlimit:4;stroke-dasharray:none;stroke-dashoffset:0;stroke-opacity:1"
         d="m 28.190563,38.895178 c -5.210551,-4.54448 -12.34681,4.703853 -8.088105,8.962492 3.095888,3.095926 8.743895,2.733905 8.743895,-2.185964 0,-0.520646 0.707125,-7.685087 -0.655808,-6.776528 -0.486341,0.324352 0.655808,3.382702 0.655808,3.497581 0,4.57056 1.530184,9.360033 1.530184,14.427403 0,4.004673 -1.427579,20.824803 4.371939,17.924983 1.545456,-0.773023 2.066971,-1.292173 2.841761,-2.841772 1.507994,-3.015913 0.580001,-14.284669 -1.530175,-16.394734 -2.026656,-2.026686 -4.228689,-4.665902 -6.120727,-6.557987 -0.53046,-0.529993 1.29638,-0.757133 1.967377,-1.092982 1.421971,-0.711331 2.058009,-2.27654 3.06036,-3.278947 1.300538,-1.300492 1.530183,-4.882199 1.530183,-6.776527 0,-0.218727 -0.218634,-0.656182 0,-0.656182 0.142733,0 -0.09347,3.684434 -0.218634,3.934662 -1.254362,2.508821 0.821068,5.875539 2.623167,6.776527 5.607869,2.803916 2.812178,-10.492648 3.497561,-10.492648 0.116935,0 -0.156006,3.841375 0,4.153388 1.279387,2.558736 0.472134,5.045217 3.06036,6.33926 0.137312,0.06543 0.647956,0.444932 0.874348,0.218727 1.734396,-1.734395 4.392484,-14.844106 9.181089,-10.055474 0.204425,0.204706 -2.83151,-0.666464 -3.060369,-0.437454 -1.420438,1.420418 -3.06036,1.561937 -3.06036,4.153295 0,4.234803 3.75094,6.960389 6.776518,3.934754 1.241492,-1.241511 2.324772,-5.326103 0.655808,-6.995067 -0.401187,-0.401 -0.61468,-1.051948 -1.092982,-1.530157 -0.293787,-0.293506 -2.164718,-0.317809 -1.530185,0 1.309663,0.655248 8.033265,2.24074 9.399676,0.873975 0.07571,-0.07478 1.15874,-3.497581 0.874348,-3.497581 -0.411656,0 -0.667212,3.256233 -0.437174,3.716215 0.468114,0.936321 0.230318,3.946439 0.874348,4.590469 2.092762,2.092772 5.223311,1.771878 6.339325,0.656182"
         id="path1197"
         inkscape:connector-curvature="0" />
      <path
         style="vector-effect:none;fill:none;fill-opacity:1;stroke:#000000;stroke-width:0.949688;stroke-linecap:round;stroke-linejoin:round;stroke-miterlimit:4;stroke-dasharray:none;stroke-dashoffset:0;stroke-opacity:1"
         d="m 64.914886,31.244303 -0.655808,0.437454"
         id="path1199"
         inkscape:connector-curvature="0" />
      <path
         style="vector-effect:none;fill:none;fill-opacity:1;stroke:#000000;stroke-width:0.949688;stroke-linecap:round;stroke-linejoin:round;stroke-miterlimit:4;stroke-dasharray:none;stroke-dashoffset:0;stroke-opacity:1"
         d="m 77.812123,21.188829 c -0.881358,-0.781436 -3.259691,-2.66165 -2.404561,-4.371929 0.884818,-1.769635 7.557356,-1.842357 8.743886,-0.656182 0.526815,0.527189 1.149637,1.643539 1.530185,2.404598 0.254901,0.510364 0,1.821887 0,2.404505 0,1.113359 0.295375,3.858013 -0.437174,4.590563 -1.850293,1.850302 -7.801508,8.661321 -6.12072,12.022898 0.469236,0.938471 1.000669,1.253195 1.311579,2.185964"
         id="path1201"
         inkscape:connector-curvature="0" />
      <path
         style="vector-effect:none;fill:none;fill-opacity:1;stroke:#000000;stroke-width:0.949688;stroke-linecap:round;stroke-linejoin:round;stroke-miterlimit:4;stroke-dasharray:none;stroke-dashoffset:0;stroke-opacity:1"
         d="m 79.342308,42.611393 h 0.218634"
         id="path1203"
         inkscape:connector-curvature="0" />
      <path
         style="vector-effect:none;fill:none;fill-opacity:1;stroke:#000000;stroke-width:0.949688;stroke-linecap:round;stroke-linejoin:round;stroke-miterlimit:4;stroke-dasharray:none;stroke-dashoffset:0;stroke-opacity:1"
         d="m 52.669943,66.596618 c 1.679592,0.226206 8.174129,0.963709 9.274299,-1.236557 0.185077,-0.370154 -0.138994,-4.946322 0,-4.946322 0.876312,0 2.740336,2.122029 3.09143,2.473115 3.628892,3.62891 6.163727,-4.009253 6.801148,-4.327997 1.361269,-0.680485 6.372892,1.664851 8.656012,-0.617858 1.232725,-1.232725 0.237422,-6.610799 1.854855,-7.419436 0.989264,-0.494473 2.720463,0.494473 3.709718,0 5.325542,-2.662771 1.504283,-7.068911 4.328005,-9.892643 1.084477,-1.084477 3.042525,-1.089805 3.709718,-3.09144 0.478022,-1.433972 1.376487,-6.521345 0.618326,-8.037668 -0.59019,-1.180379 -3.406286,-2.158296 -2.473143,-3.091439 11.293339,-11.29334 -0.353422,-7.772858 -3.709718,-11.129201 -0.863318,-0.863692 -1.140765,-3.352603 -3.091439,-4.327996 -3.058556,-1.5292221 -3.04446,3.733226 -5.564572,2.473207 -1.609338,-0.804804 -3.004126,-3.4443006 -4.946294,-2.473207 -2.43135,1.215712 -3.146804,2.809991 -4.946284,3.709764 -1.865464,0.932863 -12.36573,-6.5226509 -12.36573,4.946229 0,0.519711 -6.36991,-2.286075 -9.2743,0.618792 -1.28349,1.283481 1.236576,2.766153 1.236576,3.09144 0,1.769261 -11.369726,-5.942279 -14.83887,-2.473114 -1.288603,1.288528 3.091428,2.915242 3.091428,3.709671 0,2.679222 -5.358481,0 -8.037722,0 -6.523851,0 -3.219348,4.701141 -3.709718,4.946322 -4.716135,2.358048 -9.716783,-2.206435 -12.984008,4.327996 -0.930807,1.861613 1.855331,4.945761 1.236575,5.564554 -0.593554,0.593555 -2.929123,-0.389783 -3.709718,0 -8.1136611,4.056831 1.575912,9.953027 2.473143,11.747432 0.06823,0.137406 -4.3280062,2.88421 -4.3280062,4.946322 0,6.959548 4.7692552,4.150958 7.4194362,6.801111 3.0098,3.009837 -1.878905,8.655993 4.946294,8.655993 1.023326,0 2.46085,-0.617858 3.09143,-0.617858 2.304217,0 -0.392775,5.171779 1.236575,6.801111 0.475312,0.474844 9.527267,1.601944 9.892579,1.236557 5.254211,-5.254223 11.116739,-7.719205 17.312012,-12.365664 z"
         id="path1205"
         inkscape:connector-curvature="0" />
      <path
         style="vector-effect:none;fill:none;fill-opacity:1;stroke:#000000;stroke-width:0.949688;stroke-linecap:round;stroke-linejoin:round;stroke-miterlimit:4;stroke-dasharray:none;stroke-dashoffset:0;stroke-opacity:1"
         d="m 70.600245,67.21485 c -3.431776,6.455447 9.181415,2.295422 0,0 z"
         id="path1207"
         inkscape:connector-curvature="0" />
      <path
         style="vector-effect:none;fill:none;fill-opacity:1;stroke:#000000;stroke-width:0.949688;stroke-linecap:round;stroke-linejoin:round;stroke-miterlimit:4;stroke-dasharray:none;stroke-dashoffset:0;stroke-opacity:1"
         d="m 81.729399,70.924615 c -1.469586,5.159254 8.287035,2.07174 0,0 z"
         id="path1209"
         inkscape:connector-curvature="0" />
    </g>
    <g
       id="g2422"
       transform="translate(27.908096,2.8533505)">
      <circle
         id="path2030"
         style="fill:#000000;stroke:none;stroke-width:0.264583"
         cx="43.164845"
         cy="270.89993"
         r="0.80723476" />
      <g
         id="g2397">
        <path
           style="font-variation-settings:normal;opacity:1;vector-effect:none;fill:none;fill-opacity:1;stroke:#000000;stroke-width:0.949687;stroke-linecap:round;stroke-linejoin:round;stroke-miterlimit:4;stroke-dasharray:none;stroke-dashoffset:0;stroke-opacity:1;-inkscape-stroke:none;stop-color:#000000;stop-opacity:1"
           d="m 92.095269,269.51069 c -0.07767,0.41939 -0.208108,0.83238 -0.233011,1.25817 -0.04019,0.68721 0.223734,1.35946 0.291264,2.04452 0.215701,2.18826 0.203877,4.38335 0.203877,6.57913 0,0.20852 0.119505,4.96186 -0.116506,5.03264 -0.09555,0.0287 -0.259644,-0.11353 -0.320382,-0.15727"
           id="path2253" />
        <g
           id="g2374">
          <path
             style="font-variation-settings:normal;opacity:1;vector-effect:none;fill:none;fill-opacity:1;stroke:#000000;stroke-width:0.949687;stroke-linecap:round;stroke-linejoin:round;stroke-miterlimit:4;stroke-dasharray:none;stroke-dashoffset:0;stroke-opacity:1;-inkscape-stroke:none;stop-color:#000000;stop-opacity:1"
             d="m 22.282045,279.20902 c 1.682118,-0.53049 3.569532,0.5792 5.184292,-0.20968 1.96691,-0.96094 2.896524,-4.30842 0.08737,-4.74433 -1.822488,-0.28278 -5.097543,5.01354 -4.485282,6.60535 0.797527,2.07352 4.497728,3.53862 5.679426,1.67757"
             id="path1955" />
          <path
             style="font-variation-settings:normal;opacity:1;vector-effect:none;fill:none;fill-opacity:1;stroke:#000000;stroke-width:0.949687;stroke-linecap:round;stroke-linejoin:round;stroke-miterlimit:4;stroke-dasharray:none;stroke-dashoffset:0;stroke-opacity:1;-inkscape-stroke:none;stop-color:#000000;stop-opacity:1"
             d="m 32.912761,275.06758 c -0.297809,2.81702 -0.08738,5.66264 -0.145624,8.49259 -0.03429,1.66592 -0.02913,0.19868 -0.02913,1.28437 0,0.19248 0.0011,0.76676 -0.02912,0.57666 -0.366398,-2.30854 0.866682,-7.36404 2.475648,-9.17408 1.996636,-2.24616 3.091654,-2.16046 2.883405,1.49407 -0.04135,0.72562 -0.109524,1.44963 -0.14564,2.17554 -0.05694,1.14443 -0.163681,2.33923 -0.11649,3.48617 0.0209,0.5083 0.3738,0.98288 0.291248,1.20574"
             id="path1957" />
          <path
             style="font-variation-settings:normal;opacity:1;vector-effect:none;fill:none;fill-opacity:1;stroke:#000000;stroke-width:0.949687;stroke-linecap:round;stroke-linejoin:round;stroke-miterlimit:4;stroke-dasharray:none;stroke-dashoffset:0;stroke-opacity:1;-inkscape-stroke:none;stop-color:#000000;stop-opacity:1"
             d="m 42.81534,275.48697 c -0.05825,0.65529 -0.112366,1.31096 -0.174744,1.96588 -0.180104,1.891 -0.911325,4.20341 -0.08738,6.02869 0.126312,0.27982 0.284837,0.67865 0.466005,0.94361 0.359979,0.52647 1.51015,0.19526 1.689272,-0.28832"
             id="path1959" />
          <path
             style="font-variation-settings:normal;opacity:1;vector-effect:none;fill:none;fill-opacity:1;stroke:#000000;stroke-width:0.949687;stroke-linecap:round;stroke-linejoin:round;stroke-miterlimit:4;stroke-dasharray:none;stroke-dashoffset:0;stroke-opacity:1;-inkscape-stroke:none;stop-color:#000000;stop-opacity:1"
             d="m 50.562655,279.07797 c 1.009139,-0.30273 1.112097,-0.29562 1.951402,-0.65529 0.621814,-0.26649 2.278706,-0.50956 2.592139,-1.17951 0.75682,-1.61769 -1.232003,-2.939 -2.708645,-2.38528 -1.47139,0.55174 -1.79092,2.90076 -1.834896,4.22008 -0.02774,0.83214 0.06054,1.88188 0.378635,2.69981 0.186364,0.47919 0.696798,1.44727 1.165013,1.70376 1.460553,0.8001 4.487958,1.67539 4.718285,-0.81256"
             id="path2042" />
          <path
             style="font-variation-settings:normal;opacity:1;vector-effect:none;fill:none;fill-opacity:1;stroke:#000000;stroke-width:0.949687;stroke-linecap:round;stroke-linejoin:round;stroke-miterlimit:4;stroke-dasharray:none;stroke-dashoffset:0;stroke-opacity:1;-inkscape-stroke:none;stop-color:#000000;stop-opacity:1"
             d="m 59.300236,277.50526 c 0.314458,1.67788 0.247701,3.38887 0.203878,5.08508 -0.01013,0.39219 0,0.78724 0,1.17951 0,0.0874 0.01371,0.34843 0,0.26213 -0.195723,-1.23328 -0.13842,-2.61372 -0.02912,-3.85313 0.02972,-0.33705 0.531013,-1.5349 0.465994,-1.72995 -0.120234,-0.36071 -0.834204,-0.61632 -0.640752,-0.94364 0.237265,-0.40142 0.966515,-0.0527 1.368891,-0.28831 0.381328,-0.22334 0.848624,-1.40174 1.223264,-1.7824 0.402529,-0.40902 1.295707,-1.26489 1.951387,-0.96983 0.781851,0.35182 1.948526,1.46 2.242637,2.2542 0.02813,0.076 -0.03884,-0.15727 -0.05825,-0.2359"
             id="path2044" />
          <path
             style="font-variation-settings:normal;opacity:1;vector-effect:none;fill:none;fill-opacity:1;stroke:#000000;stroke-width:0.949687;stroke-linecap:round;stroke-linejoin:round;stroke-miterlimit:4;stroke-dasharray:none;stroke-dashoffset:0;stroke-opacity:1;-inkscape-stroke:none;stop-color:#000000;stop-opacity:1"
             d="m 69.173695,279.576 c 1.103527,-0.44112 2.264156,-0.21331 3.407651,-0.31454 4.516929,-0.39986 3.089822,-6.89126 -1.135878,-3.22405 -0.684773,0.59428 -1.080764,1.51154 -1.514514,2.28044 -0.87861,1.55747 -1.181952,1.07823 -0.05825,2.93568 1.020271,1.68651 3.74345,2.60888 5.475544,1.70376 0.720276,-0.37637 1.242005,-0.56232 1.427142,-1.28436"
             id="path2048" />
          <path
             style="font-variation-settings:normal;opacity:1;vector-effect:none;fill:none;fill-opacity:1;stroke:#000000;stroke-width:0.949687;stroke-linecap:round;stroke-linejoin:round;stroke-miterlimit:4;stroke-dasharray:none;stroke-dashoffset:0;stroke-opacity:1;-inkscape-stroke:none;stop-color:#000000;stop-opacity:1"
             d="m 85.600338,273.99292 c -1.600856,0.49194 -0.919208,0.15864 -2.417395,1.17951 -5.83457,3.97568 2.605199,2.16003 3.262024,6.00247 0.434052,2.53923 -3.945149,4.32218 -5.766792,3.25025 -0.635037,-0.37367 -0.842055,-1.06429 -0.407755,-1.52027"
             id="path2050" />
          <path
             style="font-variation-settings:normal;opacity:1;vector-effect:none;fill:none;fill-opacity:1;stroke:#000000;stroke-width:0.949687;stroke-linecap:round;stroke-linejoin:round;stroke-miterlimit:4;stroke-dasharray:none;stroke-dashoffset:0;stroke-opacity:1;-inkscape-stroke:none;stop-color:#000000;stop-opacity:1"
             d="m 9.2339328,274.91031 c -0.4172908,3.36341 -0.9901946,8.2836 -0.4951269,11.40208"
             id="path2247" />
          <path
             style="font-variation-settings:normal;opacity:1;vector-effect:none;fill:none;fill-opacity:1;stroke:#000000;stroke-width:0.949687;stroke-linecap:round;stroke-linejoin:round;stroke-miterlimit:4;stroke-dasharray:none;stroke-dashoffset:0;stroke-opacity:1;-inkscape-stroke:none;stop-color:#000000;stop-opacity:1"
             d="m 9.3213117,277.97707 c 0.3203758,-0.35822 0.6407518,-0.71644 0.9611273,-1.07466 0.12621,-0.166 0.240082,-0.34216 0.378629,-0.49803 3.142352,-3.53504 2.91131,-1.081 2.82515,2.17557 -0.02949,1.11463 0.455626,2.85887 0.05825,3.93176"
             id="path2249" />
          <path
             style="font-variation-settings:normal;opacity:1;vector-effect:none;fill:none;fill-opacity:1;stroke:#000000;stroke-width:0.949687;stroke-linecap:round;stroke-linejoin:round;stroke-miterlimit:4;stroke-dasharray:none;stroke-dashoffset:0;stroke-opacity:1;-inkscape-stroke:none;stop-color:#000000;stop-opacity:1"
             d="m 12.991091,277.63634 c 0.611723,-1.54872 1.373927,-2.90844 3.145526,-2.98813 0.2722,-0.0122 0.565242,-0.0759 0.728131,0.18346 1.262468,2.01015 0.786383,6.27441 0.786383,8.64987 0,0.78634 0,1.57271 0,2.35905 0,0.35822 -0.286586,1.28961 0,1.07468 0.07279,-0.0546 0.116501,-0.1398 0.174751,-0.20968"
             id="path2251" />
          <path
             style="font-variation-settings:normal;opacity:1;vector-effect:none;fill:none;fill-opacity:1;stroke:#000000;stroke-width:0.949687;stroke-linecap:round;stroke-linejoin:round;stroke-miterlimit:4;stroke-dasharray:none;stroke-dashoffset:0;stroke-opacity:1;-inkscape-stroke:none;stop-color:#000000;stop-opacity:1"
             d="m 92.270013,276.79755 c 0.639836,-0.71138 1.218686,-1.64888 2.097026,-2.12314 1.445834,-0.78071 2.588525,-1.05617 3.698899,0.15726 0.219885,0.2403 0.434427,0.29986 0.611632,0.60288 1.184868,2.02608 0.294915,7.01001 -2.126147,8.0994 -1.375304,0.61884 -3.303386,0.27049 -3.698898,-1.15329"
             id="path2257" />
          <path
             style="font-variation-settings:normal;opacity:1;vector-effect:none;fill:none;fill-opacity:1;stroke:#000000;stroke-width:0.949687;stroke-linecap:round;stroke-linejoin:round;stroke-miterlimit:4;stroke-dasharray:none;stroke-dashoffset:0;stroke-opacity:1;-inkscape-stroke:none;stop-color:#000000;stop-opacity:1"
             d="m 103.92012,274.98894 c -1.72956,-0.36192 -2.20225,0.98404 -2.7669,2.35905 -0.30484,0.74235 -0.55338,1.28911 -0.55338,2.09693 0,2.37689 1.61343,5.66986 4.42704,3.72208 1.05112,-0.72768 1.45647,-1.81853 1.66014,-3.04056 0.40452,-2.42721 -0.43052,-4.35872 -2.7669,-5.1375 z"
             id="path2259" />
          <path
             style="font-variation-settings:normal;opacity:1;vector-effect:none;fill:none;fill-opacity:1;stroke:#000000;stroke-width:0.949687;stroke-linecap:round;stroke-linejoin:round;stroke-miterlimit:4;stroke-dasharray:none;stroke-dashoffset:0;stroke-opacity:1;-inkscape-stroke:none;stop-color:#000000;stop-opacity:1"
             d="m 109.59954,274.88409 c -0.0466,1.54863 -0.37566,3.06856 -0.466,4.61327 -0.0375,0.64072 -0.0686,1.32369 0,1.96588 0.79296,7.42188 5.17849,-0.65286 5.7668,-3.56481 0.13104,-0.6486 -0.1038,-1.30103 -0.17475,-1.93966 -0.0185,-0.16629 0.0224,-0.53324 -0.0874,-0.68151 -0.27051,-0.36515 0.0291,0.90858 0.0291,1.36303 0,1.08167 -0.15871,2.14688 -0.20388,3.22405 -0.0532,1.26751 0.13167,2.48378 0.37862,3.72205 0.41045,2.05801 2.34645,7.36547 -1.31063,7.36547 -0.4496,0 -0.35202,-2.03988 -0.34951,-2.17556 0.037,-1.9989 2.0239,-6.1854 2.91253,-7.78489"
             id="path2261" />
          <circle
             id="path2263"
             style="fill:#000000;stroke:none;stroke-width:0.264583"
             cx="121.24964"
             cy="283.92712"
             r="0.80723476" />
          <path
             style="font-variation-settings:normal;opacity:1;vector-effect:none;fill:none;fill-opacity:1;stroke:#000000;stroke-width:0.949687;stroke-linecap:round;stroke-linejoin:round;stroke-miterlimit:4;stroke-dasharray:none;stroke-dashoffset:0;stroke-opacity:1;-inkscape-stroke:none;stop-color:#000000;stop-opacity:1"
             d="m 129.69596,274.2026 c -0.37863,-0.26212 -0.72519,-0.57803 -1.13588,-0.78634 -0.86021,-0.43635 -1.9416,0.80372 -2.38828,1.363 -1.71011,2.14127 -1.29574,4.16833 -0.20387,6.44808 0.21232,0.44331 0.4367,1.12398 0.78639,1.52027 0.92798,1.05167 3.17597,1.53456 4.42703,0.8912 0.287,-0.14759 2.24922,-1.88101 1.13588,-1.57271"
             id="path2265" />
          <path
             style="font-variation-settings:normal;opacity:1;vector-effect:none;fill:none;fill-opacity:1;stroke:#000000;stroke-width:0.949687;stroke-linecap:round;stroke-linejoin:round;stroke-miterlimit:4;stroke-dasharray:none;stroke-dashoffset:0;stroke-opacity:1;-inkscape-stroke:none;stop-color:#000000;stop-opacity:1"
             d="m 137.76366,275.53941 c -1.71807,-1.6388 -2.39307,0.47379 -2.88341,2.01829 -0.41178,1.29704 -0.61273,2.59697 -0.5825,3.95796 0.0158,0.71215 -0.0323,1.59181 0.26213,2.25419 0.48712,1.09599 2.40667,1.71342 3.3494,0.86498 1.10019,-0.99012 1.36437,-2.55087 1.74753,-3.90551 0.66079,-2.3363 0.78984,-4.56904 -1.89315,-5.18991 z"
             id="path2267" />
          <path
             style="font-variation-settings:normal;opacity:1;vector-effect:none;fill:none;fill-opacity:1;stroke:#000000;stroke-width:0.949687;stroke-linecap:round;stroke-linejoin:round;stroke-miterlimit:4;stroke-dasharray:none;stroke-dashoffset:0;stroke-opacity:1;-inkscape-stroke:none;stop-color:#000000;stop-opacity:1"
             d="m 142.3072,275.67046 c -0.16,2.56214 -0.15145,5.13699 -0.233,7.70622 -0.0167,0.52549 -0.0369,1.08519 0.0582,1.59893 0.0191,0.10309 -0.0697,0.39291 0,0.31454 0.16962,-0.19082 0.28949,-0.42063 0.43689,-0.6291"
             id="path2269" />
          <path
             style="font-variation-settings:normal;opacity:1;vector-effect:none;fill:none;fill-opacity:1;stroke:#000000;stroke-width:0.949687;stroke-linecap:round;stroke-linejoin:round;stroke-miterlimit:4;stroke-dasharray:none;stroke-dashoffset:0;stroke-opacity:1;-inkscape-stroke:none;stop-color:#000000;stop-opacity:1"
             d="m 142.56933,278.60617 c 0.24445,-0.47821 0.36813,-1.25585 0.84463,-1.62513 0.25923,-0.20089 0.5392,-0.37377 0.81551,-0.55046 4.00364,-2.56011 1.4443,4.45182 2.563,4.35115"
             id="path2271" />
          <path
             style="font-variation-settings:normal;opacity:1;vector-effect:none;fill:none;fill-opacity:1;stroke:#000000;stroke-width:0.949687;stroke-linecap:round;stroke-linejoin:round;stroke-miterlimit:4;stroke-dasharray:none;stroke-dashoffset:0;stroke-opacity:1;-inkscape-stroke:none;stop-color:#000000;stop-opacity:1"
             d="m 147.34587,277.32177 c -0.035,0.24496 2.19297,-2.61868 2.79601,-1.8348 0.99227,1.28984 0.32373,8.12228 0.11651,9.98664 -0.0374,0.33655 -0.15374,1.93969 0.17474,1.93969"
             id="path2273" />
        </g>
      </g>
    </g>
  </g>
</svg>
