<?xml version="1.0" encoding="UTF-8" standalone="no"?>
<!-- Created with Inkscape (http://www.inkscape.org/) -->

<svg
   width="1in"
   height="1in"
   viewBox="0 0 25.4 25.4"
   version="1.1"
   id="svg1391"
   inkscape:version="1.1.2 (0a00cf5339, 2022-02-04)"
   sodipodi:docname="favicon.svg"
   inkscape:export-filename="/home/luke/code/menieres_boy/favicon.png"
   inkscape:export-xdpi="64"
   inkscape:export-ydpi="64"
   xmlns:inkscape="http://www.inkscape.org/namespaces/inkscape"
   xmlns:sodipodi="http://sodipodi.sourceforge.net/DTD/sodipodi-0.dtd"
   xmlns="http://www.w3.org/2000/svg"
   xmlns:svg="http://www.w3.org/2000/svg"
   xmlns:rdf="http://www.w3.org/1999/02/22-rdf-syntax-ns#"
   xmlns:cc="http://creativecommons.org/ns#"
   xmlns:dc="http://purl.org/dc/elements/1.1/">
  <defs
     id="defs1385" />
  <sodipodi:namedview
     id="base"
     pagecolor="#ffffff"
     bordercolor="#666666"
     borderopacity="1.0"
     inkscape:pageopacity="0.0"
     inkscape:pageshadow="2"
     inkscape:zoom="1.8143557"
     inkscape:cx="-136.41206"
     inkscape:cy="-15.432476"
     inkscape:document-units="in"
     inkscape:current-layer="g1494"
     showgrid="false"
     units="in"
     inkscape:window-width="1920"
     inkscape:window-height="1007"
     inkscape:window-x="0"
     inkscape:window-y="0"
     inkscape:window-maximized="1"
     inkscape:pagecheckerboard="0"
     width="1in" />
  <metadata
     id="metadata1388">
    <rdf:RDF>
      <cc:Work
         rdf:about="">
        <dc:format>image/svg+xml</dc:format>
        <dc:type
           rdf:resource="http://purl.org/dc/dcmitype/StillImage" />
      </cc:Work>
    </rdf:RDF>
  </metadata>
  <g
     inkscape:label="Layer 1"
     inkscape:groupmode="layer"
     id="layer1"
     transform="translate(0,-246.2)">
    <g
       id="g1494"
       transform="matrix(0.76877424,0,0,0.76877424,-27.237373,50.315691)">
      <g
         id="g2453"
         style="stroke-width:0.49559413;stroke-miterlimit:4;stroke-dasharray:none">
        <path
           style="opacity:1;fill:#000000;fill-opacity:1;stroke:#000000;stroke-width:0.49559413;stroke-linecap:round;stroke-linejoin:round;stroke-miterlimit:4;stroke-dasharray:none;stroke-dashoffset:0;stroke-opacity:1"
           d="m 46.286645,273.54097 2e-6,2e-5 c 0.06366,0.39655 0.253672,0.18686 0.400902,0.33409 0.06266,0.0627 0.239604,0.62902 0.133635,0.73499 -0.203763,0.20376 -0.690565,0.0112 -0.935442,0.13364 -0.917797,0.45889 -2.605879,-0.65881 -2.605879,-1.33635 0,-0.0776 -0.06682,-0.17914 -0.06682,-0.33409 0,-0.0408 0.02603,-0.24123 0,-0.26727 -0.0038,-0.004 -0.205812,-0.12827 -0.133634,-0.20045 0.08257,-0.0826 0.542502,0.19249 0.601356,0.13363 0.06058,-0.0606 -0.242401,-0.17558 -0.267269,-0.20045 -0.213278,-0.21327 -0.414337,-0.36095 -0.53454,-0.60135 -0.04027,-0.0805 -0.0076,-0.20802 -0.06682,-0.26727 -0.180393,-0.1804 -0.894559,-0.51959 -1.00226,-0.735 -0.09441,-0.18881 -0.107159,-0.41477 -0.200451,-0.60135 -0.162534,-0.32507 -0.314076,-0.4277 -0.467723,-0.73499 -0.256733,-0.51347 -0.128148,-1.2082 0.200451,-1.5368 0.05814,-0.0581 0.119446,-0.38672 0.200454,-0.46772 0.158956,-0.15896 -0.07426,-0.95032 -0.133636,-1.06908 -0.07774,-0.15549 -0.178377,-0.22312 -0.267269,-0.40091 -0.04856,-0.0971 -0.04856,-0.70468 0,-0.80181 0.06462,-0.12924 0.194255,-0.19425 0.267269,-0.26727 0.05626,-0.0562 0.283776,-0.50073 0.334087,-0.60135 0.108902,-0.21781 -0.06682,-0.92937 -0.06682,-1.20271 0,-0.13843 -0.08809,-0.78054 0,-0.86863 0.390194,-0.39019 0.558594,-1.02632 0.935445,-1.40317 0.06241,-0.0624 0.07122,-0.27167 0.133633,-0.33408 0.26466,-0.26466 0.3721,-0.90664 0.601358,-1.1359 0.276268,-0.27627 0.730242,-0.66342 1.002261,-0.93544 0.104981,-0.10498 0.362738,-0.16229 0.467722,-0.26727 0.260324,-0.26032 0.597953,-0.69988 1.069078,-0.93544 0.100944,-0.0505 0.161062,-0.23187 0.267269,-0.26727 0.386903,-0.12897 0.849299,-0.51521 1.069078,-0.73499 0.03089,-0.0309 0.16011,0.0202 0.200451,0 0.406892,-0.20345 0.627824,-0.34733 1.002263,-0.53454 0.22765,-0.11383 0.565348,-0.0976 0.734991,-0.26727 0.03089,-0.0309 0.160107,0.0202 0.200451,0 0.409787,-0.2049 1.617223,-0.0668 2.138156,-0.0668 h 0.601356 c 0.113569,0 0.334086,0.18038 0.334086,0.0668 0,-0.078 -0.602421,-0.13257 -0.534537,-0.20046 0.152585,-0.15258 1.388348,-0.47513 1.670433,-0.33408 0.151951,0.076 1.286333,0.48452 1.33635,0.53454 0.084,0.084 0.188875,0.25569 0.267269,0.33408 0.0315,0.0315 0.102137,-0.0315 0.133633,0 0.206478,0.20648 0.263086,0.46354 0.400904,0.60136 0.0438,0.0438 0.233794,0.0333 0.267272,0.0668 0.102695,0.10269 0.348779,0.14833 0.400902,0.20045 0.106188,0.10619 0.200596,0.20059 0.334089,0.33409 0.196713,0.19671 0.124661,0.59238 0.334087,0.80181 0.207372,0.20737 1.175734,0.24029 1.469983,0.53453 0.164401,0.16441 0.619061,0.55225 0.801806,0.735 0.05861,0.0586 0.141843,0.27547 0.200454,0.33408 0.256074,0.25608 0.414165,0.41417 0.668173,0.66818 0.03255,0.0326 0.147476,0.41474 0.200451,0.46772 0.146188,0.14619 0.278289,0.27829 0.400905,0.4009 0.09403,0.094 0.128474,0.32893 0.200453,0.40091 0.04454,0.0445 -0.04454,0.22272 0,0.26727 0.264777,0.26477 0.08134,1.28405 0.200451,1.40316 0.162907,0.16291 0.284435,0.61852 0.334087,0.66817 0.737759,0.73776 0.182806,1.90618 -0.200451,2.6727 -0.08457,0.16913 0.128543,0.67327 0,0.80181 -0.06584,0.0658 -0.32444,0.71569 -0.400904,0.86862 -0.05634,0.11268 0.08565,0.44889 0,0.53454 -0.178081,0.17808 -0.551458,-0.15055 -0.601359,-0.20045 -0.07795,-0.0779 0.07796,-0.38977 0,-0.46772 -0.140491,-0.14049 -0.02561,-1.36196 -0.133633,-1.46998 -0.216384,-0.21639 -0.267269,-0.62589 -0.267269,-1.00226 0,-0.73964 -0.331282,-0.7962 -0.601358,-1.33635 -0.09867,-0.19733 0.149977,-0.78547 0,-0.93544 -0.04454,-0.0446 -0.02228,-0.15591 -0.06682,-0.20046 -0.147423,-0.14742 -0.255444,-0.45589 -0.400902,-0.60135 -0.106529,-0.10653 -0.03585,-0.50357 -0.133635,-0.60136 -0.09091,-0.0909 -0.09114,-0.29159 -0.133636,-0.33409 -0.301773,-0.30177 -0.349282,-0.75018 -0.668174,-1.06907 -0.425878,-0.42588 -0.956844,-0.89003 -1.269529,-1.20272 -0.126605,-0.1266 -0.862298,-0.32776 -0.935445,-0.4009 -0.345784,-0.34579 -1.46141,-0.39233 -1.737251,-0.66818 -0.03192,-0.0319 -0.338958,-0.0358 -0.400905,-0.0668 -0.07666,-0.0383 -2.930125,-0.0383 -3.00678,0 -0.239445,0.11972 -0.557692,0.1118 -0.734991,0.20045 -0.437666,0.21883 -0.679191,0.47874 -1.002261,0.80181 -0.115146,0.11514 -0.347337,0.14688 -0.467722,0.26727 -0.282006,0.282 -0.78205,0.69547 -1.00226,1.13589 -0.098,0.196 0.098,0.539 0,0.73499 -0.158684,0.31737 -0.154377,0.68892 -0.400905,0.93545 -0.05409,0.0541 0,0.44955 0,0.53454 0,0.24367 0.231804,0.76634 0.334087,0.86862 0.132744,0.13275 -0.0204,0.62738 0.06682,0.80181 0.09456,0.18912 0.313399,0.64749 0.400904,0.73499 0.155906,0.15591 -0.155908,0.77954 0,0.93545 0.135171,0.13517 0.240485,0.77502 0.400902,0.93544 0.181261,0.18126 -0.206433,3.20125 -0.06681,3.34087 0.124142,0.12414 0.243896,0.77843 0.334087,0.86862 0.1168,0.1168 0.935442,1.57735 0.935442,1.60362 0,0.10917 0.08619,0.23919 0.133636,0.33409 0.09161,0.18323 -0.139261,0.72936 0,0.86862 0.225861,0.22587 0.435329,1.23511 0.133633,1.5368 -0.03341,0.0334 0.03341,0.16705 0,0.20046 -0.09205,0.0921 -0.355867,0.0668 -0.534538,0.0668 -1.322538,0 -0.63909,-0.43864 -1.269531,-1.06907 -0.248629,-0.24863 -0.60396,-0.47033 -0.868625,-0.735 l -2.4e-5,10e-6 c -0.01532,-0.0153 0.03341,-0.0812 0.03341,-0.16702 0,-0.22395 -0.01669,-0.40381 -0.01669,-0.61806 0,-0.0607 0.04283,-0.19826 0.01669,-0.25056 -0.06332,-0.12663 -0.04396,-0.36311 0.0167,-0.48443 0.04193,-0.0839 -0.02309,-0.44713 -0.05011,-0.50113 -0.01336,-0.0267 0.01336,-0.0735 0,-0.10022 -0.03921,-0.0784 -0.01251,-0.20878 -0.05011,-0.28398 -0.09022,-0.18044 -0.110991,-0.37232 -0.200451,-0.55124 -0.01289,-0.0257 -0.0038,-0.0745 -0.01669,-0.10023 -0.05349,-0.10697 -0.112915,-0.20912 -0.167045,-0.31738 -0.005,-0.01 0.0079,-0.0254 0,-0.0334 -0.01525,-0.0152 -0.05126,-0.0524 -0.06682,-0.0835 -0.05572,-0.11144 -0.08138,-0.24839 -0.167042,-0.33409 -0.01662,-0.0166 -0.100313,-0.28408 -0.116933,-0.30068 -0.02504,-0.025 -0.03574,-0.10253 -0.06682,-0.13363 -0.02367,-0.0236 -0.06294,-0.059 -0.08352,-0.10023 -0.0051,-0.0101 -0.0097,-0.0431 -0.0167,-0.0501 -0.08767,-0.0877 -0.235283,-0.26869 -0.317383,-0.35079 -0.01997,-0.0199 -0.04684,-0.0802 -0.06682,-0.10023 -0.02542,-0.0254 -0.0915,-0.0581 -0.11693,-0.0835 -0.05054,-0.0505 -0.154017,-0.15406 -0.217157,-0.21716 -0.03674,-0.0367 -0.06549,-0.12463 -0.11693,-0.15033 -0.05947,-0.0297 -0.106909,-0.0735 -0.150339,-0.11694 -0.03288,-0.0329 -0.09288,-0.0427 -0.11693,-0.0668 -0.0079,-0.008 -0.02551,0.008 -0.03341,0 -0.06353,-0.0635 -0.140939,-0.0537 -0.233859,-0.10023 -0.166495,-0.0832 -0.389369,-0.17092 -0.601359,-0.10022 -0.04035,0.0137 -0.05912,-0.008 -0.08352,0.0167 -0.0106,0.0106 -0.0529,-0.007 -0.06682,0 -0.04364,0.0218 -0.0891,0.039 -0.11693,0.0668 -0.04381,0.0438 -0.149901,0.0664 -0.200451,0.11693 -0.0084,0.009 -0.05587,0.006 -0.06682,0.0167 -0.0424,0.0424 -0.231809,0.17966 -0.267269,0.25056 -0.0362,0.0724 -0.07587,0.15177 -0.116933,0.23387 -0.05372,0.10745 -0.0794,0.22562 -0.133633,0.33408 -0.02061,0.0412 0.08068,0.33689 0.06682,0.35079 -0.02704,0.027 0.003,0.0608 -0.01669,0.10023 -0.08223,0.16447 -0.09761,0.42022 0.03341,0.55124 0.02248,0.0225 0.01343,0.11364 0.03341,0.13364 0.07621,0.0762 0.05869,0.24238 0.133635,0.31738 0.04107,0.041 0.144798,0.0946 0.183748,0.13364 0.08919,0.0892 0.101021,0.21798 0.200451,0.31738 0.152935,0.15293 0.301681,0.28497 0.451017,0.43431 0.0097,0.01 0.02371,0.0568 0.03341,0.0668 0.07665,0.0767 0.170075,0.20347 0.250565,0.28397 0.0056,0.005 0.0111,0.0441 0.0167,0.0501 0.07417,0.0742 0.193451,0.12665 0.267271,0.20045 0.01113,0.0111 0.02227,-0.0111 0.03341,0 0.04299,0.043 0.07991,0.11334 0.11693,0.15034 0.0079,0.008 -0.0079,0.0254 0,0.0334 0.03469,0.0347 0.08768,0.0542 0.133633,0.10022 0.113644,0.11364 0.224874,0.23258 0.317384,0.41761 0.02388,0.0478 0.216459,0.16636 0.267269,0.21716 0.0056,0.006 0.04451,0.0107 0.05011,0.0167 0.04538,0.0454 0.08105,0.13115 0.133633,0.18375 0.0097,0.01 0.05712,0.0234 0.06682,0.0334 0.133051,0.133 0.325335,0.1341 0.534538,0.1002"
           id="path1987"
           inkscape:connector-curvature="0"
           sodipodi:nodetypes="cccccssccccccccccccccccscccscccccccccssscccccccccccccccccccccccccccscccccccccccccccsccscccccccsccccscccsscscccccscccccccccccccccccsccccccscccccccccccccccccccccc" />
        <path
           style="opacity:1;fill:none;fill-opacity:1;stroke:#000000;stroke-width:0.49559413;stroke-linecap:round;stroke-linejoin:round;stroke-miterlimit:4;stroke-dasharray:none;stroke-dashoffset:0;stroke-opacity:1"
           d="m 44.945154,272.05823 c -0.0928,-0.0112 -0.199584,-0.046 -0.259858,-0.1063 -0.0067,-0.007 -0.116642,-0.0458 -0.141743,-0.0709 -0.06044,-0.0604 -0.08769,-0.11132 -0.14174,-0.16537 -0.01413,-0.0141 -0.05675,-0.0331 -0.07087,-0.0472 -0.0761,-0.0761 -0.152323,-0.15233 -0.224422,-0.22443 -0.0039,-0.004 -0.0079,-0.0315 -0.0118,-0.0354 -0.04687,-0.0469 -0.02934,-0.0823 -0.05906,-0.14174 -0.03826,-0.0765 -0.09554,-0.13203 -0.129929,-0.2008 -0.02987,-0.0598 -2.6e-5,-0.17723 -0.03544,-0.24805 -0.02519,-0.0504 0.02519,-0.13859 0,-0.18899 -0.03172,-0.0634 -0.04725,-0.39413 -0.04725,-0.48428 0,-0.0245 0.01558,-0.13798 0,-0.15355 -0.03204,-0.0321 -0.01794,-0.1658 -0.04725,-0.22443 -0.02048,-0.0409 0.02048,-0.1126 0,-0.15355 -0.0084,-0.0168 -0.02363,-0.0398 -0.02363,-0.0591"
           id="path1993"
           inkscape:connector-curvature="0" />
        <path
           style="opacity:1;fill:none;fill-opacity:1;stroke:#000000;stroke-width:0.49559413;stroke-linecap:round;stroke-linejoin:round;stroke-miterlimit:4;stroke-dasharray:none;stroke-dashoffset:0;stroke-opacity:1"
           d="m 43.386001,269.30609 c 0.02426,-0.009 -0.0208,-0.0411 -0.0118,-0.0591 0.06908,-0.13816 0.26957,-0.37102 0.377975,-0.42523 0.0461,-0.0231 0.14627,-0.005 0.177179,-0.0354 0.02233,-0.0223 0.30721,0.0413 0.366162,0.0118 0.102145,-0.0511 0.546515,0.037 0.637836,0.0827 0.05893,0.0295 0.141478,0.0706 0.188987,0.11812 0.03565,0.0356 0.08457,0.10819 0.118118,0.14174 0.01373,0.0137 0.01606,0.0557 0.02363,0.0709 0.01926,0.0385 0.10554,0.15278 0.129929,0.17718 0.01857,0.0186 0.03265,0.0681 0.04725,0.0827 0.0059,0.006 0.03359,0.13805 0.04725,0.16536 0.03175,0.0635 0.09853,0.13397 0.129929,0.16537 0.0056,0.006 -0.0056,0.0181 0,0.0236 0.04469,0.0447 0.05937,0.10693 0.0945,0.17718 0.0075,0.015 0,0.0538 0,0.0709 0,0.0495 0.0076,0.15012 -0.01183,0.18899 -0.01725,0.0345 -0.06878,0.13965 -0.08268,0.15355 -0.01087,0.0109 -0.01691,0.12321 -0.02363,0.12993 -0.0113,0.0113 -0.02363,0.0444 -0.02363,0.0709 0,0.0182 -0.02912,0.0835 -0.0118,0.11812 0.04303,0.0861 0.06193,0.19186 0.118118,0.24804 0.0056,0.006 -0.0056,0.0181 0,0.0236 0.03363,0.0336 0.07461,0.0746 0.106304,0.1063 0.02646,0.0265 0.05419,0.0306 0.08268,0.0591 0.04319,0.0432 0.113107,0.15105 0.165365,0.17718 0.04978,0.0249 0.115615,0.0684 0.153554,0.10631 0.02159,0.0216 0.05341,0.0652 0.08268,0.0945 0.0056,0.006 -0.0035,0.0166 0,0.0236 0.04029,0.0806 0.08185,0.19997 0.129929,0.24805 0.02289,0.0229 0.0276,0.11028 0.03543,0.11812 0.0084,0.008 0.06745,0.0995 0.08268,0.12993 0.0041,0.008 0.0118,0.0253 0.0118,0"
           id="path1995"
           inkscape:connector-curvature="0" />
        <path
           style="opacity:1;fill:none;fill-opacity:1;stroke:#000000;stroke-width:0.49559413;stroke-linecap:round;stroke-linejoin:round;stroke-miterlimit:4;stroke-dasharray:none;stroke-dashoffset:0;stroke-opacity:1"
           d="m 44.862471,270.818 c -0.06644,-0.0744 -0.07827,-0.17419 -0.03543,-0.25986 0.0104,-0.0208 0.0122,-0.0835 0.02363,-0.10631 0.02135,-0.0427 0.03826,-0.0883 0.05906,-0.12992 0.02657,-0.0531 0.160004,-0.18363 0.2008,-0.22443 0.01495,-0.0149 0.05707,-0.0216 0.07087,-0.0354 0.02827,-0.0283 0.06911,-0.0792 0.09449,-0.12993 0.0087,-0.0174 0.01566,-0.0157 0.02363,-0.0236 0.0054,-0.005 0.0054,-0.12452 0,-0.12993 -0.0441,-0.0441 -0.112387,-0.0798 -0.165365,-0.1063 -0.0269,-0.0134 -0.0663,0.002 -0.0945,-0.0118 -0.04095,-0.0205 -0.112604,0.0205 -0.153551,0 -0.05617,-0.0281 -0.09619,-0.0658 -0.153553,-0.0945 -0.03791,-0.019 -0.101481,-0.0542 -0.129929,-0.0827 -0.02458,-0.0246 -0.05021,-0.0738 -0.07087,-0.0945 -0.0024,-0.002 -0.04725,-0.16462 -0.04725,-0.12993"
           id="path1997"
           inkscape:connector-curvature="0" />
        <path
           style="opacity:1;fill:none;fill-opacity:1;stroke:#000000;stroke-width:0.49559413;stroke-linecap:round;stroke-linejoin:round;stroke-miterlimit:4;stroke-dasharray:none;stroke-dashoffset:0;stroke-opacity:1"
           d="m 54.638817,274.7103 c 0.02815,-0.051 0.467162,5.3e-4 0.501132,-0.0334 0.07287,-0.0729 0.516945,-0.11604 0.534538,-0.13364 0.209362,-0.20936 1.365628,-0.25263 1.670436,-0.10022 0.07609,0.038 0.187513,-0.006 0.267269,0.0334 0.136924,0.0685 0.376311,-0.0668 0.467722,-0.0668 0.05532,0 0.421688,0.0208 0.434314,0.0334 0.03607,0.0361 0.501128,0.1886 0.501128,0.10022 0,-0.1002 -0.278862,-0.21204 -0.334086,-0.26727 -0.03898,-0.039 -0.02784,-0.12806 -0.06682,-0.16704 -0.02668,-0.0267 -0.09963,-0.13334 -0.167042,-0.16704 -0.03899,-0.0195 -0.455983,-0.17879 -0.501132,-0.13364 -0.16833,0.16833 -0.333049,0.25005 -0.567946,0.3675 -0.04892,0.0245 -0.352528,-0.11867 -0.400905,-0.16705 -0.02191,-0.0219 -0.05008,-0.0835 -0.06682,-0.10022 -0.02228,-0.0223 -0.111363,0.0223 -0.133636,0 -0.0167,-0.0167 -0.281712,-0.11919 -0.334086,-0.0668 -0.07831,0.0783 -0.282512,0.0744 -0.400905,0.13364 -0.129532,0.0648 -0.26816,0.13408 -0.400902,0.20045 -0.03752,0.0188 -0.174921,0.008 -0.200453,0.0334 -0.08293,0.0829 -0.334132,0.13367 -0.367496,0.16704 -0.09899,0.099 -0.281437,0.25765 -0.434314,0.33409 z"
           id="path1999"
           inkscape:connector-curvature="0" />
        <path
           style="opacity:1;fill:none;fill-opacity:1;stroke:#000000;stroke-width:0.49559413;stroke-linecap:round;stroke-linejoin:round;stroke-miterlimit:4;stroke-dasharray:none;stroke-dashoffset:0;stroke-opacity:1"
           d="m 56.376069,275.4787 c 0.137557,-0.17 0.340786,-0.14034 0.467722,-0.26727 0.05891,-0.0589 0.289984,0.0387 0.367496,0 0.03471,-0.0174 0.223642,-0.077 0.267269,-0.0334 0.07652,0.0765 0.178657,0.10603 0.30068,0.16704 0.04818,0.0241 0.434311,0.0415 0.434311,0.10023 0,0.0274 -0.176292,0.10947 -0.200451,0.13363 -0.02363,0.0236 -0.196752,0 -0.23386,0 -0.190399,0 -1.053335,0.1081 -1.202713,0.0334 -0.06959,-0.0348 -0.129022,-0.0801 -0.200454,-0.13363 z"
           id="path2001"
           inkscape:connector-curvature="0" />
        <path
           style="opacity:1;fill:none;fill-opacity:1;stroke:#000000;stroke-width:0.49559413;stroke-linecap:round;stroke-linejoin:round;stroke-miterlimit:4;stroke-dasharray:none;stroke-dashoffset:0;stroke-opacity:1"
           d="m 55.674487,271.2692 c -0.0308,0.0737 -0.188471,-0.0454 -0.23386,0 -0.314664,0.31467 -0.316434,0.65242 0,0.96885 0.03334,0.0333 0.02299,0.10023 0.100226,0.10023 0.168794,0 0.324911,-0.005 0.467723,0.0668 0.0992,0.0496 0.354351,0 0.46772,0 0.03168,0 0.180276,-0.0202 0.200453,0 0.05949,0.0595 0.193667,0.0266 0.267269,0.10022 0.04752,0.0475 0.29305,0.15942 0.300678,0.16705 0.203393,0.20339 0.597315,0.16906 0.801809,0.0668 0.203915,-0.10195 0.269899,-0.3033 0.434314,-0.46772 0.02297,-0.023 0.02944,-0.0963 0.06681,-0.13363 0.05089,-0.0509 -7.94e-4,-0.19908 0.03341,-0.26727 0.03283,-0.0657 0.07409,-0.28614 0.03341,-0.3675 -0.04219,-0.0844 -0.164047,-0.13064 -0.200451,-0.16704 -0.0708,-0.0708 -0.0583,-0.42579 -0.100227,-0.46772 -0.128228,-0.12823 -0.149847,-0.41712 -0.267269,-0.53454 -0.01574,-0.0158 0.01574,-0.0511 0,-0.0668 -0.117496,-0.1175 -0.243192,-0.28593 -0.334087,-0.46772 -0.04327,-0.0865 -0.01807,-0.41897 -0.06682,-0.46772 -0.02228,-0.0223 -0.01114,-0.078 -0.03341,-0.10023 -0.194961,-0.19496 -0.246788,-0.48065 -0.400905,-0.63476 -0.02978,-0.0298 -0.01566,-0.0982 -0.03341,-0.13364 -0.02461,-0.0492 -0.04433,-0.0443 -0.06682,-0.0668 -0.01669,-0.0167 0.01669,-0.0835 0,-0.10022 -0.0882,-0.0882 -0.08321,-0.31707 -0.167042,-0.40091 -0.04454,-0.0445 0.04454,-0.22272 0,-0.26727 -0.163227,-0.16322 -0.205679,-0.49067 -0.100227,-0.70158 0.05098,-0.10195 0.02943,-0.22988 0.100227,-0.30068 0.0167,-0.0167 -0.01669,-0.0835 0,-0.10022 0.09697,-0.097 0.207907,-0.20791 0.334087,-0.33409 0.01574,-0.0157 0.05107,0.0158 0.06682,0 0.201948,-0.20195 1.160211,-0.33409 1.503391,-0.33409 0.128358,0 0.667642,-0.1339 0.734992,-0.10022 0.05258,0.0263 0.117977,0.009 0.167042,0.0334 0.09301,0.0465 0.09942,0.0994 0.167044,0.16704 0.03383,0.0338 0.0474,0.0334 -0.03341,0.0334"
           id="path2003"
           inkscape:connector-curvature="0" />
        <path
           style="opacity:1;fill:none;fill-opacity:1;stroke:#000000;stroke-width:0.49559413;stroke-linecap:round;stroke-linejoin:round;stroke-miterlimit:4;stroke-dasharray:none;stroke-dashoffset:0;stroke-opacity:1"
           d="m 55.039722,266.2579 c -0.246795,-0.13014 -0.335396,-0.21781 -0.567947,-0.33409 -0.08924,-0.0446 -0.838361,-0.0334 -1.00226,-0.0334 -0.193225,0 -0.898239,-0.0687 -1.035672,0 -0.0462,0.0231 -0.290771,0.0569 -0.300677,0.0668 -0.09862,0.0986 -0.410163,0.0882 -0.567947,0.16704 -0.04218,0.0211 -0.168381,-0.0321 -0.200454,0 -0.05292,0.0529 -0.219609,0.0526 -0.267268,0.10023 -0.08739,0.0874 -0.318363,0.18473 -0.400905,0.26727 -0.0379,0.0379 -0.280173,0.11313 -0.300678,0.13363 -0.03958,0.0396 -0.156048,0.0892 -0.200451,0.13364 -0.09031,0.0903 -0.228634,0.26204 -0.334087,0.36749 -0.04082,0.0408 -0.139258,0.0724 -0.167044,0.10023 -0.02458,0.0246 0.02688,0.0603 0.03341,0.0668"
           id="path2005"
           inkscape:connector-curvature="0" />
        <path
           style="opacity:1;fill:#000000;fill-opacity:1;stroke:#000000;stroke-width:0.49559413;stroke-linecap:round;stroke-linejoin:round;stroke-miterlimit:4;stroke-dasharray:none;stroke-dashoffset:0;stroke-opacity:1"
           d="m 50.963863,268.06197 c -0.01114,-0.0446 -0.03341,-0.0877 -0.03341,-0.13364 0,-0.0377 0.19816,-0.0979 0.23386,-0.13363 0.133705,-0.13371 0.585584,-0.37632 0.835219,-0.50113 0.09419,-0.0471 0.293711,-0.0599 0.367495,-0.13364 0.245147,-0.24514 1.446567,-0.84692 1.937703,-0.60135 0.147097,0.0735 0.644017,0.14288 0.701582,0.20045 0.01667,0.0167 0,0.14088 0,0.16704 0,0.035 -0.01339,0.11362 -0.03341,0.13364 -0.154146,0.15414 -0.48473,0.17524 -0.701582,0.0668 -0.08271,-0.0414 -0.142775,-0.009 -0.200451,-0.0668 -0.02889,-0.0289 -0.222777,-0.0223 -0.267269,-0.0668 -0.03295,-0.033 -0.246676,-0.006 -0.300681,-0.0334 -0.112614,-0.0563 -0.519295,0.0182 -0.567946,0.0668 -0.02506,0.025 -0.434769,0.0336 -0.501132,0.0668 -0.591822,0.29592 -1.052676,0.41245 -1.46998,0.96886 z"
           id="path2007"
           inkscape:connector-curvature="0" />
        <path
           style="opacity:1;fill:none;fill-opacity:1;stroke:#000000;stroke-width:0.49559413;stroke-linecap:round;stroke-linejoin:round;stroke-miterlimit:4;stroke-dasharray:none;stroke-dashoffset:0;stroke-opacity:1"
           d="m 51.281244,268.09538 c 0.03791,-0.1593 0.19793,-0.21464 0.300678,-0.31739 0.01148,-0.0115 0.04813,-0.0147 0.06682,-0.0334 0.0057,-0.006 0.238575,-0.0608 0.283975,-0.0835 0.02663,-0.0133 0.09638,0.004 0.11693,-0.0167 0.05923,-0.0592 0.318823,-0.0683 0.350792,-0.10023 0.01974,-0.0197 0.335121,0.008 0.384199,-0.0167 0.05333,-0.0267 0.289716,-0.0473 0.350792,-0.0167 0.03083,0.0154 0.314857,0.10023 0.35079,0.10023 0.141735,0 0.518412,0.16733 0.618062,0.21715 0.05211,0.0261 0.293531,0.21716 0.167042,0.21716"
           id="path2013"
           inkscape:connector-curvature="0" />
        <path
           style="opacity:1;fill:#000000;fill-opacity:1;stroke:#000000;stroke-width:0.49559413;stroke-linecap:round;stroke-linejoin:round;stroke-miterlimit:4;stroke-dasharray:none;stroke-dashoffset:0;stroke-opacity:1"
           d="m 52.801339,267.59425 c -0.02228,-0.0111 -0.04266,-0.0274 -0.06682,-0.0334 -0.02416,-0.006 0.05061,0.0145 0.06682,0.0334 0.01574,0.0184 0.116933,0.25506 0.116933,0.26726 0,0.2747 -0.04534,0.32932 -0.200454,0.48443 -0.02426,0.0243 -0.126132,0.0593 -0.133633,0.0668 -0.02138,0.0214 -0.292439,0.10434 -0.334087,0.0835 -0.135228,-0.0676 -0.309398,-0.0545 -0.434313,-0.11693 -0.09251,-0.0463 -0.189857,-0.14585 -0.233863,-0.23386 -0.01267,-0.0254 -0.02836,-0.0618 -0.05011,-0.0835 -0.02228,-0.0223 0.0056,-0.0947 -0.01669,-0.11693 -0.0056,-0.006 -0.07486,-0.0588 -0.05011,-0.0835 0.04956,-0.0496 0.39669,-0.11271 0.400905,-0.11693 0.03317,-0.0332 0.30027,-0.10002 0.367495,-0.13363 0.03518,-0.0176 0.397471,-0.087 0.434314,-0.0501 0.02379,0.0238 0.08457,0.0334 0.133633,0.0334 z"
           id="path2015"
           inkscape:connector-curvature="0" />
        <path
           style="opacity:1;fill:none;fill-opacity:1;stroke:#000000;stroke-width:0.49559413;stroke-linecap:round;stroke-linejoin:round;stroke-miterlimit:4;stroke-dasharray:none;stroke-dashoffset:0;stroke-opacity:1"
           d="m 51.398174,268.32924 c 0.01643,0.0451 0.09767,0.0308 0.116933,0.0501 0.07999,0.08 0.205899,0.11965 0.334087,0.18375 0.05838,0.0292 0.179824,0.0128 0.217156,0.0501 0.02477,0.0248 0.282993,-9.8e-4 0.334087,0.0501"
           id="path2017"
           inkscape:connector-curvature="0" />
        <path
           style="opacity:1;fill:#000000;fill-opacity:1;stroke:#000000;stroke-width:0.49559413;stroke-linecap:round;stroke-linejoin:round;stroke-miterlimit:4;stroke-dasharray:none;stroke-dashoffset:0;stroke-opacity:1"
           d="m 56.960721,267.67777 c 0.05892,0.0194 -0.05461,-0.0623 -0.03341,-0.0835 0.09911,-0.0991 0.20574,-0.20574 0.300681,-0.30068 0.0056,-0.006 0.01114,-0.0446 0.01669,-0.0501 0.04225,-0.0422 0.08204,-0.0972 0.11693,-0.16704 0.01003,-0.02 0.04009,-0.0301 0.05012,-0.0501 0.0051,-0.0101 0.0097,-0.0431 0.01669,-0.0501 0.0886,-0.0886 0.188264,-0.17155 0.283975,-0.26727 0.0055,-0.005 0.132394,-0.0578 0.150338,-0.0668 0.07202,-0.036 0.129334,-0.0981 0.200451,-0.13364 0.05516,-0.0276 0.166336,-0.0327 0.200454,-0.0668 0.01392,-0.0139 0.0696,0.0139 0.08352,0 0.05889,-0.0589 0.584703,-0.0668 0.734991,-0.0668 0.209243,0 0.360538,0.0668 0.567947,0.0668 0.02915,0 0.18759,-0.063 0.133636,-0.11694 -0.06715,-0.0671 -0.226005,-0.0924 -0.300678,-0.16704 -0.01058,-0.0106 -0.05291,0.007 -0.06682,0 -0.08969,-0.0448 -0.480041,-0.12131 -0.567947,-0.0334 -0.02196,0.022 -0.149449,-4.5e-4 -0.183747,0.0167 -0.0436,0.0218 -0.268873,7.9e-4 -0.367496,0.0501 -0.02673,0.0134 -0.0735,-0.0134 -0.100227,0 -0.03543,0.0177 -0.08326,-1.3e-4 -0.11693,0.0167 -0.13471,0.0674 -0.241527,0.0244 -0.367495,0.15034 -0.0079,0.008 -0.02553,-0.008 -0.03341,0 -0.07594,0.0759 -0.186336,0.15293 -0.250566,0.21716 -0.0097,0.01 -0.02373,0.0571 -0.03341,0.0668 -0.04529,0.0453 -0.08437,0.0677 -0.11693,0.10022 -0.0079,0.008 0.0079,0.0255 0,0.0334 -0.02874,0.0287 -0.08458,0.0846 -0.11693,0.11693 -0.02191,0.0219 -0.0916,0.22524 -0.100227,0.23386 -0.05744,0.0575 -0.06514,0.23218 -0.100227,0.26727 -0.02228,0.0223 0.02228,0.11136 0,0.13364 -0.0065,0.007 -0.03643,0.076 -0.03341,0.0835 0.0093,0.0231 0.02228,0.0445 0.03341,0.0668 z"
           id="path2019"
           inkscape:connector-curvature="0" />
        <path
           style="opacity:1;fill:none;fill-opacity:1;stroke:#000000;stroke-width:0.49559413;stroke-linecap:round;stroke-linejoin:round;stroke-miterlimit:4;stroke-dasharray:none;stroke-dashoffset:0;stroke-opacity:1"
           d="m 57.11106,267.76129 c 0,-0.0223 -0.0054,-0.0452 0,-0.0668 2.65e-4,-10e-4 0.171511,-0.18821 0.183748,-0.20045 0.03456,-0.0346 -0.0013,0.0528 0.03341,-0.0167 0.03389,-0.0678 0.191288,-0.208 0.283975,-0.30068 0.0287,-0.0287 0.253169,-0.0347 0.283974,-0.0501 0.102918,-0.0514 0.351634,-0.10022 0.484426,-0.10022 0.04258,0 0.228227,-0.0558 0.267269,-0.0167 0.02477,0.0248 0.153884,0.0202 0.183748,0.0501 0.04856,0.0486 0.197442,0.10022 0.283974,0.10022 0.03625,0 0.393999,0.16014 0.400905,0.16705 0.05452,0.0545 0.09914,0.0824 0.167042,0.15034 0.03005,0.0301 0.167045,0.22647 0.167045,0.16704"
           id="path2021"
           inkscape:connector-curvature="0" />
        <path
           style="opacity:1;fill:none;fill-opacity:1;stroke:#000000;stroke-width:0.49559413;stroke-linecap:round;stroke-linejoin:round;stroke-miterlimit:4;stroke-dasharray:none;stroke-dashoffset:0;stroke-opacity:1"
           d="m 57.361626,268.09538 c 0.09132,-0.19879 0.219977,-0.3035 0.350792,-0.43432 0.05924,-0.0592 0.199695,-0.0581 0.283972,-0.10022 0.03118,-0.0156 0.08575,0.0156 0.116933,0 0.06815,-0.0341 0.180478,-0.007 0.23386,-0.0334 0.04507,-0.0225 0.203769,0.0134 0.23386,-0.0167 0.02916,-0.0292 0.12193,-0.0226 0.167045,0 0.02228,0.0111 0.06125,-0.0111 0.08352,0 0.03543,0.0177 0.08048,0.0304 0.100226,0.0501 0.01334,0.0133 0.066,-0.009 0.08352,0 0.07665,0.0383 0.285295,0.10154 0.334087,0.15034 0.02921,0.0292 0.08144,0.0982 0.11693,0.13363 0.03569,0.0357 0.167045,0.0751 0.167045,0.15034"
           id="path2023"
           inkscape:connector-curvature="0" />
        <path
           style="opacity:1;fill:none;fill-opacity:1;stroke:#000000;stroke-width:0.49559413;stroke-linecap:round;stroke-linejoin:round;stroke-miterlimit:4;stroke-dasharray:none;stroke-dashoffset:0;stroke-opacity:1"
           d="m 59.633418,268.29583 c -0.08201,0.15538 -0.267819,0.1843 -0.367496,0.28397"
           id="path2025"
           inkscape:connector-curvature="0" />
        <path
           style="opacity:1;fill:none;fill-opacity:1;stroke:#000000;stroke-width:0.49559413;stroke-linecap:round;stroke-linejoin:round;stroke-miterlimit:4;stroke-dasharray:none;stroke-dashoffset:0;stroke-opacity:1"
           d="m 59.182401,268.01185 c -0.0065,0.18705 -0.205401,0.20541 -0.317383,0.31739 -0.0079,0.008 -0.02553,-0.008 -0.03341,0 -0.01455,0.0145 -0.04001,0.0668 -0.08352,0.0668"
           id="path2027"
           inkscape:connector-curvature="0" />
        <path
           style="opacity:1;fill:#000000;fill-opacity:1;stroke:#000000;stroke-width:0.49559413;stroke-linecap:round;stroke-linejoin:round;stroke-miterlimit:4;stroke-dasharray:none;stroke-dashoffset:0;stroke-opacity:1"
           d="m 58.647861,267.62765 c -0.0488,0.0491 0.04643,0.15402 0.0167,0.18375 -0.02426,0.0243 -0.07596,0.076 -0.100227,0.10023 -0.0079,0.008 0.0079,0.0255 0,0.0334 -0.05837,0.0584 -0.09383,0.18055 -0.167045,0.21715 -0.04618,0.0231 -0.147669,0.0641 -0.183747,0.10023 -0.01561,0.0156 -0.140817,0.0167 -0.167042,0.0167 -0.04047,0 -0.131631,0.0177 -0.167045,0 -0.181607,-0.0908 -0.297347,-0.17708 -0.384199,-0.35079 -0.0374,-0.0748 0.150503,-0.14207 0.200451,-0.16704 0.110202,-0.0551 0.219258,-0.12634 0.334087,-0.18375 0.03913,-0.0196 0.546904,-0.0377 0.567949,-0.0167 0.01969,0.0197 0.03341,0.0446 0.05011,0.0668 z"
           id="path2029"
           inkscape:connector-curvature="0" />
        <path
           style="opacity:1;fill:none;fill-opacity:1;stroke:#000000;stroke-width:0.49559413;stroke-linecap:round;stroke-linejoin:round;stroke-miterlimit:4;stroke-dasharray:none;stroke-dashoffset:0;stroke-opacity:1"
           d="m 49.376951,271.95408 c 0.118324,-0.0267 0.239704,-0.004 0.35079,0.0334 0.05897,0.0197 0.145661,-0.0107 0.200451,0.0167 0.08598,0.043 0.19046,0.0524 0.283974,0.0835 0.05725,0.0191 0.109575,0.0644 0.167045,0.0835 0.287586,0.0959 0.556681,0.14451 0.701582,0.43431 0.07799,0.15598 0.137729,0.32557 0.217157,0.48443 0.03916,0.0783 0.08607,0.13872 0.11693,0.20045 0.0057,0.0115 0.05613,0.0668 0.05011,0.0668 -0.01114,0 0,-0.0223 0,-0.0334"
           id="path2031"
           inkscape:connector-curvature="0" />
        <path
           style="opacity:1;fill:none;fill-opacity:1;stroke:#000000;stroke-width:0.49559413;stroke-linecap:round;stroke-linejoin:round;stroke-miterlimit:4;stroke-dasharray:none;stroke-dashoffset:0;stroke-opacity:1"
           d="m 60.418521,269.24798 c 0.0402,0.0836 0.04764,0.23139 0.100227,0.28397 0.02678,0.0268 -0.01762,0.13181 0,0.16704 0.06552,0.13104 0.08352,0.45114 0.08352,0.63477 0,0.0686 -0.02437,0.31873 0,0.36749 0.04034,0.0807 -0.03164,0.59782 -0.06682,0.66818 -0.02622,0.0525 0.02101,0.36319 -0.01669,0.4009 -0.02649,0.0265 -0.01918,0.1194 -0.03341,0.13364 -0.06052,0.0605 -0.07029,0.19068 -0.11693,0.28397 -0.01487,0.0297 0.0039,0.17981 -0.01669,0.20045 -0.02085,0.0208 -0.05011,0.12352 -0.05011,0.16705 0,0.0386 0.0013,0.0488 -0.01669,0.0668 -0.0086,0.009 0,0.68975 0,0.7684 0,0.0623 -0.02217,0.28976 0,0.33409 0.01543,0.0308 0.0021,0.0712 0.01669,0.10023 0.02508,0.0502 0.01373,0.12768 0.03341,0.16704 0.06942,0.13884 0.01669,0.3379 0.01669,0.50113 0,0.0758 0.02492,0.25904 -0.01669,0.30068 -0.0263,0.0263 0.03335,0.53466 0,0.60135 -0.04477,0.0895 -0.09415,0.44495 -0.133636,0.48443 -0.0011,10e-4 -0.02209,0.14443 -0.03341,0.16704 -0.01114,0.0223 0.01114,0.0612 0,0.0835 -0.02484,0.0497 -0.04193,0.24238 -0.06681,0.26728 -0.097,0.097 -0.133115,0.40038 -0.217157,0.48442 -0.01868,0.0187 -0.01474,0.0983 -0.03341,0.11693 -0.03598,0.036 -0.04274,0.12626 -0.08352,0.16704 -0.0361,0.0361 -0.07098,0.1211 -0.100227,0.15035 -0.08072,0.0807 -0.137194,0.17416 -0.183748,0.26726 -0.01635,0.0327 -0.03023,0.16387 -0.05011,0.18375 -0.02697,0.027 -0.112152,0.24101 -0.150339,0.31738 -0.005,0.01 0.0079,0.0255 0,0.0334 -0.0434,0.0434 -0.114996,0.2467 -0.150339,0.31739 -0.0088,0.0175 -0.004,0.0708 -0.01669,0.0835 -0.03564,0.0356 -0.05338,0.13689 -0.100227,0.18374 -0.06952,0.0695 -0.113274,0.1968 -0.200451,0.28398 -0.05831,0.0583 -0.191066,0.14564 -0.300678,0.20045 -0.03737,0.0187 -0.167227,0.11712 -0.183748,0.13364 -0.02185,0.0218 -0.17009,0.0531 -0.183748,0.0668 -0.06258,0.0626 -0.207994,0.11235 -0.283974,0.15034 -0.0345,0.0172 -0.123976,-0.01 -0.150339,0.0167 -0.07197,0.072 -0.644657,0.12034 -0.785106,0.0501 -0.05284,-0.0264 -0.149291,10e-4 -0.183748,-0.0334 -0.0028,-0.003 -0.382341,-0.0315 -0.417608,-0.0668 -0.02027,-0.0203 -0.05051,-0.0169 -0.08352,-0.0334 -0.04378,-0.0219 -0.108921,-0.0588 -0.133635,-0.0835 -0.0079,-0.008 -0.02344,0.005 -0.03341,0 -0.08024,-0.0401 -0.187794,-0.0709 -0.23386,-0.11693 -0.01275,-0.0128 -0.08147,-0.007 -0.100227,-0.0167 -0.197295,-0.0987 -0.380556,-0.21351 -0.551244,-0.3842 -0.01908,-0.0191 -0.06757,-0.0342 -0.08352,-0.0501 -0.01114,-0.0111 -0.02228,0.0111 -0.03341,0 -0.08147,-0.0815 -0.229801,-0.11423 -0.334086,-0.18375 -0.105476,-0.0703 -0.199769,-0.14454 -0.317384,-0.18375 -0.03106,-0.0103 -0.05386,-0.052 -0.08352,-0.0668 -0.01929,-0.01 -0.08763,-0.0208 -0.100227,-0.0334 -0.03327,-0.0333 -0.193079,-0.13831 -0.250563,-0.16705 -0.09832,-0.0492 -0.233209,-0.0829 -0.30068,-0.15034 -0.0084,-0.008 -0.04176,0.008 -0.05011,0 -0.0328,-0.0328 -0.114851,-0.0574 -0.167042,-0.0835 -0.11638,-0.0582 -0.198782,-0.13196 -0.283975,-0.21715 -0.02799,-0.028 -0.262631,-0.1488 -0.317384,-0.16705 -0.03106,-0.0103 -0.05386,-0.052 -0.08352,-0.0668 -0.051,-0.0255 -0.193185,-0.093 -0.217156,-0.11694 -0.0258,-0.0258 -0.05837,-0.0626 -0.100227,-0.0835 -0.0765,-0.0383 -0.157358,-0.0787 -0.23386,-0.11693 -0.02917,-0.0146 -0.0024,-0.0398 -0.03341,-0.0501 -0.07835,-0.0261 -0.200552,-0.10033 -0.250566,-0.15034 -0.01902,-0.019 -0.172868,-0.0726 -0.183748,-0.0835 -0.0849,-0.0849 -0.252118,-0.17618 -0.367495,-0.23386 -0.06952,-0.0348 0.01786,0.001 -0.01669,-0.0334 -0.0056,-0.006 -0.04455,-0.0111 -0.05011,-0.0167 -0.03368,-0.0337 -0.0926,-0.0759 -0.133635,-0.11693 -0.0056,-0.006 -0.04455,-0.0111 -0.05011,-0.0167 -0.01021,-0.0102 -0.08046,-0.0904 -0.100227,-0.10023 -0.07849,-0.0392 -0.149185,-0.0824 -0.200454,-0.13363 -0.0084,-0.008 -0.05586,-0.006 -0.06682,-0.0167 -0.159401,-0.1594 -0.353751,-0.26875 -0.551244,-0.3675 -0.04247,-0.0212 -0.09058,-0.0286 -0.133635,-0.0501 -0.01392,-0.007 -0.05622,0.0106 -0.06682,0 -0.02228,-0.0223 0.02784,-0.0167 -0.01669,-0.0167 -0.04057,0 -0.268267,-0.0678 -0.283975,-0.0835 -0.0039,-0.004 -0.133636,-0.0165 -0.133636,-0.0167 0,-0.02 0.07043,-0.0436 0.08352,-0.0501"
           id="path2035"
           inkscape:connector-curvature="0" />
        <path
           style="opacity:1;fill:none;fill-opacity:1;stroke:#000000;stroke-width:0.49559413;stroke-linecap:round;stroke-linejoin:round;stroke-miterlimit:4;stroke-dasharray:none;stroke-dashoffset:0;stroke-opacity:1"
           d="m 58.581043,279.20377 c 0.02228,-0.0111 0.0437,-0.0242 0.06682,-0.0334 0.04036,-0.0161 0.146187,0.0167 0.200453,0.0167 0.167373,0 0.58769,-0.01 0.701583,-0.0668 0.129495,-0.0648 0.346125,-0.14568 0.434311,-0.23387 0.01908,-0.0191 0.08427,-0.0175 0.100226,-0.0334 0.02101,-0.021 0.04722,-0.0639 0.06682,-0.0835 0.04032,-0.0403 0.141695,-0.0582 0.183748,-0.10022 0.03842,-0.0384 0.08534,-0.0853 0.11693,-0.11693 0.01482,-0.0148 0.0066,-0.0467 0.01669,-0.0668 0.01323,-0.0264 0.0556,-0.0556 0.06682,-0.0668 0.0056,-0.006 0.01114,-0.0445 0.01669,-0.0501 0.01217,-0.0122 0.05034,-0.0169 0.06682,-0.0334 0.04616,-0.0462 0.09957,-0.0996 0.150339,-0.15034 0.02902,-0.029 0.08884,-0.2111 0.116929,-0.26727 0.0067,-0.0134 -0.0067,-0.0367 0,-0.0501 0.05385,-0.10771 0.09109,-0.23543 0.03341,-0.35079 -0.02323,-0.0465 -0.01355,-0.0971 -0.05011,-0.13364 -0.0079,-0.008 0.005,-0.0234 0,-0.0334 -0.03573,-0.0715 -0.06089,-0.17782 -0.100224,-0.21715 -0.01275,-0.0128 -0.0073,-0.0815 -0.0167,-0.10023 -0.06642,-0.13284 -0.122917,-0.27326 -0.200451,-0.35079 -0.01482,-0.0148 -0.0066,-0.0467 -0.01669,-0.0668 -0.04239,-0.0848 -0.08738,-0.18762 -0.150339,-0.25057 -0.01392,-0.0139 -0.0028,-0.0529 -0.01669,-0.0668 -0.03142,-0.0314 -0.08232,-0.0579 -0.133636,-0.0835 -0.02384,-0.0119 -0.02024,-0.0334 -0.05011,-0.0334"
           id="path2037"
           inkscape:connector-curvature="0" />
        <path
           style="opacity:1;fill:none;fill-opacity:1;stroke:#000000;stroke-width:0.49559413;stroke-linecap:round;stroke-linejoin:round;stroke-miterlimit:4;stroke-dasharray:none;stroke-dashoffset:0;stroke-opacity:1"
           d="m 59.148992,279.27058 c 0.0024,0.073 -0.02566,0.10919 -0.06682,0.15034 -0.0084,0.008 -0.0057,0.0559 -0.01669,0.0668 -0.02228,0.0223 -0.04454,0.0445 -0.06681,0.0668 -0.0056,0.006 -0.04454,0.0111 -0.05012,0.0167 -0.04148,0.0415 -0.0782,0.0782 -0.11693,0.11693 -0.0071,0.007 -0.05424,0.0208 -0.06682,0.0334 -0.0056,0.006 -0.01114,0.0445 -0.0167,0.0501 -0.0097,0.01 -0.05714,0.0237 -0.06682,0.0334 -0.0205,0.0205 -0.07325,0.0733 -0.100227,0.10023 -0.01095,0.0109 -0.05845,0.008 -0.06682,0.0167 -0.06277,0.0628 -0.193691,0.11017 -0.250566,0.16705 -0.01209,0.0121 -0.08746,-0.0437 -0.100226,-0.0501 -0.0204,-0.0102 -0.297953,-0.0501 -0.334087,-0.0501 -0.02831,0 -0.341191,-0.204 -0.400905,-0.23386 -0.05672,-0.0284 -0.09857,-0.0409 -0.150339,-0.0668 -0.0047,-0.002 -0.06682,0.002 -0.06682,0 0,-0.004 0.04292,0.0167 0.05011,0.0167"
           id="path2039"
           inkscape:connector-curvature="0" />
        <path
           style="opacity:1;fill:none;fill-opacity:1;stroke:#000000;stroke-width:0.49559413;stroke-linecap:round;stroke-linejoin:round;stroke-miterlimit:4;stroke-dasharray:none;stroke-dashoffset:0;stroke-opacity:1"
           d="m 58.297071,280.07239 c 0.02998,0.031 0.122841,0.006 0.150339,0.0334 0.04604,0.046 0.161253,0.11114 0.217157,0.16704 0.01114,0.0111 0.03897,0.006 0.05011,0.0167 0.01124,0.0112 -0.01244,0.0625 -0.0167,0.0668 -0.03771,0.0377 -0.137832,0 -0.183747,0 -0.20347,0 -0.847022,0.0359 -0.985557,-0.0334 -0.03553,-0.0178 -0.112808,-0.004 -0.150339,-0.0167 -0.09389,-0.0313 -0.302924,0.0406 -0.384202,0 -0.175874,-0.0879 -0.469648,-0.0172 -0.668173,-0.0668 -0.05807,-0.0145 -0.132506,0.0178 -0.167042,-0.0167 -0.01603,-0.016 -0.07914,0.0106 -0.100227,0 -0.07167,-0.0358 -0.217654,-0.0339 -0.267269,-0.0835 -0.02431,-0.0243 -0.297804,0.0196 -0.334087,-0.0167 -0.04337,-0.0434 -0.249814,-0.0828 -0.283974,-0.11693 -0.123145,-0.12314 -0.304623,-0.20733 -0.484426,-0.26727 -0.05767,-0.0192 -0.129688,-0.0231 -0.183748,-0.0501 -0.102698,-0.0514 -0.204216,-0.16381 -0.350792,-0.20045 -0.09996,-0.025 -0.19599,-0.0228 -0.283975,-0.0668 -0.04533,-0.0227 -0.121378,0.006 -0.167042,-0.0167 -0.01302,-0.007 -0.132514,-0.0657 -0.133636,-0.0668 -0.01193,-0.0119 -0.05531,-0.0574 -0.08352,-0.0668 -0.100655,-0.0335 -0.262316,-0.0953 -0.317383,-0.15034 -0.02882,-0.0288 -0.109718,-0.009 -0.133633,-0.0334 -0.02463,-0.0246 -0.06305,-0.0463 -0.08352,-0.0668 -0.01294,-0.0129 -0.05622,-0.15645 -0.08352,-0.18375 -0.101685,-0.10169 -0.305927,-0.15559 -0.384199,-0.23386 -0.02228,-0.0223 -0.09466,0.006 -0.11693,-0.0167 -0.05682,-0.0568 -0.188137,-0.10967 -0.283975,-0.13363 -0.04324,-0.0108 -0.07173,-0.0555 -0.116929,-0.0668 -0.05291,-0.0132 -0.493538,-0.14275 -0.517835,-0.16704 -0.14061,-0.14061 -0.523772,-0.33706 -0.718288,-0.43432 -0.05198,-0.026 -0.02708,-0.0772 -0.05011,-0.10022 -0.01397,-0.014 -0.05103,-0.0343 -0.06682,-0.0501 -0.01595,-0.016 -0.08114,-0.0143 -0.100227,-0.0334 -0.146262,-0.14626 -0.38627,-0.25995 -0.601356,-0.36749 -0.161573,-0.0808 -0.311536,-0.22439 -0.501131,-0.35079 -0.07296,-0.0486 0.0055,0.007 -0.06681,-0.0167 -0.0534,-0.0178 -0.143854,-0.13147 -0.200454,-0.15034 -0.04278,-0.0143 -0.118099,-0.0513 -0.150339,-0.0835 -0.06608,-0.0661 -0.123534,-0.12683 -0.183748,-0.21715 -0.03541,-0.0531 -0.135051,-0.10165 -0.183747,-0.15034 -0.02315,-0.0232 -0.03331,-0.0668 -0.06682,-0.0835 -0.101735,-0.0509 -0.192792,-0.13109 -0.300678,-0.16705 -0.02447,-0.008 -0.03764,-0.0404 -0.06682,-0.0501 -0.168698,-0.0562 -0.325808,-0.10444 -0.484426,-0.18375 -0.135461,-0.0677 -0.2781,-0.0973 -0.417607,-0.16704 -0.02673,-0.0134 -0.04009,-0.0535 -0.06682,-0.0668 -0.06852,-0.0343 -0.130445,-0.0986 -0.200451,-0.13363 -0.05531,-0.0277 -0.149527,-0.066 -0.183748,-0.10023 -0.008,-0.008 -0.08474,-0.009 -0.100227,-0.0167 -0.01008,-0.005 -0.04239,0.008 -0.05011,0 -0.05389,-0.0539 -0.484428,-0.17503 -0.484428,-0.20045 0,-0.0176 0.03436,-0.009 0.05012,-0.0167"
           id="path2041"
           inkscape:connector-curvature="0" />
        <path
           style="opacity:1;fill:none;fill-opacity:1;stroke:#000000;stroke-width:0.49559413;stroke-linecap:round;stroke-linejoin:round;stroke-miterlimit:4;stroke-dasharray:none;stroke-dashoffset:0;stroke-opacity:1"
           d="m 49.477175,276.31391 c 0.226031,0.18691 0.534109,0.2169 0.785106,0.3675 0.06627,0.0398 0.14265,0.1088 0.217154,0.13363 0.01056,0.004 0.02416,-0.006 0.03341,0 0.0176,0.0117 0.02768,0.0519 0.05011,0.0668 0.06574,0.0438 0.14052,0.11438 0.200451,0.15034 0.24284,0.1457 0.449948,0.31631 0.65147,0.51784 0.08295,0.0829 0.21962,0.1695 0.283975,0.23386 0.01466,0.0147 0.06887,0.0355 0.08352,0.0501 0.03991,0.0399 0.06198,0.1288 0.100227,0.16704 0.02008,0.0201 0.03598,0.0219 0.05011,0.0501 0.03274,0.0655 0.256201,0.13928 0.317383,0.20046 0.0084,0.008 0.05586,0.006 0.06681,0.0167 0.04153,0.0415 0.092,0.0753 0.133636,0.11694 0.0084,0.008 0.0057,0.0559 0.01669,0.0668 0.01114,0.0111 0.04455,0.0223 0.03341,0.0334 -0.0088,0.009 -0.02096,-0.0167 -0.03341,-0.0167"
           id="path2043"
           inkscape:connector-curvature="0" />
        <path
           style="opacity:1;fill:none;fill-opacity:1;stroke:#000000;stroke-width:0.49559413;stroke-linecap:round;stroke-linejoin:round;stroke-miterlimit:4;stroke-dasharray:none;stroke-dashoffset:0;stroke-opacity:1"
           d="m 51.832488,277.19924 c 0.004,0.10562 0.07474,0.22508 0.150339,0.30068 0.0088,0.009 0.0265,0.006 0.03341,0.0167 0.0062,0.009 -0.005,0.0234 0,0.0334 0.0056,0.0111 0.02784,0.006 0.03341,0.0167 0.03832,0.0766 0.100859,0.1182 0.133635,0.18375 0.04057,0.0811 0.03826,0.1719 0.100225,0.23386 0.0056,0.006 0.01114,0.0446 0.01669,0.0501 0.03808,0.0381 0.18238,0.21647 0.217157,0.23385 0.01352,0.007 0.105883,0.0892 0.06682,0.0501"
           id="path2045"
           inkscape:connector-curvature="0" />
        <path
           style="opacity:1;fill:none;fill-opacity:1;stroke:#000000;stroke-width:0.49559413;stroke-linecap:round;stroke-linejoin:round;stroke-miterlimit:4;stroke-dasharray:none;stroke-dashoffset:0;stroke-opacity:1"
           d="m 45.818924,274.84393 c 0.173548,0.12286 0.316892,0.25818 0.434314,0.43431 0.02797,0.042 0.05139,0.0373 0.06682,0.0835 0.01103,0.0331 0.104161,0.0806 0.133633,0.10023 0.03049,0.0203 0.05523,0.0719 0.08352,0.10023 0.07605,0.076 0.164727,0.14802 0.233862,0.21715 0.02946,0.0295 0.05693,0.0937 0.08352,0.13364 0.09616,0.14424 0.234217,0.28433 0.350793,0.4009 0.01762,0.0176 0.04921,0.0158 0.06681,0.0334 0.178599,0.1786 0.405389,0.29905 0.551244,0.51784 0.03527,0.0529 0.08988,0.1901 0.100226,0.20045 0.0244,0.0244 -0.02508,0.24219 0.0167,0.28397 0.01392,0.0139 0.03619,0.0195 0.05011,0.0334 0.0083,0.008 0.07044,0 0.08352,0 0.142023,0 0.26915,5.3e-4 0.400904,0.0334 0.03144,0.008 0.06878,-0.008 0.100227,0 0.369856,0.0925 0.75293,0.1953 1.11919,0.31738 0.09042,0.0301 0.191482,0.0373 0.283975,0.0835 0.06398,0.032 0.120298,0.0457 0.183748,0.0668 0.04899,0.0163 0.101147,0.0671 0.150339,0.0835 0.111032,0.037 0.210886,0.0814 0.317383,0.11693 0.04745,0.0158 0.122674,-0.0222 0.167042,0 0.04272,0.0213 0.154392,0.0334 0.200451,0.0334 0.08205,0 0.451019,0.0135 0.451019,0.0501"
           id="path2047"
           inkscape:connector-curvature="0" />
        <path
           style="opacity:1;fill:none;fill-opacity:1;stroke:#000000;stroke-width:0.49559413;stroke-linecap:round;stroke-linejoin:round;stroke-miterlimit:4;stroke-dasharray:none;stroke-dashoffset:0;stroke-opacity:1"
           d="m 51.865897,278.41866 c -0.02228,-0.006 -0.04386,-0.0167 -0.06682,-0.0167 -0.0056,0 -0.0054,0.0154 0,0.0167 0.02162,0.005 0.05978,-0.0211 0.06682,0 0.01114,0.0334 -0.02843,0.0654 -0.03341,0.10023 -0.0016,0.0117 0.04349,0.0536 0.05011,0.0668 0.02172,0.0434 0.02729,0.088 0.05011,0.13364 0.08319,0.16639 0.165523,0.36597 0.283974,0.48443 0.05166,0.0517 0.08854,0.22217 0.150339,0.28397 0.05145,0.0514 0.144198,0.0774 0.200451,0.13363 0.06587,0.0659 0.156607,0.15975 0.217157,0.25057 0.0159,0.0239 0.03421,0.01 0.05011,0.0334 0.01548,0.0232 0.02752,0.0776 0.05011,0.10022 0.0123,0.0123 0.05418,0.0415 0.06682,0.0668 0.03682,0.0736 0.0759,0.14419 0.100224,0.21716 0.005,0.0149 0.02843,0.0185 0.03341,0.0334 0.02029,0.0609 0.112736,0.32989 0.150339,0.36749 0.02729,0.0273 0.03825,0.0814 0.05011,0.11693 0.0072,0.0215 0.04294,0.0453 0.05011,0.0668 0.02622,0.0786 0.06856,0.17801 0.11693,0.25057 0.139118,0.20867 0.336751,0.4256 0.417608,0.66817 0.04934,0.148 -0.0041,0.35507 0.03341,0.46772 0.03739,0.11218 0.181758,0.44903 0.250566,0.51784 0.0084,0.008 -0.0084,0.0418 0,0.0501 0.05528,0.0553 0.0065,0.15302 0.03341,0.23386 0.01701,0.051 0.03198,0.11263 0.05011,0.16704 0.07473,0.22419 0.379238,0.44109 0.484428,0.65147 0.01003,0.0201 0.04009,0.0301 0.05011,0.0501 0.02908,0.0582 0.08051,0.1246 0.100227,0.18375 0.06638,0.19915 0.0999,0.39993 0.167042,0.60136 0.005,0.0149 0.02469,0.0203 0.03341,0.0334 0.02336,0.035 0.03203,0.0808 0.05011,0.11693 0.04084,0.0817 0.133104,0.14119 0.183748,0.21715 0.110662,0.16599 0.224538,0.32011 0.334089,0.48443 0.04501,0.0675 0.152284,0.15423 0.183748,0.21716 0.0076,0.0152 0.02252,0.0559 0.03341,0.0668 0.05407,0.0541 0.111194,0.0888 0.150342,0.16705 0.01966,0.0393 0.06858,0.0537 0.08352,0.0835 0.02815,0.0563 0.06367,0.11379 0.100227,0.15034 0.0195,0.0195 -0.0028,0.0807 0.0167,0.10023 0.02566,0.0257 0.05469,0.0639 0.06682,0.10022 0.0092,0.0276 0.17667,0.15997 0.200451,0.18375 0.0097,0.01 0.02373,0.0571 0.03341,0.0668 0.02856,0.0286 0.121552,0.0761 0.150339,0.13363 0.01931,0.0386 0.04201,0.0754 0.06682,0.10023 0.0149,0.0149 0.04908,0.008 0.06682,0.0167 0.142203,0.0711 0.404466,-0.0233 0.484426,0.0167 0.0697,0.0349 0.186465,0.0361 0.23386,0.0835 0.0077,0.008 0.04003,-0.005 0.05011,0 0.06574,0.0329 0.183348,0.16624 0.200451,0.20045 0.01826,0.0365 0.203065,0.18636 0.23386,0.21716 0.0096,0.01 0.09744,0.20602 0.116932,0.16704 0.01146,-0.0229 -0.0078,-0.0491 -0.01669,-0.0668"
           id="path2049"
           inkscape:connector-curvature="0" />
        <path
           style="opacity:1;fill:none;fill-opacity:1;stroke:#000000;stroke-width:0.49559413;stroke-linecap:round;stroke-linejoin:round;stroke-miterlimit:4;stroke-dasharray:none;stroke-dashoffset:0;stroke-opacity:1"
           d="m 58.046505,280.40648 c -0.09529,0.10398 0.01728,0.43317 -0.03341,0.53454 -0.0177,0.0354 -0.03341,0.0929 -0.03341,0.13363 0,0.17261 0,0.34523 0,0.51784 0,0.0388 0.03902,0.1057 0.0167,0.15034 -0.0351,0.0702 -0.0047,0.19314 -0.03341,0.25056 -0.05799,0.11597 -0.05012,0.34222 -0.05012,0.48443 0,0.14064 -0.08623,0.28668 -0.167042,0.36749 -0.04286,0.0429 -0.04434,0.12787 -0.08352,0.16705 -0.0039,0.004 -0.0167,0.006 -0.0167,0 0,-0.002 0.107013,-0.0435 0.11693,-0.0501 0.130995,-0.0873 0.390464,-0.1566 0.451016,-0.21715 0.01844,-0.0184 0.107368,0.0238 0.116933,0.0334 0.07154,0.0715 0.100028,0.31718 0.11693,0.33408 0.03869,0.0387 0.07051,0.12432 0.100224,0.18375 0.02471,0.0494 0.01553,0.0991 0.05011,0.13363 0.02064,0.0206 0.0019,0.17072 0.01669,0.20046 0.09926,0.19851 -0.119825,0.69579 -0.05011,0.83521 0.02328,0.0465 0.03191,0.14885 0.06682,0.18375 0.01556,0.0156 0.175844,0.21016 0.183747,0.23386 0.04112,0.12336 0.129826,0.33028 0.200451,0.40091 0.0044,0.004 0,0.0432 0,0.0501 0,0.18981 -0.395639,0.11167 -0.484425,0.20045 -0.105468,0.10547 -0.04759,0.28145 -0.133636,0.3675 -0.01334,0.0133 0.0088,0.066 0,0.0835 -0.03778,0.0756 -0.100224,0.11547 -0.100224,0.21716 0,0.0158 -0.07113,0.12932 -0.03341,0.16704 0.02474,0.0247 0.121274,-0.0167 0.150339,-0.0167 0.117919,0 0.238003,-0.006 0.35079,0.0167 0.08163,0.0163 0.154305,0.0636 0.233862,0.0835 0.04311,0.0108 0.09118,0.003 0.133633,0.0167 0.198361,0.0661 0.417841,0.23432 0.517835,0.43431 0.03663,0.0733 0.06442,0.16224 0.100227,0.23386 0.04451,0.089 0.08538,0.20231 0.150339,0.26727 2.6e-5,3e-5 0.206578,0.13011 0.217156,0.13364 0.03597,0.012 0.08065,0.0153 0.11693,0.0334 0.04313,0.0216 0.09113,0.0289 0.133636,0.0501 0.007,0.004 0.01669,0.0246 0.01669,0.0167 0,-0.023 -0.01669,-0.0439 -0.01669,-0.0668"
           id="path2051"
           inkscape:connector-curvature="0" />
        <path
           style="opacity:1;fill:none;fill-opacity:1;stroke:#000000;stroke-width:0.49559413;stroke-linecap:round;stroke-linejoin:round;stroke-miterlimit:4;stroke-dasharray:none;stroke-dashoffset:0;stroke-opacity:1"
           d="m 56.626635,286.57038 c 0.02785,-0.0235 0.112471,0.0126 0.150338,0 0.106411,-0.0355 0.168527,-0.10932 0.250566,-0.15034 0.02666,-0.0133 0.100227,0.004 0.100227,-0.0334"
           id="path2053"
           inkscape:connector-curvature="0" />
        <path
           style="opacity:1;fill:none;fill-opacity:1;stroke:#000000;stroke-width:0.49559413;stroke-linecap:round;stroke-linejoin:round;stroke-miterlimit:4;stroke-dasharray:none;stroke-dashoffset:0;stroke-opacity:1"
           d="m 57.461853,286.75413 c -0.06468,0.0762 0.551836,-0.28457 0.467722,-0.20045"
           id="path2055"
           inkscape:connector-curvature="0" />
        <path
           style="opacity:1;fill:none;fill-opacity:1;stroke:#000000;stroke-width:0.49559413;stroke-linecap:round;stroke-linejoin:round;stroke-miterlimit:4;stroke-dasharray:none;stroke-dashoffset:0;stroke-opacity:1"
           d="m 54.070871,282.34418 c 0.06042,2.1e-4 0.115869,0.0832 0.167042,0.10023 0.169521,0.0565 0.281538,0.1479 0.400904,0.26727 0.02948,0.0295 0.06683,0.10023 0.100227,0.11693 0.05818,0.0291 0.122084,0.0887 0.167045,0.13363 0.03456,0.0346 -0.05282,-0.001 0.01669,0.0334 0.113435,0.0567 0.220141,0.16018 0.334087,0.21716 0.04566,0.0228 0.180586,0.002 0.217157,-0.0167 0.04685,-0.0234 0.395202,-0.009 0.467722,-0.0334 0.08639,-0.0288 0.191048,-0.0436 0.283972,-0.0668 0.04184,-0.0104 0.04949,-0.0498 0.08352,-0.0668 0.08011,-0.0401 0.110564,-0.0167 0.200451,-0.0167"
           id="path2057"
           inkscape:connector-curvature="0" />
        <path
           style="opacity:1;fill:none;fill-opacity:1;stroke:#000000;stroke-width:0.49559413;stroke-linecap:round;stroke-linejoin:round;stroke-miterlimit:4;stroke-dasharray:none;stroke-dashoffset:0;stroke-opacity:1"
           d="m 56.275845,280.54011 c 0.06197,0.0372 0.107746,0.0873 0.167042,0.11693 0.04803,0.024 0.587989,0.0986 0.65147,0.0668 0.04014,-0.0201 0.14764,-0.0598 0.200451,-0.0334 0.04221,0.0211 0.102814,0.0746 0.116933,0.11693 0.01431,0.043 0.04309,0.21393 -0.0167,0.23386 -0.157358,0.0525 -0.526679,0.0228 -0.684876,-0.0167 -0.0181,-0.005 -0.317384,0.004 -0.317384,0 0,-0.0176 0.03303,0.0124 0.05011,0.0167 0.04787,0.012 0.100878,0.021 0.150339,0.0334 0.108789,0.0272 0.221412,0.0522 0.317384,0.10023 0.01,0.005 0.03341,-0.011 0.03341,0.0167 0,0.004 -0.128405,0.0671 -0.150339,0.0835 -0.05591,0.0419 -0.147331,0.13364 -0.217157,0.13364 -0.01,0 -0.03341,-0.004 -0.03341,0.0167 0,0.0273 0.254897,0.0879 0.283975,0.11693 0.04117,0.0412 -0.135385,0.15209 -0.150339,0.16705 -0.03069,0.0307 0.247684,0.18375 0.08352,0.18375"
           id="path2059"
           inkscape:connector-curvature="0" />
        <path
           style="opacity:1;fill:none;fill-opacity:1;stroke:#000000;stroke-width:0.49559413;stroke-linecap:round;stroke-linejoin:round;stroke-miterlimit:4;stroke-dasharray:none;stroke-dashoffset:0;stroke-opacity:1"
           d="m 43.714177,274.44303 c -0.03318,0.10027 -0.03751,0.17935 -0.06682,0.26727 -0.0099,0.0299 -0.05273,0.0386 -0.06682,0.0668 -0.05845,0.11691 -0.04276,0.28598 -0.100227,0.40091 -0.07633,0.15266 -0.111815,0.33545 -0.167042,0.50113 -0.0645,0.19349 -0.0085,0.45123 -0.100226,0.63476 -0.06787,0.13575 0.02975,0.57526 -0.06682,0.7684 -0.02228,0.0446 0.02228,0.1225 0,0.16705 -0.05869,0.11737 -0.05852,0.24237 -0.100224,0.36749 -0.03484,0.10452 -0.145206,0.31225 -0.200454,0.3675 -0.0085,0.009 -0.262581,0.88797 -0.300678,1.00226 -0.0674,0.2022 -0.238461,0.3767 -0.334087,0.56795 -0.05961,0.11922 -0.22638,0.18923 -0.300677,0.30067 -0.0613,0.0919 -0.08923,0.17846 -0.133636,0.26727 -0.04236,0.0847 -0.170842,0.14504 -0.200451,0.23386 -0.03772,0.11317 -0.08031,0.22744 -0.133636,0.33409 -0.01495,0.0299 0.01056,0.0685 0,0.10023 -0.105399,0.3162 -0.08422,0.80041 0.06682,1.10249 0.113541,0.22708 -0.256876,0.85823 -0.367496,0.96885 -0.01114,0.0111 -0.02228,0.0891 -0.03341,0.10022 -0.215048,0.21505 -0.602093,0.45139 -0.902033,0.60136 -0.139041,0.0695 0.03571,-0.002 -0.03341,0.0668 -0.09833,0.0983 -0.242763,0.14253 -0.334087,0.23386 -0.10225,0.10225 -0.214436,0.21443 -0.334086,0.33408 -0.01114,0.0111 -0.08909,0.0223 -0.100227,0.0334 -0.0501,0.0501 -0.334087,0.27608 -0.334087,0.3675"
           id="path2061"
           inkscape:connector-curvature="0" />
        <path
           style="opacity:1;fill:none;fill-opacity:1;stroke:#000000;stroke-width:0.49559413;stroke-linecap:round;stroke-linejoin:round;stroke-miterlimit:4;stroke-dasharray:none;stroke-dashoffset:0;stroke-opacity:1"
           d="m 59.249216,279.28729 c 0.288417,0.29082 0.717698,0.49189 0.968854,0.86862 0.136565,0.20485 0.255757,0.45621 0.367496,0.56795 0.06125,0.0613 -0.06125,0.30625 0,0.3675 0.05141,0.0514 0.0596,0.15261 0.100224,0.23386 0.0026,0.005 0.223279,0.23469 0.267272,0.30068 0.04236,0.0635 0.182226,0.11541 0.233859,0.16704 0.177822,0.17782 0.516507,0.55893 0.734992,0.66817 0.03749,0.0188 0.09493,0.014 0.133636,0.0334 0.146502,0.0732 0.287909,0.26089 0.43431,0.33409 0.270524,0.13526 0.560549,0.36009 0.768401,0.56795 0.03684,0.0368 0.07018,0.13699 0.100226,0.16704 0.05716,0.0572 0.157195,0.12378 0.200451,0.16704 0.01574,0.0158 -0.01574,0.0511 0,0.0668 0.08966,0.0897 0.152083,0.15208 0.233863,0.23386 0.0375,0.0375 0.06783,0.13414 0.133633,0.16704 0.183044,0.0915 0.414171,0.14691 0.567949,0.30068 0.11932,0.11932 0.04596,0.40091 0.334087,0.40091"
           id="path2063"
           inkscape:connector-curvature="0" />
        <path
           style="opacity:1;fill:none;fill-opacity:1;stroke:#000000;stroke-width:0.49559413;stroke-linecap:round;stroke-linejoin:round;stroke-miterlimit:4;stroke-dasharray:none;stroke-dashoffset:0;stroke-opacity:1"
           d="m 58.280365,275.34506 c 0.09536,-0.029 0.08953,-0.10623 0.133636,-0.15034 0.05333,-0.0533 0.106196,-0.1396 0.167042,-0.20045 0.0056,-0.006 0.01114,-0.0445 0.01669,-0.0501 0.024,-0.024 0.06722,-0.0509 0.08352,-0.0835 0.01122,-0.0225 0.144574,-0.11693 0.100227,-0.11693"
           id="path2067"
           inkscape:connector-curvature="0" />
        <path
           style="opacity:1;fill:none;fill-opacity:1;stroke:#000000;stroke-width:0.49559413;stroke-linecap:round;stroke-linejoin:round;stroke-miterlimit:4;stroke-dasharray:none;stroke-dashoffset:0;stroke-opacity:1"
           d="m 55.540853,275.07779 c 0.05235,0.0698 0.140073,0.0366 0.200451,0.0668 0.06782,0.0339 0.159642,0.0594 0.217157,0.11693 0.02625,0.0263 0.15975,0.0298 0.200454,0.0501 0.02572,0.0129 0.02777,0.0334 0.05011,0.0334 0.05726,0 0.211418,0.15034 0.150339,0.15034"
           id="path2069"
           inkscape:connector-curvature="0" />
        <path
           style="opacity:1;fill:none;fill-opacity:1;stroke:#000000;stroke-width:0.49559413;stroke-linecap:round;stroke-linejoin:round;stroke-miterlimit:4;stroke-dasharray:none;stroke-dashoffset:0;stroke-opacity:1"
           d="m 57.211287,273.69133 c 0.03855,-0.0123 0.256069,0.0446 0.283975,0.0167 0.02188,-0.0219 0.127785,-0.061 0.133635,-0.0668 0.05199,-0.052 0.317352,-0.21719 0.200451,-0.33409 -0.02718,-0.0272 -0.02273,-0.16704 -0.08352,-0.16704"
           id="path2071"
           inkscape:connector-curvature="0" />
        <path
           style="opacity:1;fill:none;fill-opacity:1;stroke:#000000;stroke-width:0.49559413;stroke-linecap:round;stroke-linejoin:round;stroke-miterlimit:4;stroke-dasharray:none;stroke-dashoffset:0;stroke-opacity:1"
           d="m 58.17432,275.4364 c 0.03203,-0.0577 0.07358,-0.0972 0.118118,-0.14174"
           id="path2075"
           inkscape:connector-curvature="0" />
      </g>
    </g>
  </g>
</svg>
