<?xml version="1.0" encoding="UTF-8" standalone="no"?>
<!-- Created with Inkscape (http://www.inkscape.org/) -->

<svg
   xmlns:dc="http://purl.org/dc/elements/1.1/"
   xmlns:cc="http://creativecommons.org/ns#"
   xmlns:rdf="http://www.w3.org/1999/02/22-rdf-syntax-ns#"
   xmlns:svg="http://www.w3.org/2000/svg"
   xmlns="http://www.w3.org/2000/svg"
   xmlns:sodipodi="http://sodipodi.sourceforge.net/DTD/sodipodi-0.dtd"
   xmlns:inkscape="http://www.inkscape.org/namespaces/inkscape"
   width="3.5in"
   height="2in"
   viewBox="0 0 88.9 50.8"
   version="1.1"
   id="svg1391"
   inkscape:version="0.92.5 (2060ec1f9f, 2020-04-08)"
   sodipodi:docname="2022-02-20 12:00:00-05:00.svg">
  <defs
     id="defs1385" />
  <sodipodi:namedview
     id="base"
     pagecolor="#ffffff"
     bordercolor="#666666"
     borderopacity="1.0"
     inkscape:pageopacity="0.0"
     inkscape:pageshadow="2"
     inkscape:zoom="5.6"
     inkscape:cx="194.245"
     inkscape:cy="97.013683"
     inkscape:document-units="in"
     inkscape:current-layer="layer1"
     showgrid="false"
     units="in"
     inkscape:window-width="1920"
     inkscape:window-height="1011"
     inkscape:window-x="0"
     inkscape:window-y="0"
     inkscape:window-maximized="1"
     inkscape:snap-global="false" />
  <metadata
     id="metadata1388">
    <rdf:RDF>
      <cc:Work
         rdf:about="">
        <dc:format>image/svg+xml</dc:format>
        <dc:type
           rdf:resource="http://purl.org/dc/dcmitype/StillImage" />
        <dc:title />
      </cc:Work>
    </rdf:RDF>
  </metadata>
  <g
     inkscape:label="Layer 1"
     inkscape:groupmode="layer"
     id="layer1"
     transform="translate(0,-246.2)">
    <rect
       style="fill:none;fill-opacity:1;stroke:#000000;stroke-width:0.09491614;stroke-linecap:round;stroke-linejoin:round;stroke-miterlimit:4;stroke-dasharray:none;stroke-opacity:1"
       id="rect1936"
       width="77.894287"
       height="48.191963"
       x="9.890687"
       y="247.6741" />
    <path
       style="opacity:1;vector-effect:none;fill:none;fill-opacity:1;stroke:#000000;stroke-width:0.1016;stroke-linecap:round;stroke-linejoin:bevel;stroke-miterlimit:4;stroke-dasharray:none;stroke-dashoffset:0;stroke-opacity:1"
       d="m 11.717262,249.51674 c -0.02627,0.82287 -0.283482,1.62627 -0.283482,2.45685 0,2.49317 0.425223,4.9423 0.425223,7.41778 0,0.38663 0.174487,1.56734 -0.236235,1.46466 0.297701,-10e-6 0.169851,0.0377 0.377976,0.14174 0.428393,0.21419 1.430772,-0.46229 1.795387,-0.61421 0.994392,-0.41433 2.142874,-1.08971 2.504092,-2.17337 0.170738,-0.51221 -0.06577,-1.30251 -0.188988,-1.79538 -0.364713,-1.45886 -0.691619,-2.55134 -2.504092,-2.55134 -0.223822,0 -1.937128,0.39006 -1.937128,0.56696 0,0.44303 3.028941,-1.15472 3.449033,-1.88988 0.59431,-1.04004 -0.416219,-3.15617 -1.606399,-3.35454 -0.607262,-0.10121 -1.198651,0.28809 -1.795387,0.33073 z"
       id="path818"
       inkscape:connector-curvature="0" />
    <path
       style="opacity:1;vector-effect:none;fill:none;fill-opacity:1;stroke:#000000;stroke-width:0.1016;stroke-linecap:round;stroke-linejoin:bevel;stroke-miterlimit:4;stroke-dasharray:none;stroke-dashoffset:0;stroke-opacity:1"
       d="m 18.001116,257.3125 c -0.417271,0.8457 -0.447339,4.41131 1.133929,4.016 1.127431,-0.28186 1.181175,-1.84623 1.181175,-2.78758 0,-0.0926 0.134061,-0.5274 0.04725,-0.61421 -0.13456,-0.13456 -0.426531,-0.51972 -0.236235,-0.51972 0.04725,0 0,0.0945 0,0.14174 0,0.44377 0.02184,0.93426 0.09449,1.37017 0.06437,0.3862 0.587988,3.09728 1.370164,2.3151"
       id="path822"
       inkscape:connector-curvature="0" />
    <path
       style="opacity:1;vector-effect:none;fill:none;fill-opacity:1;stroke:#000000;stroke-width:0.1016;stroke-linecap:round;stroke-linejoin:bevel;stroke-miterlimit:4;stroke-dasharray:none;stroke-dashoffset:0;stroke-opacity:1"
       d="m 23.34003,257.35975 c -0.05367,0.83953 -0.622793,3.89359 0.377976,4.39397 1.028048,0.51402 1.591805,-1.83151 1.74814,-2.45685 0.01806,-0.0722 -0.07653,-1.84263 -0.04725,-1.84263 0.205341,0 -0.04725,0.40887 -0.04725,0.61421 0,0.44266 0.129305,0.84795 0.236236,1.27567 0.24263,0.97052 0.681616,1.90972 0.897693,2.88207 0.28929,1.30181 0.136699,2.68113 -0.04725,3.96875 -0.04499,0.31496 -1.000119,2.59066 -1.511905,2.07887 -1.317401,-1.3174 2.29549,-7.05141 1.984374,-7.98475"
       id="path824"
       inkscape:connector-curvature="0" />
    <path
       style="opacity:1;vector-effect:none;fill:none;fill-opacity:1;stroke:#000000;stroke-width:0.1016;stroke-linecap:round;stroke-linejoin:bevel;stroke-miterlimit:4;stroke-dasharray:none;stroke-dashoffset:0;stroke-opacity:1"
       d="m 28.395461,256.98177 c 0.04838,1.05682 0.01143,2.19465 0.188987,3.26005 0.04151,0.24904 0.04725,1.00842 0.04725,0.75595 0,-0.11025 0,-0.22049 0,-0.33073"
       id="path826"
       inkscape:connector-curvature="0" />
    <circle
       id="path828"
       style="fill:#000000;stroke:none;stroke-width:0.26458332"
       cx="28.253719"
       cy="254.99739"
       r="0.1016" />
    <path
       style="opacity:1;vector-effect:none;fill:none;fill-opacity:1;stroke:#000000;stroke-width:0.1016;stroke-linecap:round;stroke-linejoin:bevel;stroke-miterlimit:4;stroke-dasharray:none;stroke-dashoffset:0;stroke-opacity:1"
       d="m 30.238094,257.83222 c -0.07849,-0.36604 0.30009,0.85818 0.330729,1.13393 0.05053,0.4547 0.0945,0.89116 0.0945,1.37016 0,0.22105 -0.04725,0.88251 -0.04725,0.66146 0,-0.23391 0.162293,-0.46845 0.188987,-0.70871 0.134276,-1.20847 0.406614,-3.4811 2.220611,-3.1183 0.717859,0.14357 0.391355,1.92458 0.330729,2.4096 -0.004,0.0323 0.0026,0.7087 0,0.7087 -0.110244,0 0,-0.22048 0,-0.33073"
       id="path830"
       inkscape:connector-curvature="0" />
    <path
       style="opacity:1;vector-effect:none;fill:none;fill-opacity:1;stroke:#000000;stroke-width:0.1016;stroke-linecap:round;stroke-linejoin:bevel;stroke-miterlimit:4;stroke-dasharray:none;stroke-dashoffset:0;stroke-opacity:1"
       d="m 35.340774,257.59598 c -1.229527,-0.0446 -1.469292,2.32931 -0.377976,2.69308 0.893188,0.29773 1.419233,-2.40777 1.133927,-2.69308 -0.0073,-0.007 -0.09449,0.58318 -0.09449,0.66146 0,0.63381 0.18093,1.19619 0.330729,1.79539 0.454094,1.81637 0.293566,4.22356 -1.559152,5.14992 -0.07441,0.0372 -0.275971,0.23624 -0.283483,0.23624 -0.199668,0 -0.03475,-1.15893 0.04725,-1.32292 0.695359,-1.39072 1.535419,-2.65155 2.315104,-4.016 0.08791,-0.15384 1.134856,-1.79631 0.519718,-1.18117"
       id="path832"
       inkscape:connector-curvature="0" />
    <path
       style="opacity:1;vector-effect:none;fill:none;fill-opacity:1;stroke:#000000;stroke-width:0.1016;stroke-linecap:round;stroke-linejoin:bevel;stroke-miterlimit:4;stroke-dasharray:none;stroke-dashoffset:0;stroke-opacity:1"
       d="m 46.585565,260.14732 c -0.08557,-1.10683 -0.154344,-2.30257 -0.236236,-3.44903 -0.137384,-1.92338 -0.04725,-3.89119 -0.04725,-5.81139 0,-0.3612 0.09449,-0.70604 0.09449,-1.08668 0,-0.0958 -0.143044,-0.28348 -0.04725,-0.28348 0.158626,0 0.271675,-0.0726 0.425223,-0.0945 0.457787,-0.0654 4.677457,-0.25014 4.677457,-0.0472 0,0.10084 -0.155561,0.12848 -0.236235,0.18899"
       id="path836"
       inkscape:connector-curvature="0" />
    <path
       style="opacity:1;vector-effect:none;fill:none;fill-opacity:1;stroke:#000000;stroke-width:0.1016;stroke-linecap:round;stroke-linejoin:bevel;stroke-miterlimit:4;stroke-dasharray:none;stroke-dashoffset:0;stroke-opacity:1"
       d="m 46.207589,254.14695 c 0.326486,-0.18192 3.963541,-0.18899 2.220609,-0.18899"
       id="path838"
       inkscape:connector-curvature="0" />
    <path
       style="opacity:1;vector-effect:none;fill:none;fill-opacity:1;stroke:#000000;stroke-width:0.1016;stroke-linecap:round;stroke-linejoin:bevel;stroke-miterlimit:4;stroke-dasharray:none;stroke-dashoffset:0;stroke-opacity:1"
       d="m 50.743302,257.3125 c -0.451009,-0.57705 -1.243034,0.5129 -1.322917,0.99219 -0.30349,1.82094 2.273353,2.33744 3.165552,0.85044 0.593217,-0.98869 -1.029549,-2.38469 -1.842635,-1.84263 z"
       id="path840"
       inkscape:connector-curvature="0" />
    <path
       style="opacity:1;vector-effect:none;fill:none;fill-opacity:1;stroke:#000000;stroke-width:0.1016;stroke-linecap:round;stroke-linejoin:bevel;stroke-miterlimit:4;stroke-dasharray:none;stroke-dashoffset:0;stroke-opacity:1"
       d="m 54.759301,256.98177 c -1.918041,-0.28668 -1.824979,4.33022 -0.0945,3.63802 1.057844,-0.42314 1.612577,-0.982 1.795388,-2.07887 0.05054,-0.30327 0.128374,-0.776 -0.04725,-1.03943 -0.593156,-0.88973 -1.099929,-0.33515 -1.653646,-0.51972 z"
       id="path842"
       inkscape:connector-curvature="0" />
    <path
       style="opacity:1;vector-effect:none;fill:none;fill-opacity:1;stroke:#000000;stroke-width:0.1016;stroke-linecap:round;stroke-linejoin:bevel;stroke-miterlimit:4;stroke-dasharray:none;stroke-dashoffset:0;stroke-opacity:1"
       d="m 60.854166,256.93452 c -4.075965,-0.99782 -2.369246,6.41232 0.236236,2.5041 0.238098,-0.35715 0.188986,-0.9714 0.188986,-1.41741 0,-0.91548 0.0945,-1.8847 0.0945,-2.78758 0,-1.06492 0.09449,-2.092 0.09449,-3.16555 0,-0.30663 -0.05548,-1.00865 -0.18899,-1.27567 -0.04259,-0.0852 -0.197159,-0.79503 -0.236233,-0.75595 -0.129331,0.12933 -0.0945,0.80399 -0.0945,0.99219 0,0.9579 -0.405519,6.465 -0.09449,7.08705 0.180282,0.36056 0.245634,1.47406 0.472469,1.70089 0.08268,0.0827 0.632542,0.72704 0.330729,0.42523"
       id="path850"
       inkscape:connector-curvature="0" />
    <path
       style="opacity:1;vector-effect:none;fill:none;fill-opacity:1;stroke:#000000;stroke-width:0.1016;stroke-linecap:round;stroke-linejoin:bevel;stroke-miterlimit:4;stroke-dasharray:none;stroke-dashoffset:0;stroke-opacity:1"
       d="m 64.539433,256.5093 c -0.502438,-0.17568 -1.626692,1.11363 -1.464656,1.27567 0.658307,0.65831 2.315104,-0.67552 2.315104,1.13393 0,0.46441 -0.12823,0.83693 -0.472472,1.18117 -0.743471,0.74348 -1.358926,0.94224 -2.220608,0.42523 -0.263798,-0.15828 -0.566965,-0.27369 -0.566965,-0.61421 0,-0.15511 0.301135,-0.0959 0.425222,-0.18899"
       id="path852"
       inkscape:connector-curvature="0" />
    <circle
       id="path854"
       style="fill:#000000;stroke:none;stroke-width:0.26458332"
       cx="66.901787"
       cy="256.65103"
       r="0.1016" />
    <circle
       id="path856"
       style="fill:#000000;stroke:none;stroke-width:0.26458332"
       cx="66.712799"
       cy="260.19458"
       r="0.1016" />
    <path
       style="opacity:1;vector-effect:none;fill:none;fill-opacity:1;stroke:#000000;stroke-width:0.1016;stroke-linecap:round;stroke-linejoin:bevel;stroke-miterlimit:4;stroke-dasharray:none;stroke-dashoffset:0;stroke-opacity:1"
       d="m 16.016741,272.05357 c -1.45258,0.3307 -0.159392,2.30886 0.141741,0.8032 0.07024,-0.35119 -0.141741,-0.50973 -0.141741,-0.8032 z"
       id="path858"
       inkscape:connector-curvature="0" />
    <path
       style="opacity:1;vector-effect:none;fill:none;fill-opacity:1;stroke:#000000;stroke-width:0.1016;stroke-linecap:round;stroke-linejoin:bevel;stroke-miterlimit:4;stroke-dasharray:none;stroke-dashoffset:0;stroke-opacity:1"
       d="m 18.379092,269.02976 c -0.205061,0.33095 -0.07801,0.75375 -0.188988,1.08668"
       id="path864"
       inkscape:connector-curvature="0" />
    <path
       style="opacity:1;vector-effect:none;fill:none;fill-opacity:1;stroke:#000000;stroke-width:0.1016;stroke-linecap:round;stroke-linejoin:bevel;stroke-miterlimit:4;stroke-dasharray:none;stroke-dashoffset:0;stroke-opacity:1"
       d="m 19.182291,268.74628 c -0.06904,0.38744 -0.177042,1.09863 0,1.27567"
       id="path866"
       inkscape:connector-curvature="0" />
    <path
       style="opacity:1;vector-effect:none;fill:none;fill-opacity:1;stroke:#000000;stroke-width:0.1016;stroke-linecap:round;stroke-linejoin:bevel;stroke-miterlimit:4;stroke-dasharray:none;stroke-dashoffset:0;stroke-opacity:1"
       d="m 21.119419,269.1715 c -0.149802,0.89467 -0.813794,5.28108 -0.283482,5.81139 0.07323,0.0732 3.133154,-0.72356 2.834822,-0.42523"
       id="path868"
       inkscape:connector-curvature="0" />
    <path
       style="opacity:1;vector-effect:none;fill:none;fill-opacity:1;stroke:#000000;stroke-width:0.1016;stroke-linecap:round;stroke-linejoin:bevel;stroke-miterlimit:4;stroke-dasharray:none;stroke-dashoffset:0;stroke-opacity:1"
       d="m 25.371651,272.80952 c -0.05169,-0.89934 -1.31474,1.29709 0.188989,1.51191 0.21077,0.0301 0.532153,0.0379 0.708705,-0.0945 1.071696,-0.80377 -0.992188,-1.96781 -0.992188,-1.65364 0,0.0649 0.124054,0.0473 0.188989,0.0473"
       id="path870"
       inkscape:connector-curvature="0" />
    <path
       style="opacity:1;vector-effect:none;fill:none;fill-opacity:1;stroke:#000000;stroke-width:0.1016;stroke-linecap:round;stroke-linejoin:bevel;stroke-miterlimit:4;stroke-dasharray:none;stroke-dashoffset:0;stroke-opacity:1"
       d="m 28.678944,271.81734 c 0.168256,0.64548 -0.384924,1.83568 0.09449,2.3151 0.711205,0.71121 1.336784,-1.5119 1.370163,-1.5119 0.236149,0 0.592574,1.48629 1.228424,0.85044 0.789919,-0.78992 0.255003,-1.81415 0.614211,-2.17336"
       id="path872"
       inkscape:connector-curvature="0" />
    <path
       style="opacity:1;vector-effect:none;fill:none;fill-opacity:1;stroke:#000000;stroke-width:0.1016;stroke-linecap:round;stroke-linejoin:bevel;stroke-miterlimit:4;stroke-dasharray:none;stroke-dashoffset:0;stroke-opacity:1"
       d="m 38.648065,267.80134 c -1.10073,-0.15832 -2.377119,1.2609 -1.41741,2.22061 0.974477,0.97448 2.351868,0.66677 2.740327,2.22061 0.0927,0.3708 0.115432,0.89254 -0.09449,1.22842 -0.533493,0.85359 -4.671486,1.14111 -2.787576,0.0945"
       id="path874"
       inkscape:connector-curvature="0" />
    <path
       style="opacity:1;vector-effect:none;fill:none;fill-opacity:1;stroke:#000000;stroke-width:0.1016;stroke-linecap:round;stroke-linejoin:bevel;stroke-miterlimit:4;stroke-dasharray:none;stroke-dashoffset:0;stroke-opacity:1"
       d="m 42.002604,272.10082 c -1.175944,-0.26424 -0.808892,2.12801 0.188989,1.79538 0.34758,-0.11586 1.1133,-0.78173 0.755951,-1.22842 -0.427489,-0.53436 -1.01396,-0.89769 -0.94494,-0.89769 0.119941,0 0.21242,0.12202 0.330729,0.14174"
       id="path876"
       inkscape:connector-curvature="0" />
    <path
       style="opacity:1;vector-effect:none;fill:none;fill-opacity:1;stroke:#000000;stroke-width:0.1016;stroke-linecap:round;stroke-linejoin:bevel;stroke-miterlimit:4;stroke-dasharray:none;stroke-dashoffset:0;stroke-opacity:1"
       d="m 44.931919,272.19531 c -0.785106,-0.2153 -1.498819,1.567 -0.8032,1.98438 1.558716,0.93523 1.667218,-4.16325 1.653645,-4.39398 -0.0097,-0.16507 -0.585581,-1.60639 -0.425222,-1.60639 0.01619,0 -0.158467,0.77768 -0.09449,1.41741 0.0865,0.86499 0.117845,3.02326 0.472469,3.73251 0.226996,0.45399 0.526079,0.85817 0.755954,0.28348"
       id="path878"
       inkscape:connector-curvature="0" />
    <path
       style="opacity:1;vector-effect:none;fill:none;fill-opacity:1;stroke:#000000;stroke-width:0.1016;stroke-linecap:round;stroke-linejoin:bevel;stroke-miterlimit:4;stroke-dasharray:none;stroke-dashoffset:0;stroke-opacity:1"
       d="m 47.577753,272.05357 c -0.192829,0.0989 0.229939,1.74814 0.14174,1.74814 -0.100844,0 -0.152329,-0.13305 -0.236234,-0.18899"
       id="path880"
       inkscape:connector-curvature="0" />
    <circle
       id="path882"
       style="fill:#000000;stroke:none;stroke-width:0.26458332"
       cx="47.530502"
       cy="270.39993"
       r="0.1016" />
    <path
       style="opacity:1;vector-effect:none;fill:none;fill-opacity:1;stroke:#000000;stroke-width:0.1016;stroke-linecap:round;stroke-linejoin:bevel;stroke-miterlimit:4;stroke-dasharray:none;stroke-dashoffset:0;stroke-opacity:1"
       d="m 49.042409,271.86458 c -0.06737,0.22569 -0.09449,0.42896 -0.09449,0.66146 0,0.61993 -0.01818,1.56521 0.850448,1.27567 0.478075,-0.15936 0.656373,-1.50174 0.850445,-1.88988 0.05678,-0.11357 -0.07973,-0.37798 0.04725,-0.37798 0.0052,0 -0.04725,0.7176 -0.04725,0.75596 0,0.51806 0.128677,1.79865 0.897694,1.60639"
       id="path884"
       inkscape:connector-curvature="0" />
    <path
       style="opacity:1;vector-effect:none;fill:none;fill-opacity:1;stroke:#000000;stroke-width:0.1016;stroke-linecap:round;stroke-linejoin:bevel;stroke-miterlimit:4;stroke-dasharray:none;stroke-dashoffset:0;stroke-opacity:1"
       d="m 52.68043,271.86458 c -0.151749,0.0527 -0.311213,2.22061 -0.377976,2.22061 -0.07729,0 0.329534,-2.13179 0.377976,-2.22061 0.787948,-1.44457 1.443268,1.27567 1.086684,1.27567 -0.08031,0 0.02185,-0.16005 0.04725,-0.23623 0.113861,-0.34158 0.541425,-1.8984 1.133928,-1.7009 0.533847,0.17795 0.699344,2.78758 0.614211,2.78758 -0.09961,0 0.0575,-0.191 0.09449,-0.28348"
       id="path886"
       inkscape:connector-curvature="0" />
    <path
       style="opacity:1;vector-effect:none;fill:none;fill-opacity:1;stroke:#000000;stroke-width:0.1016;stroke-linecap:round;stroke-linejoin:bevel;stroke-miterlimit:4;stroke-dasharray:none;stroke-dashoffset:0;stroke-opacity:1"
       d="m 56.223958,268.74628 c 0.04404,0.3926 0.08753,0.76987 -0.09449,1.13393"
       id="path888"
       inkscape:connector-curvature="0" />
    <path
       style="opacity:1;vector-effect:none;fill:none;fill-opacity:1;stroke:#000000;stroke-width:0.1016;stroke-linecap:round;stroke-linejoin:bevel;stroke-miterlimit:4;stroke-dasharray:none;stroke-dashoffset:0;stroke-opacity:1"
       d="m 57.074405,268.27381 c -0.07595,0.33939 -0.04725,0.69283 -0.04725,1.03943"
       id="path890"
       inkscape:connector-curvature="0" />
    <path
       style="opacity:1;vector-effect:none;fill:none;fill-opacity:1;stroke:#000000;stroke-width:0.1016;stroke-linecap:round;stroke-linejoin:bevel;stroke-miterlimit:4;stroke-dasharray:none;stroke-dashoffset:0;stroke-opacity:1"
       d="m 15.260788,281.59747 c -0.258071,0.0265 -0.244386,0.15804 -0.330729,0.33073 -0.300381,0.60076 0.704892,0.66718 0.992188,0.23623 0.219755,-0.32963 -0.08141,-1.09976 -0.377976,-0.80319"
       id="path892"
       inkscape:connector-curvature="0" />
    <path
       style="opacity:1;vector-effect:none;fill:none;fill-opacity:1;stroke:#000000;stroke-width:0.1016;stroke-linecap:round;stroke-linejoin:bevel;stroke-miterlimit:4;stroke-dasharray:none;stroke-dashoffset:0;stroke-opacity:1"
       d="m 20.505211,283.5346 c 0.372052,-0.37206 -0.377102,-4.13141 -0.04725,-4.96094 0.736417,-0.42584 1.833258,0.16699 2.504093,0.61421 0.416398,0.2776 0.87542,0.59194 1.228422,0.94494 0.27028,0.27028 0.519736,0.49949 0.755953,0.8032 2.639822,3.39406 -4.063244,2.8466 -4.063244,1.93713"
       id="path896"
       inkscape:connector-curvature="0" />
    <path
       style="opacity:1;vector-effect:none;fill:none;fill-opacity:1;stroke:#000000;stroke-width:0.1016;stroke-linecap:round;stroke-linejoin:bevel;stroke-miterlimit:4;stroke-dasharray:none;stroke-dashoffset:0;stroke-opacity:1"
       d="m 26.600073,280.84152 c -0.130344,-0.10391 0.644075,2.11452 0.519718,2.03162 -0.07413,-0.0494 -0.125992,-0.12599 -0.188989,-0.18899"
       id="path898"
       inkscape:connector-curvature="0" />
    <circle
       id="path900"
       style="fill:#000000;stroke:none;stroke-width:0.26458332"
       cx="26.694569"
       cy="279.04614"
       r="0.1016" />
    <path
       style="opacity:1;vector-effect:none;fill:none;fill-opacity:1;stroke:#000000;stroke-width:0.1016;stroke-linecap:round;stroke-linejoin:bevel;stroke-miterlimit:4;stroke-dasharray:none;stroke-dashoffset:0;stroke-opacity:1"
       d="m 29.245906,282.16443 c -0.114448,0.0948 0.236236,0.52656 0.236236,0.37798 0,-0.1685 -0.265488,-0.36314 -0.330729,-0.51972 -0.528513,-1.26843 -1.081069,-3.03503 -0.425223,-4.34672 0.358143,-0.71629 0.991558,-1.30213 1.228424,-0.23624"
       id="path902"
       inkscape:connector-curvature="0" />
    <path
       style="opacity:1;vector-effect:none;fill:none;fill-opacity:1;stroke:#000000;stroke-width:0.1016;stroke-linecap:round;stroke-linejoin:bevel;stroke-miterlimit:4;stroke-dasharray:none;stroke-dashoffset:0;stroke-opacity:1"
       d="m 28.631697,280.98326 c 0.280824,-0.16712 0.526431,-0.27673 0.850445,-0.33073"
       id="path904"
       inkscape:connector-curvature="0" />
    <path
       style="opacity:1;vector-effect:none;fill:none;fill-opacity:1;stroke:#000000;stroke-width:0.1016;stroke-linecap:round;stroke-linejoin:bevel;stroke-miterlimit:4;stroke-dasharray:none;stroke-dashoffset:0;stroke-opacity:1"
       d="m 31.60826,282.25893 c -0.390488,-0.11958 -0.243502,-7.94204 1.22842,-4.63021"
       id="path906"
       inkscape:connector-curvature="0" />
    <path
       style="opacity:1;vector-effect:none;fill:none;fill-opacity:1;stroke:#000000;stroke-width:0.1016;stroke-linecap:round;stroke-linejoin:bevel;stroke-miterlimit:4;stroke-dasharray:none;stroke-dashoffset:0;stroke-opacity:1"
       d="m 31.135788,280.22731 c 0.596746,0.0485 1.166609,-0.0727 1.748139,-0.18899"
       id="path908"
       inkscape:connector-curvature="0" />
    <path
       style="opacity:1;vector-effect:none;fill:none;fill-opacity:1;stroke:#000000;stroke-width:0.1016;stroke-linecap:round;stroke-linejoin:bevel;stroke-miterlimit:4;stroke-dasharray:none;stroke-dashoffset:0;stroke-opacity:1"
       d="m 33.072916,280.84152 c 0.461111,-0.21362 0.97749,0.0745 1.464657,-0.0473 0.943292,-0.23582 -0.545367,-1.5623 -1.133928,-0.18899 -0.125568,0.293 -0.120213,0.80758 0.04725,1.08668 0.400521,0.66754 1.695678,0.27222 2.220611,0.0473"
       id="path910"
       inkscape:connector-curvature="0" />
    <path
       style="opacity:1;vector-effect:none;fill:none;fill-opacity:1;stroke:#000000;stroke-width:0.1016;stroke-linecap:round;stroke-linejoin:bevel;stroke-miterlimit:4;stroke-dasharray:none;stroke-dashoffset:0;stroke-opacity:1"
       d="m 36.66369,280.46354 c 0.0082,0.20791 -0.03154,0.41725 0.04725,0.61421 0.569682,1.42421 -0.202028,-0.36656 -0.04725,-0.61421 0.383845,-0.61415 1.679951,-0.8032 2.315105,-0.8032"
       id="path912"
       inkscape:connector-curvature="0" />
    <path
       style="opacity:1;vector-effect:none;fill:none;fill-opacity:1;stroke:#000000;stroke-width:0.1016;stroke-linecap:round;stroke-linejoin:bevel;stroke-miterlimit:4;stroke-dasharray:none;stroke-dashoffset:0;stroke-opacity:1"
       d="m 40.726934,280.46354 c 0.395089,0.44744 0.894394,0.47659 1.27567,0 0.685863,-0.85733 -0.522965,-1.89601 -1.228424,-0.66146 -0.187216,0.32763 -0.04725,0.31927 -0.04725,0.66146 0,1.26936 0.871106,2.28175 2.173364,1.37016"
       id="path914"
       inkscape:connector-curvature="0" />
    <path
       style="opacity:1;vector-effect:none;fill:none;fill-opacity:1;stroke:#000000;stroke-width:0.1016;stroke-linecap:round;stroke-linejoin:bevel;stroke-miterlimit:4;stroke-dasharray:none;stroke-dashoffset:0;stroke-opacity:1"
       d="m 43.939732,280.27455 c -0.06936,0.30911 0.147037,0.50954 0.188987,0.8032 0.320476,2.24332 -0.523264,-1.41741 0.8032,-1.41741 0.553149,0 0.783794,1.77598 0.992188,1.98438"
       id="path916"
       inkscape:connector-curvature="0" />
    <path
       style="opacity:1;vector-effect:none;fill:none;fill-opacity:1;stroke:#000000;stroke-width:0.1016;stroke-linecap:round;stroke-linejoin:bevel;stroke-miterlimit:4;stroke-dasharray:none;stroke-dashoffset:0;stroke-opacity:1"
       d="m 47.105281,276.06957 c -0.01471,0.38105 0.0074,0.75521 0.04725,1.13393 0.106794,1.01454 0.600144,1.95226 0.708705,2.92931 0.02249,0.20252 0.01122,1.40383 -0.0945,1.08668"
       id="path918"
       inkscape:connector-curvature="0" />
    <path
       style="opacity:1;vector-effect:none;fill:none;fill-opacity:1;stroke:#000000;stroke-width:0.1016;stroke-linecap:round;stroke-linejoin:bevel;stroke-miterlimit:4;stroke-dasharray:none;stroke-dashoffset:0;stroke-opacity:1"
       d="m 46.538319,278.38467 c 0.916596,0.0267 1.797436,-0.19341 2.645833,-0.51972"
       id="path920"
       inkscape:connector-curvature="0" />
    <path
       style="opacity:1;vector-effect:none;fill:none;fill-opacity:1;stroke:#000000;stroke-width:0.1016;stroke-linecap:round;stroke-linejoin:bevel;stroke-miterlimit:4;stroke-dasharray:none;stroke-dashoffset:0;stroke-opacity:1"
       d="m 53.530878,276.92001 c 0.137882,0.48492 0.30276,0.96322 0.377975,1.46466 0.118124,0.78749 0.04725,1.61262 0.04725,2.4096 0,0.31498 0,0.62996 0,0.94494 0,0.0352 0.04725,0.12971 0.04725,0.0945 0,-0.55379 -0.455441,-1.14628 -0.283483,-1.74813 0.316926,-1.10924 1.969088,-0.94356 2.315104,0.0945 0.07914,0.2374 -0.0061,0.52778 -0.14174,0.7087 -0.841472,1.12197 -2.243118,0.61377 -1.417409,0.28349"
       id="path922"
       inkscape:connector-curvature="0" />
    <path
       style="opacity:1;vector-effect:none;fill:none;fill-opacity:1;stroke:#000000;stroke-width:0.1016;stroke-linecap:round;stroke-linejoin:bevel;stroke-miterlimit:4;stroke-dasharray:none;stroke-dashoffset:0;stroke-opacity:1"
       d="m 57.216145,280.08557 c -0.130625,0.24507 0.476425,0.84649 0.283483,1.03943 -0.355722,0.35572 -0.686216,-1.07692 -0.425223,-1.51191 0.282427,-0.47071 1.437839,-0.28348 1.889879,-0.28348"
       id="path924"
       inkscape:connector-curvature="0" />
    <path
       style="opacity:1;vector-effect:none;fill:none;fill-opacity:1;stroke:#000000;stroke-width:0.1016;stroke-linecap:round;stroke-linejoin:bevel;stroke-miterlimit:4;stroke-dasharray:none;stroke-dashoffset:0;stroke-opacity:1"
       d="m 60.287201,279.66034 c -0.24153,-0.0907 -0.44159,0.12177 -0.566963,0.33073 -0.178871,0.29812 -0.328406,1.65287 0.377976,1.41741 0.387416,-0.12914 0.603099,-1.65364 0.708705,-1.65364 0.06493,0 0.02671,0.12738 0.04725,0.18898 0.24352,0.73057 0.597765,1.23117 1.464656,1.08669"
       id="path926"
       inkscape:connector-curvature="0" />
    <path
       style="opacity:1;vector-effect:none;fill:none;fill-opacity:1;stroke:#000000;stroke-width:0.1016;stroke-linecap:round;stroke-linejoin:bevel;stroke-miterlimit:4;stroke-dasharray:none;stroke-dashoffset:0;stroke-opacity:1"
       d="m 62.649552,279.75484 c 0.07578,0.28071 0.141742,0.56082 0.141742,0.85044 0,2.53361 -0.137387,-2.1235 1.511903,-1.13393 0.722943,0.43377 0.64787,1.93713 0.897695,1.93713"
       id="path928"
       inkscape:connector-curvature="0" />
    <path
       style="opacity:1;vector-effect:none;fill:none;fill-opacity:1;stroke:#000000;stroke-width:0.1016;stroke-linecap:round;stroke-linejoin:bevel;stroke-miterlimit:4;stroke-dasharray:none;stroke-dashoffset:0;stroke-opacity:1"
       d="m 67.27976,279.94382 c -0.850122,-0.45458 -1.796132,1.10975 -1.133928,1.6064 1.319131,0.98935 1.728044,-3.80903 1.74814,-4.11049 0.0048,-0.0721 -0.08248,-1.19319 -0.188987,-1.08668 -0.40822,0.40822 -0.306305,5.20858 1.133927,4.48847"
       id="path930"
       inkscape:connector-curvature="0" />
    <path
       style="opacity:1;vector-effect:none;fill:none;fill-opacity:1;stroke:#000000;stroke-width:0.1016;stroke-linecap:round;stroke-linejoin:bevel;stroke-miterlimit:4;stroke-dasharray:none;stroke-dashoffset:0;stroke-opacity:1"
       d="m 71.059523,279.28236 c -2.832817,1.34019 0.617461,1.64715 0.188987,2.5041 -0.219107,0.43821 -1.590807,0.41483 -1.322917,0.23623"
       id="path932"
       inkscape:connector-curvature="0" />
  </g>
</svg>
