<?xml version="1.0" encoding="UTF-8" standalone="no"?>
<!-- Created with Inkscape (http://www.inkscape.org/) -->

<svg
   xmlns:dc="http://purl.org/dc/elements/1.1/"
   xmlns:cc="http://creativecommons.org/ns#"
   xmlns:rdf="http://www.w3.org/1999/02/22-rdf-syntax-ns#"
   xmlns:svg="http://www.w3.org/2000/svg"
   xmlns="http://www.w3.org/2000/svg"
   xmlns:sodipodi="http://sodipodi.sourceforge.net/DTD/sodipodi-0.dtd"
   xmlns:inkscape="http://www.inkscape.org/namespaces/inkscape"
   width="3.5in"
   height="2in"
   viewBox="0 0 88.9 50.8"
   version="1.1"
   id="svg1391"
   inkscape:version="0.92.5 (2060ec1f9f, 2020-04-08)"
   sodipodi:docname="fin.svg">
  <defs
     id="defs1385" />
  <sodipodi:namedview
     id="base"
     pagecolor="#ffffff"
     bordercolor="#666666"
     borderopacity="1.0"
     inkscape:pageopacity="0.0"
     inkscape:pageshadow="2"
     inkscape:zoom="5.6"
     inkscape:cx="168.94796"
     inkscape:cy="22.228304"
     inkscape:document-units="in"
     inkscape:current-layer="layer1"
     showgrid="false"
     units="in"
     inkscape:window-width="1920"
     inkscape:window-height="1011"
     inkscape:window-x="0"
     inkscape:window-y="0"
     inkscape:window-maximized="1"
     inkscape:snap-global="false" />
  <metadata
     id="metadata1388">
    <rdf:RDF>
      <cc:Work
         rdf:about="">
        <dc:format>image/svg+xml</dc:format>
        <dc:type
           rdf:resource="http://purl.org/dc/dcmitype/StillImage" />
        <dc:title />
      </cc:Work>
    </rdf:RDF>
  </metadata>
  <g
     inkscape:label="Layer 1"
     inkscape:groupmode="layer"
     id="layer1"
     transform="translate(0,-246.2)">
    <rect
       style="fill:none;fill-opacity:1;stroke:#000000;stroke-width:0.09491614;stroke-linecap:round;stroke-linejoin:round;stroke-miterlimit:4;stroke-dasharray:none;stroke-opacity:1"
       id="rect1936"
       width="77.894287"
       height="48.191963"
       x="9.890687"
       y="247.6741" />
    <path
       style="opacity:1;vector-effect:none;fill:none;fill-opacity:1;stroke:#070000;stroke-width:0.1016;stroke-linecap:round;stroke-linejoin:bevel;stroke-miterlimit:4;stroke-dasharray:none;stroke-dashoffset:0;stroke-opacity:1"
       d="m 141.36309,230.00372 c -0.12599,0 -0.25198,0 -0.37797,0"
       id="path3400"
       inkscape:connector-curvature="0" />
    <g
       id="g5097"
       transform="matrix(0.96252185,0,0,0.96243733,0.05137785,7.6585134)"
       style="stroke-width:1.03898311">
      <path
         inkscape:connector-curvature="0"
         id="path3382"
         d="m 25.607887,255.51711 c -2.766251,-0.82011 -4.899486,1.66538 -5.858631,4.06325 -0.582863,1.45715 -1.039435,3.25608 -1.039435,4.81919 0,2.20908 0.646241,4.7209 2.929316,5.29167 0.894783,0.2237 2.02768,0.62701 3.023809,0.37798 5.327948,-1.33199 8.004674,-9.28774 4.44122,-12.85119 -0.77801,-0.77801 -2.361946,-1.98448 -3.496279,-1.7009 z"
         style="opacity:1;vector-effect:none;fill:none;fill-opacity:1;stroke:#070000;stroke-width:0.10556068;stroke-linecap:round;stroke-linejoin:bevel;stroke-miterlimit:4;stroke-dasharray:none;stroke-dashoffset:0;stroke-opacity:1" />
      <path
         inkscape:connector-curvature="0"
         id="path3386"
         d="m 22.867559,258.44643 c -1.61751,0.0705 -0.248631,2.3275 0.377976,1.70089 0.483514,-0.48351 0.710842,-1.70089 -0.377976,-1.70089 z"
         style="opacity:1;vector-effect:none;fill:none;fill-opacity:1;stroke:#070000;stroke-width:0.10556068;stroke-linecap:round;stroke-linejoin:bevel;stroke-miterlimit:4;stroke-dasharray:none;stroke-dashoffset:0;stroke-opacity:1" />
      <path
         inkscape:connector-curvature="0"
         id="path3388"
         d="m 27.308781,258.63542 c -0.70031,-0.23164 -0.531271,0.11759 -0.755955,0.56696 -0.122843,0.24569 0.111493,0.48947 0.18899,0.56696 1.41166,1.41167 2.447258,-1.604 0.566965,-1.13392 z"
         style="opacity:1;vector-effect:none;fill:none;fill-opacity:1;stroke:#070000;stroke-width:0.10556068;stroke-linecap:round;stroke-linejoin:bevel;stroke-miterlimit:4;stroke-dasharray:none;stroke-dashoffset:0;stroke-opacity:1" />
      <path
         inkscape:connector-curvature="0"
         id="path3390"
         d="m 24.75744,262.32068 c -1.231752,-0.63475 -0.761447,1.70639 0.283482,0.66146"
         style="opacity:1;vector-effect:none;fill:none;fill-opacity:1;stroke:#070000;stroke-width:0.10556068;stroke-linecap:round;stroke-linejoin:bevel;stroke-miterlimit:4;stroke-dasharray:none;stroke-dashoffset:0;stroke-opacity:1" />
      <path
         inkscape:connector-curvature="0"
         id="path3392"
         d="m 22.395089,265.06101 c -0.07753,3.07432 3.092992,2.2493 3.779762,0.18899"
         style="opacity:1;vector-effect:none;fill:none;fill-opacity:1;stroke:#070000;stroke-width:0.10556068;stroke-linecap:round;stroke-linejoin:bevel;stroke-miterlimit:4;stroke-dasharray:none;stroke-dashoffset:0;stroke-opacity:1" />
      <path
         inkscape:connector-curvature="0"
         id="path3394"
         d="m 30.521576,261.18676 c 1.517674,-3.41706 1.908225,0.17676 -0.09449,1.5119"
         style="opacity:1;vector-effect:none;fill:none;fill-opacity:1;stroke:#070000;stroke-width:0.10556068;stroke-linecap:round;stroke-linejoin:bevel;stroke-miterlimit:4;stroke-dasharray:none;stroke-dashoffset:0;stroke-opacity:1" />
      <path
         inkscape:connector-curvature="0"
         id="path3396"
         d="m 19.938244,259.39137 c -0.175902,-0.3308 -0.183591,-0.65606 -0.377977,-0.85045 -0.517031,-0.51703 -1.307646,0.34744 -1.41741,0.56697 -0.400904,0.80181 0.566964,1.70089 0.850446,2.55134"
         style="opacity:1;vector-effect:none;fill:none;fill-opacity:1;stroke:#070000;stroke-width:0.10556068;stroke-linecap:round;stroke-linejoin:bevel;stroke-miterlimit:4;stroke-dasharray:none;stroke-dashoffset:0;stroke-opacity:1" />
      <circle
         r="0.1016"
         cy="258.44644"
         cx="22.867558"
         style="fill:#070000;stroke:none;stroke-width:0.27489761"
         id="path3398" />
      <circle
         r="0.1016"
         cy="259.10788"
         cx="22.773064"
         style="fill:#070000;stroke:none;stroke-width:0.27489761"
         id="path3402" />
      <circle
         r="0.1016"
         cy="259.20239"
         cx="27.403273"
         style="fill:#070000;stroke:none;stroke-width:0.27489761"
         id="path3404" />
      <path
         inkscape:connector-curvature="0"
         id="path3406"
         d="m 25.040922,253.15476 c 0.747483,-1.97262 2.557532,-2.08196 4.252234,-2.92931 0.475006,-0.23751 1.504883,0.0607 1.889879,0.18898 2.576726,0.85891 3.212798,3.16996 3.212798,5.95313 0,1.46612 -0.213842,3.38185 -0.661458,4.7247 -0.29577,0.88731 -4.625033,7.93233 -5.38616,8.69345 -0.80876,0.80876 -2.223844,1.99084 -2.834823,3.2128 -0.622711,1.24542 -1.352847,2.32772 -1.88988,3.40179 -0.103704,0.2074 -0.438249,1.79538 -0.472471,1.79538 -0.192274,0 -1.241542,-4.37296 -1.41741,-4.7247 -1.159502,-2.319 -5.199306,-4.82133 -7.276042,-6.89806 -1.201954,-1.20196 -1.059849,-2.97015 -1.795387,-4.44122 -0.784839,-1.56968 -0.763321,-4.28106 -0.09449,-5.95313 0.971273,-2.42818 3.16217,-4.65214 5.386161,-5.76414 0.908528,-0.45426 2.222381,0.0945 3.118303,0.0945 1.11536,0 2.453495,0.65476 2.929316,1.6064 0.312653,0.6253 1.210225,1.03943 1.039434,1.03943 -0.199211,0 -0.377976,-0.12599 -0.566964,-0.18899"
         style="opacity:1;vector-effect:none;fill:none;fill-opacity:1;stroke:#070000;stroke-width:0.10556068;stroke-linecap:round;stroke-linejoin:bevel;stroke-miterlimit:4;stroke-dasharray:none;stroke-dashoffset:0;stroke-opacity:1" />
      <path
         inkscape:connector-curvature="0"
         id="path3408"
         d="m 38.493668,255.9902 c -0.521627,0.43212 0.377976,4.94141 0.377976,3.59077"
         style="opacity:1;vector-effect:none;fill:none;fill-opacity:1;stroke:#070000;stroke-width:0.10556068;stroke-linecap:round;stroke-linejoin:bevel;stroke-miterlimit:4;stroke-dasharray:none;stroke-dashoffset:0;stroke-opacity:1" />
      <path
         inkscape:connector-curvature="0"
         id="path3410"
         d="m 36.792775,260.43142 c 1.346466,-1.02179 3.820867,-1.16134 4.91369,-1.88988"
         style="opacity:1;vector-effect:none;fill:none;fill-opacity:1;stroke:#070000;stroke-width:0.10556068;stroke-linecap:round;stroke-linejoin:bevel;stroke-miterlimit:4;stroke-dasharray:none;stroke-dashoffset:0;stroke-opacity:1" />
      <path
         inkscape:connector-curvature="0"
         id="path3412"
         d="m 36.320304,256.55716 c 1.251944,-0.59061 3.59371,-0.28642 4.535715,-1.22842"
         style="opacity:1;vector-effect:none;fill:none;fill-opacity:1;stroke:#070000;stroke-width:0.10556068;stroke-linecap:round;stroke-linejoin:bevel;stroke-miterlimit:4;stroke-dasharray:none;stroke-dashoffset:0;stroke-opacity:1" />
      <path
         inkscape:connector-curvature="0"
         id="path3414"
         d="m 47.281614,255.51773 c 0.01726,0.70294 0.345677,1.415 0.566964,2.07887 0.740973,2.22292 -0.468031,-0.14396 1.700893,-1.22843 0.658271,-0.32913 1.228421,3.34379 1.228421,1.79539"
         style="opacity:1;vector-effect:none;fill:none;fill-opacity:1;stroke:#070000;stroke-width:0.10556068;stroke-linecap:round;stroke-linejoin:bevel;stroke-miterlimit:4;stroke-dasharray:none;stroke-dashoffset:0;stroke-opacity:1" />
      <path
         inkscape:connector-curvature="0"
         id="path3424"
         d="m 52.184375,257.11002 c -0.0048,-0.42143 -0.546568,-0.31003 -0.668173,-0.0668 -0.208537,0.41707 -0.264195,0.94159 -0.06682,1.33635 0.794237,1.58847 2.019395,-0.8414 0.734991,-1.26953 z"
         style="opacity:1;vector-effect:none;fill:none;fill-opacity:1;stroke:#070000;stroke-width:0.10556068;stroke-linecap:round;stroke-linejoin:bevel;stroke-miterlimit:4;stroke-dasharray:none;stroke-dashoffset:0;stroke-opacity:1" />
      <path
         inkscape:connector-curvature="0"
         id="path3426"
         d="m 53.988444,257.0432 c -0.116289,1.04549 0.267269,2.07737 0.267269,3.14042 0,0.24601 0.06682,0.981 0.06682,0.73499 0,-0.99891 -1.248664,-3.22214 -0.334087,-3.87541 0.08924,-0.0637 0.285893,-0.52522 0.534541,-0.4009 0.285998,0.143 0.376475,0.32762 0.46772,0.60135 0.403751,1.21126 -1.36384,1.26559 -0.668174,0.80181"
         style="opacity:1;vector-effect:none;fill:none;fill-opacity:1;stroke:#070000;stroke-width:0.10556068;stroke-linecap:round;stroke-linejoin:bevel;stroke-miterlimit:4;stroke-dasharray:none;stroke-dashoffset:0;stroke-opacity:1" />
      <path
         inkscape:connector-curvature="0"
         id="path3428"
         d="m 56.059783,256.84275 c 0.01601,0.32494 0.55409,0.69181 0.868627,0.53454 1.222499,-0.61125 -0.801809,-1.97058 -0.801809,0.13364 0,0.60792 0.805746,1.06513 1.336346,0.53453"
         style="opacity:1;vector-effect:none;fill:none;fill-opacity:1;stroke:#070000;stroke-width:0.10556068;stroke-linecap:round;stroke-linejoin:bevel;stroke-miterlimit:4;stroke-dasharray:none;stroke-dashoffset:0;stroke-opacity:1" />
      <path
         inkscape:connector-curvature="0"
         id="path3430"
         d="m 61.73926,256.70912 c 0.01675,0.37993 -0.408909,1.46197 -0.06682,1.80407 0.339233,0.33923 0.970349,-0.0409 1.069078,-0.53454 0.01765,-0.0882 0.142272,-1.26953 0.200451,-1.26953 0.02252,0 -0.176868,0.62886 -0.06682,1.06907 0.118602,0.47441 0.352919,0.87714 0.467722,1.33635 0.412697,1.65079 -1.756619,2.6288 -0.801809,0.40091 0.196987,-0.45964 0.537009,-0.87439 0.734991,-1.33635 0.253479,-0.59145 0.66775,-1.60192 0.734991,-1.87089"
         style="opacity:1;vector-effect:none;fill:none;fill-opacity:1;stroke:#070000;stroke-width:0.10556068;stroke-linecap:round;stroke-linejoin:bevel;stroke-miterlimit:4;stroke-dasharray:none;stroke-dashoffset:0;stroke-opacity:1" />
      <path
         inkscape:connector-curvature="0"
         id="path3432"
         d="m 64.812861,256.97639 c -0.895435,-0.0533 -0.761368,1.79058 0.200451,1.46998 0.250703,-0.0836 0.664845,-1.20438 0.400904,-1.33635 -0.304167,-0.15208 -1.527323,0.0979 -0.868624,-0.0668"
         style="opacity:1;vector-effect:none;fill:none;fill-opacity:1;stroke:#070000;stroke-width:0.10556068;stroke-linecap:round;stroke-linejoin:bevel;stroke-miterlimit:4;stroke-dasharray:none;stroke-dashoffset:0;stroke-opacity:1" />
      <path
         inkscape:connector-curvature="0"
         id="path3434"
         d="m 66.416476,257.11002 c -0.06829,0.39055 -0.321833,1.08133 0,1.40317 0.252455,0.25245 0.750502,-0.46295 0.80181,-0.66818 0.05429,-0.21715 -0.157017,-0.66817 0.06682,-0.66817 0.101322,0 0.06596,1.15759 0.534537,1.46998"
         style="opacity:1;vector-effect:none;fill:none;fill-opacity:1;stroke:#070000;stroke-width:0.10556068;stroke-linecap:round;stroke-linejoin:bevel;stroke-miterlimit:4;stroke-dasharray:none;stroke-dashoffset:0;stroke-opacity:1" />
      <path
         inkscape:connector-curvature="0"
         id="path3436"
         d="m 72.095956,257.44411 c 0.396285,0.10849 0.724173,0.0963 1.069078,-0.13364 0.817965,-0.54531 -0.360799,-1.09138 -0.935445,-0.13363 -0.561671,0.93611 0.352012,1.90755 1.202714,1.26953"
         style="opacity:1;vector-effect:none;fill:none;fill-opacity:1;stroke:#070000;stroke-width:0.10556068;stroke-linecap:round;stroke-linejoin:bevel;stroke-miterlimit:4;stroke-dasharray:none;stroke-dashoffset:0;stroke-opacity:1" />
      <path
         inkscape:connector-curvature="0"
         id="path3438"
         d="m 74.234112,256.97639 c 0.331983,0.29107 -0.119988,1.28317 0.133633,1.5368 0.0465,0.0465 0.09998,-0.60086 0.133636,-0.66818 0.179131,-0.35826 0.857837,-1.04106 1.336347,-0.80181 0.424717,0.21236 -0.213413,2.35157 0.400904,1.73725"
         style="opacity:1;vector-effect:none;fill:none;fill-opacity:1;stroke:#070000;stroke-width:0.10556068;stroke-linecap:round;stroke-linejoin:bevel;stroke-miterlimit:4;stroke-dasharray:none;stroke-dashoffset:0;stroke-opacity:1" />
      <path
         inkscape:connector-curvature="0"
         id="path3444"
         d="m 77.574979,256.97639 c -0.166507,0.83453 1.137108,4.2757 0.06682,4.81085 -1.374486,0.68724 -1.132475,-1.2571 -0.534537,-2.00452 0.484129,-0.60517 1.259813,-0.98769 1.670433,-1.60362"
         style="opacity:1;vector-effect:none;fill:none;fill-opacity:1;stroke:#070000;stroke-width:0.10556068;stroke-linecap:round;stroke-linejoin:bevel;stroke-miterlimit:4;stroke-dasharray:none;stroke-dashoffset:0;stroke-opacity:1" />
      <circle
         r="0.1016"
         cy="256.10776"
         cx="77.508163"
         style="fill:#070000;stroke:none;stroke-width:0.27489761"
         id="path3446" />
      <path
         inkscape:connector-curvature="0"
         id="path3448"
         d="m 79.913589,256.50866 c -0.326371,-0.1199 -0.505793,0.0474 -0.601358,0.33409 -1.425953,4.27787 3.108836,0.50174 0.200454,-0.46772"
         style="opacity:1;vector-effect:none;fill:none;fill-opacity:1;stroke:#070000;stroke-width:0.10556068;stroke-linecap:round;stroke-linejoin:bevel;stroke-miterlimit:4;stroke-dasharray:none;stroke-dashoffset:0;stroke-opacity:1" />
      <path
         inkscape:connector-curvature="0"
         id="path3450"
         d="m 81.450387,256.77593 c -0.0943,0.26012 -0.06681,0.53091 -0.06681,0.80181 0,3.71229 1.843529,-0.60135 1.135893,-0.60135 -0.100063,0 0.200454,3.01289 0.200454,3.4745 0,0.15322 -0.273344,1.33027 -0.668174,0.93544 -0.680455,-0.68045 1.162746,-3.50135 1.670434,-4.00904"
         style="opacity:1;vector-effect:none;fill:none;fill-opacity:1;stroke:#070000;stroke-width:0.10556068;stroke-linecap:round;stroke-linejoin:bevel;stroke-miterlimit:4;stroke-dasharray:none;stroke-dashoffset:0;stroke-opacity:1" />
      <path
         inkscape:connector-curvature="0"
         id="path3452"
         d="m 84.323534,257.11002 c 0.09748,0.19787 0.485331,0.69278 0.80181,0.53454 0.278235,-0.13912 0.0277,-2.19355 -0.80181,-0.53454 -0.147243,0.29449 -0.53458,0.53441 -0.400902,0.93544 0.162695,0.48809 1.107454,1.12596 1.403165,0.53454"
         style="opacity:1;vector-effect:none;fill:none;fill-opacity:1;stroke:#070000;stroke-width:0.10556068;stroke-linecap:round;stroke-linejoin:bevel;stroke-miterlimit:4;stroke-dasharray:none;stroke-dashoffset:0;stroke-opacity:1" />
      <path
         inkscape:connector-curvature="0"
         id="path3454"
         d="m 87.063049,257.51093 c 0.0097,-0.20698 0.0123,-0.25498 -0.06682,-0.33409 -0.06672,-0.0667 -0.34902,0.0322 -0.400905,0.0668 -1.282165,0.85478 0.438322,3.12439 1.00226,0.86863 0.09961,-0.39845 0.200454,-0.79263 0.200454,-1.20271 0,-0.66343 -0.196464,-1.42311 -0.06682,-2.07134 0.01746,-0.0874 0.063,-0.33027 0,-0.26727 -0.689533,0.68953 -0.422436,4.76557 0.601356,3.74177"
         style="opacity:1;vector-effect:none;fill:none;fill-opacity:1;stroke:#070000;stroke-width:0.10556068;stroke-linecap:round;stroke-linejoin:bevel;stroke-miterlimit:4;stroke-dasharray:none;stroke-dashoffset:0;stroke-opacity:1" />
      <g
         id="g3585"
         style="stroke-width:1.03898311">
        <path
           style="opacity:1;vector-effect:none;fill:none;fill-opacity:1;stroke:#070000;stroke-width:0.10556068;stroke-linecap:round;stroke-linejoin:bevel;stroke-miterlimit:4;stroke-dasharray:none;stroke-dashoffset:0;stroke-opacity:1"
           d="m 35.814115,265.32856 c 0.01606,0.064 0.366757,1.93918 0.400905,1.87088 0.26676,-0.53352 -0.779587,-2.3386 0.601358,-2.3386 0.253944,0 0.555424,0.0209 0.734991,0.20045"
           id="path3456"
           inkscape:connector-curvature="0" />
        <path
           style="opacity:1;vector-effect:none;fill:none;fill-opacity:1;stroke:#070000;stroke-width:0.10556068;stroke-linecap:round;stroke-linejoin:bevel;stroke-miterlimit:4;stroke-dasharray:none;stroke-dashoffset:0;stroke-opacity:1"
           d="m 38.219543,265.66264 c 0.145372,0.0508 0.991989,0.48827 1.135893,0.20046 0.190577,-0.38116 -0.38567,-1.48522 -0.801807,-1.06908 -0.741495,0.74149 -0.633656,3.05059 0.534538,2.27179"
           id="path3458"
           inkscape:connector-curvature="0" />
        <path
           style="opacity:1;vector-effect:none;fill:none;fill-opacity:1;stroke:#070000;stroke-width:0.10556068;stroke-linecap:round;stroke-linejoin:bevel;stroke-miterlimit:4;stroke-dasharray:none;stroke-dashoffset:0;stroke-opacity:1"
           d="m 41.159505,265.72946 c -0.655651,-0.96124 -1.66248,1.00624 -1.135893,1.26953 0.569082,0.28454 1.086543,-0.15414 1.202711,-0.73499 0.03522,-0.17608 -0.193789,-0.66151 -0.06682,-0.53454 0.445053,0.44505 -0.114459,1.20271 0.801809,1.20271"
           id="path3460"
           inkscape:connector-curvature="0" />
        <path
           style="opacity:1;vector-effect:none;fill:none;fill-opacity:1;stroke:#070000;stroke-width:0.10556068;stroke-linecap:round;stroke-linejoin:bevel;stroke-miterlimit:4;stroke-dasharray:none;stroke-dashoffset:0;stroke-opacity:1"
           d="m 43.765385,265.59583 c -1.122776,-1.37036 -1.954843,2.55191 -0.33409,1.33634 0.27442,-0.20581 0.33409,-0.59046 0.33409,-0.93544 0,-0.88073 -0.0469,0.13651 0.20045,-0.93544 0.12929,-0.56026 -0.11794,-1.635 0.13364,-2.13816 0.0115,-0.023 0.10599,-0.25573 0.13363,-0.20045 0.0713,0.14254 -0.22454,0.56135 -0.26727,0.66817 -0.28661,0.71653 -0.31007,2.039 -0.20045,2.80633 0.0709,0.49646 0.66592,1.21173 0.86863,0.40091"
           id="path3462"
           inkscape:connector-curvature="0" />
        <path
           style="opacity:1;vector-effect:none;fill:none;fill-opacity:1;stroke:#070000;stroke-width:0.10556068;stroke-linecap:round;stroke-linejoin:bevel;stroke-miterlimit:4;stroke-dasharray:none;stroke-dashoffset:0;stroke-opacity:1"
           d="m 45.435815,266.06355 c -0.0857,0.23491 0.20046,1.64947 0.20046,0.93544"
           id="path3464"
           inkscape:connector-curvature="0" />
        <circle
           id="path3466"
           style="fill:#070000;stroke:none;stroke-width:0.27489761"
           cx="45.569454"
           cy="264.7272"
           r="0.1016" />
        <path
           style="opacity:1;vector-effect:none;fill:none;fill-opacity:1;stroke:#070000;stroke-width:0.10556068;stroke-linecap:round;stroke-linejoin:bevel;stroke-miterlimit:4;stroke-dasharray:none;stroke-dashoffset:0;stroke-opacity:1"
           d="m 46.772165,265.72946 c -0.29633,3.28321 0.92711,-2.37194 1.60362,0.33409 0.0758,0.30327 0.0668,0.62283 0.0668,0.93544"
           id="path3468"
           inkscape:connector-curvature="0" />
        <path
           style="opacity:1;vector-effect:none;fill:none;fill-opacity:1;stroke:#070000;stroke-width:0.10556068;stroke-linecap:round;stroke-linejoin:bevel;stroke-miterlimit:4;stroke-dasharray:none;stroke-dashoffset:0;stroke-opacity:1"
           d="m 49.578495,265.72946 c -0.66875,-0.44708 -0.99248,1.07886 -0.60135,1.46998 0.53296,0.53296 0.98374,-1.40316 1.00226,-1.40316 0.11136,0 0,0.22272 0,0.33408 0,0.36084 0.48255,3.94965 -0.46773,3.47451 -0.97503,-0.48752 2.36988,-3.86356 1.80407,-3.67496"
           id="path3472"
           inkscape:connector-curvature="0" />
      </g>
      <g
         id="g3594"
         style="stroke-width:1.03898311">
        <path
           style="opacity:1;vector-effect:none;fill:none;fill-opacity:1;stroke:#070000;stroke-width:0.10556068;stroke-linecap:round;stroke-linejoin:bevel;stroke-miterlimit:4;stroke-dasharray:none;stroke-dashoffset:0;stroke-opacity:1"
           d="m 53.119819,266.06355 c 0.628068,-0.0444 1.621304,-0.0845 2.004521,-0.46773"
           id="path3476"
           inkscape:connector-curvature="0" />
        <g
           id="g3565"
           style="stroke-width:1.03898311">
          <path
             inkscape:connector-curvature="0"
             id="path3474"
             d="m 53.921627,264.66038 c -0.526714,0.93568 -0.304875,5.31618 1.5368,3.4745"
             style="opacity:1;vector-effect:none;fill:none;fill-opacity:1;stroke:#070000;stroke-width:0.10556068;stroke-linecap:round;stroke-linejoin:bevel;stroke-miterlimit:4;stroke-dasharray:none;stroke-dashoffset:0;stroke-opacity:1" />
          <path
             inkscape:connector-curvature="0"
             id="path3478"
             d="m 56.66114,264.66038 c -0.144074,0.45351 0.0025,0.94049 0.200452,1.33635 0.251232,0.50246 0.03503,1.77228 0.334087,2.07134 0.07168,0.0717 0.129599,-0.45562 0.200452,-0.66818 0.09013,-0.27038 1.122655,-1.14913 1.26953,-1.00226 0.287485,0.28749 0.467722,1.86358 0.467722,1.20272"
             style="opacity:1;vector-effect:none;fill:none;fill-opacity:1;stroke:#070000;stroke-width:0.10556068;stroke-linecap:round;stroke-linejoin:bevel;stroke-miterlimit:4;stroke-dasharray:none;stroke-dashoffset:0;stroke-opacity:1" />
          <path
             inkscape:connector-curvature="0"
             id="path3480"
             d="m 60.135644,266.59809 c 0.05589,0.29787 0.572475,2.12738 0.334087,0.93544"
             style="opacity:1;vector-effect:none;fill:none;fill-opacity:1;stroke:#070000;stroke-width:0.10556068;stroke-linecap:round;stroke-linejoin:bevel;stroke-miterlimit:4;stroke-dasharray:none;stroke-dashoffset:0;stroke-opacity:1" />
          <circle
             r="0.1016"
             cy="265.26172"
             cx="60.068825"
             style="fill:#070000;stroke:none;stroke-width:0.27489761"
             id="path3482" />
          <path
             inkscape:connector-curvature="0"
             id="path3484"
             d="m 61.939713,265.92991 c -1.81767,1.06221 0.801809,0.65048 0.801809,1.87089 0,0.0224 -0.215042,-0.1065 -0.734992,0.0668"
             style="opacity:1;vector-effect:none;fill:none;fill-opacity:1;stroke:#070000;stroke-width:0.10556068;stroke-linecap:round;stroke-linejoin:bevel;stroke-miterlimit:4;stroke-dasharray:none;stroke-dashoffset:0;stroke-opacity:1" />
        </g>
      </g>
      <g
         transform="translate(-1.0690781,-0.26726953)"
         id="g3569"
         style="stroke-width:1.03898311">
        <path
           style="opacity:1;vector-effect:none;fill:none;fill-opacity:1;stroke:#070000;stroke-width:0.10556068;stroke-linecap:round;stroke-linejoin:bevel;stroke-miterlimit:4;stroke-dasharray:none;stroke-dashoffset:0;stroke-opacity:1"
           d="m 68.554634,266.6649 c -0.782373,-0.71148 -1.451559,0.91125 -0.734991,1.26953 0.541155,0.27058 1.440548,-1.09851 1.202714,-1.33634 -0.172831,-0.17284 -0.252238,0.74501 0.133633,1.00226"
           id="path3486"
           inkscape:connector-curvature="0" />
        <path
           style="opacity:1;vector-effect:none;fill:none;fill-opacity:1;stroke:#070000;stroke-width:0.10556068;stroke-linecap:round;stroke-linejoin:bevel;stroke-miterlimit:4;stroke-dasharray:none;stroke-dashoffset:0;stroke-opacity:1"
           d="m 70.826426,266.264 c -2.898878,1.3216 2.098582,0.30684 0.46772,1.9377 -0.151387,0.15139 -0.855147,-0.20944 -1.069078,-0.0668"
           id="path3488"
           inkscape:connector-curvature="0" />
      </g>
      <g
         transform="translate(-1.2695303,0.20045215)"
         id="g3575"
         style="stroke-width:1.03898311">
        <path
           style="opacity:1;vector-effect:none;fill:none;fill-opacity:1;stroke:#070000;stroke-width:0.10556068;stroke-linecap:round;stroke-linejoin:bevel;stroke-miterlimit:4;stroke-dasharray:none;stroke-dashoffset:0;stroke-opacity:1"
           d="m 76.104998,266.33081 c -0.07787,0.61945 0.06682,1.29507 0.06682,1.87089 0,0.22384 0.06682,-0.44434 0.06682,-0.66817 0,-0.54158 0.160176,-1.21156 0.734991,-1.40317 0.633947,-0.21131 0.289584,1.26953 0.601358,1.26953 0.06682,0 -0.02114,-0.13706 0,-0.20045 0.08166,-0.24498 0.186314,-0.66111 0.46772,-0.80181 1.117587,-0.55879 0.805643,1.60745 1.002263,1.80407"
           id="path3490"
           inkscape:connector-curvature="0" />
        <path
           style="opacity:1;vector-effect:none;fill:none;fill-opacity:1;stroke:#070000;stroke-width:0.10556068;stroke-linecap:round;stroke-linejoin:bevel;stroke-miterlimit:4;stroke-dasharray:none;stroke-dashoffset:0;stroke-opacity:1"
           d="m 80.381311,266.86535 c -0.146415,0.42365 -0.04816,0.77231 0.133633,1.1359 0.274322,0.54864 0.713451,-0.0927 0.801809,-0.53454 0.01286,-0.0643 0.182631,-1.1359 0.200454,-1.1359 0.0057,0 0.222731,1.60362 1.00226,1.60362"
           id="path3492"
           inkscape:connector-curvature="0" />
        <path
           style="opacity:1;vector-effect:none;fill:none;fill-opacity:1;stroke:#070000;stroke-width:0.10556068;stroke-linecap:round;stroke-linejoin:bevel;stroke-miterlimit:4;stroke-dasharray:none;stroke-dashoffset:0;stroke-opacity:1"
           d="m 83.588545,266.53127 c -1.42009,-0.62349 -0.815091,2.41428 0.601355,1.46998"
           id="path3494"
           inkscape:connector-curvature="0" />
        <path
           style="opacity:1;vector-effect:none;fill:none;fill-opacity:1;stroke:#070000;stroke-width:0.10556068;stroke-linecap:round;stroke-linejoin:bevel;stroke-miterlimit:4;stroke-dasharray:none;stroke-dashoffset:0;stroke-opacity:1"
           d="m 85.192161,264.45993 c -0.276882,0.0765 0.649639,3.54132 0.53454,3.54132 -0.34218,0 0.511289,-1.72563 0.801809,-1.87089 1.090957,-0.54548 0.561713,2.73877 1.403165,1.33635"
           id="path3496"
           inkscape:connector-curvature="0" />
      </g>
      <path
         inkscape:connector-curvature="0"
         id="path3498"
         d="m 29.466465,273.54709 c -0.800745,-0.47841 -1.303046,0.63466 -0.734991,1.20271 0.884309,0.88431 0.958961,-1.26952 1.069078,-1.26952 0.08909,0 -0.02817,0.18275 0,0.26726 0.118991,0.35697 0.134059,0.62391 0.400904,0.80181"
         style="opacity:1;vector-effect:none;fill:none;fill-opacity:1;stroke:#070000;stroke-width:0.10556068;stroke-linecap:round;stroke-linejoin:bevel;stroke-miterlimit:4;stroke-dasharray:none;stroke-dashoffset:0;stroke-opacity:1" />
      <path
         inkscape:connector-curvature="0"
         id="path3500"
         d="m 31.805075,273.27982 c -2.550054,0.7249 0.684072,0.42003 0.334087,1.46998 -0.195924,0.58777 -1.313075,0.77854 -0.935445,0.40091"
         style="opacity:1;vector-effect:none;fill:none;fill-opacity:1;stroke:#070000;stroke-width:0.10556068;stroke-linecap:round;stroke-linejoin:bevel;stroke-miterlimit:4;stroke-dasharray:none;stroke-dashoffset:0;stroke-opacity:1" />
      <path
         inkscape:connector-curvature="0"
         id="path3502"
         d="m 36.615925,271.80984 c -0.04854,0.44531 0.451657,3.82721 0.200453,3.0736"
         style="opacity:1;vector-effect:none;fill:none;fill-opacity:1;stroke:#070000;stroke-width:0.10556068;stroke-linecap:round;stroke-linejoin:bevel;stroke-miterlimit:4;stroke-dasharray:none;stroke-dashoffset:0;stroke-opacity:1" />
      <path
         inkscape:connector-curvature="0"
         id="path3504"
         d="m 35.680482,275.28434 c 0.75338,-0.36005 1.882995,-0.41301 2.405425,-0.93544"
         style="opacity:1;vector-effect:none;fill:none;fill-opacity:1;stroke:#070000;stroke-width:0.10556068;stroke-linecap:round;stroke-linejoin:bevel;stroke-miterlimit:4;stroke-dasharray:none;stroke-dashoffset:0;stroke-opacity:1" />
      <path
         inkscape:connector-curvature="0"
         id="path3506"
         d="m 35.346396,272.27756 c 0.72713,-0.58326 1.854163,-0.54706 2.605878,-0.73499"
         style="opacity:1;vector-effect:none;fill:none;fill-opacity:1;stroke:#070000;stroke-width:0.10556068;stroke-linecap:round;stroke-linejoin:bevel;stroke-miterlimit:4;stroke-dasharray:none;stroke-dashoffset:0;stroke-opacity:1" />
      <path
         inkscape:connector-curvature="0"
         id="path3508"
         d="m 41.827682,273.61391 c 0.107296,0.33962 0.438774,0.34856 0.734991,0.20045 1.249064,-0.62453 -1.435187,-1.09832 -0.801809,0.80181 0.209635,0.6289 1.38331,0.80601 1.737251,0.33409"
         style="opacity:1;vector-effect:none;fill:none;fill-opacity:1;stroke:#070000;stroke-width:0.10556068;stroke-linecap:round;stroke-linejoin:bevel;stroke-miterlimit:4;stroke-dasharray:none;stroke-dashoffset:0;stroke-opacity:1" />
      <path
         inkscape:connector-curvature="0"
         id="path3510"
         d="m 43.965838,273.74754 c 0.08909,0.0446 0.187584,0.0739 0.267269,0.13364 0.05266,0.0395 0,0.60024 0,0.66817 0,0.0244 0.08187,0.40091 0.06682,0.40091 -0.251024,0 0.204094,-2.06952 1.00226,-1.67044 0.386233,0.19312 0.401918,1.37128 0.467722,1.46998"
         style="opacity:1;vector-effect:none;fill:none;fill-opacity:1;stroke:#070000;stroke-width:0.10556068;stroke-linecap:round;stroke-linejoin:bevel;stroke-miterlimit:4;stroke-dasharray:none;stroke-dashoffset:0;stroke-opacity:1" />
      <path
         inkscape:connector-curvature="0"
         id="path3512"
         d="m 47.440341,273.54709 c -0.07913,0.86931 0.878742,2.85292 0.53454,3.54132 -0.271481,0.54297 -1.805305,0.73746 -1.403164,-0.0668 0.50079,-1.00159 1.306991,-1.77472 2.00452,-2.47225"
         style="opacity:1;vector-effect:none;fill:none;fill-opacity:1;stroke:#070000;stroke-width:0.10556068;stroke-linecap:round;stroke-linejoin:bevel;stroke-miterlimit:4;stroke-dasharray:none;stroke-dashoffset:0;stroke-opacity:1" />
      <circle
         r="0.1016"
         cy="272.34436"
         cx="47.106251"
         style="fill:#070000;stroke:none;stroke-width:0.27489761"
         id="path3514" />
      <path
         inkscape:connector-curvature="0"
         id="path3516"
         d="m 49.645315,273.07937 c -0.423945,-0.0542 -0.353182,0.15273 -0.601356,0.40091 -0.211367,0.21136 -0.133635,0.71456 -0.133635,1.00226 0,2.03317 3.0174,-0.83257 0.734991,-1.40317 z"
         style="opacity:1;vector-effect:none;fill:none;fill-opacity:1;stroke:#070000;stroke-width:0.10556068;stroke-linecap:round;stroke-linejoin:bevel;stroke-miterlimit:4;stroke-dasharray:none;stroke-dashoffset:0;stroke-opacity:1" />
      <path
         inkscape:connector-curvature="0"
         id="path3518"
         d="m 51.58302,273.14619 c -0.165875,0.41978 -0.485196,1.96237 0,2.20497 0.444495,0.22225 1.437315,-1.76992 1.135895,-2.07134 -0.006,-0.006 -0.13364,0.85868 -0.13364,1.00226 0,0.61986 1.15843,2.87315 0,2.87315 -0.0395,0 -0.37516,0.0257 -0.4009,0 -0.360677,-0.36068 1.33635,-2.92833 1.33635,-2.67269"
         style="opacity:1;vector-effect:none;fill:none;fill-opacity:1;stroke:#070000;stroke-width:0.10556068;stroke-linecap:round;stroke-linejoin:bevel;stroke-miterlimit:4;stroke-dasharray:none;stroke-dashoffset:0;stroke-opacity:1" />
      <path
         inkscape:connector-curvature="0"
         id="path3520"
         d="m 54.790255,273.74754 c 0.21859,0.22979 0.67545,0.31226 0.8018,-0.0668 0.43997,-1.31989 -2.61447,0.24411 -1.06907,1.40316 0.35241,0.26431 0.47507,0.31778 0.93544,0.13364"
         style="opacity:1;vector-effect:none;fill:none;fill-opacity:1;stroke:#070000;stroke-width:0.10556068;stroke-linecap:round;stroke-linejoin:bevel;stroke-miterlimit:4;stroke-dasharray:none;stroke-dashoffset:0;stroke-opacity:1" />
      <path
         inkscape:connector-curvature="0"
         id="path3522"
         d="m 57.329315,273.34664 c -0.43362,-0.0569 -0.5555,0.13931 -0.80181,0.46772 -0.82085,1.09446 0.36136,1.90668 1.06908,0.66818 0.22728,-0.39776 0.43357,-4.43821 0.20045,-2.80633 -0.0973,0.68118 -0.17594,3.41826 0.93544,3.14041"
         style="opacity:1;vector-effect:none;fill:none;fill-opacity:1;stroke:#070000;stroke-width:0.10556068;stroke-linecap:round;stroke-linejoin:bevel;stroke-miterlimit:4;stroke-dasharray:none;stroke-dashoffset:0;stroke-opacity:1" />
      <path
         inkscape:connector-curvature="0"
         id="path3526"
         d="m 62.340617,273.14619 c -2.288537,-0.46769 0.601357,4.69067 0.601357,0.93545 0,-0.46328 0.06682,-0.92983 0.06682,-1.40317 0,-0.33406 0.120072,-1.28309 -0.133634,-1.5368 -0.03387,-0.0339 -0.161513,1.03545 -0.133635,1.20271 0.157541,0.94525 0.604696,2.14317 1.002261,2.73952"
         style="opacity:1;vector-effect:none;fill:none;fill-opacity:1;stroke:#070000;stroke-width:0.10556068;stroke-linecap:round;stroke-linejoin:bevel;stroke-miterlimit:4;stroke-dasharray:none;stroke-dashoffset:0;stroke-opacity:1" />
      <path
         inkscape:connector-curvature="0"
         id="path3528"
         d="m 64.746043,273.48028 c 0.143091,0.32849 0.136582,0.67554 0.26727,1.00226 0.54985,1.37462 -0.183829,-0.71261 0.133635,-1.1359 0.260511,-0.34735 1.643533,-1.29556 1.469982,-0.60135"
         style="opacity:1;vector-effect:none;fill:none;fill-opacity:1;stroke:#070000;stroke-width:0.10556068;stroke-linecap:round;stroke-linejoin:bevel;stroke-miterlimit:4;stroke-dasharray:none;stroke-dashoffset:0;stroke-opacity:1" />
      <path
         inkscape:connector-curvature="0"
         id="path3530"
         d="m 67.619191,273.68073 c -1.373792,-0.15069 -0.214858,1.88529 0.334086,1.33635 0.424508,-0.42451 0.06389,-1.40317 0.200453,-1.40317 0.0051,0 -0.0066,0.24736 0,0.26727 0.173016,0.51905 0.502753,1.26953 1.069078,1.26953"
         style="opacity:1;vector-effect:none;fill:none;fill-opacity:1;stroke:#070000;stroke-width:0.10556068;stroke-linecap:round;stroke-linejoin:bevel;stroke-miterlimit:4;stroke-dasharray:none;stroke-dashoffset:0;stroke-opacity:1" />
      <path
         inkscape:connector-curvature="0"
         id="path3532"
         d="m 70.225068,274.21527 c -0.02574,-0.98337 -0.0996,1.46998 0.467722,1.46998 0.449645,0 0.561249,-1.34974 0.601356,-1.26953 0.123345,0.24669 0.682895,1.38109 0.935444,1.00226 0.782574,-1.17386 -0.04115,-1.6396 0.467722,-1.46998"
         style="opacity:1;vector-effect:none;fill:none;fill-opacity:1;stroke:#070000;stroke-width:0.10556068;stroke-linecap:round;stroke-linejoin:bevel;stroke-miterlimit:4;stroke-dasharray:none;stroke-dashoffset:0;stroke-opacity:1" />
      <path
         inkscape:connector-curvature="0"
         id="path3534"
         d="m 73.76639,274.08164 c -0.08115,0.33234 0.615129,1.84538 0.400903,1.20271"
         style="opacity:1;vector-effect:none;fill:none;fill-opacity:1;stroke:#070000;stroke-width:0.10556068;stroke-linecap:round;stroke-linejoin:bevel;stroke-miterlimit:4;stroke-dasharray:none;stroke-dashoffset:0;stroke-opacity:1" />
      <circle
         r="0.1016"
         cy="270.47348"
         cx="65.748299"
         style="fill:#070000;stroke:none;stroke-width:0.27489761"
         id="path3536" />
      <path
         inkscape:connector-curvature="0"
         id="path3538"
         d="m 74.902285,273.5471 c -0.07622,0.32001 0.133635,0.5007 0.133635,0.8018 0,3.20187 0.186926,-2.01804 1.202712,-1.00226 0.254267,0.25427 0.334086,2.36679 0.334086,1.80407"
         style="opacity:1;vector-effect:none;fill:none;fill-opacity:1;stroke:#070000;stroke-width:0.10556068;stroke-linecap:round;stroke-linejoin:bevel;stroke-miterlimit:4;stroke-dasharray:none;stroke-dashoffset:0;stroke-opacity:1" />
      <path
         inkscape:connector-curvature="0"
         id="path3544"
         d="m 78.309972,273.41346 c -0.964612,-0.6437 -1.681408,1.51087 -0.801809,1.80407 0.826633,0.27554 0.924409,-2.17187 0.801809,-1.80407 -0.22538,0.67613 1.3266,4.68209 0.400905,5.14494 -0.530905,0.26545 -0.640109,-0.84454 -0.668176,-1.06908 -0.119803,-0.95842 0.872035,-3.56473 1.403165,-3.74177"
         style="opacity:1;vector-effect:none;fill:none;fill-opacity:1;stroke:#070000;stroke-width:0.10556068;stroke-linecap:round;stroke-linejoin:bevel;stroke-miterlimit:4;stroke-dasharray:none;stroke-dashoffset:0;stroke-opacity:1" />
      <path
         inkscape:connector-curvature="0"
         id="path3546"
         d="m 83.722181,273.74755 c -0.175506,0.37503 0.234537,2.6359 0.400902,1.80407"
         style="opacity:1;vector-effect:none;fill:none;fill-opacity:1;stroke:#070000;stroke-width:0.10556068;stroke-linecap:round;stroke-linejoin:bevel;stroke-miterlimit:4;stroke-dasharray:none;stroke-dashoffset:0;stroke-opacity:1" />
      <circle
         r="0.1016"
         cy="272.81207"
         cx="83.521729"
         style="fill:#070000;stroke:none;stroke-width:0.27489761"
         id="path3548" />
      <path
         inkscape:connector-curvature="0"
         id="path3550"
         d="m 85.258978,272.07711 c -0.548544,-0.34643 0.4356,3.17511 0.267272,3.00679"
         style="opacity:1;vector-effect:none;fill:none;fill-opacity:1;stroke:#070000;stroke-width:0.10556068;stroke-linecap:round;stroke-linejoin:bevel;stroke-miterlimit:4;stroke-dasharray:none;stroke-dashoffset:0;stroke-opacity:1" />
      <path
         inkscape:connector-curvature="0"
         id="path3552"
         d="m 84.390354,273.34664 c 0.797354,-0.0238 1.550519,-0.41442 2.271789,-0.73499"
         style="opacity:1;vector-effect:none;fill:none;fill-opacity:1;stroke:#070000;stroke-width:0.10556068;stroke-linecap:round;stroke-linejoin:bevel;stroke-miterlimit:4;stroke-dasharray:none;stroke-dashoffset:0;stroke-opacity:1" />
      <circle
         r="0.1016"
         cy="275.68524"
         cx="86.996223"
         style="fill:#070000;stroke:none;stroke-width:0.27489761"
         id="path3554" />
      <path
         inkscape:connector-curvature="0"
         id="path3556"
         d="m 86.862597,274.95026 c 0.242054,-0.72765 -0.202967,-1.93519 0.267269,-2.40542"
         style="opacity:1;vector-effect:none;fill:none;fill-opacity:1;stroke:#070000;stroke-width:0.10556068;stroke-linecap:round;stroke-linejoin:bevel;stroke-miterlimit:4;stroke-dasharray:none;stroke-dashoffset:0;stroke-opacity:1" />
    </g>
    <g
       id="g5014"
       transform="matrix(-0.57803685,0,0,0.5783837,107.46458,100.07864)"
       style="stroke-width:1.72947466">
      <path
         sodipodi:nodetypes="cccccssccccccccccccccccscccscccccccccssscccccccccccccccccccccccccccscccccccccccccccsccscccccccsccccscccsscscccccscccccccccccccccccsccccccscccccccccccccccccccccc"
         inkscape:connector-curvature="0"
         id="path1987"
         d="m 69.94567,322.15697 10e-6,2e-5 c 0.0637,0.39655 0.25367,0.18686 0.4009,0.33409 0.0627,0.0627 0.2396,0.62902 0.13363,0.73499 -0.20376,0.20376 -0.69056,0.0112 -0.93544,0.13364 -0.9178,0.45889 -2.60588,-0.65881 -2.60588,-1.33635 0,-0.0776 -0.0668,-0.17914 -0.0668,-0.33409 0,-0.0408 0.026,-0.24123 0,-0.26727 -0.004,-0.004 -0.20581,-0.12827 -0.13363,-0.20045 0.0826,-0.0826 0.5425,0.19249 0.60135,0.13363 0.0606,-0.0606 -0.2424,-0.17558 -0.26727,-0.20045 -0.21327,-0.21327 -0.41433,-0.36095 -0.53453,-0.60135 -0.0403,-0.0805 -0.008,-0.20802 -0.0668,-0.26727 -0.18039,-0.1804 -0.89455,-0.51959 -1.00226,-0.735 -0.0944,-0.18881 -0.10715,-0.41477 -0.20045,-0.60135 -0.16253,-0.32507 -0.31407,-0.4277 -0.46772,-0.73499 -0.25673,-0.51347 -0.12815,-1.2082 0.20045,-1.5368 0.0581,-0.0581 0.11945,-0.38672 0.20046,-0.46772 0.15895,-0.15896 -0.0743,-0.95032 -0.13364,-1.06908 -0.0777,-0.15549 -0.17838,-0.22312 -0.26727,-0.40091 -0.0486,-0.0971 -0.0486,-0.70468 0,-0.80181 0.0646,-0.12924 0.19426,-0.19425 0.26727,-0.26727 0.0563,-0.0562 0.28378,-0.50073 0.33409,-0.60135 0.1089,-0.21781 -0.0668,-0.92937 -0.0668,-1.20271 0,-0.13843 -0.0881,-0.78054 0,-0.86863 0.39019,-0.39019 0.55859,-1.02632 0.93544,-1.40317 0.0624,-0.0624 0.0712,-0.27167 0.13363,-0.33408 0.26466,-0.26466 0.3721,-0.90664 0.60136,-1.1359 0.27627,-0.27627 0.73024,-0.66342 1.00226,-0.93544 0.10498,-0.10498 0.36274,-0.16229 0.46773,-0.26727 0.26032,-0.26032 0.59795,-0.69988 1.06907,-0.93544 0.10095,-0.0505 0.16107,-0.23187 0.26727,-0.26727 0.38691,-0.12897 0.8493,-0.51521 1.06908,-0.73499 0.0309,-0.0309 0.16011,0.0202 0.20045,0 0.40689,-0.20345 0.62783,-0.34733 1.00226,-0.53454 0.22765,-0.11383 0.56535,-0.0976 0.735,-0.26727 0.0309,-0.0309 0.1601,0.0202 0.20045,0 0.40978,-0.2049 1.61722,-0.0668 2.13815,-0.0668 h 0.60136 c 0.11357,0 0.33408,0.18038 0.33408,0.0668 0,-0.078 -0.60242,-0.13257 -0.53453,-0.20046 0.15258,-0.15258 1.38835,-0.47513 1.67043,-0.33408 0.15195,0.076 1.28633,0.48452 1.33635,0.53454 0.084,0.084 0.18888,0.25569 0.26727,0.33408 0.0315,0.0315 0.10214,-0.0315 0.13363,0 0.20648,0.20648 0.26309,0.46354 0.40091,0.60136 0.0438,0.0438 0.23379,0.0333 0.26727,0.0668 0.10269,0.10269 0.34878,0.14833 0.4009,0.20045 0.10619,0.10619 0.2006,0.20059 0.33409,0.33409 0.19671,0.19671 0.12466,0.59238 0.33409,0.80181 0.20737,0.20737 1.17573,0.24029 1.46998,0.53453 0.1644,0.16441 0.61906,0.55225 0.80181,0.735 0.0586,0.0586 0.14184,0.27547 0.20045,0.33408 0.25607,0.25608 0.41416,0.41417 0.66817,0.66818 0.0325,0.0326 0.14748,0.41474 0.20045,0.46772 0.14619,0.14619 0.27829,0.27829 0.40091,0.4009 0.094,0.094 0.12847,0.32893 0.20045,0.40091 0.0445,0.0445 -0.0445,0.22272 0,0.26727 0.26478,0.26477 0.0813,1.28405 0.20045,1.40316 0.16291,0.16291 0.28444,0.61852 0.33409,0.66817 0.73776,0.73776 0.18281,1.90618 -0.20045,2.6727 -0.0846,0.16913 0.12854,0.67327 0,0.80181 -0.0658,0.0658 -0.32444,0.71569 -0.40091,0.86862 -0.0563,0.11268 0.0857,0.44889 0,0.53454 -0.17808,0.17808 -0.55145,-0.15055 -0.60135,-0.20045 -0.0779,-0.0779 0.078,-0.38977 0,-0.46772 -0.1405,-0.14049 -0.0256,-1.36196 -0.13364,-1.46998 -0.21638,-0.21639 -0.26727,-0.62589 -0.26727,-1.00226 0,-0.73964 -0.33128,-0.7962 -0.60135,-1.33635 -0.0987,-0.19733 0.14997,-0.78547 0,-0.93544 -0.0445,-0.0446 -0.0223,-0.15591 -0.0668,-0.20046 -0.14743,-0.14742 -0.25545,-0.45589 -0.40091,-0.60135 -0.10652,-0.10653 -0.0358,-0.50357 -0.13363,-0.60136 -0.0909,-0.0909 -0.0911,-0.29159 -0.13364,-0.33409 -0.30177,-0.30177 -0.34928,-0.75018 -0.66817,-1.06907 -0.42588,-0.42588 -0.95685,-0.89003 -1.26953,-1.20272 -0.12661,-0.1266 -0.8623,-0.32776 -0.93545,-0.4009 -0.34578,-0.34579 -1.46141,-0.39233 -1.73725,-0.66818 -0.0319,-0.0319 -0.33895,-0.0358 -0.4009,-0.0668 -0.0767,-0.0383 -2.93013,-0.0383 -3.00678,0 -0.23945,0.11972 -0.55769,0.1118 -0.73499,0.20045 -0.43767,0.21883 -0.67919,0.47874 -1.00226,0.80181 -0.11515,0.11514 -0.34734,0.14688 -0.46773,0.26727 -0.282,0.282 -0.78205,0.69547 -1.00226,1.13589 -0.098,0.196 0.098,0.539 0,0.73499 -0.15868,0.31737 -0.15437,0.68892 -0.4009,0.93545 -0.0541,0.0541 0,0.44955 0,0.53454 0,0.24367 0.2318,0.76634 0.33409,0.86862 0.13274,0.13275 -0.0204,0.62738 0.0668,0.80181 0.0946,0.18912 0.3134,0.64749 0.4009,0.73499 0.15591,0.15591 -0.15591,0.77954 0,0.93545 0.13517,0.13517 0.24049,0.77502 0.4009,0.93544 0.18126,0.18126 -0.20643,3.20125 -0.0668,3.34087 0.12414,0.12414 0.2439,0.77843 0.33409,0.86862 0.1168,0.1168 0.93544,1.57735 0.93544,1.60362 0,0.10917 0.0862,0.23919 0.13364,0.33409 0.0916,0.18323 -0.13926,0.72936 0,0.86862 0.22586,0.22587 0.43533,1.23511 0.13363,1.5368 -0.0334,0.0334 0.0334,0.16705 0,0.20046 -0.0921,0.0921 -0.35587,0.0668 -0.53454,0.0668 -1.32253,0 -0.63909,-0.43864 -1.26953,-1.06907 -0.24863,-0.24863 -0.60396,-0.47033 -0.86862,-0.735 l -3e-5,1e-5 c -0.0153,-0.0153 0.0334,-0.0812 0.0334,-0.16702 0,-0.22395 -0.0167,-0.40381 -0.0167,-0.61806 0,-0.0607 0.0428,-0.19826 0.0167,-0.25056 -0.0633,-0.12663 -0.044,-0.36311 0.0167,-0.48443 0.0419,-0.0839 -0.0231,-0.44713 -0.0501,-0.50113 -0.0134,-0.0267 0.0134,-0.0735 0,-0.10022 -0.0392,-0.0784 -0.0125,-0.20878 -0.0501,-0.28398 -0.0902,-0.18044 -0.11099,-0.37232 -0.20045,-0.55124 -0.0129,-0.0257 -0.004,-0.0745 -0.0167,-0.10023 -0.0535,-0.10697 -0.11291,-0.20912 -0.16704,-0.31738 -0.005,-0.01 0.008,-0.0254 0,-0.0334 -0.0153,-0.0152 -0.0513,-0.0524 -0.0668,-0.0835 -0.0557,-0.11144 -0.0814,-0.24839 -0.16704,-0.33409 -0.0166,-0.0166 -0.10032,-0.28408 -0.11694,-0.30068 -0.025,-0.025 -0.0357,-0.10253 -0.0668,-0.13363 -0.0237,-0.0236 -0.0629,-0.059 -0.0835,-0.10023 -0.005,-0.0101 -0.01,-0.0431 -0.0167,-0.0501 -0.0877,-0.0877 -0.23528,-0.26869 -0.31738,-0.35079 -0.02,-0.0199 -0.0468,-0.0802 -0.0668,-0.10023 -0.0254,-0.0254 -0.0915,-0.0581 -0.11693,-0.0835 -0.0505,-0.0505 -0.15402,-0.15406 -0.21716,-0.21716 -0.0367,-0.0367 -0.0655,-0.12463 -0.11693,-0.15033 -0.0595,-0.0297 -0.10691,-0.0735 -0.15034,-0.11694 -0.0329,-0.0329 -0.0929,-0.0427 -0.11693,-0.0668 -0.008,-0.008 -0.0255,0.008 -0.0334,0 -0.0635,-0.0635 -0.14094,-0.0537 -0.23386,-0.10023 -0.16649,-0.0832 -0.38937,-0.17092 -0.60136,-0.10022 -0.0404,0.0137 -0.0591,-0.008 -0.0835,0.0167 -0.0106,0.0106 -0.0529,-0.007 -0.0668,0 -0.0436,0.0218 -0.0891,0.039 -0.11693,0.0668 -0.0438,0.0438 -0.1499,0.0664 -0.20045,0.11693 -0.008,0.009 -0.0559,0.006 -0.0668,0.0167 -0.0424,0.0424 -0.23181,0.17966 -0.26727,0.25056 -0.0362,0.0724 -0.0759,0.15177 -0.11693,0.23387 -0.0537,0.10745 -0.0794,0.22562 -0.13363,0.33408 -0.0206,0.0412 0.0807,0.33689 0.0668,0.35079 -0.027,0.027 0.003,0.0608 -0.0167,0.10023 -0.0822,0.16447 -0.0976,0.42022 0.0334,0.55124 0.0225,0.0225 0.0134,0.11364 0.0334,0.13364 0.0762,0.0762 0.0587,0.24238 0.13363,0.31738 0.0411,0.041 0.1448,0.0946 0.18375,0.13364 0.0892,0.0892 0.10102,0.21798 0.20045,0.31738 0.15294,0.15293 0.30168,0.28497 0.45102,0.43431 0.01,0.01 0.0237,0.0568 0.0334,0.0668 0.0767,0.0767 0.17007,0.20347 0.25056,0.28397 0.006,0.005 0.0111,0.0441 0.0167,0.0501 0.0742,0.0742 0.19346,0.12665 0.26728,0.20045 0.0111,0.0111 0.0223,-0.0111 0.0334,0 0.043,0.043 0.0799,0.11334 0.11693,0.15034 0.008,0.008 -0.008,0.0254 0,0.0334 0.0347,0.0347 0.0877,0.0542 0.13363,0.10022 0.11364,0.11364 0.22487,0.23258 0.31738,0.41761 0.0239,0.0478 0.21646,0.16636 0.26727,0.21716 0.006,0.006 0.0445,0.0107 0.0501,0.0167 0.0454,0.0454 0.0811,0.13115 0.13363,0.18375 0.01,0.01 0.0571,0.0234 0.0668,0.0334 0.13306,0.133 0.32534,0.1341 0.53454,0.1002"
         style="opacity:1;vector-effect:none;fill:#000000;fill-opacity:1;stroke:#000000;stroke-width:0.17294747;stroke-linecap:round;stroke-linejoin:round;stroke-miterlimit:4;stroke-dasharray:none;stroke-dashoffset:0;stroke-opacity:1" />
      <path
         inkscape:connector-curvature="0"
         id="path1993"
         d="m 68.60418,320.67423 c -0.0928,-0.0112 -0.19958,-0.046 -0.25986,-0.1063 -0.007,-0.007 -0.11664,-0.0458 -0.14174,-0.0709 -0.0604,-0.0604 -0.0877,-0.11132 -0.14174,-0.16537 -0.0141,-0.0141 -0.0568,-0.0331 -0.0709,-0.0472 -0.0761,-0.0761 -0.15232,-0.15233 -0.22442,-0.22443 -0.004,-0.004 -0.008,-0.0315 -0.0118,-0.0354 -0.0469,-0.0469 -0.0293,-0.0823 -0.0591,-0.14174 -0.0383,-0.0765 -0.0955,-0.13203 -0.12993,-0.2008 -0.0299,-0.0598 -3e-5,-0.17723 -0.0354,-0.24805 -0.0252,-0.0504 0.0252,-0.13859 0,-0.18899 -0.0317,-0.0634 -0.0473,-0.39413 -0.0473,-0.48428 0,-0.0245 0.0156,-0.13798 0,-0.15355 -0.032,-0.0321 -0.0179,-0.1658 -0.0472,-0.22443 -0.0205,-0.0409 0.0205,-0.1126 0,-0.15355 -0.008,-0.0168 -0.0236,-0.0398 -0.0236,-0.0591"
         style="opacity:1;vector-effect:none;fill:none;fill-opacity:1;stroke:#000000;stroke-width:0.17294747;stroke-linecap:round;stroke-linejoin:round;stroke-miterlimit:4;stroke-dasharray:none;stroke-dashoffset:0;stroke-opacity:1" />
      <path
         inkscape:connector-curvature="0"
         id="path1995"
         d="m 67.04503,317.92209 c 0.0243,-0.009 -0.0208,-0.0411 -0.0118,-0.0591 0.0691,-0.13816 0.26957,-0.37102 0.37797,-0.42523 0.0461,-0.0231 0.14627,-0.005 0.17718,-0.0354 0.0223,-0.0223 0.30721,0.0413 0.36617,0.0118 0.10214,-0.0511 0.54651,0.037 0.63783,0.0827 0.0589,0.0295 0.14148,0.0706 0.18899,0.11812 0.0357,0.0356 0.0846,0.10819 0.11812,0.14174 0.0137,0.0137 0.0161,0.0557 0.0236,0.0709 0.0193,0.0385 0.10554,0.15278 0.12993,0.17718 0.0186,0.0186 0.0326,0.0681 0.0472,0.0827 0.006,0.006 0.0336,0.13805 0.0472,0.16536 0.0318,0.0635 0.0985,0.13397 0.12992,0.16537 0.006,0.006 -0.006,0.0181 0,0.0236 0.0447,0.0447 0.0594,0.10693 0.0945,0.17718 0.007,0.015 0,0.0538 0,0.0709 0,0.0495 0.008,0.15012 -0.0118,0.18899 -0.0172,0.0345 -0.0688,0.13965 -0.0827,0.15355 -0.0109,0.0109 -0.0169,0.12321 -0.0236,0.12993 -0.0113,0.0113 -0.0236,0.0444 -0.0236,0.0709 0,0.0182 -0.0291,0.0835 -0.0118,0.11812 0.043,0.0861 0.0619,0.19186 0.11812,0.24804 0.006,0.006 -0.006,0.0181 0,0.0236 0.0336,0.0336 0.0746,0.0746 0.10631,0.1063 0.0265,0.0265 0.0542,0.0306 0.0827,0.0591 0.0432,0.0432 0.1131,0.15105 0.16536,0.17718 0.0498,0.0249 0.11562,0.0684 0.15356,0.10631 0.0216,0.0216 0.0534,0.0652 0.0827,0.0945 0.006,0.006 -0.004,0.0166 0,0.0236 0.0403,0.0806 0.0819,0.19997 0.12992,0.24805 0.0229,0.0229 0.0276,0.11028 0.0354,0.11812 0.008,0.008 0.0675,0.0995 0.0827,0.12993 0.004,0.008 0.0118,0.0253 0.0118,0"
         style="opacity:1;vector-effect:none;fill:none;fill-opacity:1;stroke:#000000;stroke-width:0.17294747;stroke-linecap:round;stroke-linejoin:round;stroke-miterlimit:4;stroke-dasharray:none;stroke-dashoffset:0;stroke-opacity:1" />
      <path
         inkscape:connector-curvature="0"
         id="path1997"
         d="m 68.5215,319.434 c -0.0664,-0.0744 -0.0783,-0.17419 -0.0354,-0.25986 0.0104,-0.0208 0.0122,-0.0835 0.0236,-0.10631 0.0213,-0.0427 0.0383,-0.0883 0.0591,-0.12992 0.0266,-0.0531 0.16,-0.18363 0.2008,-0.22443 0.0149,-0.0149 0.0571,-0.0216 0.0709,-0.0354 0.0283,-0.0283 0.0691,-0.0792 0.0945,-0.12993 0.009,-0.0174 0.0157,-0.0157 0.0236,-0.0236 0.005,-0.005 0.005,-0.12452 0,-0.12993 -0.0441,-0.0441 -0.11239,-0.0798 -0.16537,-0.1063 -0.0269,-0.0134 -0.0663,0.002 -0.0945,-0.0118 -0.0409,-0.0205 -0.1126,0.0205 -0.15355,0 -0.0562,-0.0281 -0.0962,-0.0658 -0.15355,-0.0945 -0.0379,-0.019 -0.10148,-0.0542 -0.12993,-0.0827 -0.0246,-0.0246 -0.0502,-0.0738 -0.0709,-0.0945 -0.002,-0.002 -0.0472,-0.16462 -0.0472,-0.12993"
         style="opacity:1;vector-effect:none;fill:none;fill-opacity:1;stroke:#000000;stroke-width:0.17294747;stroke-linecap:round;stroke-linejoin:round;stroke-miterlimit:4;stroke-dasharray:none;stroke-dashoffset:0;stroke-opacity:1" />
      <path
         inkscape:connector-curvature="0"
         id="path1999"
         d="m 78.29785,323.3263 c 0.0281,-0.051 0.46716,5.3e-4 0.50113,-0.0334 0.0729,-0.0729 0.51694,-0.11604 0.53454,-0.13364 0.20936,-0.20936 1.36562,-0.25263 1.67043,-0.10022 0.0761,0.038 0.18752,-0.006 0.26727,0.0334 0.13693,0.0685 0.37631,-0.0668 0.46772,-0.0668 0.0553,0 0.42169,0.0208 0.43432,0.0334 0.0361,0.0361 0.50112,0.1886 0.50112,0.10022 0,-0.1002 -0.27886,-0.21204 -0.33408,-0.26727 -0.039,-0.039 -0.0278,-0.12806 -0.0668,-0.16704 -0.0267,-0.0267 -0.0996,-0.13334 -0.16704,-0.16704 -0.039,-0.0195 -0.45599,-0.17879 -0.50113,-0.13364 -0.16833,0.16833 -0.33305,0.25005 -0.56795,0.3675 -0.0489,0.0245 -0.35253,-0.11867 -0.40091,-0.16705 -0.0219,-0.0219 -0.0501,-0.0835 -0.0668,-0.10022 -0.0223,-0.0223 -0.11136,0.0223 -0.13363,0 -0.0167,-0.0167 -0.28171,-0.11919 -0.33409,-0.0668 -0.0783,0.0783 -0.28251,0.0744 -0.4009,0.13364 -0.12954,0.0648 -0.26816,0.13408 -0.40091,0.20045 -0.0375,0.0188 -0.17492,0.008 -0.20045,0.0334 -0.0829,0.0829 -0.33413,0.13367 -0.36749,0.16704 -0.099,0.099 -0.28144,0.25765 -0.43432,0.33409 z"
         style="opacity:1;vector-effect:none;fill:none;fill-opacity:1;stroke:#000000;stroke-width:0.17294747;stroke-linecap:round;stroke-linejoin:round;stroke-miterlimit:4;stroke-dasharray:none;stroke-dashoffset:0;stroke-opacity:1" />
      <path
         inkscape:connector-curvature="0"
         id="path2001"
         d="m 80.0351,324.0947 c 0.13755,-0.17 0.34078,-0.14034 0.46772,-0.26727 0.0589,-0.0589 0.28998,0.0387 0.3675,0 0.0347,-0.0174 0.22364,-0.077 0.26726,-0.0334 0.0765,0.0765 0.17866,0.10603 0.30068,0.16704 0.0482,0.0241 0.43432,0.0415 0.43432,0.10023 0,0.0274 -0.1763,0.10947 -0.20045,0.13363 -0.0236,0.0236 -0.19676,0 -0.23387,0 -0.19039,0 -1.05333,0.1081 -1.20271,0.0334 -0.0696,-0.0348 -0.12902,-0.0801 -0.20045,-0.13363 z"
         style="opacity:1;vector-effect:none;fill:none;fill-opacity:1;stroke:#000000;stroke-width:0.17294747;stroke-linecap:round;stroke-linejoin:round;stroke-miterlimit:4;stroke-dasharray:none;stroke-dashoffset:0;stroke-opacity:1" />
      <path
         inkscape:connector-curvature="0"
         id="path2003"
         d="m 79.33352,319.8852 c -0.0308,0.0737 -0.18848,-0.0454 -0.23386,0 -0.31467,0.31467 -0.31644,0.65242 0,0.96885 0.0333,0.0333 0.023,0.10023 0.10022,0.10023 0.1688,0 0.32491,-0.005 0.46772,0.0668 0.0992,0.0496 0.35436,0 0.46772,0 0.0317,0 0.18028,-0.0202 0.20046,0 0.0595,0.0595 0.19366,0.0266 0.26727,0.10022 0.0475,0.0475 0.29305,0.15942 0.30067,0.16705 0.2034,0.20339 0.59732,0.16906 0.80181,0.0668 0.20392,-0.10195 0.2699,-0.3033 0.43432,-0.46772 0.023,-0.023 0.0294,-0.0963 0.0668,-0.13363 0.0509,-0.0509 -8e-4,-0.19908 0.0334,-0.26727 0.0328,-0.0657 0.0741,-0.28614 0.0334,-0.3675 -0.0422,-0.0844 -0.16405,-0.13064 -0.20045,-0.16704 -0.0708,-0.0708 -0.0583,-0.42579 -0.10023,-0.46772 -0.12823,-0.12823 -0.14985,-0.41712 -0.26727,-0.53454 -0.0157,-0.0158 0.0157,-0.0511 0,-0.0668 -0.11749,-0.1175 -0.24319,-0.28593 -0.33409,-0.46772 -0.0433,-0.0865 -0.0181,-0.41897 -0.0668,-0.46772 -0.0223,-0.0223 -0.0111,-0.078 -0.0334,-0.10023 -0.19496,-0.19496 -0.24678,-0.48065 -0.4009,-0.63476 -0.0298,-0.0298 -0.0157,-0.0982 -0.0334,-0.13364 -0.0246,-0.0492 -0.0443,-0.0443 -0.0668,-0.0668 -0.0167,-0.0167 0.0167,-0.0835 0,-0.10022 -0.0882,-0.0882 -0.0832,-0.31707 -0.16704,-0.40091 -0.0445,-0.0445 0.0445,-0.22272 0,-0.26727 -0.16323,-0.16322 -0.20568,-0.49067 -0.10023,-0.70158 0.051,-0.10195 0.0294,-0.22988 0.10023,-0.30068 0.0167,-0.0167 -0.0167,-0.0835 0,-0.10022 0.097,-0.097 0.2079,-0.20791 0.33408,-0.33409 0.0157,-0.0157 0.0511,0.0158 0.0668,0 0.20195,-0.20195 1.16021,-0.33409 1.50339,-0.33409 0.12836,0 0.66765,-0.1339 0.735,-0.10022 0.0526,0.0263 0.11797,0.009 0.16704,0.0334 0.093,0.0465 0.0994,0.0994 0.16704,0.16704 0.0338,0.0338 0.0474,0.0334 -0.0334,0.0334"
         style="opacity:1;vector-effect:none;fill:none;fill-opacity:1;stroke:#000000;stroke-width:0.17294747;stroke-linecap:round;stroke-linejoin:round;stroke-miterlimit:4;stroke-dasharray:none;stroke-dashoffset:0;stroke-opacity:1" />
      <path
         inkscape:connector-curvature="0"
         id="path2005"
         d="m 78.69875,314.8739 c -0.24679,-0.13014 -0.3354,-0.21781 -0.56795,-0.33409 -0.0892,-0.0446 -0.83836,-0.0334 -1.00226,-0.0334 -0.19322,0 -0.89823,-0.0687 -1.03567,0 -0.0462,0.0231 -0.29077,0.0569 -0.30067,0.0668 -0.0986,0.0986 -0.41017,0.0882 -0.56795,0.16704 -0.0422,0.0211 -0.16838,-0.0321 -0.20046,0 -0.0529,0.0529 -0.2196,0.0526 -0.26726,0.10023 -0.0874,0.0874 -0.31837,0.18473 -0.40091,0.26727 -0.0379,0.0379 -0.28017,0.11313 -0.30068,0.13363 -0.0396,0.0396 -0.15605,0.0892 -0.20045,0.13364 -0.0903,0.0903 -0.22863,0.26204 -0.33409,0.36749 -0.0408,0.0408 -0.13925,0.0724 -0.16704,0.10023 -0.0246,0.0246 0.0269,0.0603 0.0334,0.0668"
         style="opacity:1;vector-effect:none;fill:none;fill-opacity:1;stroke:#000000;stroke-width:0.17294747;stroke-linecap:round;stroke-linejoin:round;stroke-miterlimit:4;stroke-dasharray:none;stroke-dashoffset:0;stroke-opacity:1" />
      <path
         inkscape:connector-curvature="0"
         id="path2007"
         d="m 74.62289,316.67797 c -0.0111,-0.0446 -0.0334,-0.0877 -0.0334,-0.13364 0,-0.0377 0.19816,-0.0979 0.23386,-0.13363 0.13371,-0.13371 0.58559,-0.37632 0.83522,-0.50113 0.0942,-0.0471 0.29371,-0.0599 0.3675,-0.13364 0.24514,-0.24514 1.44656,-0.84692 1.9377,-0.60135 0.1471,0.0735 0.64402,0.14288 0.70158,0.20045 0.0167,0.0167 0,0.14088 0,0.16704 0,0.035 -0.0134,0.11362 -0.0334,0.13364 -0.15415,0.15414 -0.48473,0.17524 -0.70158,0.0668 -0.0827,-0.0414 -0.14278,-0.009 -0.20045,-0.0668 -0.0289,-0.0289 -0.22278,-0.0223 -0.26727,-0.0668 -0.0329,-0.033 -0.24668,-0.006 -0.30068,-0.0334 -0.11262,-0.0563 -0.5193,0.0182 -0.56795,0.0668 -0.0251,0.025 -0.43477,0.0336 -0.50113,0.0668 -0.59182,0.29592 -1.05268,0.41245 -1.46998,0.96886 z"
         style="opacity:1;vector-effect:none;fill:#000000;fill-opacity:1;stroke:#000000;stroke-width:0.17294747;stroke-linecap:round;stroke-linejoin:round;stroke-miterlimit:4;stroke-dasharray:none;stroke-dashoffset:0;stroke-opacity:1" />
      <path
         inkscape:connector-curvature="0"
         id="path2013"
         d="m 74.94027,316.71138 c 0.0379,-0.1593 0.19793,-0.21464 0.30068,-0.31739 0.0115,-0.0115 0.0481,-0.0147 0.0668,-0.0334 0.006,-0.006 0.23858,-0.0608 0.28398,-0.0835 0.0266,-0.0133 0.0964,0.004 0.11693,-0.0167 0.0592,-0.0592 0.31882,-0.0683 0.35079,-0.10023 0.0197,-0.0197 0.33512,0.008 0.3842,-0.0167 0.0533,-0.0267 0.28971,-0.0473 0.35079,-0.0167 0.0308,0.0154 0.31486,0.10023 0.35079,0.10023 0.14173,0 0.51841,0.16733 0.61806,0.21715 0.0521,0.0261 0.29353,0.21716 0.16704,0.21716"
         style="opacity:1;vector-effect:none;fill:none;fill-opacity:1;stroke:#000000;stroke-width:0.17294747;stroke-linecap:round;stroke-linejoin:round;stroke-miterlimit:4;stroke-dasharray:none;stroke-dashoffset:0;stroke-opacity:1" />
      <path
         inkscape:connector-curvature="0"
         id="path2015"
         d="m 76.46037,316.21025 c -0.0223,-0.0111 -0.0427,-0.0274 -0.0668,-0.0334 -0.0242,-0.006 0.0506,0.0145 0.0668,0.0334 0.0157,0.0184 0.11693,0.25506 0.11693,0.26726 0,0.2747 -0.0453,0.32932 -0.20045,0.48443 -0.0243,0.0243 -0.12614,0.0593 -0.13364,0.0668 -0.0214,0.0214 -0.29244,0.10434 -0.33408,0.0835 -0.13523,-0.0676 -0.3094,-0.0545 -0.43432,-0.11693 -0.0925,-0.0463 -0.18985,-0.14585 -0.23386,-0.23386 -0.0127,-0.0254 -0.0284,-0.0618 -0.0501,-0.0835 -0.0223,-0.0223 0.006,-0.0947 -0.0167,-0.11693 -0.006,-0.006 -0.0749,-0.0588 -0.0501,-0.0835 0.0496,-0.0496 0.39669,-0.11271 0.40091,-0.11693 0.0332,-0.0332 0.30027,-0.10002 0.36749,-0.13363 0.0352,-0.0176 0.39747,-0.087 0.43432,-0.0501 0.0238,0.0238 0.0846,0.0334 0.13363,0.0334 z"
         style="opacity:1;vector-effect:none;fill:#000000;fill-opacity:1;stroke:#000000;stroke-width:0.17294747;stroke-linecap:round;stroke-linejoin:round;stroke-miterlimit:4;stroke-dasharray:none;stroke-dashoffset:0;stroke-opacity:1" />
      <path
         inkscape:connector-curvature="0"
         id="path2017"
         d="m 75.0572,316.94524 c 0.0164,0.0451 0.0977,0.0308 0.11694,0.0501 0.08,0.08 0.20589,0.11965 0.33408,0.18375 0.0584,0.0292 0.17983,0.0128 0.21716,0.0501 0.0248,0.0248 0.28299,-9.8e-4 0.33409,0.0501"
         style="opacity:1;vector-effect:none;fill:none;fill-opacity:1;stroke:#000000;stroke-width:0.17294747;stroke-linecap:round;stroke-linejoin:round;stroke-miterlimit:4;stroke-dasharray:none;stroke-dashoffset:0;stroke-opacity:1" />
      <path
         inkscape:connector-curvature="0"
         id="path2019"
         d="m 80.61975,316.29377 c 0.0589,0.0194 -0.0546,-0.0623 -0.0334,-0.0835 0.0991,-0.0991 0.20574,-0.20574 0.30068,-0.30068 0.006,-0.006 0.0111,-0.0446 0.0167,-0.0501 0.0423,-0.0422 0.082,-0.0972 0.11693,-0.16704 0.01,-0.02 0.0401,-0.0301 0.0501,-0.0501 0.005,-0.0101 0.01,-0.0431 0.0167,-0.0501 0.0886,-0.0886 0.18826,-0.17155 0.28398,-0.26727 0.006,-0.005 0.13239,-0.0578 0.15033,-0.0668 0.072,-0.036 0.12934,-0.0981 0.20045,-0.13364 0.0552,-0.0276 0.16634,-0.0327 0.20046,-0.0668 0.0139,-0.0139 0.0696,0.0139 0.0835,0 0.0589,-0.0589 0.5847,-0.0668 0.73499,-0.0668 0.20924,0 0.36054,0.0668 0.56795,0.0668 0.0291,0 0.18759,-0.063 0.13363,-0.11694 -0.0671,-0.0671 -0.226,-0.0924 -0.30068,-0.16704 -0.0106,-0.0106 -0.0529,0.007 -0.0668,0 -0.0897,-0.0448 -0.48004,-0.12131 -0.56794,-0.0334 -0.022,0.022 -0.14945,-4.5e-4 -0.18375,0.0167 -0.0436,0.0218 -0.26887,7.9e-4 -0.3675,0.0501 -0.0267,0.0134 -0.0735,-0.0134 -0.10022,0 -0.0354,0.0177 -0.0833,-1.3e-4 -0.11693,0.0167 -0.13471,0.0674 -0.24153,0.0244 -0.3675,0.15034 -0.008,0.008 -0.0255,-0.008 -0.0334,0 -0.0759,0.0759 -0.18633,0.15293 -0.25056,0.21716 -0.01,0.01 -0.0237,0.0571 -0.0334,0.0668 -0.0453,0.0453 -0.0844,0.0677 -0.11693,0.10022 -0.008,0.008 0.008,0.0255 0,0.0334 -0.0287,0.0287 -0.0846,0.0846 -0.11693,0.11693 -0.0219,0.0219 -0.0916,0.22524 -0.10023,0.23386 -0.0574,0.0575 -0.0651,0.23218 -0.10023,0.26727 -0.0223,0.0223 0.0223,0.11136 0,0.13364 -0.006,0.007 -0.0364,0.076 -0.0334,0.0835 0.009,0.0231 0.0223,0.0445 0.0334,0.0668 z"
         style="opacity:1;vector-effect:none;fill:#000000;fill-opacity:1;stroke:#000000;stroke-width:0.17294747;stroke-linecap:round;stroke-linejoin:round;stroke-miterlimit:4;stroke-dasharray:none;stroke-dashoffset:0;stroke-opacity:1" />
      <path
         inkscape:connector-curvature="0"
         id="path2021"
         d="m 80.77009,316.37729 c 0,-0.0223 -0.005,-0.0452 0,-0.0668 2.6e-4,-0.001 0.17151,-0.18821 0.18375,-0.20045 0.0346,-0.0346 -0.001,0.0528 0.0334,-0.0167 0.0339,-0.0678 0.19128,-0.208 0.28397,-0.30068 0.0287,-0.0287 0.25317,-0.0347 0.28398,-0.0501 0.10291,-0.0514 0.35163,-0.10022 0.48442,-0.10022 0.0426,0 0.22823,-0.0558 0.26727,-0.0167 0.0248,0.0248 0.15388,0.0202 0.18375,0.0501 0.0486,0.0486 0.19744,0.10022 0.28397,0.10022 0.0362,0 0.394,0.16014 0.40091,0.16705 0.0545,0.0545 0.0991,0.0824 0.16704,0.15034 0.0301,0.0301 0.16705,0.22647 0.16705,0.16704"
         style="opacity:1;vector-effect:none;fill:none;fill-opacity:1;stroke:#000000;stroke-width:0.17294747;stroke-linecap:round;stroke-linejoin:round;stroke-miterlimit:4;stroke-dasharray:none;stroke-dashoffset:0;stroke-opacity:1" />
      <path
         inkscape:connector-curvature="0"
         id="path2023"
         d="m 81.02065,316.71138 c 0.0913,-0.19879 0.21998,-0.3035 0.3508,-0.43432 0.0592,-0.0592 0.19969,-0.0581 0.28397,-0.10022 0.0312,-0.0156 0.0858,0.0156 0.11693,0 0.0682,-0.0341 0.18048,-0.007 0.23386,-0.0334 0.0451,-0.0225 0.20377,0.0134 0.23386,-0.0167 0.0292,-0.0292 0.12193,-0.0226 0.16705,0 0.0223,0.0111 0.0613,-0.0111 0.0835,0 0.0354,0.0177 0.0805,0.0304 0.10022,0.0501 0.0133,0.0133 0.066,-0.009 0.0835,0 0.0767,0.0383 0.2853,0.10154 0.33409,0.15034 0.0292,0.0292 0.0814,0.0982 0.11693,0.13363 0.0357,0.0357 0.16704,0.0751 0.16704,0.15034"
         style="opacity:1;vector-effect:none;fill:none;fill-opacity:1;stroke:#000000;stroke-width:0.17294747;stroke-linecap:round;stroke-linejoin:round;stroke-miterlimit:4;stroke-dasharray:none;stroke-dashoffset:0;stroke-opacity:1" />
      <path
         inkscape:connector-curvature="0"
         id="path2025"
         d="m 83.29245,316.91183 c -0.082,0.15538 -0.26782,0.1843 -0.3675,0.28397"
         style="opacity:1;vector-effect:none;fill:none;fill-opacity:1;stroke:#000000;stroke-width:0.17294747;stroke-linecap:round;stroke-linejoin:round;stroke-miterlimit:4;stroke-dasharray:none;stroke-dashoffset:0;stroke-opacity:1" />
      <path
         inkscape:connector-curvature="0"
         id="path2027"
         d="m 82.84143,316.62785 c -0.006,0.18705 -0.2054,0.20541 -0.31738,0.31739 -0.008,0.008 -0.0255,-0.008 -0.0334,0 -0.0146,0.0145 -0.04,0.0668 -0.0835,0.0668"
         style="opacity:1;vector-effect:none;fill:none;fill-opacity:1;stroke:#000000;stroke-width:0.17294747;stroke-linecap:round;stroke-linejoin:round;stroke-miterlimit:4;stroke-dasharray:none;stroke-dashoffset:0;stroke-opacity:1" />
      <path
         inkscape:connector-curvature="0"
         id="path2029"
         d="m 82.30689,316.24365 c -0.0488,0.0491 0.0464,0.15402 0.0167,0.18375 -0.0243,0.0243 -0.076,0.076 -0.10023,0.10023 -0.008,0.008 0.008,0.0255 0,0.0334 -0.0584,0.0584 -0.0938,0.18055 -0.16704,0.21715 -0.0462,0.0231 -0.14767,0.0641 -0.18375,0.10023 -0.0156,0.0156 -0.14082,0.0167 -0.16704,0.0167 -0.0405,0 -0.13163,0.0177 -0.16705,0 -0.1816,-0.0908 -0.29734,-0.17708 -0.3842,-0.35079 -0.0374,-0.0748 0.15051,-0.14207 0.20046,-0.16704 0.1102,-0.0551 0.21925,-0.12634 0.33408,-0.18375 0.0391,-0.0196 0.54691,-0.0377 0.56795,-0.0167 0.0197,0.0197 0.0334,0.0446 0.0501,0.0668 z"
         style="opacity:1;vector-effect:none;fill:#000000;fill-opacity:1;stroke:#000000;stroke-width:0.17294747;stroke-linecap:round;stroke-linejoin:round;stroke-miterlimit:4;stroke-dasharray:none;stroke-dashoffset:0;stroke-opacity:1" />
      <path
         inkscape:connector-curvature="0"
         id="path2031"
         d="m 73.03598,320.57008 c 0.11832,-0.0267 0.2397,-0.004 0.35079,0.0334 0.059,0.0197 0.14566,-0.0107 0.20045,0.0167 0.086,0.043 0.19046,0.0524 0.28397,0.0835 0.0572,0.0191 0.10958,0.0644 0.16705,0.0835 0.28759,0.0959 0.55668,0.14451 0.70158,0.43431 0.078,0.15598 0.13773,0.32557 0.21716,0.48443 0.0392,0.0783 0.0861,0.13872 0.11693,0.20045 0.006,0.0115 0.0561,0.0668 0.0501,0.0668 -0.0111,0 0,-0.0223 0,-0.0334"
         style="opacity:1;vector-effect:none;fill:none;fill-opacity:1;stroke:#000000;stroke-width:0.17294747;stroke-linecap:round;stroke-linejoin:round;stroke-miterlimit:4;stroke-dasharray:none;stroke-dashoffset:0;stroke-opacity:1" />
      <path
         inkscape:connector-curvature="0"
         id="path2035"
         d="m 84.07755,317.86398 c 0.0402,0.0836 0.0476,0.23139 0.10023,0.28397 0.0268,0.0268 -0.0176,0.13181 0,0.16704 0.0655,0.13104 0.0835,0.45114 0.0835,0.63477 0,0.0686 -0.0244,0.31873 0,0.36749 0.0403,0.0807 -0.0316,0.59782 -0.0668,0.66818 -0.0262,0.0525 0.021,0.36319 -0.0167,0.4009 -0.0265,0.0265 -0.0192,0.1194 -0.0334,0.13364 -0.0605,0.0605 -0.0703,0.19068 -0.11693,0.28397 -0.0149,0.0297 0.004,0.17981 -0.0167,0.20045 -0.0208,0.0208 -0.0501,0.12352 -0.0501,0.16705 0,0.0386 0.001,0.0488 -0.0167,0.0668 -0.009,0.009 0,0.68975 0,0.7684 0,0.0623 -0.0222,0.28976 0,0.33409 0.0154,0.0308 0.002,0.0712 0.0167,0.10023 0.0251,0.0502 0.0137,0.12768 0.0334,0.16704 0.0694,0.13884 0.0167,0.3379 0.0167,0.50113 0,0.0758 0.0249,0.25904 -0.0167,0.30068 -0.0263,0.0263 0.0334,0.53466 0,0.60135 -0.0448,0.0895 -0.0941,0.44495 -0.13364,0.48443 -0.001,0.001 -0.0221,0.14443 -0.0334,0.16704 -0.0111,0.0223 0.0111,0.0612 0,0.0835 -0.0248,0.0497 -0.0419,0.24238 -0.0668,0.26728 -0.097,0.097 -0.13311,0.40038 -0.21716,0.48442 -0.0187,0.0187 -0.0147,0.0983 -0.0334,0.11693 -0.036,0.036 -0.0427,0.12626 -0.0835,0.16704 -0.0361,0.0361 -0.071,0.1211 -0.10022,0.15035 -0.0807,0.0807 -0.1372,0.17416 -0.18375,0.26726 -0.0164,0.0327 -0.0302,0.16387 -0.0501,0.18375 -0.027,0.027 -0.11215,0.24101 -0.15034,0.31738 -0.005,0.01 0.008,0.0255 0,0.0334 -0.0434,0.0434 -0.115,0.2467 -0.15034,0.31739 -0.009,0.0175 -0.004,0.0708 -0.0167,0.0835 -0.0356,0.0356 -0.0534,0.13689 -0.10023,0.18374 -0.0695,0.0695 -0.11327,0.1968 -0.20045,0.28398 -0.0583,0.0583 -0.19106,0.14564 -0.30068,0.20045 -0.0374,0.0187 -0.16722,0.11712 -0.18374,0.13364 -0.0219,0.0218 -0.17009,0.0531 -0.18375,0.0668 -0.0626,0.0626 -0.208,0.11235 -0.28398,0.15034 -0.0345,0.0172 -0.12397,-0.01 -0.15033,0.0167 -0.072,0.072 -0.64466,0.12034 -0.78511,0.0501 -0.0528,-0.0264 -0.14929,0.001 -0.18375,-0.0334 -0.003,-0.003 -0.38234,-0.0315 -0.41761,-0.0668 -0.0203,-0.0203 -0.0505,-0.0169 -0.0835,-0.0334 -0.0438,-0.0219 -0.10892,-0.0588 -0.13363,-0.0835 -0.008,-0.008 -0.0234,0.005 -0.0334,0 -0.0802,-0.0401 -0.1878,-0.0709 -0.23386,-0.11693 -0.0127,-0.0128 -0.0815,-0.007 -0.10023,-0.0167 -0.19729,-0.0987 -0.38055,-0.21351 -0.55124,-0.3842 -0.0191,-0.0191 -0.0676,-0.0342 -0.0835,-0.0501 -0.0111,-0.0111 -0.0223,0.0111 -0.0334,0 -0.0815,-0.0815 -0.2298,-0.11423 -0.33409,-0.18375 -0.10547,-0.0703 -0.19977,-0.14454 -0.31738,-0.18375 -0.0311,-0.0103 -0.0539,-0.052 -0.0835,-0.0668 -0.0193,-0.01 -0.0876,-0.0208 -0.10023,-0.0334 -0.0333,-0.0333 -0.19308,-0.13831 -0.25056,-0.16705 -0.0983,-0.0492 -0.23321,-0.0829 -0.30068,-0.15034 -0.008,-0.008 -0.0418,0.008 -0.0501,0 -0.0328,-0.0328 -0.11485,-0.0574 -0.16704,-0.0835 -0.11638,-0.0582 -0.19879,-0.13196 -0.28398,-0.21715 -0.028,-0.028 -0.26263,-0.1488 -0.31738,-0.16705 -0.0311,-0.0103 -0.0539,-0.052 -0.0835,-0.0668 -0.051,-0.0255 -0.19319,-0.093 -0.21716,-0.11694 -0.0258,-0.0258 -0.0584,-0.0626 -0.10023,-0.0835 -0.0765,-0.0383 -0.15735,-0.0787 -0.23386,-0.11693 -0.0292,-0.0146 -0.002,-0.0398 -0.0334,-0.0501 -0.0784,-0.0261 -0.20055,-0.10033 -0.25056,-0.15034 -0.019,-0.019 -0.17287,-0.0726 -0.18375,-0.0835 -0.0849,-0.0849 -0.25212,-0.17618 -0.36749,-0.23386 -0.0695,-0.0348 0.0178,10e-4 -0.0167,-0.0334 -0.006,-0.006 -0.0445,-0.0111 -0.0501,-0.0167 -0.0337,-0.0337 -0.0926,-0.0759 -0.13364,-0.11693 -0.006,-0.006 -0.0445,-0.0111 -0.0501,-0.0167 -0.0102,-0.0102 -0.0805,-0.0904 -0.10023,-0.10023 -0.0785,-0.0392 -0.14918,-0.0824 -0.20045,-0.13363 -0.008,-0.008 -0.0559,-0.006 -0.0668,-0.0167 -0.1594,-0.1594 -0.35375,-0.26875 -0.55124,-0.3675 -0.0425,-0.0212 -0.0906,-0.0286 -0.13364,-0.0501 -0.0139,-0.007 -0.0562,0.0106 -0.0668,0 -0.0223,-0.0223 0.0278,-0.0167 -0.0167,-0.0167 -0.0406,0 -0.26827,-0.0678 -0.28397,-0.0835 -0.004,-0.004 -0.13364,-0.0165 -0.13364,-0.0167 0,-0.02 0.0704,-0.0436 0.0835,-0.0501"
         style="opacity:1;vector-effect:none;fill:none;fill-opacity:1;stroke:#000000;stroke-width:0.17294747;stroke-linecap:round;stroke-linejoin:round;stroke-miterlimit:4;stroke-dasharray:none;stroke-dashoffset:0;stroke-opacity:1" />
      <path
         inkscape:connector-curvature="0"
         id="path2037"
         d="m 82.24007,327.81977 c 0.0223,-0.0111 0.0437,-0.0242 0.0668,-0.0334 0.0404,-0.0161 0.14619,0.0167 0.20045,0.0167 0.16738,0 0.5877,-0.01 0.70159,-0.0668 0.12949,-0.0648 0.34612,-0.14568 0.43431,-0.23387 0.0191,-0.0191 0.0843,-0.0175 0.10022,-0.0334 0.021,-0.021 0.0472,-0.0639 0.0668,-0.0835 0.0403,-0.0403 0.1417,-0.0582 0.18375,-0.10022 0.0384,-0.0384 0.0853,-0.0853 0.11693,-0.11693 0.0148,-0.0148 0.007,-0.0467 0.0167,-0.0668 0.0132,-0.0264 0.0556,-0.0556 0.0668,-0.0668 0.006,-0.006 0.0111,-0.0445 0.0167,-0.0501 0.0122,-0.0122 0.0503,-0.0169 0.0668,-0.0334 0.0462,-0.0462 0.0996,-0.0996 0.15034,-0.15034 0.029,-0.029 0.0888,-0.2111 0.11693,-0.26727 0.007,-0.0134 -0.007,-0.0367 0,-0.0501 0.0538,-0.10771 0.0911,-0.23543 0.0334,-0.35079 -0.0232,-0.0465 -0.0136,-0.0971 -0.0501,-0.13364 -0.008,-0.008 0.005,-0.0234 0,-0.0334 -0.0357,-0.0715 -0.0609,-0.17782 -0.10022,-0.21715 -0.0128,-0.0128 -0.007,-0.0815 -0.0167,-0.10023 -0.0664,-0.13284 -0.12292,-0.27326 -0.20045,-0.35079 -0.0148,-0.0148 -0.007,-0.0467 -0.0167,-0.0668 -0.0424,-0.0848 -0.0874,-0.18762 -0.15034,-0.25057 -0.0139,-0.0139 -0.003,-0.0529 -0.0167,-0.0668 -0.0314,-0.0314 -0.0823,-0.0579 -0.13364,-0.0835 -0.0238,-0.0119 -0.0202,-0.0334 -0.0501,-0.0334"
         style="opacity:1;vector-effect:none;fill:none;fill-opacity:1;stroke:#000000;stroke-width:0.17294747;stroke-linecap:round;stroke-linejoin:round;stroke-miterlimit:4;stroke-dasharray:none;stroke-dashoffset:0;stroke-opacity:1" />
      <path
         inkscape:connector-curvature="0"
         id="path2039"
         d="m 82.80802,327.88658 c 0.002,0.073 -0.0257,0.10919 -0.0668,0.15034 -0.008,0.008 -0.006,0.0559 -0.0167,0.0668 -0.0223,0.0223 -0.0445,0.0445 -0.0668,0.0668 -0.006,0.006 -0.0445,0.0111 -0.0501,0.0167 -0.0415,0.0415 -0.0782,0.0782 -0.11693,0.11693 -0.007,0.007 -0.0542,0.0208 -0.0668,0.0334 -0.006,0.006 -0.0111,0.0445 -0.0167,0.0501 -0.01,0.01 -0.0571,0.0237 -0.0668,0.0334 -0.0205,0.0205 -0.0733,0.0733 -0.10023,0.10023 -0.011,0.0109 -0.0584,0.008 -0.0668,0.0167 -0.0628,0.0628 -0.19369,0.11017 -0.25056,0.16705 -0.0121,0.0121 -0.0875,-0.0437 -0.10023,-0.0501 -0.0204,-0.0102 -0.29795,-0.0501 -0.33408,-0.0501 -0.0283,0 -0.3412,-0.204 -0.40091,-0.23386 -0.0567,-0.0284 -0.0986,-0.0409 -0.15034,-0.0668 -0.005,-0.002 -0.0668,0.002 -0.0668,0 0,-0.004 0.0429,0.0167 0.0501,0.0167"
         style="opacity:1;vector-effect:none;fill:none;fill-opacity:1;stroke:#000000;stroke-width:0.17294747;stroke-linecap:round;stroke-linejoin:round;stroke-miterlimit:4;stroke-dasharray:none;stroke-dashoffset:0;stroke-opacity:1" />
      <path
         inkscape:connector-curvature="0"
         id="path2041"
         d="m 81.9561,328.68839 c 0.03,0.031 0.12284,0.006 0.15034,0.0334 0.046,0.046 0.16125,0.11114 0.21716,0.16704 0.0111,0.0111 0.039,0.006 0.0501,0.0167 0.0112,0.0112 -0.0124,0.0625 -0.0167,0.0668 -0.0377,0.0377 -0.13784,0 -0.18375,0 -0.20347,0 -0.84702,0.0359 -0.98556,-0.0334 -0.0355,-0.0178 -0.11281,-0.004 -0.15034,-0.0167 -0.0939,-0.0313 -0.30292,0.0406 -0.3842,0 -0.17587,-0.0879 -0.46965,-0.0172 -0.66817,-0.0668 -0.0581,-0.0145 -0.13251,0.0178 -0.16704,-0.0167 -0.016,-0.016 -0.0791,0.0106 -0.10023,0 -0.0717,-0.0358 -0.21766,-0.0339 -0.26727,-0.0835 -0.0243,-0.0243 -0.2978,0.0196 -0.33409,-0.0167 -0.0434,-0.0434 -0.24981,-0.0828 -0.28397,-0.11693 -0.12315,-0.12314 -0.30462,-0.20733 -0.48443,-0.26727 -0.0577,-0.0192 -0.12969,-0.0231 -0.18375,-0.0501 -0.10269,-0.0514 -0.20421,-0.16381 -0.35079,-0.20045 -0.1,-0.025 -0.19599,-0.0228 -0.28397,-0.0668 -0.0453,-0.0227 -0.12138,0.006 -0.16704,-0.0167 -0.013,-0.007 -0.13252,-0.0657 -0.13364,-0.0668 -0.0119,-0.0119 -0.0553,-0.0574 -0.0835,-0.0668 -0.10066,-0.0335 -0.26232,-0.0953 -0.31738,-0.15034 -0.0288,-0.0288 -0.10972,-0.009 -0.13364,-0.0334 -0.0246,-0.0246 -0.0631,-0.0463 -0.0835,-0.0668 -0.0129,-0.0129 -0.0562,-0.15645 -0.0835,-0.18375 -0.10168,-0.10169 -0.30592,-0.15559 -0.3842,-0.23386 -0.0223,-0.0223 -0.0947,0.006 -0.11693,-0.0167 -0.0568,-0.0568 -0.18813,-0.10967 -0.28397,-0.13363 -0.0432,-0.0108 -0.0717,-0.0555 -0.11693,-0.0668 -0.0529,-0.0132 -0.49354,-0.14275 -0.51783,-0.16704 -0.14061,-0.14061 -0.52378,-0.33706 -0.71829,-0.43432 -0.052,-0.026 -0.0271,-0.0772 -0.0501,-0.10022 -0.014,-0.014 -0.051,-0.0343 -0.0668,-0.0501 -0.016,-0.016 -0.0811,-0.0143 -0.10023,-0.0334 -0.14626,-0.14626 -0.38627,-0.25995 -0.60136,-0.36749 -0.16157,-0.0808 -0.31153,-0.22439 -0.50113,-0.35079 -0.073,-0.0486 0.006,0.007 -0.0668,-0.0167 -0.0534,-0.0178 -0.14385,-0.13147 -0.20045,-0.15034 -0.0428,-0.0143 -0.1181,-0.0513 -0.15034,-0.0835 -0.0661,-0.0661 -0.12353,-0.12683 -0.18375,-0.21715 -0.0354,-0.0531 -0.13505,-0.10165 -0.18374,-0.15034 -0.0231,-0.0232 -0.0333,-0.0668 -0.0668,-0.0835 -0.10174,-0.0509 -0.1928,-0.13109 -0.30068,-0.16705 -0.0245,-0.008 -0.0376,-0.0404 -0.0668,-0.0501 -0.1687,-0.0562 -0.32581,-0.10444 -0.48443,-0.18375 -0.13546,-0.0677 -0.2781,-0.0973 -0.41761,-0.16704 -0.0267,-0.0134 -0.0401,-0.0535 -0.0668,-0.0668 -0.0685,-0.0343 -0.13045,-0.0986 -0.20046,-0.13363 -0.0553,-0.0277 -0.14952,-0.066 -0.18374,-0.10023 -0.008,-0.008 -0.0847,-0.009 -0.10023,-0.0167 -0.0101,-0.005 -0.0424,0.008 -0.0501,0 -0.0539,-0.0539 -0.48443,-0.17503 -0.48443,-0.20045 0,-0.0176 0.0344,-0.009 0.0501,-0.0167"
         style="opacity:1;vector-effect:none;fill:none;fill-opacity:1;stroke:#000000;stroke-width:0.17294747;stroke-linecap:round;stroke-linejoin:round;stroke-miterlimit:4;stroke-dasharray:none;stroke-dashoffset:0;stroke-opacity:1" />
      <path
         inkscape:connector-curvature="0"
         id="path2043"
         d="m 73.1362,324.92991 c 0.22603,0.18691 0.53411,0.2169 0.78511,0.3675 0.0663,0.0398 0.14265,0.1088 0.21715,0.13363 0.0106,0.004 0.0242,-0.006 0.0334,0 0.0176,0.0117 0.0277,0.0519 0.0501,0.0668 0.0657,0.0438 0.14052,0.11438 0.20045,0.15034 0.24284,0.1457 0.44995,0.31631 0.65147,0.51784 0.0829,0.0829 0.21963,0.1695 0.28398,0.23386 0.0147,0.0147 0.0689,0.0355 0.0835,0.0501 0.0399,0.0399 0.062,0.1288 0.10023,0.16704 0.0201,0.0201 0.036,0.0219 0.0501,0.0501 0.0327,0.0655 0.2562,0.13928 0.31738,0.20046 0.008,0.008 0.0559,0.006 0.0668,0.0167 0.0415,0.0415 0.092,0.0753 0.13364,0.11694 0.008,0.008 0.006,0.0559 0.0167,0.0668 0.0111,0.0111 0.0445,0.0223 0.0334,0.0334 -0.009,0.009 -0.021,-0.0167 -0.0334,-0.0167"
         style="opacity:1;vector-effect:none;fill:none;fill-opacity:1;stroke:#000000;stroke-width:0.17294747;stroke-linecap:round;stroke-linejoin:round;stroke-miterlimit:4;stroke-dasharray:none;stroke-dashoffset:0;stroke-opacity:1" />
      <path
         inkscape:connector-curvature="0"
         id="path2045"
         d="m 75.49152,325.81524 c 0.004,0.10562 0.0747,0.22508 0.15034,0.30068 0.009,0.009 0.0265,0.006 0.0334,0.0167 0.006,0.009 -0.005,0.0234 0,0.0334 0.006,0.0111 0.0278,0.006 0.0334,0.0167 0.0383,0.0766 0.10085,0.1182 0.13363,0.18375 0.0406,0.0811 0.0383,0.1719 0.10023,0.23386 0.006,0.006 0.0111,0.0446 0.0167,0.0501 0.0381,0.0381 0.18238,0.21647 0.21715,0.23385 0.0135,0.007 0.10589,0.0892 0.0668,0.0501"
         style="opacity:1;vector-effect:none;fill:none;fill-opacity:1;stroke:#000000;stroke-width:0.17294747;stroke-linecap:round;stroke-linejoin:round;stroke-miterlimit:4;stroke-dasharray:none;stroke-dashoffset:0;stroke-opacity:1" />
      <path
         inkscape:connector-curvature="0"
         id="path2047"
         d="m 69.47795,323.45993 c 0.17355,0.12286 0.31689,0.25818 0.43432,0.43431 0.028,0.042 0.0514,0.0373 0.0668,0.0835 0.011,0.0331 0.10416,0.0806 0.13363,0.10023 0.0305,0.0203 0.0552,0.0719 0.0835,0.10023 0.0761,0.076 0.16473,0.14802 0.23386,0.21715 0.0295,0.0295 0.0569,0.0937 0.0835,0.13364 0.0962,0.14424 0.23422,0.28433 0.35079,0.4009 0.0176,0.0176 0.0492,0.0158 0.0668,0.0334 0.1786,0.1786 0.40539,0.29905 0.55125,0.51784 0.0353,0.0529 0.0899,0.1901 0.10022,0.20045 0.0244,0.0244 -0.0251,0.24219 0.0167,0.28397 0.0139,0.0139 0.0362,0.0195 0.0501,0.0334 0.008,0.008 0.0704,0 0.0835,0 0.14203,0 0.26915,5.3e-4 0.40091,0.0334 0.0314,0.008 0.0688,-0.008 0.10023,0 0.36985,0.0925 0.75293,0.1953 1.11919,0.31738 0.0904,0.0301 0.19148,0.0373 0.28397,0.0835 0.064,0.032 0.1203,0.0457 0.18375,0.0668 0.049,0.0163 0.10115,0.0671 0.15034,0.0835 0.11103,0.037 0.21088,0.0814 0.31738,0.11693 0.0474,0.0158 0.12267,-0.0222 0.16704,0 0.0427,0.0213 0.15439,0.0334 0.20045,0.0334 0.082,0 0.45102,0.0135 0.45102,0.0501"
         style="opacity:1;vector-effect:none;fill:none;fill-opacity:1;stroke:#000000;stroke-width:0.17294747;stroke-linecap:round;stroke-linejoin:round;stroke-miterlimit:4;stroke-dasharray:none;stroke-dashoffset:0;stroke-opacity:1" />
      <path
         inkscape:connector-curvature="0"
         id="path2049"
         d="m 75.52493,327.03466 c -0.0223,-0.006 -0.0439,-0.0167 -0.0668,-0.0167 -0.006,0 -0.005,0.0154 0,0.0167 0.0216,0.005 0.0598,-0.0211 0.0668,0 0.0111,0.0334 -0.0284,0.0654 -0.0334,0.10023 -0.002,0.0117 0.0435,0.0536 0.0501,0.0668 0.0217,0.0434 0.0273,0.088 0.0501,0.13364 0.0832,0.16639 0.16552,0.36597 0.28397,0.48443 0.0517,0.0517 0.0885,0.22217 0.15034,0.28397 0.0515,0.0514 0.1442,0.0774 0.20045,0.13363 0.0659,0.0659 0.15661,0.15975 0.21716,0.25057 0.0159,0.0239 0.0342,0.01 0.0501,0.0334 0.0155,0.0232 0.0275,0.0776 0.0501,0.10022 0.0123,0.0123 0.0542,0.0415 0.0668,0.0668 0.0368,0.0736 0.0759,0.14419 0.10022,0.21716 0.005,0.0149 0.0284,0.0185 0.0334,0.0334 0.0203,0.0609 0.11274,0.32989 0.15034,0.36749 0.0273,0.0273 0.0383,0.0814 0.0501,0.11693 0.007,0.0215 0.0429,0.0453 0.0501,0.0668 0.0262,0.0786 0.0686,0.17801 0.11693,0.25057 0.13912,0.20867 0.33675,0.4256 0.41761,0.66817 0.0493,0.148 -0.004,0.35507 0.0334,0.46772 0.0374,0.11218 0.18176,0.44903 0.25056,0.51784 0.008,0.008 -0.008,0.0418 0,0.0501 0.0553,0.0553 0.006,0.15302 0.0334,0.23386 0.017,0.051 0.032,0.11263 0.0501,0.16704 0.0747,0.22419 0.37924,0.44109 0.48443,0.65147 0.01,0.0201 0.0401,0.0301 0.0501,0.0501 0.0291,0.0582 0.0805,0.1246 0.10023,0.18375 0.0664,0.19915 0.0999,0.39993 0.16704,0.60136 0.005,0.0149 0.0247,0.0203 0.0334,0.0334 0.0234,0.035 0.032,0.0808 0.0501,0.11693 0.0408,0.0817 0.1331,0.14119 0.18375,0.21715 0.11066,0.16599 0.22454,0.32011 0.33409,0.48443 0.045,0.0675 0.15228,0.15423 0.18375,0.21716 0.008,0.0152 0.0225,0.0559 0.0334,0.0668 0.0541,0.0541 0.11119,0.0888 0.15034,0.16705 0.0197,0.0393 0.0686,0.0537 0.0835,0.0835 0.0281,0.0563 0.0637,0.11379 0.10022,0.15034 0.0195,0.0195 -0.003,0.0807 0.0167,0.10023 0.0257,0.0257 0.0547,0.0639 0.0668,0.10022 0.009,0.0276 0.17667,0.15997 0.20046,0.18375 0.01,0.01 0.0237,0.0571 0.0334,0.0668 0.0286,0.0286 0.12155,0.0761 0.15033,0.13363 0.0193,0.0386 0.042,0.0754 0.0668,0.10023 0.0149,0.0149 0.0491,0.008 0.0668,0.0167 0.14221,0.0711 0.40447,-0.0233 0.48443,0.0167 0.0697,0.0349 0.18647,0.0361 0.23386,0.0835 0.008,0.008 0.04,-0.005 0.0501,0 0.0657,0.0329 0.18335,0.16624 0.20045,0.20045 0.0183,0.0365 0.20307,0.18636 0.23386,0.21716 0.01,0.01 0.0974,0.20602 0.11693,0.16704 0.0115,-0.0229 -0.008,-0.0491 -0.0167,-0.0668"
         style="opacity:1;vector-effect:none;fill:none;fill-opacity:1;stroke:#000000;stroke-width:0.17294747;stroke-linecap:round;stroke-linejoin:round;stroke-miterlimit:4;stroke-dasharray:none;stroke-dashoffset:0;stroke-opacity:1" />
      <path
         inkscape:connector-curvature="0"
         id="path2051"
         d="m 81.70553,329.02248 c -0.0953,0.10398 0.0173,0.43317 -0.0334,0.53454 -0.0177,0.0354 -0.0334,0.0929 -0.0334,0.13363 0,0.17261 0,0.34523 0,0.51784 0,0.0388 0.039,0.1057 0.0167,0.15034 -0.0351,0.0702 -0.005,0.19314 -0.0334,0.25056 -0.058,0.11597 -0.0501,0.34222 -0.0501,0.48443 0,0.14064 -0.0862,0.28668 -0.16704,0.36749 -0.0429,0.0429 -0.0443,0.12787 -0.0835,0.16705 -0.004,0.004 -0.0167,0.006 -0.0167,0 0,-0.002 0.10701,-0.0435 0.11693,-0.0501 0.131,-0.0873 0.39047,-0.1566 0.45102,-0.21715 0.0184,-0.0184 0.10737,0.0238 0.11693,0.0334 0.0715,0.0715 0.10003,0.31718 0.11693,0.33408 0.0387,0.0387 0.0705,0.12432 0.10022,0.18375 0.0247,0.0494 0.0155,0.0991 0.0501,0.13363 0.0206,0.0206 0.002,0.17072 0.0167,0.20046 0.0993,0.19851 -0.11982,0.69579 -0.0501,0.83521 0.0233,0.0465 0.0319,0.14885 0.0668,0.18375 0.0156,0.0156 0.17585,0.21016 0.18375,0.23386 0.0411,0.12336 0.12983,0.33028 0.20045,0.40091 0.004,0.004 0,0.0432 0,0.0501 0,0.18981 -0.39564,0.11167 -0.48442,0.20045 -0.10547,0.10547 -0.0476,0.28145 -0.13364,0.3675 -0.0133,0.0133 0.009,0.066 0,0.0835 -0.0378,0.0756 -0.10022,0.11547 -0.10022,0.21716 0,0.0158 -0.0711,0.12932 -0.0334,0.16704 0.0247,0.0247 0.12127,-0.0167 0.15034,-0.0167 0.11792,0 0.238,-0.006 0.35079,0.0167 0.0816,0.0163 0.1543,0.0636 0.23386,0.0835 0.0431,0.0108 0.0912,0.003 0.13363,0.0167 0.19836,0.0661 0.41784,0.23432 0.51784,0.43431 0.0366,0.0733 0.0644,0.16224 0.10022,0.23386 0.0445,0.089 0.0854,0.20231 0.15034,0.26727 3e-5,3e-5 0.20658,0.13011 0.21716,0.13364 0.036,0.012 0.0807,0.0153 0.11693,0.0334 0.0431,0.0216 0.0911,0.0289 0.13364,0.0501 0.007,0.004 0.0167,0.0246 0.0167,0.0167 0,-0.023 -0.0167,-0.0439 -0.0167,-0.0668"
         style="opacity:1;vector-effect:none;fill:none;fill-opacity:1;stroke:#000000;stroke-width:0.17294747;stroke-linecap:round;stroke-linejoin:round;stroke-miterlimit:4;stroke-dasharray:none;stroke-dashoffset:0;stroke-opacity:1" />
      <path
         inkscape:connector-curvature="0"
         id="path2053"
         d="m 80.28566,335.18638 c 0.0279,-0.0235 0.11247,0.0126 0.15034,0 0.10641,-0.0355 0.16853,-0.10932 0.25057,-0.15034 0.0267,-0.0133 0.10022,0.004 0.10022,-0.0334"
         style="opacity:1;vector-effect:none;fill:none;fill-opacity:1;stroke:#000000;stroke-width:0.17294747;stroke-linecap:round;stroke-linejoin:round;stroke-miterlimit:4;stroke-dasharray:none;stroke-dashoffset:0;stroke-opacity:1" />
      <path
         inkscape:connector-curvature="0"
         id="path2055"
         d="m 81.12088,335.37013 c -0.0647,0.0762 0.55184,-0.28457 0.46772,-0.20045"
         style="opacity:1;vector-effect:none;fill:none;fill-opacity:1;stroke:#000000;stroke-width:0.17294747;stroke-linecap:round;stroke-linejoin:round;stroke-miterlimit:4;stroke-dasharray:none;stroke-dashoffset:0;stroke-opacity:1" />
      <path
         inkscape:connector-curvature="0"
         id="path2057"
         d="m 77.7299,330.96018 c 0.0604,2.1e-4 0.11587,0.0832 0.16704,0.10023 0.16952,0.0565 0.28154,0.1479 0.40091,0.26727 0.0295,0.0295 0.0668,0.10023 0.10022,0.11693 0.0582,0.0291 0.12209,0.0887 0.16705,0.13363 0.0346,0.0346 -0.0528,-10e-4 0.0167,0.0334 0.11343,0.0567 0.22014,0.16018 0.33408,0.21716 0.0457,0.0228 0.18059,0.002 0.21716,-0.0167 0.0469,-0.0234 0.3952,-0.009 0.46772,-0.0334 0.0864,-0.0288 0.19105,-0.0436 0.28398,-0.0668 0.0418,-0.0104 0.0495,-0.0498 0.0835,-0.0668 0.0801,-0.0401 0.11056,-0.0167 0.20045,-0.0167"
         style="opacity:1;vector-effect:none;fill:none;fill-opacity:1;stroke:#000000;stroke-width:0.17294747;stroke-linecap:round;stroke-linejoin:round;stroke-miterlimit:4;stroke-dasharray:none;stroke-dashoffset:0;stroke-opacity:1" />
      <path
         inkscape:connector-curvature="0"
         id="path2059"
         d="m 79.93487,329.15611 c 0.062,0.0372 0.10775,0.0873 0.16705,0.11693 0.048,0.024 0.58798,0.0986 0.65147,0.0668 0.0401,-0.0201 0.14764,-0.0598 0.20045,-0.0334 0.0422,0.0211 0.10281,0.0746 0.11693,0.11693 0.0143,0.043 0.0431,0.21393 -0.0167,0.23386 -0.15736,0.0525 -0.52668,0.0228 -0.68488,-0.0167 -0.0181,-0.005 -0.31738,0.004 -0.31738,0 0,-0.0176 0.033,0.0124 0.0501,0.0167 0.0479,0.012 0.10088,0.021 0.15034,0.0334 0.10879,0.0272 0.22141,0.0522 0.31738,0.10023 0.01,0.005 0.0334,-0.011 0.0334,0.0167 0,0.004 -0.1284,0.0671 -0.15034,0.0835 -0.0559,0.0419 -0.14733,0.13364 -0.21715,0.13364 -0.01,0 -0.0334,-0.004 -0.0334,0.0167 0,0.0273 0.25489,0.0879 0.28397,0.11693 0.0412,0.0412 -0.13538,0.15209 -0.15034,0.16705 -0.0307,0.0307 0.24769,0.18375 0.0835,0.18375"
         style="opacity:1;vector-effect:none;fill:none;fill-opacity:1;stroke:#000000;stroke-width:0.17294747;stroke-linecap:round;stroke-linejoin:round;stroke-miterlimit:4;stroke-dasharray:none;stroke-dashoffset:0;stroke-opacity:1" />
      <path
         inkscape:connector-curvature="0"
         id="path2061"
         d="m 67.37321,323.05903 c -0.0332,0.10027 -0.0375,0.17935 -0.0668,0.26727 -0.01,0.0299 -0.0527,0.0386 -0.0668,0.0668 -0.0585,0.11691 -0.0428,0.28598 -0.10023,0.40091 -0.0763,0.15266 -0.11182,0.33545 -0.16704,0.50113 -0.0645,0.19349 -0.008,0.45123 -0.10023,0.63476 -0.0679,0.13575 0.0298,0.57526 -0.0668,0.7684 -0.0223,0.0446 0.0223,0.1225 0,0.16705 -0.0587,0.11737 -0.0585,0.24237 -0.10022,0.36749 -0.0348,0.10452 -0.14521,0.31225 -0.20046,0.3675 -0.008,0.009 -0.26258,0.88797 -0.30067,1.00226 -0.0674,0.2022 -0.23847,0.3767 -0.33409,0.56795 -0.0596,0.11922 -0.22638,0.18923 -0.30068,0.30067 -0.0613,0.0919 -0.0892,0.17846 -0.13364,0.26727 -0.0424,0.0847 -0.17084,0.14504 -0.20045,0.23386 -0.0377,0.11317 -0.0803,0.22744 -0.13363,0.33409 -0.0149,0.0299 0.0106,0.0685 0,0.10023 -0.1054,0.3162 -0.0842,0.80041 0.0668,1.10249 0.11354,0.22708 -0.25688,0.85823 -0.3675,0.96885 -0.0111,0.0111 -0.0223,0.0891 -0.0334,0.10022 -0.21505,0.21505 -0.60209,0.45139 -0.90203,0.60136 -0.13904,0.0695 0.0357,-0.002 -0.0334,0.0668 -0.0983,0.0983 -0.24276,0.14253 -0.33409,0.23386 -0.10225,0.10225 -0.21443,0.21443 -0.33408,0.33408 -0.0111,0.0111 -0.0891,0.0223 -0.10023,0.0334 -0.0501,0.0501 -0.33409,0.27608 -0.33409,0.3675"
         style="opacity:1;vector-effect:none;fill:none;fill-opacity:1;stroke:#000000;stroke-width:0.17294747;stroke-linecap:round;stroke-linejoin:round;stroke-miterlimit:4;stroke-dasharray:none;stroke-dashoffset:0;stroke-opacity:1" />
      <path
         inkscape:connector-curvature="0"
         id="path2063"
         d="m 82.90824,327.90329 c 0.28842,0.29082 0.7177,0.49189 0.96886,0.86862 0.13656,0.20485 0.25576,0.45621 0.36749,0.56795 0.0612,0.0613 -0.0613,0.30625 0,0.3675 0.0514,0.0514 0.0596,0.15261 0.10023,0.23386 0.003,0.005 0.22328,0.23469 0.26727,0.30068 0.0424,0.0635 0.18223,0.11541 0.23386,0.16704 0.17782,0.17782 0.51651,0.55893 0.73499,0.66817 0.0375,0.0188 0.0949,0.014 0.13364,0.0334 0.1465,0.0732 0.28791,0.26089 0.43431,0.33409 0.27052,0.13526 0.56055,0.36009 0.7684,0.56795 0.0368,0.0368 0.0702,0.13699 0.10022,0.16704 0.0572,0.0572 0.1572,0.12378 0.20046,0.16704 0.0157,0.0158 -0.0157,0.0511 0,0.0668 0.0897,0.0897 0.15208,0.15208 0.23386,0.23386 0.0375,0.0375 0.0678,0.13414 0.13363,0.16704 0.18305,0.0915 0.41417,0.14691 0.56795,0.30068 0.11932,0.11932 0.046,0.40091 0.33409,0.40091"
         style="opacity:1;vector-effect:none;fill:none;fill-opacity:1;stroke:#000000;stroke-width:0.17294747;stroke-linecap:round;stroke-linejoin:round;stroke-miterlimit:4;stroke-dasharray:none;stroke-dashoffset:0;stroke-opacity:1" />
      <path
         inkscape:connector-curvature="0"
         id="path2067"
         d="m 81.93939,323.96106 c 0.0954,-0.029 0.0895,-0.10623 0.13364,-0.15034 0.0533,-0.0533 0.1062,-0.1396 0.16704,-0.20045 0.006,-0.006 0.0111,-0.0445 0.0167,-0.0501 0.024,-0.024 0.0672,-0.0509 0.0835,-0.0835 0.0112,-0.0225 0.14458,-0.11693 0.10023,-0.11693"
         style="opacity:1;vector-effect:none;fill:none;fill-opacity:1;stroke:#000000;stroke-width:0.17294747;stroke-linecap:round;stroke-linejoin:round;stroke-miterlimit:4;stroke-dasharray:none;stroke-dashoffset:0;stroke-opacity:1" />
      <path
         inkscape:connector-curvature="0"
         id="path2069"
         d="m 79.19988,323.69379 c 0.0523,0.0698 0.14007,0.0366 0.20045,0.0668 0.0678,0.0339 0.15964,0.0594 0.21716,0.11693 0.0263,0.0263 0.15975,0.0298 0.20045,0.0501 0.0257,0.0129 0.0278,0.0334 0.0501,0.0334 0.0573,0 0.21142,0.15034 0.15034,0.15034"
         style="opacity:1;vector-effect:none;fill:none;fill-opacity:1;stroke:#000000;stroke-width:0.17294747;stroke-linecap:round;stroke-linejoin:round;stroke-miterlimit:4;stroke-dasharray:none;stroke-dashoffset:0;stroke-opacity:1" />
      <path
         inkscape:connector-curvature="0"
         id="path2071"
         d="m 80.87032,322.30733 c 0.0386,-0.0123 0.25606,0.0446 0.28397,0.0167 0.0219,-0.0219 0.12779,-0.061 0.13364,-0.0668 0.052,-0.052 0.31735,-0.21719 0.20045,-0.33409 -0.0272,-0.0272 -0.0227,-0.16704 -0.0835,-0.16704"
         style="opacity:1;vector-effect:none;fill:none;fill-opacity:1;stroke:#000000;stroke-width:0.17294747;stroke-linecap:round;stroke-linejoin:round;stroke-miterlimit:4;stroke-dasharray:none;stroke-dashoffset:0;stroke-opacity:1" />
      <path
         inkscape:connector-curvature="0"
         id="path2075"
         d="m 81.83335,324.0524 c 0.032,-0.0577 0.0736,-0.0972 0.11812,-0.14174"
         style="opacity:1;vector-effect:none;fill:none;fill-opacity:1;stroke:#000000;stroke-width:0.17294747;stroke-linecap:round;stroke-linejoin:round;stroke-miterlimit:4;stroke-dasharray:none;stroke-dashoffset:0;stroke-opacity:1" />
    </g>
    <path
       style="opacity:1;vector-effect:none;fill:none;fill-opacity:1;stroke:#070000;stroke-width:0.1016;stroke-linecap:round;stroke-linejoin:bevel;stroke-miterlimit:4;stroke-dasharray:none;stroke-dashoffset:0;stroke-opacity:1"
       d="m 32.931176,281.40848 c -1.259787,-2.31021 -2.0179,3.95503 0.14174,1.79539"
       id="path5101"
       inkscape:connector-curvature="0" />
    <path
       style="opacity:1;vector-effect:none;fill:none;fill-opacity:1;stroke:#070000;stroke-width:0.1016;stroke-linecap:round;stroke-linejoin:bevel;stroke-miterlimit:4;stroke-dasharray:none;stroke-dashoffset:0;stroke-opacity:1"
       d="m 33.734375,280.46354 c -0.04393,0.27362 0.04725,0.54299 0.04725,0.8032"
       id="path5103"
       inkscape:connector-curvature="0" />
    <path
       style="opacity:1;vector-effect:none;fill:none;fill-opacity:1;stroke:#070000;stroke-width:0.1016;stroke-linecap:round;stroke-linejoin:bevel;stroke-miterlimit:4;stroke-dasharray:none;stroke-dashoffset:0;stroke-opacity:1"
       d="m 34.348586,283.4401 c 0.430094,0.0411 0.690632,-0.0292 0.992188,-0.33073 0.218741,-0.21874 0.307631,-0.47457 0.377976,-0.75595 0.05566,-0.22263 0.133651,-0.44011 0.188989,-0.66146 0.462685,-1.85074 -0.910789,-0.76108 -0.472472,0.99219 0.0584,0.23358 0.152461,0.52329 0.425222,0.61421 1.480797,0.4936 1.515761,-2.45684 1.653646,-2.45684 0.129871,0 0.03641,0.26182 0.0945,0.37797 0.221369,0.44275 0.433999,0.61962 0.519716,1.13393 0.307829,1.84697 -1.963436,1.25473 -1.322917,0.61421 0.124976,-0.12497 1.218854,0.46685 1.559153,0.33073 1.172432,-0.46897 0.850447,-2.36818 0.850447,-3.35454 0,-0.33073 0,-0.66146 0,-0.99218 0,-0.0788 -0.07874,-0.23624 0,-0.23624 0.220343,0 -0.350215,3.31557 -0.188989,3.63802 0.221427,0.44285 1.606399,1.39103 1.606399,0.66146"
       id="path5109"
       inkscape:connector-curvature="0" />
    <path
       style="opacity:1;vector-effect:none;fill:none;fill-opacity:1;stroke:#070000;stroke-width:0.1016;stroke-linecap:round;stroke-linejoin:bevel;stroke-miterlimit:4;stroke-dasharray:none;stroke-dashoffset:0;stroke-opacity:1"
       d="m 38.459076,280.13281 c 0.281096,0.0449 2.568006,-0.0472 1.889882,-0.0472"
       id="path5111"
       inkscape:connector-curvature="0" />
    <path
       style="opacity:1;vector-effect:none;fill:none;fill-opacity:1;stroke:#070000;stroke-width:0.1016;stroke-linecap:round;stroke-linejoin:bevel;stroke-miterlimit:4;stroke-dasharray:none;stroke-dashoffset:0;stroke-opacity:1"
       d="m 43.32552,283.67634 c 2.057477,0.058 2.409598,-2.30912 2.409598,-3.9215 0,-0.18189 0.0072,-1.16785 -0.236234,-1.08668 -0.405037,0.13501 -0.500716,0.84992 -0.566965,1.18117 -0.410207,2.05103 -0.16253,4.33539 -0.661458,6.3311 -0.02535,0.10135 -0.05902,0.74418 0,0.8032 0.385657,0.38566 0.992188,-2.09135 0.992188,-2.36235 0,-0.27459 -0.09506,-0.68593 -0.236236,-0.89769 -0.03354,-0.0503 -0.490638,-0.40706 -0.472469,-0.42523 0.139673,-0.13967 1.255133,0.0431 1.748139,-0.61421 0.19972,-0.26629 0.331642,-0.56879 0.472469,-0.85045 0.01069,-0.0214 -0.0069,-0.37797 0,-0.37797 0.08231,0 -0.260879,1.58175 -0.09449,1.74814 0.600463,0.60046 1.273979,-1.98607 1.700892,-1.55915 0.228788,0.22878 -0.09449,1.82242 -0.09449,1.46465 0,-0.28813 0.215262,-0.53031 0.283482,-0.80319 0.04557,-0.18228 0.300223,-0.76972 0.472469,-0.42523 0.102296,0.20459 -0.178646,1.83229 0.566965,1.08668 0.487604,-0.4876 0.606854,-1.84263 0.661459,-1.84263 0.03515,0 -0.119018,1.22482 -0.09449,1.32292 0.07121,0.28483 0.465223,0.73769 0.566963,0.33073"
       id="path5113"
       inkscape:connector-curvature="0" />
    <circle
       id="path5115"
       style="fill:#070000;stroke:none;stroke-width:0.26458332"
       cx="50.412571"
       cy="280.32181"
       r="0.1016" />
    <circle
       id="path5117"
       style="fill:#070000;stroke:none;stroke-width:0.26458332"
       cx="46.821804"
       cy="280.32181"
       r="0.1016" />
    <path
       style="opacity:1;vector-effect:none;fill:none;fill-opacity:1;stroke:#070000;stroke-width:0.1016;stroke-linecap:round;stroke-linejoin:bevel;stroke-miterlimit:4;stroke-dasharray:none;stroke-dashoffset:0;stroke-opacity:1"
       d="m 51.593749,282.68415 c -0.167714,0.47104 -0.264533,0.6268 -0.755951,0.70871"
       id="path5119"
       inkscape:connector-curvature="0" />
    <path
       style="opacity:1;vector-effect:none;fill:none;fill-opacity:1;stroke:#070000;stroke-width:0.1016;stroke-linecap:round;stroke-linejoin:bevel;stroke-miterlimit:4;stroke-dasharray:none;stroke-dashoffset:0;stroke-opacity:1"
       d="m 40.159969,289.91295 c 1.453411,0.14802 2.872613,-3.87899 1.842635,-4.39398 -0.235892,-0.11794 -0.490982,1.10327 -0.519719,1.27567 -0.167838,1.00704 -0.774792,3.30729 0.708708,3.30729 0.293939,0 0.498395,-0.7041 0.377976,-0.94494 -0.06307,-0.12613 -0.519719,-0.29716 -0.519719,-0.37797 0,-0.20474 0.409475,0 0.614212,0 0.584758,0 0.896403,-0.1877 1.228423,-0.51972 0.256252,-0.25625 -1.219171,1.19043 -0.755954,1.65365 0.240522,0.24052 0.768048,-0.76918 0.803201,-0.94494 0.01011,-0.0505 -0.0066,-0.66146 0,-0.66146 0.116567,0 -0.284906,0.95974 0.188987,1.27567 0.890164,0.59344 1.231487,-1.46773 1.559152,-1.79539 0.214315,-0.21432 -0.122407,-0.98143 -0.188987,-1.18117 -0.0081,-0.0242 -0.07124,-0.33073 -0.09449,-0.33073 -0.274122,0 -0.723718,3.15804 0.141742,3.59077 0.242356,0.12118 0.435105,-0.10438 0.566963,-0.23624 0.164994,-0.16499 0.56606,-0.71051 0.425225,-0.99218 -0.100844,-0.20169 -0.614212,-0.50898 -0.614212,-0.28349 0,0.10594 0.481346,0.18899 0.566965,0.18899 0.406151,0 0.969518,-0.8032 1.039434,-0.8032 0.219242,0 -0.592958,1.79539 0.283483,1.79539 0.64095,0 2.151604,-1.54641 1.464656,-1.88988 -0.645072,-0.32254 -1.068702,1.56514 -0.236236,1.84263 0.735568,0.24519 1.852959,-1.1236 1.370164,-1.6064 -0.04652,-0.0465 -0.06668,0.29187 -0.04725,0.33073 0.210672,0.42134 0.812914,0.62261 0.661458,1.22843 -0.08839,0.35357 -0.817541,0.41088 -0.992187,0.23623 -0.04188,-0.0419 0.812419,-0.20212 0.897694,-0.23623 0.252936,-0.10118 2.406727,-0.47247 1.41741,-0.47247"
       id="path5127"
       inkscape:connector-curvature="0" />
    <circle
       id="path5129"
       style="fill:#070000;stroke:none;stroke-width:0.26458332"
       cx="47.577751"
       cy="287.03088"
       r="0.1016" />
    <path
       style="opacity:1;vector-effect:none;fill:none;fill-opacity:1;stroke:#070000;stroke-width:0.1016;stroke-linecap:round;stroke-linejoin:bevel;stroke-miterlimit:4;stroke-dasharray:none;stroke-dashoffset:0;stroke-opacity:1"
       d="m 56.979909,286.70015 c -0.436874,-0.19622 -2.33268,-0.58454 -2.50409,-0.75595 -0.33972,-0.33972 0.154249,-1.9941 0,-2.45685 -0.197872,-0.59361 -0.177192,-1.32298 -0.33073,-1.93713 -0.310213,-1.24085 -1.655897,-2.64696 -2.787576,-3.21279 -1.376291,-0.68815 -2.873076,-1.23799 -4.346725,-1.6064 -1.033201,-0.2583 -2.279404,-0.0223 -3.354539,-0.14175 -1.17539,-0.13059 -2.330479,-0.37399 -3.49628,-0.51971 -1.392709,-0.17409 -6.078059,0.70585 -7.323289,1.41741 -2.462112,1.40692 -3.969501,4.53797 -4.819194,7.08705 -0.328679,0.98603 -0.272034,3.16266 -0.141743,4.20499 0.218765,1.75012 0.918594,3.79718 2.315104,4.96093 1.742072,1.45173 4.152344,0.71251 6.189361,0.8977 2.344198,0.21311 4.497096,0.0644 6.709076,-0.37798 0.710171,-0.14203 1.641335,0.0828 2.315105,-0.14174 0.939755,-0.31325 1.872114,-0.43505 2.834822,-0.75595 1.648071,-0.54936 3.941072,-2.61816 5.149924,-3.82701 0.518242,-0.51824 0.523592,-1.51578 0.944941,-1.93713 0.374018,-0.37401 1.63037,-0.3547 1.842635,-0.56696 0.12433,-0.12433 0.533471,-0.10825 0.661458,-0.23624 0.04015,-0.0402 0.198525,-0.0945 0.14174,-0.0945 -0.0996,0 -0.188986,0.063 -0.283482,0.0945"
       id="path5135"
       inkscape:connector-curvature="0" />
    <path
       style="opacity:1;vector-effect:none;fill:none;fill-opacity:1;stroke:#070000;stroke-width:0.1016;stroke-linecap:round;stroke-linejoin:bevel;stroke-miterlimit:4;stroke-dasharray:none;stroke-dashoffset:0;stroke-opacity:1"
       d="m 31.60826,287.92857 c 0.06328,-0.23239 0.3121,-0.5765 0.566962,-0.66145 0.934381,-0.31146 0.458719,1.41141 0.283483,1.93712 -0.05678,0.17036 0.03782,0.51972 -0.14174,0.51972 -0.02758,0 0.168415,-0.52582 0.188986,-0.56696 0.166553,-0.33311 0.262771,-1.35981 0.661459,-1.55916 0.06071,-0.0303 0.388389,-0.60379 0.519718,-0.47246 0.218726,0.21872 0.03631,1.84263 0,1.84263 -0.08438,0 0.592254,-2.10083 1.039434,-1.65365 0.418542,0.41855 -0.800875,1.77293 0,2.17337 0.631227,0.31561 1.730865,-1.48194 1.228423,-1.98438 -0.10234,-0.10234 -0.377975,0.42693 -0.377975,0.51972 0,0.67198 -0.223721,1.04569 0.519715,1.41741 0.467956,0.23398 0.848083,-0.79847 0.992188,-1.08668 0.163568,-0.32713 0.06795,-0.94494 0.141742,-0.94494 0.06493,0 0.0013,0.14307 0.04725,0.18898 0.659286,0.65929 0.249841,2.5177 -0.614212,1.65365 -0.186065,-0.18607 1.350169,0.67419 1.700893,-0.37798"
       id="path953"
       inkscape:connector-curvature="0" />
  </g>
</svg>
