<?xml version="1.0" encoding="UTF-8" standalone="no"?>
<!-- Created with Inkscape (http://www.inkscape.org/) -->

<svg
   width="5.4026542in"
   height="1.4807796in"
   viewBox="0 0 137.22742 37.611805"
   version="1.1"
   id="svg4491"
   inkscape:version="1.1.2 (0a00cf5339, 2022-02-04)"
   sodipodi:docname="header.svg"
   xmlns:inkscape="http://www.inkscape.org/namespaces/inkscape"
   xmlns:sodipodi="http://sodipodi.sourceforge.net/DTD/sodipodi-0.dtd"
   xmlns="http://www.w3.org/2000/svg"
   xmlns:svg="http://www.w3.org/2000/svg">
  <sodipodi:namedview
     id="namedview4493"
     pagecolor="#ffffff"
     bordercolor="#666666"
     borderopacity="1.0"
     inkscape:pageshadow="2"
     inkscape:pageopacity="0.0"
     inkscape:pagecheckerboard="0"
     inkscape:document-units="mm"
     showgrid="false"
     inkscape:zoom="1.4627806"
     inkscape:cx="318.57137"
     inkscape:cy="136.72591"
     inkscape:window-width="1674"
     inkscape:window-height="823"
     inkscape:window-x="0"
     inkscape:window-y="101"
     inkscape:window-maximized="0"
     inkscape:current-layer="layer1"
     units="in"
     inkscape:snap-global="false"
     fit-margin-top="0"
     fit-margin-left="0"
     fit-margin-right="0"
     fit-margin-bottom="0" />
  <defs
     id="defs4488" />
  <g
     inkscape:label="Layer 1"
     inkscape:groupmode="layer"
     id="layer1"
     transform="translate(-6.5910924,-3.4450407)">
    <g
       id="g3859">
      <path
         style="font-variation-settings:normal;opacity:1;vector-effect:none;fill:none;fill-opacity:1;stroke:#000000;stroke-width:0.7;stroke-linecap:round;stroke-linejoin:round;stroke-miterlimit:4;stroke-dasharray:none;stroke-dashoffset:0;stroke-opacity:1;-inkscape-stroke:none;stop-color:#000000;stop-opacity:1"
         d="M 8.762959,7.6620455 C 7.232569,7.3148294 6.195666,11.602405 7.6159789,12.067242 8.9451164,12.50224 8.7296175,6.2454779 8.7952657,8.4907449 c 0.03393,1.1604725 0.2339218,3.0288691 1.0500524,3.3293401"
         id="path1224" />
      <g
         id="g2614"
         transform="rotate(2.5536315,-21.113981,-22.708875)">
        <path
           style="font-variation-settings:normal;opacity:1;vector-effect:none;fill:none;fill-opacity:1;stroke:#000000;stroke-width:0.7;stroke-linecap:round;stroke-linejoin:round;stroke-miterlimit:4;stroke-dasharray:none;stroke-dashoffset:0;stroke-opacity:1;-inkscape-stroke:none;stop-color:#000000;stop-opacity:1"
           d="m 15.854848,10.438922 c 2.63481,-0.06044 6.200263,-6.1671693 4.571765,-7.6327697 C 19.122048,1.632081 16.765637,14.578484 18.536519,14.84412 c 1.402534,0.210382 1.314266,-2.701262 1.082359,-3.460191 -0.06596,-0.215869 -1.313149,-1.7072245 -1.29237,-1.7446311 0.225883,-0.4066206 0.945976,0.271661 1.389298,0.1308463 0.836626,-0.2657425 1.634192,-0.852755 2.132415,-1.5701666 0.447268,-0.6440398 0.399788,-2.6662988 0.242317,-2.3261772 -0.66572,1.4378884 1.339034,0.6833139 1.69624,0.6833139 0.02221,0 -0.834749,2.7187197 0.77542,2.7187197 1.458902,0 1.534695,-2.4302506 1.534695,-2.2971024 0,2.9325352 1.99652,3.7827344 3.311702,0.5960856 0.536269,-1.2993645 -0.626265,-1.9220458 -0.96928,-0.4943142 -0.268008,1.1155299 1.331213,2.8801872 2.310115,1.6137848 0.280693,-0.3631309 0.876421,-2.2146985 1.502378,-2.0644808 0.992539,0.2381912 0.597723,3.02578 0.597723,2.8495659 0,-0.7432656 0.08093,-1.550094 0.468484,-2.1953307 1.572522,-2.6181116 0.891583,3.3992678 2.503975,1.9481736 0.33593,-0.3023253 1.08482,-2.9689829 1.615461,-2.6751015 0.248629,0.1376953 0.664501,0.9181896 0.468484,0.7123925 -1.40512,-1.4752217 -2.227471,1.5971123 -1.114671,2.0644805 1.026075,0.4309446 1.748356,-3.4501603 1.82548,-3.8963475 0.07755,-0.4486521 0.415014,-1.750071 0.193854,-1.3520882 -0.497731,0.895675 -1.305353,3.5015912 -0.500792,4.4924293 0.740322,0.9117322 1.548204,0.1665973 1.987021,-0.6396998 0.275328,-0.505896 0.0081,-2.0572841 0.436173,-1.671938 2.316131,2.0849656 -1.110406,3.5423842 -0.807733,2.1807876 0.125894,-0.566339 1.149379,0.2375379 1.728547,0.2035429 0.405847,-0.023823 2.356392,-1.0362356 1.114668,-0.6396995"
           id="path1228" />
        <circle
           id="path1230"
           style="fill:#000000;stroke:none;stroke-width:0.264583"
           cx="26.129198"
           cy="4.9433298"
           r="0.63" />
        <path
           style="font-variation-settings:normal;opacity:1;vector-effect:none;fill:none;fill-opacity:1;stroke:#000000;stroke-width:0.7;stroke-linecap:round;stroke-linejoin:round;stroke-miterlimit:4;stroke-dasharray:none;stroke-dashoffset:0;stroke-opacity:1;-inkscape-stroke:none;stop-color:#000000;stop-opacity:1"
           d="m 40.57638,4.0236746 c 0.0082,0.2555559 -0.383497,0.6333551 -0.437575,0.7035083"
           id="path3199" />
      </g>
      <g
         id="g3021"
         transform="matrix(1,0.02426873,0,1,-0.08077237,1.4839095)">
        <path
           style="font-variation-settings:normal;opacity:1;vector-effect:none;fill:none;fill-opacity:1;stroke:#000000;stroke-width:0.7;stroke-linecap:round;stroke-linejoin:round;stroke-miterlimit:4;stroke-dasharray:none;stroke-dashoffset:0;stroke-opacity:1;-inkscape-stroke:none;stop-color:#000000;stop-opacity:1"
           d="m 50.361164,6.3681106 c -0.306724,-2.0749944 -3.634963,1.3633301 -2.487817,2.6169482 1.530967,1.6730592 3.004347,-3.5466544 2.487817,-2.6169482 -0.537583,0.9676002 0.532802,3.4086672 0.678497,4.4051974 0.0988,0.675745 0.765535,4.556931 -0.920816,4.405197 -1.529059,-0.137582 0.277564,-4.900629 0.630028,-5.4374356 0.295786,-0.4504804 0.653061,-0.8575641 0.969286,-1.2939387 0.681532,-0.9404802 1.149709,-1.8318631 0.969274,-1.8318631 -0.101285,0 -1.032714,3.6138994 1.08236,2.7623339 0.965642,-0.3887838 1.586336,-1.4837918 1.825477,-2.4424838 0.09357,-0.3751236 0.161544,-1.5351676 0.161544,-1.1485494 0,1.3305798 -0.996624,3.2867941 1.211601,3.0094909 0.724903,-0.091031 1.344068,-0.9964084 1.45392,-1.671938 0.05075,-0.3120531 -0.235381,-0.9450102 0.08077,-0.9450102 0.338992,0 -0.712719,4.077783 1.567,2.2825591 0.475104,-0.3741328 1.224428,-2.713691 2.051637,-2.5151768 1.827208,0.4384956 -0.619233,0.6196084 -0.807733,0.8286993 -0.626414,0.6948498 -0.936548,2.5151808 0.452332,2.5151808 1.341416,0 2.30673,-5.8445214 1.84163,-5.8445214 -0.332346,0 -0.05956,0.6636658 -0.129236,0.9886243 -0.243102,1.1337245 -0.927016,2.6168379 -0.226166,3.6928083 2.202116,3.3807604 4.727501,-3.3553451 2.810907,-2.3407163 -1.591797,0.8426834 1.210601,4.2340477 2.439352,2.2825591"
           id="path1232" />
        <circle
           id="path1234"
           style="fill:#000000;stroke:none;stroke-width:0.264583"
           cx="58.454647"
           cy="4.0855517"
           r="0.63" />
      </g>
      <g
         id="g3025"
         transform="translate(-0.01615135,3.1984945)">
        <path
           style="font-variation-settings:normal;opacity:1;vector-effect:none;fill:none;fill-opacity:1;stroke:#000000;stroke-width:0.7;stroke-linecap:round;stroke-linejoin:round;stroke-miterlimit:4;stroke-dasharray:none;stroke-dashoffset:0;stroke-opacity:1;-inkscape-stroke:none;stop-color:#000000;stop-opacity:1"
           d="m 73.123061,8.7233663 c 2.254703,0.125926 3.710292,-1.7798788 4.280974,-3.7364225 0.178486,-0.6119239 0.394555,-1.2375187 0.533104,-1.8609416 0.03906,-0.1757478 0.08518,-0.7141796 0.04846,-0.5379283 -0.162283,0.7789583 -1.679686,5.3582296 -0.403863,5.8881356 1.584039,0.6579213 1.858587,-2.0578797 2.859373,-2.4134093 0.400913,-0.1424236 1.653212,0.3489285 1.227754,0.3489285 -0.29592,0 -0.543589,-0.5100222 -0.920813,-0.3780033 -0.785149,0.2747809 -1.495624,1.7522891 -0.823892,2.4279447 0.371814,0.3739851 1.093081,0.3910092 1.583153,0.290771 C 84.45163,8.1502166 81.398569,5.4152547 80.893437,6.3244966 80.647303,6.7675433 81.970942,6.978744 83.26817,5.9174145"
           id="path1236" />
        <path
           style="font-variation-settings:normal;opacity:1;vector-effect:none;fill:none;fill-opacity:1;stroke:#000000;stroke-width:0.7;stroke-linecap:round;stroke-linejoin:round;stroke-miterlimit:4;stroke-dasharray:none;stroke-dashoffset:0;stroke-opacity:1;-inkscape-stroke:none;stop-color:#000000;stop-opacity:1"
           d="m 76.531683,4.6234798 c 0.80373,-0.2833876 1.628211,-0.5347883 2.455513,-0.7269317"
           id="path1238" />
      </g>
      <path
         style="font-variation-settings:normal;opacity:1;vector-effect:none;fill:none;fill-opacity:1;stroke:#000000;stroke-width:0.7;stroke-linecap:round;stroke-linejoin:round;stroke-miterlimit:4;stroke-dasharray:none;stroke-dashoffset:0;stroke-opacity:1;-inkscape-stroke:none;stop-color:#000000;stop-opacity:1"
         d="m 89.520023,6.2929811 c 4.829702,-6.52118036 -0.932459,11.2236289 0.54925,8.7348499"
         id="path1240"
         sodipodi:nodetypes="cc" />
      <path
         style="font-variation-settings:normal;opacity:1;vector-effect:none;fill:none;fill-opacity:1;stroke:#000000;stroke-width:0.7;stroke-linecap:round;stroke-linejoin:round;stroke-miterlimit:4;stroke-dasharray:none;stroke-dashoffset:0;stroke-opacity:1;-inkscape-stroke:none;stop-color:#000000;stop-opacity:1"
         d="M 91.700895,6.3465646 C 91.35554,5.83309 94.723795,3.6989276 94.770282,3.7994229 95.230938,4.7952361 94.237179,8.71507 94.237179,8.3170361"
         id="path1242"
         sodipodi:nodetypes="csc" />
      <path
         style="font-variation-settings:normal;opacity:1;vector-effect:none;fill:none;fill-opacity:1;stroke:#000000;stroke-width:0.7;stroke-linecap:round;stroke-linejoin:round;stroke-miterlimit:4;stroke-dasharray:none;stroke-dashoffset:0;stroke-opacity:1;-inkscape-stroke:none;stop-color:#000000;stop-opacity:1"
         d="m 95.264958,5.5015023 c 0.247692,-0.2346943 1.857071,-2.1919866 2.364571,-1.5219682 0.822052,1.0853013 -2.430346,6.5939629 -1.142304,7.6193589 1.077433,0.857732 3.373196,-1.156912 2.558764,-2.1012353 -0.518068,-0.600693 -2.047997,2.9379113 0.376962,2.0793833 0.617499,-0.218619 1.560589,-2.4680504 2.158959,-1.9916943 0.76424,0.6083973 1.9e-4,2.2627193 0,2.2616743 -0.0917,-0.498279 0.85288,-2.979922 1.70204,-2.6448752 0.67779,0.2674311 -0.74974,2.9247302 0.41123,2.8207522 1.34462,-0.120426 1.06206,-2.2796025 1.82769,-2.7124932 0.13184,-0.074545 -0.74545,2.3967692 0.98238,2.2956472 0.90746,-0.05311 1.84537,-0.825159 2.12469,-1.6639093 0.0529,-0.1586848 0.20951,-1.8167966 -0.12566,-1.4949963 -0.49257,0.4729298 -1.02211,2.0893466 -0.26273,2.5815636 1.55612,1.008641 3.69439,-0.442603 2.86719,-2.1728143 -0.0269,-0.056186 -0.76688,0.6114552 0.33127,0.7413604 0.23832,0.028191 0.59662,0.1230543 0.79961,-0.044313 0.0991,-0.081746 0.22846,-0.4414965 0.22846,-0.3107905 0,0.8022724 -0.79753,1.7169104 0.10281,2.4502774 0.93883,0.764719 4.8932,-2.8218418 3.36981,-3.070385 -0.88461,-0.1443246 -1.24912,1.72882 -0.90243,2.302437 0.98505,1.629784 4.54052,-1.1901068 3.98665,-2.2060665 -0.01,-0.017782 0.38255,0.8033925 0.35412,1.6982215 -0.0175,0.551941 -0.56171,0.899965 -1.08519,0.867144 -0.29706,-0.01867 -0.84573,-0.80137 -0.7425,-0.51913 0.004,0.0098 0.51379,0.324959 0.55973,0.379169 1.43319,1.691162 4.35511,-0.668645 3.26699,-0.298248"
         id="path1254" />
      <ellipse
         id="path1256"
         style="fill:#000000;stroke:none;stroke-width:0.264662"
         cx="105.75739"
         cy="3.1634333"
         rx="0.63037652"
         ry="0.63"
         transform="matrix(0.99940269,0.03455809,0,1,0,0)" />
      <path
         style="font-variation-settings:normal;opacity:1;vector-effect:none;fill:none;fill-opacity:1;stroke:#000000;stroke-width:0.7;stroke-linecap:round;stroke-linejoin:round;stroke-miterlimit:4;stroke-dasharray:none;stroke-dashoffset:0;stroke-opacity:1;-inkscape-stroke:none;stop-color:#000000;stop-opacity:1"
         d="m 107.51048,6.4286746 c 0.22882,0.1726537 0.88978,0.4181714 0.98238,0.445182"
         id="path1258" />
      <path
         style="font-variation-settings:normal;opacity:1;vector-effect:none;fill:none;fill-opacity:1;stroke:#000000;stroke-width:0.7;stroke-linecap:round;stroke-linejoin:round;stroke-miterlimit:4;stroke-dasharray:none;stroke-dashoffset:0;stroke-opacity:1;-inkscape-stroke:none;stop-color:#000000;stop-opacity:1"
         d="m 128.24158,4.9578947 c -0.18851,0.6942034 -0.14131,1.4240958 -0.25131,2.1280313 -0.18403,1.1777566 -0.69169,2.2755243 -0.8453,3.464478 -0.0556,0.43023 -0.1172,0.87091 -0.20562,1.295322 -0.022,0.105655 -0.074,0.425283 -0.0571,0.318693 0.0214,-0.134878 0.0114,-0.277379 0.0114,-0.411215"
         id="path1375" />
      <path
         style="font-variation-settings:normal;opacity:1;vector-effect:none;fill:none;fill-opacity:1;stroke:#000000;stroke-width:0.7;stroke-linecap:round;stroke-linejoin:round;stroke-miterlimit:4;stroke-dasharray:none;stroke-dashoffset:0;stroke-opacity:1;-inkscape-stroke:none;stop-color:#000000;stop-opacity:1"
         d="m 128.42435,6.28406 c 0.23044,-0.1933049 2.36083,-1.7591737 2.53592,-0.6168215 0.15053,0.9821228 -0.78315,1.7039184 -1.62208,1.9327059 -0.3824,0.1042865 -1.55009,0.2878504 -1.15373,0.2878504 1.03662,0 1.86069,-0.7409463 2.9243,-0.1028031 3.52647,2.1157853 -2.32869,6.0257923 -3.74676,3.1252233"
         id="path1377" />
      <path
         style="font-variation-settings:normal;opacity:1;vector-effect:none;fill:none;fill-opacity:1;stroke:#000000;stroke-width:0.7;stroke-linecap:round;stroke-linejoin:round;stroke-miterlimit:4;stroke-dasharray:none;stroke-dashoffset:0;stroke-opacity:1;-inkscape-stroke:none;stop-color:#000000;stop-opacity:1"
         d="m 135.71226,8.9158288 c -0.62878,-0.1577816 -1.16561,0.2119008 -1.40504,0.812147 -0.80141,2.0091592 1.25781,3.6412552 2.61588,1.6551362 0.94641,-1.3840677 -0.12572,-3.7989773 -1.21084,-2.4672832 z"
         id="path1379" />
      <path
         style="font-variation-settings:normal;opacity:1;vector-effect:none;fill:none;fill-opacity:1;stroke:#000000;stroke-width:0.7;stroke-linecap:round;stroke-linejoin:round;stroke-miterlimit:4;stroke-dasharray:none;stroke-dashoffset:0;stroke-opacity:1;-inkscape-stroke:none;stop-color:#000000;stop-opacity:1"
         d="m 139.75602,8.9569495 c -0.29502,0.5912694 -1.33228,2.6912465 -0.52546,3.3205515 1.15185,0.898421 2.39763,-1.276861 2.68442,-2.066349 0.14876,-0.409535 0.56014,-1.635248 0.33126,-1.2644834 -0.47217,0.7648887 -0.78033,1.7071414 -0.85672,2.6009294 -0.0681,0.796943 1.20001,6.614579 -1.35935,5.808393 -1.70664,-0.537583 3.36331,-5.90163 3.43834,-6.486897"
         id="path1381" />
    </g>
    <g
       id="g3582"
       style="stroke-width:0.517093;stroke-miterlimit:4;stroke-dasharray:none"
       transform="matrix(0.58459654,0,0,0.57577044,4.3897839,8.9971422)">
      <path
         style="font-variation-settings:normal;opacity:1;fill:none;fill-opacity:1;stroke:#000000;stroke-width:0.517093;stroke-linecap:round;stroke-linejoin:round;stroke-miterlimit:4;stroke-dasharray:none;stroke-dashoffset:0;stroke-opacity:1;stop-color:#000000;stop-opacity:1"
         d="m 16.392895,22.962853 c -1.729437,-0.768922 -3.026502,2.485622 -1.610652,3.361674 1.694368,1.048384 3.020918,-1.724209 2.547342,-3.073821 -0.155289,-0.442548 -1.05791,-0.600584 -0.93669,-0.287853 0.0074,0.01907 0.467291,0.162539 0.651114,0.226168 2.257707,0.78148 3.156439,-1.25188 2.615883,-1.089717 -0.401159,0.120344 -0.143748,0.700054 0.148497,0.760745 0.26276,0.05457 0.9257,-0.331698 0.890999,-0.113081 -0.167347,1.054274 -1.0096,2.248288 -0.811038,3.320551 0.188948,1.020339 1.401338,0.398705 1.67919,-0.0514"
         id="path3314" />
      <circle
         id="path3316"
         style="fill:#000000;stroke:none;stroke-width:0.517093;stroke-miterlimit:4;stroke-dasharray:none"
         cx="23.909264"
         cy="22.890894"
         r="0.63" />
      <circle
         id="path3318"
         style="fill:#000000;stroke:none;stroke-width:0.517093;stroke-miterlimit:4;stroke-dasharray:none"
         cx="24.023499"
         cy="25.070328"
         r="0.63" />
      <path
         style="font-variation-settings:normal;opacity:1;fill:none;fill-opacity:1;stroke:#000000;stroke-width:0.517093;stroke-linecap:round;stroke-linejoin:round;stroke-miterlimit:4;stroke-dasharray:none;stroke-dashoffset:0;stroke-opacity:1;stop-color:#000000;stop-opacity:1"
         d="m 33.248581,26.420795 c 2.08154,1.123354 6.183619,-6.365642 5.140375,-6.928955 -1.203262,-0.649718 -1.767544,4.642807 -1.87338,5.273815 -0.09361,0.558096 -0.179692,1.089058 -0.365543,1.624294 -0.02667,0.07681 -0.09138,0.307479 -0.09138,0.226168 0,-0.635246 1.834891,-3.915048 2.604458,-2.99158 0.01924,0.02308 -0.748019,4.093349 0.399807,2.611208 0.218114,-0.281641 2.075889,-3.129963 2.787226,-2.436441 0.160325,0.156306 0.167677,0.868984 0.06854,0.66822 -0.458247,-0.927957 -1.446024,-0.698291 -1.507839,0.442058 -0.01762,0.325016 0.03154,0.789339 0.308422,1.017753 1.572752,1.297443 1.76733,-2.056068 0.719654,-2.056068 -0.704049,0 2.625061,1.249778 2.912877,-0.174766 0.04437,-0.219604 -1.307679,2.086908 -0.07996,2.086908 0.594563,0 1.095634,-0.607562 1.188,-1.161675 0.01413,-0.08484 0.01553,-0.34271 0.02286,-0.257013 0.07704,0.901509 -0.120634,1.822925 1.210844,1.459811 0.809771,-0.220837 1.440564,-0.837343 1.633495,-1.665417 0.06735,-0.28908 -0.315497,-1.133294 -0.171344,-0.873827 0.179385,0.322878 0.798989,0.212556 1.108038,0.01028"
         id="path3322" />
      <path
         style="font-variation-settings:normal;opacity:1;fill:none;fill-opacity:1;stroke:#000000;stroke-width:0.517093;stroke-linecap:round;stroke-linejoin:round;stroke-miterlimit:4;stroke-dasharray:none;stroke-dashoffset:0;stroke-opacity:1;stop-color:#000000;stop-opacity:1"
         d="m 54.802549,26.253795 c 1.630982,0.0298 2.450868,-1.40645 3.244149,-2.611208 0.377566,-0.573411 0.70598,-1.18847 1.0395,-1.788782 0.357572,-0.643599 0.630675,-1.338631 0.833885,-2.04579 0.123576,-0.430035 0.428821,-1.770067 0.491191,-1.788779 0.05339,-0.01602 -0.491405,1.12138 -0.76535,2.138312 -0.291441,1.081892 -1.870897,4.669502 -0.856726,5.582231 1.08254,0.974258 1.917505,-1.62239 2.364574,-2.066352 0.198614,-0.197236 0.974584,-0.763372 1.256532,-0.66822 0.259152,0.08746 0.616091,0.8188 0.354121,0.740184 -0.187737,-0.05634 -0.301619,-0.349687 -0.514037,-0.390657 -1.647278,-0.31772 -1.789195,2.657516 0.319841,2.611207 1.539436,-0.0338 0.479385,-2.292749 -0.205613,-2.703726"
         id="path3324" />
      <path
         style="font-variation-settings:normal;opacity:1;fill:none;fill-opacity:1;stroke:#000000;stroke-width:0.517093;stroke-linecap:round;stroke-linejoin:round;stroke-miterlimit:4;stroke-dasharray:none;stroke-dashoffset:0;stroke-opacity:1;stop-color:#000000;stop-opacity:1"
         d="m 57.978163,20.517359 c 0.924772,0.17223 2.103689,-0.236446 2.912875,-0.236446"
         id="path3326" />
      <path
         style="font-variation-settings:normal;opacity:1;fill:none;fill-opacity:1;stroke:#000000;stroke-width:0.517093;stroke-linecap:round;stroke-linejoin:round;stroke-miterlimit:4;stroke-dasharray:none;stroke-dashoffset:0;stroke-opacity:1;stop-color:#000000;stop-opacity:1"
         d="m 62.618243,23.163149 c 0.550908,0.612817 1.186318,0.02472 1.530691,-0.226168"
         id="path3328" />
      <path
         style="font-variation-settings:normal;opacity:1;fill:none;fill-opacity:1;stroke:#000000;stroke-width:0.517093;stroke-linecap:round;stroke-linejoin:round;stroke-miterlimit:4;stroke-dasharray:none;stroke-dashoffset:0;stroke-opacity:1;stop-color:#000000;stop-opacity:1"
         d="m 70.12951,26.08191 c 2.160635,0.695722 5.587179,-6.556119 4.249377,-7.278483 -0.810133,-0.437442 -1.169429,4.21056 -1.187997,4.533632 -0.04774,0.830515 0.01146,1.654865 -0.07996,2.477565 -0.0016,0.01345 -0.07948,0.596257 -0.06853,0.596257 0.335889,0 0.182449,-0.646686 0.285573,-0.966352 0.26602,-0.824618 0.726742,-1.43324 1.473578,-1.881302 0.85389,-0.512287 -0.283453,2.983842 0.913839,2.652331 0.986105,-0.273036 1.134026,-2.834009 2.353152,-2.765415 0.12311,0.0069 0.5813,0.771599 0.354115,0.87383 -0.09382,0.04222 -0.394814,-0.487072 -0.628269,-0.442053 -0.766966,0.147903 -1.165958,1.767485 -0.582572,2.292515 0.944483,0.850004 1.670965,-2.402004 1.633495,-2.415879 -0.158779,-0.0588 -0.822524,2.703745 0.685382,2.364477 0.547901,-0.123274 2.040247,-2.831132 2.410266,-2.498126 0.569611,0.512635 -0.259135,3.102267 -0.06853,2.158877 0.0952,-0.471179 0.203862,-0.940733 0.434076,-1.367286 2.424962,-4.493142 1.826339,1.522744 2.501646,1.357002 1.024371,-0.251412 0.892447,-2.085159 2.216076,-1.8299 0.246369,0.04751 0.33338,0.647664 0.411228,0.647664 0.421257,0 -0.731662,-0.876737 -1.085191,-0.647664 -0.678937,0.439927 -1.251053,2.144549 -0.159922,2.457003 0.952754,0.272828 1.359853,-2.46774 1.142304,-2.271958 -1.29908,1.169111 2.022687,6.303785 -0.811038,7.042036 -0.148018,0.03856 -0.457184,0.126932 -0.593997,0.01029 -0.865608,-0.738011 2.284727,-4.71049 2.30746,-5.129896"
         id="path3334" />
      <path
         style="font-variation-settings:normal;opacity:1;fill:none;fill-opacity:1;stroke:#000000;stroke-width:0.517093;stroke-linecap:round;stroke-linejoin:round;stroke-miterlimit:4;stroke-dasharray:none;stroke-dashoffset:0;stroke-opacity:1;stop-color:#000000;stop-opacity:1"
         d="m 95.831391,23.480986 c -0.358698,2.033642 -0.773282,5.176611 2.010455,1.418688 0.106566,-0.143859 0.132644,0.979353 0.376963,1.254199 0.297722,0.334926 1.046911,-0.103171 1.26796,-0.318688 0.465621,-0.453969 0.803491,-1.131671 0.856731,-1.778504 0.0222,-0.269802 -0.094,-1.066008 0,-0.812144 0.18907,0.510506 0.25751,1.024511 0.98238,0.729903 0.13745,-0.05586 1.05486,-0.98 1.08519,-0.966352 0.40583,0.182615 -1.11529,3.974953 0.33127,3.495318 1.79654,-0.595678 2.97087,-4.026913 3.47261,-5.582228 0.36392,-1.128101 0.3437,-2.394357 0.45692,-2.292517 0.5216,0.469186 -3.09624,6.710435 -1.11946,7.44297 2.19802,0.814519 3.37527,-2.842212 3.72392,-4.214941 0.0873,-0.343744 0.75069,-3.118286 0.0914,-2.683171 -1.34702,0.888976 -0.7321,3.764338 -1.09662,5.10933 -0.17077,0.630075 -0.22846,1.331572 -0.22846,1.984111 0,0.09595 -0.0495,0.370056 0,0.287847 0.21918,-0.364172 0.3304,-0.794761 0.50262,-1.182241 0.19534,-0.439506 0.44233,-0.587839 0.81103,-0.884105 1.82667,-1.467818 0.0851,1.210224 1.09661,1.665412 0.80146,0.360644 1.61053,-1.059788 1.29081,-1.00747"
         id="path3338" />
      <circle
         id="path3340"
         style="fill:#000000;stroke:none;stroke-width:0.517093;stroke-miterlimit:4;stroke-dasharray:none"
         cx="102.81087"
         cy="21.075382"
         r="0.63" />
      <path
         style="font-variation-settings:normal;opacity:1;fill:none;fill-opacity:1;stroke:#000000;stroke-width:0.517093;stroke-linecap:round;stroke-linejoin:round;stroke-miterlimit:4;stroke-dasharray:none;stroke-dashoffset:0;stroke-opacity:1;stop-color:#000000;stop-opacity:1"
         d="m 104.6043,21.280991 c 0.89282,0.107785 1.76124,-0.299177 2.68442,-0.195328"
         id="path3344" />
      <path
         style="font-variation-settings:normal;opacity:1;fill:none;fill-opacity:1;stroke:#000000;stroke-width:0.517093;stroke-linecap:round;stroke-linejoin:round;stroke-miterlimit:4;stroke-dasharray:none;stroke-dashoffset:0;stroke-opacity:1;stop-color:#000000;stop-opacity:1"
         d="m 119.19065,23.48918 c -1.34258,-0.933683 -2.90076,1.399363 -2.22749,2.61121 0.14932,0.268781 0.54849,0.380305 0.83388,0.287848 1.86927,-0.605591 1.7199,-3.448063 1.39361,-2.899058 -0.40285,0.677828 0.38054,3.313096 1.53069,2.179436 0.23083,-0.227517 2.00453,-2.953014 2.61588,-2.302801 0.57954,0.616374 -0.16563,1.993125 -0.41123,2.600927 -0.0987,0.244381 0.26683,-0.454906 0.38838,-0.688782 0.33348,-0.641629 1.20858,-2.495798 2.19323,-2.385039 1.061,0.119346 -0.24852,2.580213 0.98238,2.755133 1.24541,0.176982 1.52749,-2.821205 2.70727,-2.467283 0.33536,0.100605 0.49982,1.293282 0.45692,0.945793 -0.26806,-2.171546 -3.06807,1.498174 -1.06234,1.79906 1.41643,0.212483 3.34875,-6.429147 3.23272,-6.507462 -0.25039,-0.169011 -0.83075,2.272039 -0.85673,2.385042 -0.35721,1.553821 -1.2671,3.134905 0.0114,4.235501"
         id="path3346" />
      <path
         style="font-variation-settings:normal;opacity:1;fill:none;fill-opacity:1;stroke:#000000;stroke-width:0.517093;stroke-linecap:round;stroke-linejoin:round;stroke-miterlimit:4;stroke-dasharray:none;stroke-dashoffset:0;stroke-opacity:1;stop-color:#000000;stop-opacity:1"
         d="m 138.15828,26.5405 c 2.0103,-0.541383 3.61498,-3.642472 4.04376,-5.571945 0.046,-0.206853 0.56023,-1.559036 0.0685,-1.706537 -1.34309,-0.402916 -3.08031,6.174029 -0.28558,6.713065 1.43157,0.276114 0.91054,-2.198913 2.18181,-2.035506 0.23139,0.02974 0.14094,0.428462 0.20561,0.544855 0.10762,0.193713 -0.2268,-0.52924 -0.4455,-0.493454 -0.54388,0.089 -0.62569,0.664909 -0.77677,1.099995 -0.18084,0.520805 0.21472,1.699565 0.98238,1.285044 0.77008,-0.415823 1.21137,-2.863357 0.17135,-2.395323 -0.54254,0.244162 0.32943,0.54868 0.62827,0.46262 0.2195,-0.06321 1.09652,-0.818771 1.26796,-0.678504 0.66354,0.542865 -0.75874,2.760209 0.50261,2.693448 1.38122,-0.0731 0.63211,-3.318781 1.00523,-2.899054 1.47941,1.664205 3.70627,0.146511 2.87862,-0.267292 -2.08531,-1.042596 -1.69085,5.431845 1.48499,2.179433"
         id="path3348" />
      <path
         style="font-variation-settings:normal;opacity:1;fill:none;fill-opacity:1;stroke:#000000;stroke-width:0.517093;stroke-linecap:round;stroke-linejoin:round;stroke-miterlimit:4;stroke-dasharray:none;stroke-dashoffset:0;stroke-opacity:1;stop-color:#000000;stop-opacity:1"
         d="m 159.62749,23.066972 c -1.55004,-0.23446 -2.69445,2.837996 -1.188,3.515876 1.08511,0.488282 2.01046,-1.473472 2.01046,-2.271955 0,-0.28189 0.0762,-0.602944 -0.0685,-0.863548 -0.1367,-0.246055 -0.92427,-0.604448 -0.75392,-0.380373 0.76536,1.006715 2.25644,-0.617347 2.30746,-0.514018 0.51297,1.038826 -0.66072,3.526157 -0.297,3.526157 0.41689,0 0.0877,-0.833767 0.20561,-1.23364 0.13861,-0.470196 1.44731,-2.600073 1.81627,-2.323357 0.84996,0.637451 -0.19547,2.053727 -0.0229,2.888777 0.10236,0.495158 0.99417,1.034193 1.05092,0.370091"
         id="path3350" />
      <path
         style="font-variation-settings:normal;opacity:1;fill:none;fill-opacity:1;stroke:#000000;stroke-width:0.517093;stroke-linecap:round;stroke-linejoin:round;stroke-miterlimit:4;stroke-dasharray:none;stroke-dashoffset:0;stroke-opacity:1;stop-color:#000000;stop-opacity:1"
         d="m 172.91251,23.231458 c -1.3498,-1.304372 -3.1657,1.169892 -2.25035,2.405601 0.64849,0.875438 1.8285,-0.586383 2.13612,-1.089717 0.22959,-0.375675 0.32804,-1.700756 0.11423,-1.315884 -0.13693,0.246467 0.15464,0.550826 0.1485,0.832709 -0.031,1.424529 1.64492,2.025457 1.64492,1.675695 0,-0.118237 -0.23613,0.01298 -0.35412,0.02056"
         id="path3352" />
      <path
         style="font-variation-settings:normal;opacity:1;fill:none;fill-opacity:1;stroke:#000000;stroke-width:0.517093;stroke-linecap:round;stroke-linejoin:round;stroke-miterlimit:4;stroke-dasharray:none;stroke-dashoffset:0;stroke-opacity:1;stop-color:#000000;stop-opacity:1"
         d="m 181.70168,22.551527 c 2.76558,-3.069409 -0.94416,5.580171 -0.13708,3.855131"
         id="path3469" />
      <path
         style="font-variation-settings:normal;opacity:1;fill:none;fill-opacity:1;stroke:#000000;stroke-width:0.517093;stroke-linecap:round;stroke-linejoin:round;stroke-miterlimit:4;stroke-dasharray:none;stroke-dashoffset:0;stroke-opacity:1;stop-color:#000000;stop-opacity:1"
         d="m 182.77544,23.271152 c 0.26115,-0.410443 1.46187,-2.044542 2.19323,-1.48037 0.40824,0.314919 -0.78959,4.185271 -0.46835,3.125225"
         id="path3471" />
      <path
         style="font-variation-settings:normal;opacity:1;fill:none;fill-opacity:1;stroke:#000000;stroke-width:0.517093;stroke-linecap:round;stroke-linejoin:round;stroke-miterlimit:4;stroke-dasharray:none;stroke-dashoffset:0;stroke-opacity:1;stop-color:#000000;stop-opacity:1"
         d="m 184.99152,22.592648 c 3.93149,-3.210431 -0.0357,3.34098 0.9938,3.885971 1.5019,0.795067 4.09279,-3.229499 2.81008,-3.999055 -0.82604,-0.495575 -1.58907,3.880454 -0.22847,4.040178 1.5298,0.179586 2.04923,-2.800309 3.07281,-3.433638 1.09794,-0.679339 0.42665,1.674339 0.35411,2.025229 -0.069,0.333594 -0.0975,1.340013 -0.17135,1.007475 -0.19942,-0.897522 1.67387,-4.258089 2.30746,-3.402795 0.42793,0.577664 -1.29957,3.775916 0.297,3.536438 1.31982,-0.197967 1.11007,-2.911191 1.88481,-3.608402 0.28454,-0.256068 -0.16693,0.747178 -0.25131,1.120559 -0.15563,0.688623 -0.53589,2.315921 0.65111,2.36448 1.41485,0.05788 4.08748,-4.070481 2.14754,-3.556999 -1.10866,0.293447 -1.27409,3.806383 0.4455,3.474755 1.31975,-0.254518 1.80484,-1.403443 1.80484,-2.600926 0,-0.287038 -0.43131,-0.974349 -0.4455,-0.616821 -0.0386,0.973592 1.10739,0.16452 1.188,0.31869 0.32091,0.613721 -1.08681,2.204456 0.50261,2.261677 0.76153,0.02742 2.94377,-1.846841 1.83911,-2.343919 -0.85063,-0.382773 -1.65793,2.597358 0.08,2.642047 1.05245,0.02706 2.07774,-0.702567 2.27319,-1.757939 0.0767,-0.414203 0.27415,-1.654886 0.27415,-1.23364 0,1.040035 0.772,1.228312 0,2.333637 -0.58116,0.83208 -1.63194,0.179543 -1.15373,0.07196 0.35695,-0.0803 2.11353,0.593908 2.59303,0.627103 0.30912,0.0214 1.8899,-0.487481 1.08519,-0.431777"
         id="path3473" />
      <circle
         id="path3475"
         style="fill:#000000;stroke:none;stroke-width:0.517093;stroke-miterlimit:4;stroke-dasharray:none"
         cx="196.58592"
         cy="20.300131"
         r="0.63" />
      <path
         style="font-variation-settings:normal;opacity:1;fill:none;fill-opacity:1;stroke:#000000;stroke-width:0.517093;stroke-linecap:round;stroke-linejoin:round;stroke-miterlimit:4;stroke-dasharray:none;stroke-dashoffset:0;stroke-opacity:1;stop-color:#000000;stop-opacity:1"
         d="m 213.91889,26.472365 c 2.1794,-0.336079 5.1625,-3.807227 5.39169,-5.972882 0.0371,-0.350242 0.46514,-2.36179 -0.28558,-2.333638 -1.97142,0.07393 -3.78326,7.238334 -1.188,8.152315 1.79019,0.630455 1.95758,-3.339301 0.85673,-2.744853 -0.0626,0.03383 1.86647,0.793004 2.78723,-0.287848 0.34636,-0.40659 -0.70851,0.518324 -0.83389,0.729903 -0.41822,0.705719 -0.40074,2.195447 0.76535,1.953268 1.04414,-0.216852 1.42948,-2.683171 0.13708,-2.683171 -0.32837,0 1.55734,1.395052 3.10706,0 0.0297,-0.0267 -1.50525,2.587378 0.0457,2.539244 1.19922,-0.03722 1.89181,-2.025228 1.72488,-2.025228 -1.35587,0 1.73671,7.550512 -1.15373,6.394375 -1.41951,-0.567785 2.30214,-5.201694 2.78723,-5.685031 0.17204,-0.171416 -0.36548,0.323195 -0.57116,0.452336"
         id="path3477" />
      <path
         style="font-variation-settings:normal;opacity:1;fill:none;fill-opacity:1;stroke:#000000;stroke-width:0.517093;stroke-linecap:round;stroke-linejoin:round;stroke-miterlimit:4;stroke-dasharray:none;stroke-dashoffset:0;stroke-opacity:1;stop-color:#000000;stop-opacity:1"
         d="m 205.51918,20.67482 c 0.27363,0.489232 0.18135,0.650204 0.0229,0.935512"
         id="path3479" />
    </g>
    <g
       id="g3757"
       style="stroke-width:0.38263;stroke-miterlimit:4;stroke-dasharray:none"
       transform="matrix(0.52771305,0,0,0.51773018,37.440694,13.405557)">
      <path
         style="font-variation-settings:normal;opacity:1;fill:none;fill-opacity:1;stroke:#000000;stroke-width:0.38263;stroke-linecap:round;stroke-linejoin:round;stroke-miterlimit:4;stroke-dasharray:none;stroke-dashoffset:0;stroke-opacity:1;stop-color:#000000;stop-opacity:1"
         d="m 19.330564,34.912845 c -0.417484,0.500798 -1.154949,1.342665 -1.496419,1.583171"
         id="path3617" />
      <path
         style="font-variation-settings:normal;opacity:1;fill:none;fill-opacity:1;stroke:#000000;stroke-width:0.38263;stroke-linecap:round;stroke-linejoin:round;stroke-miterlimit:4;stroke-dasharray:none;stroke-dashoffset:0;stroke-opacity:1;stop-color:#000000;stop-opacity:1"
         d="m 17.502875,34.666116 c 0.109326,0.382381 1.88223,2.504776 1.907651,1.932704"
         id="path3619" />
      <path
         style="font-variation-settings:normal;opacity:1;fill:none;fill-opacity:1;stroke:#000000;stroke-width:0.38263;stroke-linecap:round;stroke-linejoin:round;stroke-miterlimit:4;stroke-dasharray:none;stroke-dashoffset:0;stroke-opacity:1;stop-color:#000000;stop-opacity:1"
         d="m 18.279645,34.583872 c 6.08e-4,0.703329 -0.05402,1.78933 -0.217038,2.302799"
         id="path3621" />
      <path
         style="font-variation-settings:normal;opacity:1;fill:none;fill-opacity:1;stroke:#000000;stroke-width:0.38263;stroke-linecap:round;stroke-linejoin:round;stroke-miterlimit:4;stroke-dasharray:none;stroke-dashoffset:0;stroke-opacity:1;stop-color:#000000;stop-opacity:1"
         d="m 16.623302,35.982 c 0.968941,0.03306 2.913446,-0.170675 3.40407,-0.113086"
         id="path3623" />
      <path
         style="font-variation-settings:normal;opacity:1;fill:none;fill-opacity:1;stroke:#000000;stroke-width:0.38263;stroke-linecap:round;stroke-linejoin:round;stroke-miterlimit:4;stroke-dasharray:none;stroke-dashoffset:0;stroke-opacity:1;stop-color:#000000;stop-opacity:1"
         d="m 23.145866,41.440864 c 1.209948,-0.260686 1.911234,-1.537393 2.353151,-2.61121 0.309023,-0.750895 0.536703,-1.498655 0.742499,-2.282235 0.167698,-0.638516 0.377265,-1.27209 0.514038,-1.912143 0.04404,-0.206076 0.07996,-0.83783 0.07996,-0.627105 0,1.37727 -2.814421,6.776003 -0.194194,7.247646 1.694586,0.305028 2.510355,-3.566668 2.695841,-4.451389 0.02562,-0.122211 0.813878,-2.507443 0.456923,-2.467285 -1.322733,0.148807 -1.770574,5.555419 -1.770574,6.610265 0,1.091684 0.902204,-2.996848 2.010459,-2.498127 0.525998,0.236705 -0.589937,2.327011 0.09138,2.940183 0.633105,0.569775 1.229768,-1.645227 1.336496,-1.942987 0.03104,-0.08658 0.0787,-0.358706 0.06854,-0.26729 -0.02864,0.257723 -0.509064,2.063922 0.217037,2.035509 1.152652,-0.0451 1.177476,-2.606223 1.759151,-2.693451 0.477052,-0.07154 0.567754,1.139762 0.571154,1.357006 0.02043,1.303975 -1.102246,0.693722 -0.948113,0.277569 0.01797,-0.04847 2.42562,-0.015 2.730111,-0.164486"
         id="path3625" />
      <circle
         id="path3627"
         style="fill:#000000;stroke:none;stroke-width:0.38263;stroke-miterlimit:4;stroke-dasharray:none"
         cx="32.055851"
         cy="36.763306"
         r="0.63" />
      <path
         style="font-variation-settings:normal;opacity:1;fill:none;fill-opacity:1;stroke:#000000;stroke-width:0.38263;stroke-linecap:round;stroke-linejoin:round;stroke-miterlimit:4;stroke-dasharray:none;stroke-dashoffset:0;stroke-opacity:1;stop-color:#000000;stop-opacity:1"
         d="m 24.916441,36.609102 c 0.595693,0.108976 1.187067,-0.04566 1.690613,-0.205608"
         id="path3629" />
      <path
         style="font-variation-settings:normal;opacity:1;fill:none;fill-opacity:1;stroke:#000000;stroke-width:0.38263;stroke-linecap:round;stroke-linejoin:round;stroke-miterlimit:4;stroke-dasharray:none;stroke-dashoffset:0;stroke-opacity:1;stop-color:#000000;stop-opacity:1"
         d="m 41.171452,41.050212 c 0.535942,0.01405 0.933048,-0.06293 1.325075,-0.431776 0.928812,-0.87389 1.153015,-2.38647 1.073769,-2.282237 -0.46043,0.605602 -0.883081,3.216486 0.731076,2.611209 0.735245,-0.275703 1.158494,-1.220401 1.405035,-1.912143 0.02275,-0.06387 0.323136,-0.930564 0.354116,-0.904674 0.263049,0.219826 0.603462,0.692062 0.67396,1.017757 0.659932,3.048801 -2.774357,0.670745 -0.753922,1.007472 0.837567,0.139589 1.497298,0.619903 2.067573,0.08224"
         id="path3631" />
      <circle
         id="path3633"
         style="fill:#000000;stroke:none;stroke-width:0.38263;stroke-miterlimit:4;stroke-dasharray:none"
         cx="43.444641"
         cy="36.00256"
         r="0.63" />
      <path
         style="font-variation-settings:normal;opacity:1;fill:none;fill-opacity:1;stroke:#000000;stroke-width:0.38263;stroke-linecap:round;stroke-linejoin:round;stroke-miterlimit:4;stroke-dasharray:none;stroke-dashoffset:0;stroke-opacity:1;stop-color:#000000;stop-opacity:1"
         d="m 54.826486,37.449432 c 2.063755,-3.46668 1.525085,2.74806 0.536885,3.742047"
         id="path3643" />
      <path
         style="font-variation-settings:normal;opacity:1;fill:none;fill-opacity:1;stroke:#000000;stroke-width:0.38263;stroke-linecap:round;stroke-linejoin:round;stroke-miterlimit:4;stroke-dasharray:none;stroke-dashoffset:0;stroke-opacity:1;stop-color:#000000;stop-opacity:1"
         d="m 56.254368,37.490556 c 0.349851,-0.547069 0.985557,-1.197864 1.702038,-1.243923 1.825446,-0.11735 -0.985096,5.852274 1.267958,4.585033 0.538329,-0.302786 1.54142,-5.764992 3.004264,-4.687837 0.290415,0.213844 0.756343,1.222852 0.525457,0.945793 -0.905322,-1.086374 -1.783339,-0.591304 -2.147533,0.760746 -0.33007,1.225373 0.262073,2.778345 1.804845,2.39532 2.17601,-0.540242 0.301715,-4.350747 -0.571151,-3.957936 -0.492754,0.221753 1.565225,1.138163 2.410265,0.688785 0.818909,-0.435481 0.864047,-1.704568 1.039497,-2.508404 0.107876,-0.494247 0.882843,-1.470088 0.37696,-1.470088 -0.0091,0 -0.41139,1.760103 -0.422656,1.809339 -0.339683,1.484834 -1.357511,4.378574 -0.03427,5.64391 0.835168,0.798621 2.178134,0.12184 1.94192,-0.637382"
         id="path3645" />
      <path
         style="font-variation-settings:normal;opacity:1;fill:none;fill-opacity:1;stroke:#000000;stroke-width:0.38263;stroke-linecap:round;stroke-linejoin:round;stroke-miterlimit:4;stroke-dasharray:none;stroke-dashoffset:0;stroke-opacity:1;stop-color:#000000;stop-opacity:1"
         d="m 64.341892,34.38589 c 0.66697,0.04663 2.150023,-0.09124 2.307458,-0.102804"
         id="path3647" />
      <path
         style="font-variation-settings:normal;opacity:1;fill:none;fill-opacity:1;stroke:#000000;stroke-width:0.38263;stroke-linecap:round;stroke-linejoin:round;stroke-miterlimit:4;stroke-dasharray:none;stroke-dashoffset:0;stroke-opacity:1;stop-color:#000000;stop-opacity:1"
         d="m 73.331841,38.158777 c 1.64723,-3.950801 1.301295,3.536439 0.491189,3.536439 -0.04112,0 0.124761,-0.487214 0.137078,-0.53458 0.10474,-0.40277 0.08024,-0.82369 0.171344,-1.233638 0.215566,-0.970029 1.567547,-3.280992 2.798651,-2.796254 0.877755,0.345606 0.05536,3.096776 0.01143,2.899055 -0.336465,-1.51412 2.569229,-4.914651 2.478807,-2.148591 -0.02334,0.713936 -1.38335,2.925979 -0.354116,3.371956 2.289318,0.991975 3.527616,-3.404209 2.844343,-3.865415 -0.835441,-0.563914 -1.240179,2.716919 0.06853,3.485042 1.254056,0.736039 1.765641,-2.249848 3.278417,-2.724296 0.02654,-0.0083 0.395058,-0.142187 0.434076,-0.07196 0.176657,0.317958 0.233733,1.407695 0.05711,1.089716 -0.317825,-0.572209 -0.963318,-1.703147 -1.656344,-0.544859 -0.459764,0.768432 -0.795933,2.400985 0.285581,2.806536 1.026466,0.38491 2.269291,-4.828752 2.581608,-5.63363 0.28975,-0.746723 0.455155,-1.600258 0.514038,-2.395323 0.0011,-0.01532 0.03857,-0.348253 -0.01143,-0.32897 -0.559689,0.215876 -1.482072,5.553199 -1.553541,6.517738 -0.07846,1.058971 1.591799,1.041789 2.067578,0.58598 0.691862,-0.662826 0.664319,-2.452184 0.685382,-2.39532 0.272907,0.736796 -0.616968,1.757733 -0.228465,2.457003 0.984809,1.772565 2.509555,-2.768605 3.221302,-2.128031 0.209815,0.188833 0.211522,1.092994 0.239885,0.812147 0.02506,-0.248198 -0.214667,-0.958324 -0.593998,-0.884108 -1.018855,0.199334 -1.00408,1.91254 -0.456925,2.539243 1.071563,1.227349 2.728148,-2.663933 3.369805,-2.230834 0.185108,0.124941 0.377717,0.796261 0.342694,0.575699 -0.282186,-1.777241 -1.644182,0.0468 -1.507845,1.089715 0.143823,1.100151 1.242574,0.233725 1.507845,-0.339248 0.159549,-0.344615 0.02114,-1.452494 0.205613,-1.120561 0.197509,0.355375 -0.92083,2.487292 0.605419,1.881306 1.516417,-0.602085 4.274013,-6.088853 3.392652,-6.353254 -0.702135,-0.210637 -2.994398,4.900152 -0.731076,6.342973"
         id="path3649" />
      <circle
         id="path3651"
         style="fill:#000000;stroke:none;stroke-width:0.38263;stroke-miterlimit:4;stroke-dasharray:none"
         cx="88.935738"
         cy="36.020466"
         r="0.63" />
      <path
         style="font-variation-settings:normal;opacity:1;fill:none;fill-opacity:1;stroke:#000000;stroke-width:0.38263;stroke-linecap:round;stroke-linejoin:round;stroke-miterlimit:4;stroke-dasharray:none;stroke-dashoffset:0;stroke-opacity:1;stop-color:#000000;stop-opacity:1"
         d="m 106.79554,38.192419 c -0.99971,-1.459699 -2.75472,1.437679 -1.91907,2.189712 1.32619,1.193483 2.50239,-2.963349 1.91907,-2.189712 -0.28617,0.379536 0.007,3.012143 0.86816,2.333635 0.81215,-0.639551 0.78981,-1.831006 1.40503,-2.611207 0.64749,-0.821103 1.56733,0.246729 1.41646,0.246729 -0.0847,0 -0.17848,-0.58598 -0.47976,-0.58598 -2.42901,0 -1.37837,4.843279 0.13707,2.549524 0.89789,-1.359026 1.40124,-3.211673 2.06757,-4.687837 0.0351,-0.07774 0.72944,-2.130758 0.70823,-2.12803 -0.49682,0.06388 -3.48755,6.412725 -1.16515,6.970075 0.31812,0.07635 1.83692,-2.232047 2.46738,-2.652329 0.87265,-0.58174 -0.98579,2.461164 0.43408,2.765414 0.24453,0.0524 0.4198,-0.143941 0.5483,-0.328972 0.46079,-0.663498 0.80435,-1.478606 1.19943,-2.189713 0.0463,-0.08331 0.0222,-0.360876 0.0685,-0.277569 0.30511,0.549135 0.88698,0.896908 1.5307,0.493456 0.354,-0.221877 0.70129,-1.345631 0.82245,-0.945793 0.25105,0.828471 -0.82303,2.271705 0.297,2.775693 1.10176,0.495763 1.76763,-1.529111 2.34173,-2.045787 0.80951,-0.728535 1.24045,0.578244 1.24512,0.555136 0.068,-0.336492 0.0484,-0.684501 -0.27416,-0.873829 -0.74443,-0.436931 -1.59851,2.342274 -0.0228,2.857936 1.98974,0.651174 2.92912,-3.060208 2.03331,-2.559806 -1.74797,0.976421 0.68639,3.899609 2.05615,1.51121"
         id="path3653" />
      <circle
         id="path3657"
         style="fill:#000000;stroke:none;stroke-width:0.38263;stroke-miterlimit:4;stroke-dasharray:none"
         cx="118.94968"
         cy="35.108315"
         r="0.63" />
    </g>
    <path
       style="font-variation-settings:normal;opacity:1;fill:none;fill-opacity:1;stroke:#000000;stroke-width:0.5;stroke-linecap:round;stroke-linejoin:round;stroke-miterlimit:4;stroke-dasharray:none;stroke-dashoffset:0;stroke-opacity:1;stop-color:#000000;stop-opacity:1"
       d="m 12.212735,40.066657 c 3.019795,-3.442129 4.962282,1.245283 7.904757,0.472903 1.858163,-0.487757 3.034824,-2.548789 5.140377,-2.261679 1.970828,0.268737 3.7008,2.216303 5.780065,2.138309 0.735979,-0.02761 6.272601,-3.48624 5.140377,-2.467276 -0.01114,0.01003 3.17668,2.857383 7.173682,0.699055 2.253134,-1.216662 1.590173,1.068245 3.449762,1.254205 2.216539,0.221657 3.547176,-1.493915 5.574453,-1.685973 2.639873,-0.250097 3.747363,1.706541 6.031376,1.706541 2.632149,0 5.007681,-1.695516 7.676293,-1.850469 2.017323,-0.117136 3.152912,1.466667 5.231764,1.562616 2.098413,0.09685 4.004771,-1.451324 5.825755,-1.192525 1.694098,0.240763 3.817713,1.842066 4.911918,1.871022 2.888795,0.07645 5.514128,-2.227278 8.407368,-1.70653 0.494358,0.08898 1.038818,1.831829 1.94192,1.994384 1.982285,0.356798 3.247681,-1.615017 5.140378,-1.685973 5.78413,-0.21685 3.06124,1.891578 5.66583,1.891578 1.27741,0 2.46669,-1.71608 3.92954,-1.891578 1.94821,-0.23373 1.40645,1.644849 3.4726,1.644849 1.71002,0 5.52825,-3.281225 7.24223,-2.179432 0.30663,0.19711 0.0505,1.099805 0.41122,1.171956 2.53579,0.507159 3.65258,-0.578588 5.82577,-0.904671 0.67349,-0.101057 0.63661,1.039313 1.65055,0.92524 0.91676,-0.10314 1.5923,-1.40649 2.4217,-1.274773 1.20573,0.191484 1.71434,1.690471 2.99283,1.932715 1.42988,0.270926 2.9349,-1.665287 4.45499,-1.95327 2.16506,-0.410173 3.81708,3.545728 5.18607,0.123359"
       id="path4290" />
  </g>
</svg>
