<?xml version="1.0" encoding="UTF-8" standalone="no"?>
<!-- Created with Inkscape (http://www.inkscape.org/) -->

<svg
   width="3.7844186in"
   height="1.0744785in"
   viewBox="0 0 96.124232 27.291755"
   version="1.1"
   id="svg4491"
   xmlns="http://www.w3.org/2000/svg"
   xmlns:svg="http://www.w3.org/2000/svg">
  <defs
     id="defs4488" />
  <g
     id="layer1"
     transform="translate(-4.4521935,-2.2996447)">
    <path
       style="font-variation-settings:normal;opacity:1;fill:none;fill-opacity:1;stroke:#000000;stroke-width:0.7;stroke-linecap:round;stroke-linejoin:round;stroke-miterlimit:4;stroke-dasharray:none;stroke-dashoffset:0;stroke-opacity:1;stop-color:#000000;stop-opacity:1"
       d="m 4.9424382,21.040105 c 0.088248,1.270833 -0.00914,-2.674123 0.016155,-3.300262 0.13014,-3.221088 0.3170341,-6.046919 0.032307,-9.2756297 C 4.8541406,6.9134246 4.7357032,5.3299785 4.8455106,3.7827844 5.5931457,4.6934732 6.2603156,5.6871428 6.8648393,6.7050432 7.6423577,8.014233 8.1208029,10.216228 9.0457166,8.5514455 9.9428528,6.9366611 10.693876,4.0471016 12.292802,2.8959278 c 0.409234,-0.2946352 0.04846,1.0077526 0.04846,1.5120171 0,1.3144744 -0.09008,2.6742978 0.04847,3.9835757 0.425474,4.0206794 0.597721,8.6756554 0.597721,12.5322774"
       id="path6764" />
    <path
       style="font-variation-settings:normal;opacity:1;fill:none;fill-opacity:1;stroke:#000000;stroke-width:0.7;stroke-linecap:round;stroke-linejoin:round;stroke-miterlimit:4;stroke-dasharray:none;stroke-dashoffset:0;stroke-opacity:1;stop-color:#000000;stop-opacity:1"
       d="m 16.153759,16.489526 c 2.952954,2.361247 6.488043,-5.312106 2.455505,-3.402038 -1.039946,0.492586 -1.995286,1.648434 -2.277805,2.73326 -0.199602,0.766439 -0.338211,1.618939 -0.1777,2.413409 0.6394,3.164789 4.779697,2.190145 5.234103,0.145385"
       id="path6766" />
    <path
       style="font-variation-settings:normal;opacity:1;fill:none;fill-opacity:1;stroke:#000000;stroke-width:0.7;stroke-linecap:round;stroke-linejoin:round;stroke-miterlimit:4;stroke-dasharray:none;stroke-dashoffset:0;stroke-opacity:1;stop-color:#000000;stop-opacity:1"
       d="m 24.941885,13.116567 c -0.437254,1.030126 -0.399808,1.771752 -0.38771,2.849566 0.01185,1.055783 0.323093,2.092395 0.323093,3.15488 0,3.796122 -0.150311,-2.435629 0.387711,-3.823654 0.459828,-1.186297 2.608441,-3.691469 3.279392,-1.221242 0.303702,1.118141 0.103873,2.303625 0.161547,3.445647 0.04108,0.813453 0.370597,2.318983 0.420018,2.689641"
       id="path6768" />
    <path
       style="font-variation-settings:normal;opacity:1;fill:none;fill-opacity:1;stroke:#000000;stroke-width:0.7;stroke-linecap:round;stroke-linejoin:round;stroke-miterlimit:4;stroke-dasharray:none;stroke-dashoffset:0;stroke-opacity:1;stop-color:#000000;stop-opacity:1"
       d="m 32.518413,13.378264 c -1.503669,0.17775 -0.13794,10.123885 1.421609,6.615063"
       id="path6770" />
    <circle
       id="path6772"
       style="fill:#000000;stroke:none;stroke-width:0.699999;stroke-linejoin:round;stroke-miterlimit:4;stroke-dasharray:none"
       cx="32.698517"
       cy="9.4310303"
       r="0.57848245" />
    <path
       style="font-variation-settings:normal;opacity:1;fill:none;fill-opacity:1;stroke:#000000;stroke-width:0.7;stroke-linecap:round;stroke-linejoin:round;stroke-miterlimit:4;stroke-dasharray:none;stroke-dashoffset:0;stroke-opacity:1;stop-color:#000000;stop-opacity:1"
       d="m 37.494045,15.311898 c 1.340155,0.09492 2.662066,-0.38502 3.42478,-1.541092 1.146554,-1.737866 -3.651054,-2.447585 -3.860961,1.613785 -0.150421,2.91046 3.659373,5.804182 5.088715,2.529716"
       id="path6774" />
    <path
       style="font-variation-settings:normal;opacity:1;fill:none;fill-opacity:1;stroke:#000000;stroke-width:0.7;stroke-linecap:round;stroke-linejoin:round;stroke-miterlimit:4;stroke-dasharray:none;stroke-dashoffset:0;stroke-opacity:1;stop-color:#000000;stop-opacity:1"
       d="m 44.876711,13.436417 c 0.190929,0.12895 0.174827,9.024957 0.662345,6.455142"
       id="path6776" />
    <path
       style="font-variation-settings:normal;opacity:1;fill:none;fill-opacity:1;stroke:#000000;stroke-width:0.7;stroke-linecap:round;stroke-linejoin:round;stroke-miterlimit:4;stroke-dasharray:none;stroke-dashoffset:0;stroke-opacity:1;stop-color:#000000;stop-opacity:1"
       d="m 45.248271,15.26828 c 0.521536,-2.368798 3.169198,-3.674364 4.652542,-1.671938"
       id="path6780" />
    <path
       style="font-variation-settings:normal;opacity:1;fill:none;fill-opacity:1;stroke:#000000;stroke-width:0.7;stroke-linecap:round;stroke-linejoin:round;stroke-miterlimit:4;stroke-dasharray:none;stroke-dashoffset:0;stroke-opacity:1;stop-color:#000000;stop-opacity:1"
       d="m 52.663253,16.911143 c 1.589307,-0.370852 3.491431,-0.568946 4.39406,-2.108098 2.002375,-3.414437 -2.992239,-3.061203 -4.523301,-0.305311 -2.047253,3.685035 2.821636,7.909554 6.090301,5.277514"
       id="path6784" />
    <path
       style="font-variation-settings:normal;opacity:1;fill:none;fill-opacity:1;stroke:#000000;stroke-width:0.7;stroke-linecap:round;stroke-linejoin:round;stroke-miterlimit:4;stroke-dasharray:none;stroke-dashoffset:0;stroke-opacity:1;stop-color:#000000;stop-opacity:1"
       d="m 64.924627,12.331482 c -1.039648,0.121844 -1.725591,0.93717 -2.374731,1.686477 -1.304769,1.506105 2.670493,1.18157 3.295547,2.587874 1.190114,2.677639 -2.129308,3.11226 -3.602487,2.369791"
       id="path6786" />
    <path
       style="font-variation-settings:normal;opacity:1;fill:none;fill-opacity:1;stroke:#000000;stroke-width:0.7;stroke-linecap:round;stroke-linejoin:round;stroke-miterlimit:4;stroke-dasharray:none;stroke-dashoffset:0;stroke-opacity:1;stop-color:#000000;stop-opacity:1"
       d="M 61.322142,9.7436127 C 60.90676,9.9906493 60.616573,11.315511 60.562873,11.502783"
       id="path6788" />
    <path
       style="font-variation-settings:normal;opacity:1;fill:none;fill-opacity:1;stroke:#000000;stroke-width:0.7;stroke-linecap:round;stroke-linejoin:round;stroke-miterlimit:4;stroke-dasharray:none;stroke-dashoffset:0;stroke-opacity:1;stop-color:#000000;stop-opacity:1"
       d="m 76.459042,3.2593917 c -0.823309,1.1281624 -0.718582,2.6476859 -0.79158,3.9835796 -0.153054,2.8008717 0.08077,5.6816867 0.08077,8.4905437 0,0.781737 -0.413224,6.374239 0.06462,5.481054"
       id="path6790" />
    <path
       style="font-variation-settings:normal;opacity:1;fill:none;fill-opacity:1;stroke:#000000;stroke-width:0.7;stroke-linecap:round;stroke-linejoin:round;stroke-miterlimit:4;stroke-dasharray:none;stroke-dashoffset:0;stroke-opacity:1;stop-color:#000000;stop-opacity:1"
       d="m 75.748234,6.0944222 c 1.634879,-2.0630493 4.539488,-5.35373847 6.655715,-2.0208666 1.951871,3.0740249 -1.117283,7.0802984 -4.410218,7.0802984 -0.06957,0 -2.326269,-0.488095 -2.326269,-0.639696 0,-0.228999 4.225112,0.390872 4.426376,0.436157 3.213256,0.722998 5.180351,2.79465 5.00794,5.975368 -0.310994,5.737412 -9.068181,6.084689 -9.385847,2.224405"
       id="path7044" />
    <path
       style="font-variation-settings:normal;opacity:1;fill:none;fill-opacity:1;stroke:#000000;stroke-width:0.7;stroke-linecap:round;stroke-linejoin:round;stroke-miterlimit:4;stroke-dasharray:none;stroke-dashoffset:0;stroke-opacity:1;stop-color:#000000;stop-opacity:1"
       d="m 90.077403,13.450956 c -1.368703,-0.14365 -2.176717,1.416694 -2.536278,2.558795 -0.196143,0.623023 -0.294121,1.25878 -0.387712,1.904556 -0.144822,0.999275 0.04256,2.086221 1.017746,2.558798 4.972283,2.409577 5.783474,-7.843183 1.906244,-7.022149 z"
       id="path7046" />
    <path
       style="font-variation-settings:normal;opacity:1;fill:none;fill-opacity:1;stroke:#000000;stroke-width:0.7;stroke-linecap:round;stroke-linejoin:round;stroke-miterlimit:4;stroke-dasharray:none;stroke-dashoffset:0;stroke-opacity:1;stop-color:#000000;stop-opacity:1"
       d="m 94.245302,13.916192 c -0.319011,1.083654 -1.412955,6.143845 0.129241,6.963992 2.576846,1.370378 6.040247,-7.051224 4.765617,-7.051224 -0.360061,0 -0.512263,2.84398 -0.516954,3.067644 -0.07118,3.394248 0.866796,6.812367 0.145402,10.220639 -0.110691,0.522971 -1.240671,2.454556 -1.970871,2.079019 -2.632353,-1.35379 3.552343,-9.993961 3.424793,-11.180184"
       id="path7048" />
  </g>
</svg>
